%TF.GenerationSoftware,KiCad,Pcbnew,6.0.0-2.fc35*%
%TF.CreationDate,2022-02-25T18:53:22-08:00*%
%TF.ProjectId,Doorbell,446f6f72-6265-46c6-9c2e-6b696361645f,B*%
%TF.SameCoordinates,Original*%
%TF.FileFunction,Soldermask,Bot*%
%TF.FilePolarity,Negative*%
%FSLAX46Y46*%
G04 Gerber Fmt 4.6, Leading zero omitted, Abs format (unit mm)*
G04 Created by KiCad (PCBNEW 6.0.0-2.fc35) date 2022-02-25 18:53:22*
%MOMM*%
%LPD*%
G01*
G04 APERTURE LIST*
G04 Aperture macros list*
%AMRoundRect*
0 Rectangle with rounded corners*
0 $1 Rounding radius*
0 $2 $3 $4 $5 $6 $7 $8 $9 X,Y pos of 4 corners*
0 Add a 4 corners polygon primitive as box body*
4,1,4,$2,$3,$4,$5,$6,$7,$8,$9,$2,$3,0*
0 Add four circle primitives for the rounded corners*
1,1,$1+$1,$2,$3*
1,1,$1+$1,$4,$5*
1,1,$1+$1,$6,$7*
1,1,$1+$1,$8,$9*
0 Add four rect primitives between the rounded corners*
20,1,$1+$1,$2,$3,$4,$5,0*
20,1,$1+$1,$4,$5,$6,$7,0*
20,1,$1+$1,$6,$7,$8,$9,0*
20,1,$1+$1,$8,$9,$2,$3,0*%
G04 Aperture macros list end*
%ADD10R,1.800000X1.800000*%
%ADD11C,1.800000*%
%ADD12R,2.000000X2.000000*%
%ADD13C,2.000000*%
%ADD14RoundRect,0.237500X-0.237500X0.300000X-0.237500X-0.300000X0.237500X-0.300000X0.237500X0.300000X0*%
%ADD15RoundRect,0.237500X-0.287500X-0.237500X0.287500X-0.237500X0.287500X0.237500X-0.287500X0.237500X0*%
%ADD16R,2.600000X2.600000*%
%ADD17C,2.600000*%
%ADD18RoundRect,0.237500X0.237500X-0.250000X0.237500X0.250000X-0.237500X0.250000X-0.237500X-0.250000X0*%
%ADD19C,2.006600*%
%ADD20C,2.717800*%
%ADD21RoundRect,0.100000X-0.100000X0.637500X-0.100000X-0.637500X0.100000X-0.637500X0.100000X0.637500X0*%
%ADD22C,1.200000*%
%ADD23RoundRect,0.250000X0.350000X0.650000X-0.350000X0.650000X-0.350000X-0.650000X0.350000X-0.650000X0*%
%ADD24O,1.200000X1.800000*%
%ADD25R,1.980000X1.980000*%
%ADD26C,1.980000*%
%ADD27RoundRect,0.250000X-0.350000X-0.650000X0.350000X-0.650000X0.350000X0.650000X-0.350000X0.650000X0*%
%ADD28C,4.000000*%
%ADD29R,1.700000X1.700000*%
%ADD30C,1.700000*%
%ADD31C,4.200000*%
%ADD32RoundRect,0.237500X0.300000X0.237500X-0.300000X0.237500X-0.300000X-0.237500X0.300000X-0.237500X0*%
%ADD33RoundRect,0.237500X0.237500X-0.300000X0.237500X0.300000X-0.237500X0.300000X-0.237500X-0.300000X0*%
%ADD34RoundRect,0.237500X-0.300000X-0.237500X0.300000X-0.237500X0.300000X0.237500X-0.300000X0.237500X0*%
%ADD35RoundRect,0.250000X-0.412500X-0.650000X0.412500X-0.650000X0.412500X0.650000X-0.412500X0.650000X0*%
%ADD36C,1.100000*%
%ADD37RoundRect,0.250000X-0.650000X0.412500X-0.650000X-0.412500X0.650000X-0.412500X0.650000X0.412500X0*%
%ADD38RoundRect,0.250000X0.625000X-0.400000X0.625000X0.400000X-0.625000X0.400000X-0.625000X-0.400000X0*%
G04 APERTURE END LIST*
D10*
X92703623Y-82765000D03*
D11*
X92703623Y-80225000D03*
D12*
X125783623Y-79765000D03*
D13*
X125783623Y-84765000D03*
D12*
X115203623Y-82305000D03*
D13*
X115203623Y-87305000D03*
D14*
X168593623Y-105892500D03*
X168593623Y-107617500D03*
X131913623Y-78582500D03*
X131913623Y-80307500D03*
D15*
X151528623Y-76875000D03*
X153278623Y-76875000D03*
D16*
X159053623Y-120375000D03*
D17*
X154053623Y-120375000D03*
X149053623Y-120375000D03*
D18*
X178323623Y-93877500D03*
X178323623Y-92052500D03*
X180043623Y-93877500D03*
X180043623Y-92052500D03*
D11*
X103203623Y-83015000D03*
X110703623Y-80715000D03*
D19*
X196683623Y-124483000D03*
X194194423Y-124483000D03*
X191705223Y-124483000D03*
D20*
X198594623Y-117483000D03*
X189794223Y-117483000D03*
D21*
X176248623Y-84342500D03*
X176898623Y-84342500D03*
X177548623Y-84342500D03*
X178198623Y-84342500D03*
X178848623Y-84342500D03*
X179498623Y-84342500D03*
X180148623Y-84342500D03*
X180798623Y-84342500D03*
X180798623Y-90067500D03*
X180148623Y-90067500D03*
X179498623Y-90067500D03*
X178848623Y-90067500D03*
X178198623Y-90067500D03*
X177548623Y-90067500D03*
X176898623Y-90067500D03*
X176248623Y-90067500D03*
D22*
X99043623Y-117195000D03*
X93043623Y-117195000D03*
D23*
X97043623Y-114795000D03*
D24*
X95043623Y-114795000D03*
D25*
X96643623Y-109965000D03*
D26*
X96643623Y-88125000D03*
D25*
X164233623Y-120795000D03*
D26*
X186073623Y-120795000D03*
D22*
X208413623Y-87135000D03*
X202413623Y-87135000D03*
D27*
X204413623Y-89535000D03*
D24*
X206413623Y-89535000D03*
D28*
X185393623Y-88280000D03*
X104393623Y-112280000D03*
X185393623Y-112280000D03*
X104393623Y-88280000D03*
D29*
X183353623Y-107900000D03*
D30*
X185893623Y-107900000D03*
X183353623Y-105360000D03*
X185893623Y-105360000D03*
X183353623Y-102820000D03*
X185893623Y-102820000D03*
X183353623Y-100280000D03*
X185893623Y-100280000D03*
X183353623Y-97740000D03*
X185893623Y-97740000D03*
X183353623Y-95200000D03*
X185893623Y-95200000D03*
X183353623Y-92660000D03*
X185893623Y-92660000D03*
D19*
X196693623Y-89315000D03*
X194204423Y-89315000D03*
X191715223Y-89315000D03*
D20*
X198604623Y-82315000D03*
X189804223Y-82315000D03*
D11*
X135543623Y-120695000D03*
X143043623Y-117995000D03*
D13*
X193253623Y-107895000D03*
X198253623Y-107895000D03*
X193253623Y-93395000D03*
X198253623Y-93395000D03*
X195753623Y-93395000D03*
D31*
X190203623Y-100895000D03*
X201303623Y-100895000D03*
D11*
X122843623Y-120695000D03*
X130343623Y-117995000D03*
D32*
X175066123Y-95015000D03*
X173341123Y-95015000D03*
D33*
X165593623Y-93897500D03*
X165593623Y-92172500D03*
D34*
X159723623Y-100405000D03*
X161448623Y-100405000D03*
D32*
X175066123Y-100595000D03*
X173341123Y-100595000D03*
D33*
X163588623Y-107617500D03*
X163588623Y-105892500D03*
D35*
X171611123Y-98625000D03*
X174736123Y-98625000D03*
D33*
X166873623Y-107617500D03*
X166873623Y-105892500D03*
D34*
X173341123Y-96655000D03*
X175066123Y-96655000D03*
D36*
X143733623Y-106305000D03*
X145003623Y-106305000D03*
X143733623Y-105035000D03*
X145003623Y-105035000D03*
X143733623Y-103765000D03*
X145003623Y-103765000D03*
X143733623Y-102495000D03*
X145003623Y-102495000D03*
X143733623Y-101225000D03*
X145003623Y-101225000D03*
D14*
X168343624Y-92172500D03*
X168343624Y-93897500D03*
D32*
X175066123Y-104395001D03*
X173341123Y-104395001D03*
D34*
X159723623Y-103145000D03*
X161448623Y-103145000D03*
D37*
X159713623Y-92172500D03*
X159713623Y-95297500D03*
D38*
X157733623Y-82435000D03*
X157733623Y-79335000D03*
M02*
