%TF.GenerationSoftware,KiCad,Pcbnew,6.0.0-2.fc35*%
%TF.CreationDate,2022-02-25T18:53:21-08:00*%
%TF.ProjectId,Doorbell,446f6f72-6265-46c6-9c2e-6b696361645f,B*%
%TF.SameCoordinates,Original*%
%TF.FileFunction,Copper,L2,Bot*%
%TF.FilePolarity,Positive*%
%FSLAX46Y46*%
G04 Gerber Fmt 4.6, Leading zero omitted, Abs format (unit mm)*
G04 Created by KiCad (PCBNEW 6.0.0-2.fc35) date 2022-02-25 18:53:21*
%MOMM*%
%LPD*%
G01*
G04 APERTURE LIST*
G04 Aperture macros list*
%AMRoundRect*
0 Rectangle with rounded corners*
0 $1 Rounding radius*
0 $2 $3 $4 $5 $6 $7 $8 $9 X,Y pos of 4 corners*
0 Add a 4 corners polygon primitive as box body*
4,1,4,$2,$3,$4,$5,$6,$7,$8,$9,$2,$3,0*
0 Add four circle primitives for the rounded corners*
1,1,$1+$1,$2,$3*
1,1,$1+$1,$4,$5*
1,1,$1+$1,$6,$7*
1,1,$1+$1,$8,$9*
0 Add four rect primitives between the rounded corners*
20,1,$1+$1,$2,$3,$4,$5,0*
20,1,$1+$1,$4,$5,$6,$7,0*
20,1,$1+$1,$6,$7,$8,$9,0*
20,1,$1+$1,$8,$9,$2,$3,0*%
G04 Aperture macros list end*
%TA.AperFunction,ComponentPad*%
%ADD10R,1.800000X1.800000*%
%TD*%
%TA.AperFunction,ComponentPad*%
%ADD11C,1.800000*%
%TD*%
%TA.AperFunction,ComponentPad*%
%ADD12R,2.000000X2.000000*%
%TD*%
%TA.AperFunction,ComponentPad*%
%ADD13C,2.000000*%
%TD*%
%TA.AperFunction,SMDPad,CuDef*%
%ADD14RoundRect,0.237500X-0.237500X0.300000X-0.237500X-0.300000X0.237500X-0.300000X0.237500X0.300000X0*%
%TD*%
%TA.AperFunction,SMDPad,CuDef*%
%ADD15RoundRect,0.237500X-0.287500X-0.237500X0.287500X-0.237500X0.287500X0.237500X-0.287500X0.237500X0*%
%TD*%
%TA.AperFunction,ComponentPad*%
%ADD16R,2.600000X2.600000*%
%TD*%
%TA.AperFunction,ComponentPad*%
%ADD17C,2.600000*%
%TD*%
%TA.AperFunction,SMDPad,CuDef*%
%ADD18RoundRect,0.237500X0.237500X-0.250000X0.237500X0.250000X-0.237500X0.250000X-0.237500X-0.250000X0*%
%TD*%
%TA.AperFunction,ComponentPad*%
%ADD19C,2.006600*%
%TD*%
%TA.AperFunction,ComponentPad*%
%ADD20C,2.717800*%
%TD*%
%TA.AperFunction,SMDPad,CuDef*%
%ADD21RoundRect,0.100000X-0.100000X0.637500X-0.100000X-0.637500X0.100000X-0.637500X0.100000X0.637500X0*%
%TD*%
%TA.AperFunction,ComponentPad*%
%ADD22RoundRect,0.250000X0.350000X0.650000X-0.350000X0.650000X-0.350000X-0.650000X0.350000X-0.650000X0*%
%TD*%
%TA.AperFunction,ComponentPad*%
%ADD23O,1.200000X1.800000*%
%TD*%
%TA.AperFunction,ComponentPad*%
%ADD24R,1.980000X1.980000*%
%TD*%
%TA.AperFunction,ComponentPad*%
%ADD25C,1.980000*%
%TD*%
%TA.AperFunction,ComponentPad*%
%ADD26RoundRect,0.250000X-0.350000X-0.650000X0.350000X-0.650000X0.350000X0.650000X-0.350000X0.650000X0*%
%TD*%
%TA.AperFunction,ComponentPad*%
%ADD27C,4.000000*%
%TD*%
%TA.AperFunction,ComponentPad*%
%ADD28R,1.700000X1.700000*%
%TD*%
%TA.AperFunction,ComponentPad*%
%ADD29C,1.700000*%
%TD*%
%TA.AperFunction,ComponentPad*%
%ADD30C,4.200000*%
%TD*%
%TA.AperFunction,SMDPad,CuDef*%
%ADD31RoundRect,0.237500X0.300000X0.237500X-0.300000X0.237500X-0.300000X-0.237500X0.300000X-0.237500X0*%
%TD*%
%TA.AperFunction,SMDPad,CuDef*%
%ADD32RoundRect,0.237500X0.237500X-0.300000X0.237500X0.300000X-0.237500X0.300000X-0.237500X-0.300000X0*%
%TD*%
%TA.AperFunction,SMDPad,CuDef*%
%ADD33RoundRect,0.237500X-0.300000X-0.237500X0.300000X-0.237500X0.300000X0.237500X-0.300000X0.237500X0*%
%TD*%
%TA.AperFunction,SMDPad,CuDef*%
%ADD34RoundRect,0.250000X-0.412500X-0.650000X0.412500X-0.650000X0.412500X0.650000X-0.412500X0.650000X0*%
%TD*%
%TA.AperFunction,ComponentPad*%
%ADD35C,1.100000*%
%TD*%
%TA.AperFunction,SMDPad,CuDef*%
%ADD36RoundRect,0.250000X-0.650000X0.412500X-0.650000X-0.412500X0.650000X-0.412500X0.650000X0.412500X0*%
%TD*%
%TA.AperFunction,SMDPad,CuDef*%
%ADD37RoundRect,0.250000X0.625000X-0.400000X0.625000X0.400000X-0.625000X0.400000X-0.625000X-0.400000X0*%
%TD*%
%TA.AperFunction,ViaPad*%
%ADD38C,0.800000*%
%TD*%
%TA.AperFunction,Conductor*%
%ADD39C,1.000000*%
%TD*%
%TA.AperFunction,Conductor*%
%ADD40C,0.250000*%
%TD*%
%TA.AperFunction,Conductor*%
%ADD41C,2.000000*%
%TD*%
G04 APERTURE END LIST*
D10*
X92703623Y-82765000D03*
D11*
X92703623Y-80225000D03*
D12*
X125783623Y-79765000D03*
D13*
X125783623Y-84765000D03*
D12*
X115203623Y-82305000D03*
D13*
X115203623Y-87305000D03*
D14*
X168593623Y-105892500D03*
X168593623Y-107617500D03*
X131913623Y-78582500D03*
X131913623Y-80307500D03*
D15*
X151528623Y-76875000D03*
X153278623Y-76875000D03*
D16*
X159053623Y-120375000D03*
D17*
X154053623Y-120375000D03*
X149053623Y-120375000D03*
D18*
X178323623Y-93877500D03*
X178323623Y-92052500D03*
X180043623Y-93877500D03*
X180043623Y-92052500D03*
D11*
X103203623Y-83015000D03*
X110703623Y-80715000D03*
D19*
X196683623Y-124483000D03*
X194194423Y-124483000D03*
X191705223Y-124483000D03*
D20*
X198594623Y-117483000D03*
X189794223Y-117483000D03*
D21*
X176248623Y-84342500D03*
X176898623Y-84342500D03*
X177548623Y-84342500D03*
X178198623Y-84342500D03*
X178848623Y-84342500D03*
X179498623Y-84342500D03*
X180148623Y-84342500D03*
X180798623Y-84342500D03*
X180798623Y-90067500D03*
X180148623Y-90067500D03*
X179498623Y-90067500D03*
X178848623Y-90067500D03*
X178198623Y-90067500D03*
X177548623Y-90067500D03*
X176898623Y-90067500D03*
X176248623Y-90067500D03*
D22*
X97043623Y-114795000D03*
D23*
X95043623Y-114795000D03*
D24*
X96643623Y-109965000D03*
D25*
X96643623Y-88125000D03*
D24*
X164233623Y-120795000D03*
D25*
X186073623Y-120795000D03*
D26*
X204413623Y-89535000D03*
D23*
X206413623Y-89535000D03*
D27*
X185393623Y-88280000D03*
X104393623Y-112280000D03*
X185393623Y-112280000D03*
X104393623Y-88280000D03*
D28*
X183353623Y-107900000D03*
D29*
X185893623Y-107900000D03*
X183353623Y-105360000D03*
X185893623Y-105360000D03*
X183353623Y-102820000D03*
X185893623Y-102820000D03*
X183353623Y-100280000D03*
X185893623Y-100280000D03*
X183353623Y-97740000D03*
X185893623Y-97740000D03*
X183353623Y-95200000D03*
X185893623Y-95200000D03*
X183353623Y-92660000D03*
X185893623Y-92660000D03*
D19*
X196693623Y-89315000D03*
X194204423Y-89315000D03*
X191715223Y-89315000D03*
D20*
X198604623Y-82315000D03*
X189804223Y-82315000D03*
D11*
X135543623Y-120695000D03*
X143043623Y-117995000D03*
D13*
X193253623Y-107895000D03*
X198253623Y-107895000D03*
X193253623Y-93395000D03*
X198253623Y-93395000D03*
X195753623Y-93395000D03*
D30*
X190203623Y-100895000D03*
X201303623Y-100895000D03*
D11*
X122843623Y-120695000D03*
X130343623Y-117995000D03*
D31*
X175066123Y-95015000D03*
X173341123Y-95015000D03*
D32*
X165593623Y-93897500D03*
X165593623Y-92172500D03*
D33*
X159723623Y-100405000D03*
X161448623Y-100405000D03*
D31*
X175066123Y-100595000D03*
X173341123Y-100595000D03*
D32*
X163588623Y-107617500D03*
X163588623Y-105892500D03*
D34*
X171611123Y-98625000D03*
X174736123Y-98625000D03*
D32*
X166873623Y-107617500D03*
X166873623Y-105892500D03*
D33*
X173341123Y-96655000D03*
X175066123Y-96655000D03*
D35*
X143733623Y-106305000D03*
X145003623Y-106305000D03*
X143733623Y-105035000D03*
X145003623Y-105035000D03*
X143733623Y-103765000D03*
X145003623Y-103765000D03*
X143733623Y-102495000D03*
X145003623Y-102495000D03*
X143733623Y-101225000D03*
X145003623Y-101225000D03*
D14*
X168343624Y-92172500D03*
X168343624Y-93897500D03*
D31*
X175066123Y-104395001D03*
X173341123Y-104395001D03*
D33*
X159723623Y-103145000D03*
X161448623Y-103145000D03*
D36*
X159713623Y-92172500D03*
X159713623Y-95297500D03*
D37*
X157733623Y-82435000D03*
X157733623Y-79335000D03*
D38*
X112908623Y-104975000D03*
X115018623Y-103920000D03*
X108018623Y-105500000D03*
X111853623Y-103920000D03*
X111853623Y-104975000D03*
X109073623Y-104445000D03*
X116073623Y-104975000D03*
X111853623Y-106030000D03*
X112908623Y-103920000D03*
X109073623Y-105500000D03*
X110128623Y-105500000D03*
X106963623Y-105500000D03*
X115018623Y-106030000D03*
X106963623Y-104445000D03*
X112908623Y-106030000D03*
X108018623Y-104445000D03*
X113963623Y-104975000D03*
X113963623Y-103920000D03*
X115018623Y-104975000D03*
X116073623Y-106030000D03*
X110128623Y-104445000D03*
X113963623Y-106030000D03*
X116073623Y-103920000D03*
X124653623Y-96000000D03*
X124653623Y-97055000D03*
X124653623Y-98110000D03*
X124653623Y-99165000D03*
X124653623Y-100220000D03*
X124653623Y-101275000D03*
X124653623Y-102330000D03*
X124653623Y-103385000D03*
X124653623Y-104440000D03*
X124653623Y-105495000D03*
X124653623Y-106550000D03*
X119343623Y-89830000D03*
X119343623Y-90885000D03*
X119343623Y-91940000D03*
X167888623Y-85435000D03*
X205413623Y-95095000D03*
X206468623Y-95095000D03*
X204358623Y-96150000D03*
X205413623Y-96150000D03*
X206468623Y-96150000D03*
X118298623Y-91940000D03*
X118298623Y-89830000D03*
X118298623Y-88775000D03*
X118298623Y-90885000D03*
X162523623Y-90505000D03*
X119343623Y-88775000D03*
X169853623Y-110495000D03*
X108773623Y-85875000D03*
X177573623Y-112205000D03*
X179544063Y-114675000D03*
X99813623Y-103515000D03*
X189733623Y-78605000D03*
X174573623Y-83415000D03*
X197853623Y-102175000D03*
X111713623Y-99115000D03*
X163053623Y-86395000D03*
X147773623Y-86855000D03*
X172953623Y-97805000D03*
X99353623Y-102715000D03*
X190143623Y-90985000D03*
X159183623Y-85755000D03*
X97873623Y-90085000D03*
X178203623Y-85625000D03*
X103323623Y-91245000D03*
X158233623Y-103965000D03*
X161193623Y-114855000D03*
X109753623Y-85765000D03*
X172663623Y-114835000D03*
X167353623Y-86225000D03*
X103593623Y-107125000D03*
X173383623Y-109325000D03*
X172663623Y-113905000D03*
X104263623Y-91245000D03*
X190003623Y-85435000D03*
X94763623Y-108045000D03*
X147663623Y-99155000D03*
X177303623Y-88819990D03*
X98863623Y-90005000D03*
X171768623Y-114580000D03*
X172453623Y-109325000D03*
X124653623Y-94945000D03*
X158403623Y-96885000D03*
X151653623Y-90245000D03*
X113403623Y-96045000D03*
X163713623Y-87075000D03*
X93833623Y-107995000D03*
X144863623Y-79415000D03*
X205403623Y-105105000D03*
X156413623Y-96885000D03*
X110693623Y-90175000D03*
X92503623Y-96315000D03*
X112513623Y-99585000D03*
X92583623Y-95385000D03*
X147773623Y-85925000D03*
X157353623Y-96885000D03*
X91695143Y-95875000D03*
X178855193Y-110846570D03*
X148703623Y-86845000D03*
X159873623Y-113535000D03*
X111703623Y-100045000D03*
X103513623Y-106195000D03*
X102303623Y-91245000D03*
X104953623Y-97335000D03*
X168503623Y-109215000D03*
X148703623Y-79425000D03*
X190013623Y-86365000D03*
X111623623Y-85765000D03*
X113403623Y-97905000D03*
X102743623Y-106725000D03*
X94343623Y-107215000D03*
X113403623Y-96975000D03*
X190663623Y-78625000D03*
X182867623Y-86679999D03*
X179544063Y-112785000D03*
X147663623Y-95435000D03*
X149633623Y-86855000D03*
X158233623Y-103035000D03*
X178195193Y-111506570D03*
X166833623Y-85435000D03*
X190813623Y-85885000D03*
X98873623Y-103515000D03*
X154953623Y-78465000D03*
X104953623Y-96405000D03*
X162373623Y-85745000D03*
X110693623Y-85765000D03*
X171523623Y-109325000D03*
X158233623Y-104895000D03*
X160538623Y-114200000D03*
X98303623Y-89251520D03*
X105763623Y-96855000D03*
X173663623Y-98395000D03*
X157353623Y-90385000D03*
X180763623Y-87445000D03*
X161483623Y-90515000D03*
X118023623Y-97295000D03*
X148703623Y-85915000D03*
X204358623Y-95095000D03*
X149633623Y-85925000D03*
X172913623Y-98945000D03*
X163553623Y-90505000D03*
X191603623Y-78635000D03*
X179544063Y-113735000D03*
X169223623Y-109805000D03*
X147723623Y-97075000D03*
X171053623Y-97255000D03*
X169053623Y-103865000D03*
X168593623Y-104675000D03*
X164523623Y-93905000D03*
X172123623Y-96655000D03*
X166738623Y-94330000D03*
X165593623Y-95115000D03*
X169523623Y-104675000D03*
X135203623Y-78585000D03*
X135203623Y-79640000D03*
X156143623Y-93560000D03*
X157198623Y-94615000D03*
X157198623Y-93560000D03*
X158253623Y-94615000D03*
X158253623Y-93560000D03*
X163233623Y-95620000D03*
X161123623Y-96675000D03*
X161123623Y-95620000D03*
X162178623Y-96675000D03*
X162178623Y-95620000D03*
X163233623Y-96675000D03*
X134148623Y-79640000D03*
X134148623Y-77530000D03*
X134148623Y-78585000D03*
X156143623Y-94615000D03*
X188163623Y-98575000D03*
X169633623Y-93895000D03*
X135203623Y-77530000D03*
X187644782Y-107003841D03*
X187569744Y-116718879D03*
X178517563Y-116288878D03*
X170703623Y-93895000D03*
X163233623Y-102415000D03*
X161453623Y-101845000D03*
X162353623Y-99125000D03*
X161403623Y-119125000D03*
X173343623Y-103095000D03*
X172665143Y-120195000D03*
X166873623Y-104675000D03*
X170543623Y-95015000D03*
X163593623Y-104675000D03*
X162353623Y-101845000D03*
X163233623Y-103545000D03*
X162343623Y-119165000D03*
X171983623Y-95015000D03*
X166873623Y-103695000D03*
X173333623Y-105435000D03*
X171338623Y-95660000D03*
X166873623Y-102775000D03*
X163233623Y-100015000D03*
X174381465Y-119572843D03*
X173003623Y-101885000D03*
X160763623Y-118445000D03*
X136043623Y-83515000D03*
X171743623Y-93895000D03*
X161453623Y-99125000D03*
X173613623Y-120171520D03*
X139808623Y-82785000D03*
X140863623Y-82785000D03*
X138753623Y-83840000D03*
X139808623Y-83840000D03*
X140863623Y-83840000D03*
X182158623Y-81475000D03*
X181103623Y-82530000D03*
X182158623Y-82530000D03*
X110363623Y-119185000D03*
X138753623Y-82785000D03*
X111033623Y-114485000D03*
X110363623Y-113775000D03*
X181103623Y-81475000D03*
X177903623Y-79145000D03*
X114173623Y-114485000D03*
X177523623Y-104885000D03*
X178830169Y-102665000D03*
X182865326Y-90155999D03*
X188297624Y-89090325D03*
X177259657Y-106131034D03*
X179503623Y-101965000D03*
X203853623Y-123215000D03*
X154584092Y-103555000D03*
X166087565Y-123611212D03*
X156263612Y-105255000D03*
X108773623Y-80915000D03*
X104883623Y-80915000D03*
X124690623Y-83332000D03*
X109676623Y-83625000D03*
X184813623Y-119525000D03*
X195029683Y-118521145D03*
X187200612Y-106066969D03*
X181479575Y-104584008D03*
X181483623Y-96255000D03*
X196323890Y-117175197D03*
X182962328Y-119585896D03*
X179463623Y-108075000D03*
X178788671Y-108710048D03*
X179463623Y-109355000D03*
X192413962Y-118229167D03*
X181070851Y-119602227D03*
X180557946Y-96215887D03*
X180536562Y-104605659D03*
X191407646Y-118458500D03*
X180103376Y-119648341D03*
X196963612Y-116505000D03*
X182036240Y-119558200D03*
X195673623Y-117855000D03*
X183888818Y-119581049D03*
X184570118Y-102175877D03*
X95593623Y-84450000D03*
X96648623Y-85505000D03*
X96648623Y-84450000D03*
X98758623Y-84450000D03*
X95593623Y-85505000D03*
X97703623Y-85505000D03*
X95593623Y-83395000D03*
X98758623Y-85505000D03*
X97703623Y-84450000D03*
X148433623Y-104905000D03*
X156127223Y-99678520D03*
X156815143Y-99026520D03*
X147113623Y-104085000D03*
X155665623Y-98289010D03*
X165965435Y-83645000D03*
X152772942Y-84845681D03*
X154199735Y-83458142D03*
X164064223Y-83394688D03*
X154853623Y-82225000D03*
X165302475Y-82017300D03*
X152663623Y-82305000D03*
X164662424Y-82687183D03*
X151543623Y-82695000D03*
X163400123Y-84040736D03*
X92473623Y-103325000D03*
X108343572Y-100844949D03*
X97693623Y-103315000D03*
X105761469Y-100852840D03*
X96353623Y-95461500D03*
X91753623Y-90855000D03*
X173993623Y-77175000D03*
X132940623Y-83332000D03*
X127133623Y-83332000D03*
X151597878Y-79492000D03*
X149773623Y-83105000D03*
X114283623Y-80777998D03*
X176633623Y-103885000D03*
X178830669Y-95085000D03*
X161344134Y-82316500D03*
X152723623Y-103145000D03*
X157783623Y-106185000D03*
X176055623Y-86109970D03*
X171103191Y-86818004D03*
X167014398Y-123593554D03*
X205419304Y-122570681D03*
X152653623Y-116385000D03*
X178517563Y-117215381D03*
X175686222Y-119717230D03*
X160103623Y-117041980D03*
X170045247Y-118042624D03*
X166851949Y-117996674D03*
X177433623Y-86761970D03*
X171106614Y-87745000D03*
X178543669Y-88823348D03*
X181943623Y-78855000D03*
X182215623Y-87697001D03*
X171691623Y-90757669D03*
X171040816Y-90097531D03*
X170460446Y-89328278D03*
X187526243Y-76823980D03*
X167941395Y-123596677D03*
X209083623Y-121915000D03*
X181972577Y-77928450D03*
X208394260Y-121267670D03*
X168877096Y-123601535D03*
X207918603Y-120461712D03*
X169803623Y-123571875D03*
X153932592Y-102425000D03*
X156263623Y-103195000D03*
X157746177Y-99047000D03*
X151613623Y-98665000D03*
X163253623Y-79768000D03*
X172562864Y-78960210D03*
X172592219Y-78033673D03*
X163243623Y-78635000D03*
X174265005Y-84805000D03*
X171483624Y-83055000D03*
D39*
X97873623Y-90085000D02*
X98783623Y-90085000D01*
D40*
X176898623Y-89224990D02*
X177303623Y-88819990D01*
D39*
X91695143Y-95875000D02*
X92063623Y-95875000D01*
X92676634Y-96488011D02*
X102456634Y-96488011D01*
X158233623Y-103035000D02*
X158233623Y-103965000D01*
X158233623Y-104895000D02*
X158233623Y-103965000D01*
X173463623Y-98395000D02*
X172913623Y-98945000D01*
X131913623Y-80307500D02*
X131913623Y-85515000D01*
X172953623Y-97805000D02*
X173916123Y-97805000D01*
X99353623Y-103035000D02*
X98873623Y-103515000D01*
X174506123Y-98395000D02*
X174736123Y-98625000D01*
X94763623Y-108045000D02*
X94763623Y-107635000D01*
X93833623Y-107995000D02*
X93833623Y-107725000D01*
D41*
X175066123Y-100595000D02*
X175066123Y-98755000D01*
D39*
X98783623Y-90085000D02*
X98863623Y-90005000D01*
D40*
X182867623Y-86679999D02*
X182867623Y-86161000D01*
D41*
X96810419Y-112081511D02*
X99797112Y-112081511D01*
D39*
X144873623Y-79425000D02*
X144863623Y-79415000D01*
D40*
X174973622Y-85385001D02*
X174900654Y-85457969D01*
D39*
X99353623Y-102715000D02*
X99353623Y-103035000D01*
D40*
X183403623Y-85625000D02*
X190043623Y-85625000D01*
X180763623Y-87445000D02*
X180763623Y-84377500D01*
D41*
X95043623Y-113848307D02*
X96810419Y-112081511D01*
D39*
X92503623Y-95465000D02*
X92583623Y-95385000D01*
D40*
X180043623Y-93877500D02*
X189646123Y-93877500D01*
D39*
X94713623Y-107995000D02*
X94763623Y-108045000D01*
X149663623Y-78465000D02*
X148703623Y-79425000D01*
X148703623Y-79425000D02*
X144873623Y-79425000D01*
X99813623Y-103515000D02*
X102183623Y-103515000D01*
D40*
X174900654Y-85457969D02*
X169340654Y-85457969D01*
D39*
X94763623Y-107635000D02*
X94343623Y-107215000D01*
D40*
X178203623Y-85625000D02*
X176535615Y-85625000D01*
D39*
X94763623Y-108045000D02*
X102143623Y-108045000D01*
X153513623Y-95385000D02*
X153513623Y-91995000D01*
X158403623Y-96885000D02*
X157353623Y-96885000D01*
X173663623Y-98395000D02*
X173543623Y-98395000D01*
D41*
X95043623Y-114795000D02*
X95043623Y-113848307D01*
D40*
X176535615Y-85625000D02*
X176368584Y-85457969D01*
D39*
X158233623Y-103035000D02*
X159613623Y-103035000D01*
D41*
X175066123Y-100595000D02*
X175066123Y-104395001D01*
X159760624Y-105442039D02*
X159760624Y-108067999D01*
D39*
X93833623Y-107725000D02*
X94343623Y-107215000D01*
X99813623Y-103515000D02*
X98873623Y-103515000D01*
D41*
X159723623Y-105405038D02*
X159760624Y-105442039D01*
D39*
X97873623Y-89681520D02*
X98303623Y-89251520D01*
X92583623Y-95385000D02*
X92185143Y-95385000D01*
D40*
X180763623Y-84377500D02*
X180798623Y-84342500D01*
D39*
X173663623Y-98395000D02*
X173463623Y-98395000D01*
D41*
X159723623Y-103145000D02*
X159723623Y-105405038D01*
D39*
X159213585Y-104895000D02*
X159723623Y-105405038D01*
X98863623Y-90005000D02*
X98863623Y-89811520D01*
X157353623Y-96885000D02*
X156413623Y-96885000D01*
X92503623Y-96315000D02*
X92676634Y-96488011D01*
D41*
X175066123Y-95015000D02*
X175066123Y-96655000D01*
D39*
X151323623Y-78465000D02*
X149663623Y-78465000D01*
X156413623Y-96885000D02*
X155013623Y-96885000D01*
D40*
X174973622Y-83814999D02*
X174973622Y-85385001D01*
D39*
X198594623Y-117483000D02*
X198594623Y-114486000D01*
D40*
X176368584Y-85457969D02*
X174900654Y-85457969D01*
X180148623Y-84342500D02*
X180798623Y-84342500D01*
D39*
X172953623Y-97805000D02*
X172953623Y-98905000D01*
X158903623Y-103965000D02*
X159723623Y-103145000D01*
X143733623Y-105035000D02*
X141783623Y-105035000D01*
X99353623Y-102715000D02*
X99353623Y-103055000D01*
X97873623Y-90085000D02*
X97873623Y-89681520D01*
X175066123Y-99817500D02*
X175066123Y-100595000D01*
D41*
X175066123Y-96742500D02*
X175066123Y-98495000D01*
X159723623Y-100405000D02*
X159723623Y-103145000D01*
D39*
X173663623Y-98395000D02*
X174506123Y-98395000D01*
D40*
X151528623Y-76875000D02*
X151528623Y-78260000D01*
D39*
X155013623Y-96885000D02*
X153513623Y-95385000D01*
X99353623Y-103055000D02*
X99813623Y-103515000D01*
X98863623Y-90005000D02*
X102103623Y-90005000D01*
D40*
X169340654Y-85457969D02*
X169133623Y-85665000D01*
D39*
X174416123Y-98945000D02*
X174736123Y-98625000D01*
X174706123Y-98395000D02*
X174936123Y-98625000D01*
X92503623Y-96315000D02*
X92503623Y-95465000D01*
D41*
X175066123Y-104395001D02*
X175066123Y-107952500D01*
D39*
X92063623Y-95875000D02*
X92503623Y-96315000D01*
D41*
X99797112Y-112081511D02*
X103183623Y-108695000D01*
D39*
X173916123Y-97805000D02*
X174736123Y-98625000D01*
D40*
X174573623Y-83415000D02*
X174973622Y-83814999D01*
D39*
X172953623Y-98905000D02*
X172913623Y-98945000D01*
X173543623Y-98395000D02*
X172953623Y-97805000D01*
X158233623Y-104895000D02*
X159213585Y-104895000D01*
D41*
X175066123Y-96655000D02*
X175066123Y-96742500D01*
D39*
X172913623Y-98945000D02*
X174416123Y-98945000D01*
X143733623Y-103765000D02*
X141783623Y-103765000D01*
X98863623Y-89811520D02*
X98303623Y-89251520D01*
X158233623Y-103965000D02*
X158903623Y-103965000D01*
X92185143Y-95385000D02*
X91695143Y-95875000D01*
X159613623Y-103035000D02*
X159723623Y-103145000D01*
D40*
X151528623Y-78260000D02*
X151323623Y-78465000D01*
D39*
X93833623Y-107995000D02*
X94713623Y-107995000D01*
X189794223Y-117483000D02*
X189794223Y-114725600D01*
D40*
X182867623Y-86161000D02*
X183403623Y-85625000D01*
D39*
X154953623Y-78465000D02*
X151323623Y-78465000D01*
D40*
X176898623Y-90067500D02*
X176898623Y-89224990D01*
D39*
X169523623Y-104675000D02*
X169523623Y-104335000D01*
X168593623Y-104675000D02*
X169523623Y-104675000D01*
X165593623Y-93897500D02*
X165593623Y-95115000D01*
X168593623Y-105892500D02*
X168593623Y-104675000D01*
X165641123Y-93945000D02*
X165593623Y-93897500D01*
X172123623Y-96655000D02*
X171523623Y-97255000D01*
X168593623Y-104325000D02*
X169053623Y-103865000D01*
X171611123Y-98625000D02*
X171611123Y-97167500D01*
X171053623Y-97255000D02*
X171053623Y-97702000D01*
X171611123Y-98625000D02*
X171611123Y-104507500D01*
X171611123Y-104507500D02*
X170226123Y-105892500D01*
X165593623Y-94960000D02*
X164531123Y-93897500D01*
X170226123Y-105892500D02*
X168593623Y-105892500D01*
X165593623Y-93897500D02*
X164531123Y-93897500D01*
X171523623Y-97255000D02*
X171053623Y-97255000D01*
X165593623Y-93897500D02*
X166306123Y-93897500D01*
X173341123Y-96655000D02*
X172123623Y-96655000D01*
X164531123Y-93897500D02*
X164523623Y-93905000D01*
X171611123Y-97167500D02*
X172123623Y-96655000D01*
X165593623Y-95115000D02*
X165593623Y-94960000D01*
X171033623Y-98625000D02*
X171611123Y-98625000D01*
X166306123Y-93897500D02*
X166738623Y-94330000D01*
X165596123Y-93895000D02*
X165593623Y-93897500D01*
X171053623Y-97702000D02*
X170660623Y-98095000D01*
X166738623Y-94330000D02*
X171033623Y-98625000D01*
X169523623Y-104335000D02*
X169053623Y-103865000D01*
X168593623Y-104675000D02*
X168593623Y-104325000D01*
X171053623Y-98605000D02*
X171033623Y-98625000D01*
X173343623Y-102225000D02*
X173003623Y-101885000D01*
D40*
X187852123Y-98886522D02*
X187852123Y-106796500D01*
D39*
X163233623Y-103545000D02*
X163233623Y-104315000D01*
X161448623Y-99130000D02*
X161453623Y-99125000D01*
X161448623Y-103145000D02*
X161448623Y-101850000D01*
X161448623Y-101850000D02*
X161453623Y-101845000D01*
X173341123Y-105427500D02*
X173333623Y-105435000D01*
X162343623Y-119165000D02*
X161443623Y-119165000D01*
X160763623Y-118485000D02*
X160763623Y-118445000D01*
X173341123Y-103092500D02*
X173343623Y-103095000D01*
D40*
X137533623Y-82025000D02*
X137533623Y-79815000D01*
D39*
X171983623Y-95015000D02*
X171338623Y-95660000D01*
X173341123Y-104395001D02*
X173341123Y-103097500D01*
X166983623Y-120195000D02*
X172665143Y-120195000D01*
D40*
X187852123Y-106796500D02*
X187644782Y-107003841D01*
D39*
X168343624Y-93897500D02*
X169631123Y-93897500D01*
X171743623Y-93895000D02*
X173353623Y-93895000D01*
X162353623Y-99125000D02*
X162353623Y-99135000D01*
X162353623Y-102135000D02*
X162353623Y-101845000D01*
X173341123Y-104395001D02*
X173341123Y-105427500D01*
X171983623Y-95015000D02*
X170543623Y-95015000D01*
X173353623Y-93895000D02*
X175943623Y-91305000D01*
X162353623Y-99135000D02*
X163233623Y-100015000D01*
X163203623Y-99125000D02*
X163233623Y-99155000D01*
X162663623Y-101845000D02*
X163233623Y-102415000D01*
X171188623Y-95660000D02*
X170543623Y-95015000D01*
D40*
X181113623Y-116695000D02*
X178923685Y-116695000D01*
D39*
X162353623Y-99125000D02*
X163203623Y-99125000D01*
X131913623Y-78582500D02*
X134146123Y-78582500D01*
D40*
X187545865Y-116695000D02*
X187569744Y-116718879D01*
D39*
X165953623Y-119165000D02*
X166983623Y-120195000D01*
X173343623Y-103095000D02*
X173343623Y-102225000D01*
X173613623Y-120171520D02*
X173782788Y-120171520D01*
X163233623Y-103545000D02*
X163233623Y-102415000D01*
X126966123Y-78582500D02*
X125783623Y-79765000D01*
X166873623Y-104675000D02*
X166873623Y-103695000D01*
X173341123Y-100595000D02*
X173341123Y-103092500D01*
X162633623Y-102415000D02*
X162353623Y-102135000D01*
X173341123Y-95015000D02*
X171983623Y-95015000D01*
X172665143Y-120195000D02*
X173590143Y-120195000D01*
X171338623Y-95660000D02*
X171188623Y-95660000D01*
D40*
X188163623Y-98575000D02*
X187852112Y-98886511D01*
D39*
X166873623Y-105892500D02*
X166873623Y-104675000D01*
X169631123Y-93897500D02*
X169633623Y-93895000D01*
X163588623Y-104680000D02*
X163593623Y-104675000D01*
X173590143Y-120195000D02*
X173613623Y-120171520D01*
X161453623Y-99125000D02*
X162353623Y-99125000D01*
D40*
X136043623Y-83515000D02*
X137533623Y-82025000D01*
D39*
X166873623Y-103695000D02*
X166873623Y-102775000D01*
X173341123Y-100595000D02*
X173341123Y-101547500D01*
D40*
X178923685Y-116695000D02*
X178517563Y-116288878D01*
D39*
X173341123Y-101547500D02*
X173003623Y-101885000D01*
X161403623Y-119125000D02*
X160763623Y-118485000D01*
X175943623Y-91305000D02*
X175943623Y-90725000D01*
X163593623Y-104675000D02*
X163593623Y-103905000D01*
D40*
X181113623Y-116695000D02*
X187545865Y-116695000D01*
D39*
X171743623Y-93895000D02*
X170703623Y-93895000D01*
X162343623Y-119165000D02*
X165953623Y-119165000D01*
X169633623Y-93895000D02*
X170703623Y-93895000D01*
X134146123Y-78582500D02*
X134148623Y-78585000D01*
X173341123Y-103097500D02*
X173343623Y-103095000D01*
D40*
X187852112Y-98886511D02*
X187852123Y-98886522D01*
D39*
X163233623Y-99155000D02*
X163233623Y-100015000D01*
X173782788Y-120171520D02*
X174381465Y-119572843D01*
X161443623Y-119165000D02*
X161403623Y-119125000D01*
X163588623Y-105892500D02*
X163588623Y-104680000D01*
X131913623Y-78582500D02*
X126966123Y-78582500D01*
X163233623Y-102415000D02*
X162633623Y-102415000D01*
X161453623Y-101845000D02*
X162353623Y-101845000D01*
X161448623Y-100405000D02*
X161448623Y-99130000D01*
X163593623Y-103905000D02*
X163233623Y-103545000D01*
X162353623Y-101845000D02*
X162663623Y-101845000D01*
X163233623Y-104315000D02*
X163593623Y-104675000D01*
X140863623Y-83315000D02*
X146733623Y-83315000D01*
D40*
X178323623Y-93877500D02*
X178323623Y-93390000D01*
D39*
X146733623Y-83315000D02*
X149059603Y-80989020D01*
D40*
X178728623Y-92985000D02*
X180547623Y-92985000D01*
X140863623Y-82785000D02*
X140863623Y-83315000D01*
X140863623Y-83315000D02*
X140863623Y-83840000D01*
X111033623Y-114485000D02*
X114173623Y-114485000D01*
X177548623Y-90067500D02*
X177548623Y-93102500D01*
D39*
X180617643Y-80989020D02*
X181103623Y-81475000D01*
X149059603Y-80989020D02*
X180617643Y-80989020D01*
D40*
X177903623Y-79145000D02*
X177903623Y-80605000D01*
X177548623Y-93102500D02*
X178323623Y-93877500D01*
X178323623Y-93390000D02*
X178728623Y-92985000D01*
X181124612Y-90976831D02*
X181563623Y-90537820D01*
X180547623Y-92985000D02*
X181124612Y-92408011D01*
X181563623Y-90537820D02*
X181563623Y-82571000D01*
X110363623Y-113775000D02*
X110363623Y-119185000D01*
X177903623Y-80605000D02*
X178093623Y-80795000D01*
X181124612Y-92408011D02*
X181124612Y-90976831D01*
X182867624Y-87610999D02*
X182867624Y-90153701D01*
X186474584Y-86027999D02*
X184450624Y-86027999D01*
X184450624Y-86027999D02*
X182867624Y-87610999D01*
X188297624Y-87851039D02*
X186474584Y-86027999D01*
X188297624Y-89090325D02*
X188297624Y-87851039D01*
X177523623Y-104885000D02*
X177523623Y-103971546D01*
X177523623Y-103971546D02*
X178830169Y-102665000D01*
X182867624Y-90153701D02*
X182865326Y-90155999D01*
X179503623Y-103887068D02*
X177259657Y-106131034D01*
X179503623Y-101965000D02*
X179503623Y-103887068D01*
X154584092Y-103555000D02*
X154584092Y-103575480D01*
X166087565Y-123611212D02*
X167831259Y-125354906D01*
X154584092Y-103575480D02*
X156263612Y-105255000D01*
X167831259Y-125354906D02*
X189058745Y-125354906D01*
X189058745Y-125354906D02*
X191208651Y-123205000D01*
X191208651Y-123205000D02*
X203843623Y-123205000D01*
X203843623Y-123205000D02*
X203853623Y-123215000D01*
X104883623Y-80915000D02*
X108773623Y-80915000D01*
X153278623Y-76875000D02*
X155273623Y-76875000D01*
X155273623Y-76875000D02*
X157733623Y-79335000D01*
X124397623Y-83625000D02*
X124690623Y-83332000D01*
X109676623Y-83625000D02*
X124397623Y-83625000D01*
X184598623Y-101525000D02*
X186156396Y-101525000D01*
X184813623Y-119525000D02*
X186559386Y-119525000D01*
X186559386Y-119525000D02*
X188010399Y-120976011D01*
X184598623Y-101525000D02*
X183353623Y-100280000D01*
X192574817Y-120976011D02*
X195029683Y-118521145D01*
X186156396Y-101525000D02*
X187200612Y-102569216D01*
X188010399Y-120976011D02*
X192574817Y-120976011D01*
X187200612Y-102569216D02*
X187200612Y-106066969D01*
X181479575Y-96259048D02*
X181483623Y-96255000D01*
X181479575Y-104584008D02*
X181479575Y-96259048D01*
X188322317Y-120222971D02*
X186596315Y-118496969D01*
X186596315Y-118496969D02*
X184051255Y-118496969D01*
X196323890Y-117175197D02*
X194921774Y-117175197D01*
X191874000Y-120222971D02*
X188322317Y-120222971D01*
X184051255Y-118496969D02*
X182962328Y-119585896D01*
X194921774Y-117175197D02*
X191874000Y-120222971D01*
D39*
X178818671Y-108710048D02*
X179463623Y-109355000D01*
X179463623Y-109355000D02*
X179463623Y-108075000D01*
X182543575Y-108710048D02*
X183353623Y-107900000D01*
X179463623Y-108075000D02*
X179423719Y-108075000D01*
X178788671Y-108710048D02*
X182543575Y-108710048D01*
X178788671Y-108710048D02*
X178818671Y-108710048D01*
X179423719Y-108075000D02*
X178788671Y-108710048D01*
D40*
X181070851Y-119602227D02*
X182929149Y-117743929D01*
X191338692Y-119469931D02*
X192183623Y-118625000D01*
X186915032Y-117743929D02*
X188641034Y-119469931D01*
X182929149Y-117743929D02*
X186915032Y-117743929D01*
X188641034Y-119469931D02*
X191338692Y-119469931D01*
X180536562Y-96237271D02*
X180557946Y-96215887D01*
X180536562Y-104605659D02*
X180536562Y-96237271D01*
X188802034Y-119093411D02*
X190772735Y-119093411D01*
X182384308Y-117367409D02*
X187076032Y-117367409D01*
X187076032Y-117367409D02*
X188802034Y-119093411D01*
X180103376Y-119648341D02*
X182384308Y-117367409D01*
X190772735Y-119093411D02*
X191407646Y-118458500D01*
X191718040Y-119846451D02*
X188485075Y-119846451D01*
X183473991Y-118120449D02*
X182036240Y-119558200D01*
X195059491Y-116505000D02*
X191718040Y-119846451D01*
X196963612Y-116505000D02*
X195059491Y-116505000D01*
X186759072Y-118120449D02*
X183473991Y-118120449D01*
X188485075Y-119846451D02*
X186759072Y-118120449D01*
X183888818Y-119528428D02*
X183888818Y-119581049D01*
X194774451Y-117855000D02*
X192029960Y-120599491D01*
X195673623Y-117855000D02*
X194774451Y-117855000D01*
X188166358Y-120599491D02*
X186440355Y-118873489D01*
X184543757Y-118873489D02*
X183888818Y-119528428D01*
X192029960Y-120599491D02*
X188166358Y-120599491D01*
X186440355Y-118873489D02*
X184543757Y-118873489D01*
X184570118Y-102175877D02*
X184570118Y-104036495D01*
X184570118Y-104036495D02*
X185893623Y-105360000D01*
D39*
X186073623Y-120795000D02*
X184457112Y-122411511D01*
X156090134Y-122411511D02*
X154053623Y-120375000D01*
X184457112Y-122411511D02*
X156090134Y-122411511D01*
D40*
X153660103Y-99678520D02*
X156127223Y-99678520D01*
X148433623Y-104905000D02*
X153660103Y-99678520D01*
X148720451Y-104085000D02*
X147113623Y-104085000D01*
X153778931Y-99026520D02*
X148720451Y-104085000D01*
X156815143Y-99026520D02*
X153778931Y-99026520D01*
X148839280Y-103432999D02*
X145335624Y-103432999D01*
X153983269Y-98289010D02*
X148839280Y-103432999D01*
X145335624Y-103432999D02*
X145003623Y-103765000D01*
X155665623Y-98289010D02*
X153983269Y-98289010D01*
X164767835Y-84842600D02*
X165965435Y-83645000D01*
X164767835Y-84842600D02*
X152776023Y-84842600D01*
X152776023Y-84842600D02*
X152772942Y-84845681D01*
X164058771Y-83389236D02*
X164064223Y-83394688D01*
X154831153Y-84089560D02*
X154199735Y-83458142D01*
X162257735Y-83389236D02*
X161557410Y-84089560D01*
X162257735Y-83389236D02*
X164058771Y-83389236D01*
X161557410Y-84089560D02*
X154831153Y-84089560D01*
X155965143Y-83336520D02*
X154853623Y-82225000D01*
X165301195Y-82016020D02*
X165302475Y-82017300D01*
X162565991Y-82016020D02*
X165301195Y-82016020D01*
X162565991Y-82016020D02*
X161245491Y-83336520D01*
X161245491Y-83336520D02*
X155965143Y-83336520D01*
X161401450Y-83713040D02*
X155376010Y-83713040D01*
X164628785Y-82720822D02*
X164662424Y-82687183D01*
X153968661Y-82305000D02*
X152663623Y-82305000D01*
X155376010Y-83713040D02*
X153968661Y-82305691D01*
X153968661Y-82305691D02*
X153968661Y-82305000D01*
X162393669Y-82720822D02*
X161401450Y-83713040D01*
X162393669Y-82720822D02*
X164628785Y-82720822D01*
X161713369Y-84466080D02*
X153314703Y-84466080D01*
X162124513Y-84054937D02*
X163385922Y-84054937D01*
X162124513Y-84054937D02*
X161713369Y-84466080D01*
X153314703Y-84466080D02*
X151543623Y-82695000D01*
X163385922Y-84054937D02*
X163400123Y-84040736D01*
D39*
X149053623Y-120375000D02*
X147207112Y-122221511D01*
X134570134Y-122221511D02*
X130343623Y-117995000D01*
X147207112Y-122221511D02*
X134570134Y-122221511D01*
X159053623Y-120375000D02*
X157127112Y-118448489D01*
X144790134Y-118448489D02*
X142543623Y-120695000D01*
X142543623Y-120695000D02*
X135543623Y-120695000D01*
X157127112Y-118448489D02*
X144790134Y-118448489D01*
D40*
X97693623Y-103315000D02*
X92483623Y-103315000D01*
X92483623Y-103315000D02*
X92473623Y-103325000D01*
X105769360Y-100844949D02*
X105761469Y-100852840D01*
X108343572Y-100844949D02*
X105769360Y-100844949D01*
X96353623Y-95461500D02*
X96353623Y-95455000D01*
X96353623Y-95455000D02*
X91753623Y-90855000D01*
X152342888Y-80237010D02*
X151597878Y-79492000D01*
X126883623Y-83265000D02*
X124396621Y-80777998D01*
X124396621Y-80777998D02*
X114283623Y-80777998D01*
X148386622Y-84492001D02*
X134100624Y-84492001D01*
X158566565Y-80237010D02*
X152342888Y-80237010D01*
X134100624Y-84492001D02*
X132940623Y-83332000D01*
X149773623Y-83105000D02*
X148386622Y-84492001D01*
X161628575Y-77175000D02*
X158566565Y-80237010D01*
X173993623Y-77175000D02*
X161628575Y-77175000D01*
X178848623Y-91527500D02*
X178323623Y-92052500D01*
X178848623Y-90067500D02*
X178848623Y-91527500D01*
X179498623Y-91507500D02*
X180043623Y-92052500D01*
X179498623Y-90067500D02*
X179498623Y-91507500D01*
X176633623Y-97775000D02*
X176633623Y-97282046D01*
X176633623Y-97282046D02*
X178830669Y-95085000D01*
X176633623Y-103885000D02*
X176633623Y-97775000D01*
X157733623Y-82435000D02*
X161225634Y-82435000D01*
X161225634Y-82435000D02*
X161344134Y-82316500D01*
X155763623Y-106185000D02*
X155753623Y-106175000D01*
X155753623Y-106175000D02*
X152723623Y-103145000D01*
X157783623Y-106185000D02*
X155763623Y-106185000D01*
X176055623Y-86109970D02*
X171811225Y-86109970D01*
X171811225Y-86109970D02*
X171103191Y-86818004D01*
X168398740Y-124977896D02*
X167014398Y-123593554D01*
X185243928Y-124977896D02*
X188903275Y-124977896D01*
X203583757Y-122563489D02*
X205412112Y-122563489D01*
X191076171Y-122805000D02*
X191099651Y-122828480D01*
X205412112Y-122563489D02*
X205419304Y-122570681D01*
X185243928Y-124977896D02*
X168398740Y-124977896D01*
X198823623Y-122828480D02*
X203318766Y-122828480D01*
X188903275Y-124977896D02*
X191076171Y-122805000D01*
X203318766Y-122828480D02*
X203583757Y-122563489D01*
X191099651Y-122828480D02*
X198823623Y-122828480D01*
X173132246Y-116375000D02*
X152663623Y-116375000D01*
X173972627Y-117215381D02*
X173132246Y-116375000D01*
X178517563Y-117215381D02*
X173972627Y-117215381D01*
X152663623Y-116375000D02*
X152653623Y-116385000D01*
X173010972Y-117041980D02*
X175686222Y-119717230D01*
X160103623Y-117041980D02*
X173010972Y-117041980D01*
X170045247Y-118042624D02*
X167075999Y-118042624D01*
X171106614Y-87745000D02*
X172089644Y-86761970D01*
X172089644Y-86761970D02*
X177433623Y-86761970D01*
X182215623Y-87697001D02*
X182215623Y-83933000D01*
X183113623Y-83035000D02*
X183113623Y-80025000D01*
X182215623Y-83933000D02*
X183113623Y-83035000D01*
X178543669Y-88823348D02*
X178198623Y-89168394D01*
X178198623Y-89168394D02*
X178198623Y-90067500D01*
X183113623Y-80025000D02*
X181943623Y-78855000D01*
X173715617Y-88167990D02*
X179756613Y-88167990D01*
X171691623Y-90757669D02*
X171691623Y-90191984D01*
X180148623Y-88560000D02*
X180148623Y-90067500D01*
X171691623Y-90191984D02*
X173715617Y-88167990D01*
X179756613Y-88167990D02*
X180148623Y-88560000D01*
X179912775Y-87790980D02*
X180798623Y-88676828D01*
X171040816Y-90097531D02*
X173347367Y-87790980D01*
X173347367Y-87790980D02*
X179912775Y-87790980D01*
X180798623Y-88676828D02*
X180798623Y-90067500D01*
X178104653Y-87413970D02*
X179498623Y-86020000D01*
X170460446Y-89328278D02*
X172374754Y-87413970D01*
X179498623Y-86020000D02*
X179498623Y-84342500D01*
X172374754Y-87413970D02*
X178104653Y-87413970D01*
X209079453Y-121919170D02*
X209083623Y-121915000D01*
X183077047Y-76823980D02*
X187526243Y-76823980D01*
X203186286Y-122428480D02*
X203695596Y-121919170D01*
X190920211Y-122428480D02*
X203186286Y-122428480D01*
X167941395Y-123596677D02*
X168945604Y-124600886D01*
X203695596Y-121919170D02*
X209079453Y-121919170D01*
X181972577Y-77928450D02*
X183077047Y-76823980D01*
X188747805Y-124600886D02*
X190920211Y-122428480D01*
X168945604Y-124600886D02*
X188747805Y-124600886D01*
X190764252Y-122051960D02*
X198893623Y-122051960D01*
X198893623Y-122051960D02*
X203030326Y-122051960D01*
X203814616Y-121267670D02*
X208394260Y-121267670D01*
X169499437Y-124223876D02*
X184932989Y-124223876D01*
X184932989Y-124223876D02*
X188592335Y-124223876D01*
X203030326Y-122051960D02*
X203285455Y-121796831D01*
X203285455Y-121796831D02*
X203814616Y-121267670D01*
X168877096Y-123601535D02*
X169499437Y-124223876D01*
X188592335Y-124223876D02*
X189792417Y-123023794D01*
X189792417Y-123023794D02*
X190764252Y-122051960D01*
X204088094Y-120461712D02*
X207918603Y-120461712D01*
X188436375Y-123847356D02*
X190608293Y-121675440D01*
X188353623Y-123847356D02*
X188436375Y-123847356D01*
X203304215Y-121245591D02*
X204088094Y-120461712D01*
X198893623Y-121675440D02*
X202874366Y-121675440D01*
X202874366Y-121675440D02*
X203304215Y-121245591D01*
X170079104Y-123847356D02*
X188353623Y-123847356D01*
X190608293Y-121675440D02*
X198893623Y-121675440D01*
X169803623Y-123571875D02*
X170079104Y-123847356D01*
X155493623Y-102425000D02*
X153932592Y-102425000D01*
X156263623Y-103195000D02*
X155493623Y-102425000D01*
X157746177Y-99047000D02*
X157746177Y-99036177D01*
X156347499Y-97637499D02*
X152641124Y-97637499D01*
X157746177Y-99036177D02*
X156347499Y-97637499D01*
X152641124Y-97637499D02*
X151613623Y-98665000D01*
X172562864Y-78960210D02*
X164061413Y-78960210D01*
X164061413Y-78960210D02*
X163253623Y-79768000D01*
X163844950Y-78033673D02*
X163243623Y-78635000D01*
X172592219Y-78033673D02*
X163844950Y-78033673D01*
X173233624Y-84805000D02*
X171483624Y-83055000D01*
X174265005Y-84805000D02*
X173233624Y-84805000D01*
%TA.AperFunction,Conductor*%
G36*
X200212840Y-76418962D02*
G01*
X200253519Y-76453476D01*
X200265802Y-76468443D01*
X200297633Y-76538696D01*
X200299623Y-76562967D01*
X200299623Y-78145310D01*
X200297510Y-78166763D01*
X200297510Y-78170606D01*
X200294647Y-78185000D01*
X200299623Y-78210017D01*
X200314360Y-78284106D01*
X200370499Y-78368124D01*
X200382701Y-78376277D01*
X200442316Y-78416111D01*
X200442318Y-78416112D01*
X200454517Y-78424263D01*
X200468908Y-78427125D01*
X200468909Y-78427126D01*
X200539229Y-78441113D01*
X200553623Y-78443976D01*
X200568017Y-78441113D01*
X200571860Y-78441113D01*
X200593313Y-78439000D01*
X209585656Y-78439000D01*
X209660156Y-78458962D01*
X209680179Y-78472821D01*
X209692845Y-78483215D01*
X209699389Y-78488586D01*
X209720037Y-78509234D01*
X209735800Y-78528441D01*
X209767632Y-78598692D01*
X209769623Y-78622967D01*
X209769623Y-115247033D01*
X209749661Y-115321533D01*
X209735806Y-115341552D01*
X209720040Y-115360763D01*
X209699389Y-115381413D01*
X209570534Y-115487162D01*
X209546247Y-115503390D01*
X209399249Y-115581962D01*
X209372264Y-115593139D01*
X209235180Y-115634723D01*
X209212760Y-115641524D01*
X209184113Y-115647222D01*
X209010903Y-115664282D01*
X208996298Y-115665000D01*
X199001153Y-115665000D01*
X198967509Y-115661152D01*
X198891294Y-115643487D01*
X198880911Y-115641842D01*
X198629153Y-115620037D01*
X198618630Y-115619872D01*
X198366305Y-115633758D01*
X198355878Y-115635075D01*
X198219827Y-115662137D01*
X198190759Y-115665000D01*
X190200753Y-115665000D01*
X190167109Y-115661152D01*
X190090894Y-115643487D01*
X190080511Y-115641842D01*
X189828753Y-115620037D01*
X189818230Y-115619872D01*
X189565905Y-115633758D01*
X189555478Y-115635075D01*
X189419427Y-115662137D01*
X189390359Y-115665000D01*
X178738974Y-115665000D01*
X178702675Y-115660511D01*
X178608907Y-115636958D01*
X178600196Y-115634770D01*
X178513736Y-115634317D01*
X178450763Y-115633987D01*
X178441784Y-115633940D01*
X178329557Y-115660883D01*
X178294776Y-115665000D01*
X110892123Y-115665000D01*
X110817623Y-115645038D01*
X110763085Y-115590500D01*
X110743123Y-115516000D01*
X110743123Y-115278602D01*
X110763085Y-115204102D01*
X110817623Y-115149564D01*
X110892123Y-115129602D01*
X110929929Y-115134478D01*
X110935445Y-115135925D01*
X110944145Y-115138207D01*
X110953121Y-115138348D01*
X111093562Y-115140554D01*
X111102539Y-115140695D01*
X111256955Y-115105329D01*
X111398478Y-115034151D01*
X111518937Y-114931269D01*
X111524179Y-114923974D01*
X111530260Y-114917361D01*
X111531812Y-114918788D01*
X111582015Y-114877699D01*
X111643327Y-114864500D01*
X113563454Y-114864500D01*
X113637954Y-114884462D01*
X113672892Y-114913365D01*
X113674531Y-114915805D01*
X113681174Y-114921849D01*
X113681176Y-114921852D01*
X113697937Y-114937103D01*
X113791699Y-115022419D01*
X113799589Y-115026703D01*
X113820738Y-115038186D01*
X113930916Y-115098008D01*
X114014625Y-115119969D01*
X114075461Y-115135929D01*
X114075463Y-115135929D01*
X114084145Y-115138207D01*
X114093121Y-115138348D01*
X114233562Y-115140554D01*
X114242539Y-115140695D01*
X114396955Y-115105329D01*
X114538478Y-115034151D01*
X114593021Y-114987567D01*
X114652106Y-114937104D01*
X114652109Y-114937100D01*
X114658937Y-114931269D01*
X114699991Y-114874137D01*
X114746135Y-114809921D01*
X114746136Y-114809918D01*
X114751378Y-114802624D01*
X114754729Y-114794289D01*
X114807116Y-114663973D01*
X114807117Y-114663970D01*
X114810465Y-114655641D01*
X114832785Y-114498807D01*
X114832930Y-114485000D01*
X114813899Y-114327733D01*
X114757903Y-114179546D01*
X114685583Y-114074319D01*
X114673265Y-114056396D01*
X114673263Y-114056394D01*
X114668176Y-114048992D01*
X114655765Y-114037934D01*
X114556606Y-113949587D01*
X114556603Y-113949585D01*
X114549898Y-113943611D01*
X114498929Y-113916624D01*
X114417832Y-113873685D01*
X114417829Y-113873684D01*
X114409897Y-113869484D01*
X114285906Y-113838340D01*
X114264967Y-113833080D01*
X114256256Y-113830892D01*
X114169796Y-113830439D01*
X114106823Y-113830109D01*
X114097844Y-113830062D01*
X114089115Y-113832158D01*
X114089112Y-113832158D01*
X114012552Y-113850539D01*
X113943807Y-113867043D01*
X113803037Y-113939700D01*
X113683662Y-114043838D01*
X113678498Y-114051185D01*
X113673982Y-114056201D01*
X113609297Y-114098208D01*
X113563254Y-114105500D01*
X111643832Y-114105500D01*
X111569332Y-114085538D01*
X111532670Y-114055530D01*
X111528176Y-114048992D01*
X111464398Y-113992168D01*
X111416606Y-113949587D01*
X111416603Y-113949585D01*
X111409898Y-113943611D01*
X111358929Y-113916624D01*
X111277832Y-113873685D01*
X111277829Y-113873684D01*
X111269897Y-113869484D01*
X111126300Y-113833415D01*
X111058908Y-113795905D01*
X111019300Y-113729724D01*
X111014678Y-113706805D01*
X111004978Y-113626651D01*
X111003899Y-113617733D01*
X110947903Y-113469546D01*
X110858176Y-113338992D01*
X110845764Y-113327933D01*
X110746606Y-113239587D01*
X110746603Y-113239585D01*
X110739898Y-113233611D01*
X110724728Y-113225579D01*
X110607832Y-113163685D01*
X110607829Y-113163684D01*
X110599897Y-113159484D01*
X110446256Y-113120892D01*
X110359796Y-113120439D01*
X110296823Y-113120109D01*
X110287844Y-113120062D01*
X110279115Y-113122158D01*
X110279112Y-113122158D01*
X110204784Y-113140003D01*
X110133807Y-113157043D01*
X109993037Y-113229700D01*
X109873662Y-113333838D01*
X109782573Y-113463444D01*
X109779310Y-113471813D01*
X109776919Y-113477947D01*
X109725029Y-113611037D01*
X109704352Y-113768096D01*
X109705338Y-113777027D01*
X109716010Y-113873685D01*
X109721736Y-113925553D01*
X109776176Y-114074319D01*
X109781187Y-114081776D01*
X109846886Y-114179546D01*
X109864531Y-114205805D01*
X109935401Y-114270291D01*
X109977069Y-114335195D01*
X109984123Y-114380497D01*
X109984123Y-115516000D01*
X109964161Y-115590500D01*
X109909623Y-115645038D01*
X109835123Y-115665000D01*
X102430948Y-115665000D01*
X102416343Y-115664282D01*
X102243133Y-115647222D01*
X102214486Y-115641524D01*
X102192066Y-115634723D01*
X102054982Y-115593139D01*
X102027997Y-115581962D01*
X101880999Y-115503390D01*
X101856712Y-115487163D01*
X101727860Y-115381417D01*
X101707206Y-115360763D01*
X101601459Y-115231909D01*
X101585233Y-115207624D01*
X101583351Y-115204102D01*
X101506660Y-115060625D01*
X101495483Y-115033640D01*
X101447099Y-114874137D01*
X101441401Y-114845490D01*
X101424341Y-114672280D01*
X101423623Y-114657675D01*
X101423623Y-112280000D01*
X102134286Y-112280000D01*
X102153615Y-112574903D01*
X102211271Y-112864759D01*
X102306268Y-113144611D01*
X102436980Y-113409668D01*
X102439684Y-113413715D01*
X102439687Y-113413720D01*
X102482602Y-113477947D01*
X102601170Y-113655397D01*
X102796030Y-113877593D01*
X102799704Y-113880815D01*
X102984661Y-114043017D01*
X103018226Y-114072453D01*
X103263954Y-114236643D01*
X103529012Y-114367355D01*
X103808864Y-114462352D01*
X103813637Y-114463301D01*
X103813643Y-114463303D01*
X104093938Y-114519057D01*
X104093941Y-114519057D01*
X104098720Y-114520008D01*
X104103581Y-114520327D01*
X104103584Y-114520327D01*
X104388756Y-114539018D01*
X104393623Y-114539337D01*
X104398490Y-114539018D01*
X104683662Y-114520327D01*
X104683665Y-114520327D01*
X104688526Y-114520008D01*
X104693305Y-114519057D01*
X104693308Y-114519057D01*
X104973603Y-114463303D01*
X104973609Y-114463301D01*
X104978382Y-114462352D01*
X105258234Y-114367355D01*
X105523292Y-114236643D01*
X105769020Y-114072453D01*
X105802586Y-114043017D01*
X105987542Y-113880815D01*
X105991216Y-113877593D01*
X106186076Y-113655397D01*
X106304644Y-113477947D01*
X106347559Y-113413720D01*
X106347562Y-113413715D01*
X106350266Y-113409668D01*
X106480978Y-113144611D01*
X106575975Y-112864759D01*
X106633631Y-112574903D01*
X106652960Y-112280000D01*
X183134286Y-112280000D01*
X183153615Y-112574903D01*
X183211271Y-112864759D01*
X183306268Y-113144611D01*
X183436980Y-113409668D01*
X183439684Y-113413715D01*
X183439687Y-113413720D01*
X183482602Y-113477947D01*
X183601170Y-113655397D01*
X183796030Y-113877593D01*
X183799704Y-113880815D01*
X183984661Y-114043017D01*
X184018226Y-114072453D01*
X184263954Y-114236643D01*
X184529012Y-114367355D01*
X184808864Y-114462352D01*
X184813637Y-114463301D01*
X184813643Y-114463303D01*
X185093938Y-114519057D01*
X185093941Y-114519057D01*
X185098720Y-114520008D01*
X185103581Y-114520327D01*
X185103584Y-114520327D01*
X185388756Y-114539018D01*
X185393623Y-114539337D01*
X185398490Y-114539018D01*
X185683662Y-114520327D01*
X185683665Y-114520327D01*
X185688526Y-114520008D01*
X185693305Y-114519057D01*
X185693308Y-114519057D01*
X185973603Y-114463303D01*
X185973609Y-114463301D01*
X185978382Y-114462352D01*
X186258234Y-114367355D01*
X186523292Y-114236643D01*
X186769020Y-114072453D01*
X186802586Y-114043017D01*
X186987542Y-113880815D01*
X186991216Y-113877593D01*
X187186076Y-113655397D01*
X187304644Y-113477947D01*
X187347559Y-113413720D01*
X187347562Y-113413715D01*
X187350266Y-113409668D01*
X187480978Y-113144611D01*
X187575975Y-112864759D01*
X187633631Y-112574903D01*
X187652960Y-112280000D01*
X187633631Y-111985097D01*
X187575975Y-111695241D01*
X187480978Y-111415389D01*
X187350266Y-111150332D01*
X187186076Y-110904603D01*
X186991216Y-110682407D01*
X186769020Y-110487547D01*
X186523292Y-110323357D01*
X186258234Y-110192645D01*
X185978382Y-110097648D01*
X185973609Y-110096699D01*
X185973603Y-110096697D01*
X185693308Y-110040943D01*
X185693305Y-110040943D01*
X185688526Y-110039992D01*
X185683665Y-110039673D01*
X185683662Y-110039673D01*
X185398490Y-110020982D01*
X185393623Y-110020663D01*
X185388756Y-110020982D01*
X185103584Y-110039673D01*
X185103581Y-110039673D01*
X185098720Y-110039992D01*
X185093941Y-110040943D01*
X185093938Y-110040943D01*
X184813643Y-110096697D01*
X184813637Y-110096699D01*
X184808864Y-110097648D01*
X184529012Y-110192645D01*
X184263955Y-110323357D01*
X184259908Y-110326061D01*
X184259903Y-110326064D01*
X184069044Y-110453592D01*
X184018226Y-110487547D01*
X183796030Y-110682407D01*
X183601170Y-110904603D01*
X183436980Y-111150332D01*
X183306268Y-111415389D01*
X183211271Y-111695241D01*
X183153615Y-111985097D01*
X183134286Y-112280000D01*
X106652960Y-112280000D01*
X106633631Y-111985097D01*
X106575975Y-111695241D01*
X106480978Y-111415389D01*
X106350266Y-111150332D01*
X106186076Y-110904603D01*
X105991216Y-110682407D01*
X105769020Y-110487547D01*
X105523292Y-110323357D01*
X105258234Y-110192645D01*
X104978382Y-110097648D01*
X104973609Y-110096699D01*
X104973603Y-110096697D01*
X104693308Y-110040943D01*
X104693305Y-110040943D01*
X104688526Y-110039992D01*
X104683665Y-110039673D01*
X104683662Y-110039673D01*
X104398490Y-110020982D01*
X104393623Y-110020663D01*
X104388756Y-110020982D01*
X104103584Y-110039673D01*
X104103581Y-110039673D01*
X104098720Y-110039992D01*
X104093941Y-110040943D01*
X104093938Y-110040943D01*
X103813643Y-110096697D01*
X103813637Y-110096699D01*
X103808864Y-110097648D01*
X103529012Y-110192645D01*
X103263955Y-110323357D01*
X103259908Y-110326061D01*
X103259903Y-110326064D01*
X103069044Y-110453592D01*
X103018226Y-110487547D01*
X102796030Y-110682407D01*
X102601170Y-110904603D01*
X102436980Y-111150332D01*
X102306268Y-111415389D01*
X102211271Y-111695241D01*
X102153615Y-111985097D01*
X102134286Y-112280000D01*
X101423623Y-112280000D01*
X101423623Y-108100175D01*
X162635219Y-108100175D01*
X162635825Y-108103907D01*
X162675977Y-108224259D01*
X162683278Y-108239843D01*
X162764658Y-108371352D01*
X162775340Y-108384831D01*
X162884797Y-108494097D01*
X162898294Y-108504756D01*
X163029954Y-108585912D01*
X163045535Y-108593178D01*
X163095005Y-108609586D01*
X163110993Y-108610523D01*
X163113041Y-108607411D01*
X163113623Y-108603809D01*
X163113623Y-108596136D01*
X164063623Y-108596136D01*
X164067768Y-108611607D01*
X164071301Y-108612553D01*
X164075023Y-108611949D01*
X164132892Y-108592642D01*
X164148461Y-108585349D01*
X164279975Y-108503965D01*
X164293454Y-108493283D01*
X164402720Y-108383826D01*
X164413379Y-108370329D01*
X164494536Y-108238668D01*
X164501799Y-108223092D01*
X164538940Y-108111116D01*
X164539581Y-108100175D01*
X165920219Y-108100175D01*
X165920825Y-108103907D01*
X165960977Y-108224259D01*
X165968278Y-108239843D01*
X166049658Y-108371352D01*
X166060340Y-108384831D01*
X166169797Y-108494097D01*
X166183294Y-108504756D01*
X166314954Y-108585912D01*
X166330535Y-108593178D01*
X166380005Y-108609586D01*
X166395993Y-108610523D01*
X166398041Y-108607411D01*
X166398623Y-108603809D01*
X166398623Y-108596136D01*
X167348623Y-108596136D01*
X167352768Y-108611607D01*
X167356301Y-108612553D01*
X167360023Y-108611949D01*
X167417892Y-108592642D01*
X167433461Y-108585349D01*
X167564975Y-108503965D01*
X167578459Y-108493279D01*
X167628181Y-108443470D01*
X167694942Y-108404848D01*
X167772070Y-108404781D01*
X167838898Y-108443287D01*
X167889793Y-108494093D01*
X167903294Y-108504756D01*
X168034954Y-108585912D01*
X168050535Y-108593178D01*
X168100005Y-108609586D01*
X168115993Y-108610523D01*
X168118041Y-108607411D01*
X168118623Y-108603809D01*
X168118623Y-108596136D01*
X169068623Y-108596136D01*
X169072768Y-108611607D01*
X169076301Y-108612553D01*
X169080023Y-108611949D01*
X169137892Y-108592642D01*
X169153461Y-108585349D01*
X169284975Y-108503965D01*
X169298454Y-108493283D01*
X169407720Y-108383826D01*
X169418379Y-108370329D01*
X169499536Y-108238668D01*
X169506799Y-108223092D01*
X169543940Y-108111116D01*
X169544876Y-108095130D01*
X169541765Y-108093082D01*
X169538159Y-108092500D01*
X169088239Y-108092500D01*
X169072768Y-108096645D01*
X169068623Y-108112116D01*
X169068623Y-108596136D01*
X168118623Y-108596136D01*
X168118623Y-108112116D01*
X168114478Y-108096645D01*
X168099007Y-108092500D01*
X167368239Y-108092500D01*
X167352768Y-108096645D01*
X167348623Y-108112116D01*
X167348623Y-108596136D01*
X166398623Y-108596136D01*
X166398623Y-108112116D01*
X166394478Y-108096645D01*
X166379007Y-108092500D01*
X165936635Y-108092500D01*
X165921164Y-108096645D01*
X165920219Y-108100175D01*
X164539581Y-108100175D01*
X164539876Y-108095130D01*
X164536765Y-108093082D01*
X164533159Y-108092500D01*
X164083239Y-108092500D01*
X164067768Y-108096645D01*
X164063623Y-108112116D01*
X164063623Y-108596136D01*
X163113623Y-108596136D01*
X163113623Y-108112116D01*
X163109478Y-108096645D01*
X163094007Y-108092500D01*
X162651635Y-108092500D01*
X162636164Y-108096645D01*
X162635219Y-108100175D01*
X101423623Y-108100175D01*
X101423623Y-100845936D01*
X105102198Y-100845936D01*
X105103184Y-100854867D01*
X105113927Y-100952169D01*
X105119582Y-101003393D01*
X105122669Y-101011828D01*
X105122669Y-101011829D01*
X105150680Y-101088372D01*
X105174022Y-101152159D01*
X105181020Y-101162573D01*
X105257301Y-101276091D01*
X105262377Y-101283645D01*
X105269018Y-101289688D01*
X105269020Y-101289690D01*
X105285784Y-101304944D01*
X105379545Y-101390259D01*
X105387435Y-101394543D01*
X105406691Y-101404998D01*
X105518762Y-101465848D01*
X105554917Y-101475333D01*
X105663307Y-101503769D01*
X105663309Y-101503769D01*
X105671991Y-101506047D01*
X105680967Y-101506188D01*
X105821408Y-101508394D01*
X105830385Y-101508535D01*
X105984801Y-101473169D01*
X106126324Y-101401991D01*
X106204828Y-101334942D01*
X106239952Y-101304944D01*
X106239955Y-101304940D01*
X106246783Y-101299109D01*
X106252025Y-101291815D01*
X106252027Y-101291812D01*
X106255844Y-101286500D01*
X106315529Y-101237649D01*
X106376843Y-101224449D01*
X107733403Y-101224449D01*
X107807903Y-101244411D01*
X107842841Y-101273314D01*
X107844480Y-101275754D01*
X107851123Y-101281798D01*
X107851125Y-101281801D01*
X107882184Y-101310062D01*
X107961648Y-101382368D01*
X107969538Y-101386652D01*
X107984071Y-101394543D01*
X108100865Y-101457957D01*
X108158850Y-101473169D01*
X108245410Y-101495878D01*
X108245412Y-101495878D01*
X108254094Y-101498156D01*
X108263070Y-101498297D01*
X108403511Y-101500503D01*
X108412488Y-101500644D01*
X108566904Y-101465278D01*
X108708427Y-101394100D01*
X108806823Y-101310062D01*
X108822055Y-101297053D01*
X108822058Y-101297049D01*
X108828886Y-101291218D01*
X108853830Y-101256505D01*
X108916084Y-101169870D01*
X108916085Y-101169867D01*
X108921327Y-101162573D01*
X108924678Y-101154238D01*
X108977065Y-101023922D01*
X108977066Y-101023919D01*
X108980414Y-101015590D01*
X109002734Y-100858756D01*
X109002879Y-100844949D01*
X108983848Y-100687682D01*
X108927852Y-100539495D01*
X108857052Y-100436480D01*
X108843214Y-100416345D01*
X108843212Y-100416343D01*
X108838125Y-100408941D01*
X108804106Y-100378631D01*
X108726555Y-100309536D01*
X108726552Y-100309534D01*
X108719847Y-100303560D01*
X108674950Y-100279788D01*
X108587781Y-100233634D01*
X108587778Y-100233633D01*
X108579846Y-100229433D01*
X108426205Y-100190841D01*
X108339745Y-100190388D01*
X108276772Y-100190058D01*
X108267793Y-100190011D01*
X108259064Y-100192107D01*
X108259061Y-100192107D01*
X108182501Y-100210488D01*
X108113756Y-100226992D01*
X107972986Y-100299649D01*
X107853611Y-100403787D01*
X107848447Y-100411134D01*
X107843931Y-100416150D01*
X107779246Y-100458157D01*
X107733203Y-100465449D01*
X106364721Y-100465449D01*
X106290221Y-100445487D01*
X106257064Y-100418349D01*
X106256022Y-100416832D01*
X106163294Y-100334215D01*
X106144452Y-100317427D01*
X106144449Y-100317425D01*
X106137744Y-100311451D01*
X106129806Y-100307248D01*
X106005678Y-100241525D01*
X106005675Y-100241524D01*
X105997743Y-100237324D01*
X105844102Y-100198732D01*
X105757642Y-100198279D01*
X105694669Y-100197949D01*
X105685690Y-100197902D01*
X105676961Y-100199998D01*
X105676958Y-100199998D01*
X105610560Y-100215939D01*
X105531653Y-100234883D01*
X105516004Y-100242960D01*
X105421906Y-100291528D01*
X105390883Y-100307540D01*
X105271508Y-100411678D01*
X105180419Y-100541284D01*
X105177156Y-100549653D01*
X105137928Y-100650269D01*
X105122875Y-100688877D01*
X105121703Y-100697783D01*
X105121702Y-100697785D01*
X105112174Y-100770158D01*
X105102198Y-100845936D01*
X101423623Y-100845936D01*
X101423623Y-91694870D01*
X164642370Y-91694870D01*
X164645481Y-91696918D01*
X164649087Y-91697500D01*
X165099007Y-91697500D01*
X165114478Y-91693355D01*
X165118623Y-91677884D01*
X166068623Y-91677884D01*
X166072768Y-91693355D01*
X166088239Y-91697500D01*
X166530611Y-91697500D01*
X166540427Y-91694870D01*
X167392371Y-91694870D01*
X167395482Y-91696918D01*
X167399088Y-91697500D01*
X167849008Y-91697500D01*
X167864479Y-91693355D01*
X167868624Y-91677884D01*
X168818624Y-91677884D01*
X168822769Y-91693355D01*
X168838240Y-91697500D01*
X169280612Y-91697500D01*
X169296083Y-91693355D01*
X169297028Y-91689825D01*
X169296422Y-91686093D01*
X169256270Y-91565741D01*
X169248969Y-91550157D01*
X169167589Y-91418648D01*
X169156907Y-91405169D01*
X169047450Y-91295903D01*
X169033953Y-91285244D01*
X168902293Y-91204088D01*
X168886712Y-91196822D01*
X168837242Y-91180414D01*
X168821254Y-91179477D01*
X168819206Y-91182589D01*
X168818624Y-91186191D01*
X168818624Y-91677884D01*
X167868624Y-91677884D01*
X167868624Y-91193864D01*
X167864479Y-91178393D01*
X167860946Y-91177447D01*
X167857224Y-91178051D01*
X167799355Y-91197358D01*
X167783786Y-91204651D01*
X167652272Y-91286035D01*
X167638793Y-91296717D01*
X167529527Y-91406174D01*
X167518868Y-91419671D01*
X167437711Y-91551332D01*
X167430448Y-91566908D01*
X167393307Y-91678884D01*
X167392371Y-91694870D01*
X166540427Y-91694870D01*
X166546082Y-91693355D01*
X166547027Y-91689825D01*
X166546421Y-91686093D01*
X166506269Y-91565741D01*
X166498968Y-91550157D01*
X166417588Y-91418648D01*
X166406906Y-91405169D01*
X166297449Y-91295903D01*
X166283952Y-91285244D01*
X166152292Y-91204088D01*
X166136711Y-91196822D01*
X166087241Y-91180414D01*
X166071253Y-91179477D01*
X166069205Y-91182589D01*
X166068623Y-91186191D01*
X166068623Y-91677884D01*
X165118623Y-91677884D01*
X165118623Y-91193864D01*
X165114478Y-91178393D01*
X165110945Y-91177447D01*
X165107223Y-91178051D01*
X165049354Y-91197358D01*
X165033785Y-91204651D01*
X164902271Y-91286035D01*
X164888792Y-91296717D01*
X164779526Y-91406174D01*
X164768867Y-91419671D01*
X164687710Y-91551332D01*
X164680447Y-91566908D01*
X164643306Y-91678884D01*
X164642370Y-91694870D01*
X101423623Y-91694870D01*
X101423623Y-91652986D01*
X158319481Y-91652986D01*
X158322028Y-91668799D01*
X158331745Y-91672500D01*
X159194007Y-91672500D01*
X159209478Y-91668355D01*
X159213623Y-91652884D01*
X160213623Y-91652884D01*
X160217768Y-91668355D01*
X160233239Y-91672500D01*
X161090098Y-91672500D01*
X161105569Y-91668355D01*
X161108247Y-91658359D01*
X161103613Y-91613691D01*
X161100192Y-91597850D01*
X161050163Y-91447898D01*
X161042868Y-91432323D01*
X160959946Y-91298323D01*
X160949273Y-91284856D01*
X160837749Y-91173527D01*
X160824253Y-91162868D01*
X160690112Y-91080183D01*
X160674530Y-91072917D01*
X160524470Y-91023144D01*
X160508659Y-91019754D01*
X160417245Y-91010388D01*
X160409652Y-91010000D01*
X160233239Y-91010000D01*
X160217768Y-91014145D01*
X160213623Y-91029616D01*
X160213623Y-91652884D01*
X159213623Y-91652884D01*
X159213623Y-91029617D01*
X159209478Y-91014146D01*
X159194007Y-91010001D01*
X159017634Y-91010001D01*
X159009969Y-91010397D01*
X158917315Y-91020010D01*
X158901471Y-91023432D01*
X158751521Y-91073460D01*
X158735946Y-91080755D01*
X158601946Y-91163677D01*
X158588479Y-91174350D01*
X158477150Y-91285874D01*
X158466491Y-91299370D01*
X158383806Y-91433511D01*
X158376540Y-91449093D01*
X158326767Y-91599153D01*
X158323377Y-91614964D01*
X158319481Y-91652986D01*
X101423623Y-91652986D01*
X101423623Y-88280000D01*
X102134286Y-88280000D01*
X102134605Y-88284867D01*
X102150875Y-88533093D01*
X102153615Y-88574903D01*
X102154566Y-88579682D01*
X102154566Y-88579685D01*
X102209273Y-88854713D01*
X102211271Y-88864759D01*
X102306268Y-89144611D01*
X102436980Y-89409668D01*
X102439684Y-89413715D01*
X102439687Y-89413720D01*
X102535147Y-89556586D01*
X102601170Y-89655397D01*
X102796030Y-89877593D01*
X102799704Y-89880815D01*
X102914497Y-89981485D01*
X103018226Y-90072453D01*
X103263954Y-90236643D01*
X103529012Y-90367355D01*
X103808864Y-90462352D01*
X103813637Y-90463301D01*
X103813643Y-90463303D01*
X104093938Y-90519057D01*
X104093941Y-90519057D01*
X104098720Y-90520008D01*
X104103581Y-90520327D01*
X104103584Y-90520327D01*
X104388756Y-90539018D01*
X104393623Y-90539337D01*
X104398490Y-90539018D01*
X104683662Y-90520327D01*
X104683665Y-90520327D01*
X104688526Y-90520008D01*
X104693305Y-90519057D01*
X104693308Y-90519057D01*
X104973603Y-90463303D01*
X104973609Y-90463301D01*
X104978382Y-90462352D01*
X105258234Y-90367355D01*
X105523292Y-90236643D01*
X105769020Y-90072453D01*
X105872750Y-89981485D01*
X105987542Y-89880815D01*
X105991216Y-89877593D01*
X106186076Y-89655397D01*
X106252099Y-89556586D01*
X106347559Y-89413720D01*
X106347562Y-89413715D01*
X106350266Y-89409668D01*
X106480978Y-89144611D01*
X106575975Y-88864759D01*
X106577974Y-88854713D01*
X106616242Y-88662324D01*
X114559235Y-88662324D01*
X114568014Y-88668014D01*
X114777997Y-88748199D01*
X114789687Y-88751595D01*
X115019419Y-88798334D01*
X115031517Y-88799777D01*
X115265785Y-88808368D01*
X115277974Y-88807814D01*
X115510491Y-88778027D01*
X115522414Y-88775493D01*
X115746963Y-88708125D01*
X115758305Y-88703680D01*
X115832567Y-88667300D01*
X115844638Y-88656770D01*
X115843993Y-88653482D01*
X115841476Y-88649960D01*
X115217494Y-88025978D01*
X115203623Y-88017970D01*
X115189752Y-88025978D01*
X114567196Y-88648534D01*
X114559235Y-88662324D01*
X106616242Y-88662324D01*
X106632680Y-88579685D01*
X106632680Y-88579682D01*
X106633631Y-88574903D01*
X106636372Y-88533093D01*
X106652641Y-88284867D01*
X106652960Y-88280000D01*
X106642922Y-88126856D01*
X106633950Y-87989961D01*
X106633950Y-87989958D01*
X106633631Y-87985097D01*
X106631009Y-87971913D01*
X106576926Y-87700020D01*
X106576924Y-87700014D01*
X106575975Y-87695241D01*
X106480978Y-87415389D01*
X106411413Y-87274325D01*
X113699283Y-87274325D01*
X113712778Y-87508374D01*
X113714473Y-87520435D01*
X113766015Y-87749143D01*
X113769655Y-87760757D01*
X113840567Y-87935394D01*
X113850229Y-87948169D01*
X113850839Y-87948093D01*
X113858509Y-87943007D01*
X114482645Y-87318871D01*
X114490653Y-87305000D01*
X115916593Y-87305000D01*
X115924601Y-87318871D01*
X116543467Y-87937737D01*
X116557338Y-87945745D01*
X116560358Y-87944002D01*
X116562736Y-87940687D01*
X116600361Y-87864556D01*
X116604845Y-87853232D01*
X116672995Y-87628924D01*
X116675570Y-87617011D01*
X116706449Y-87382457D01*
X116707064Y-87374570D01*
X116708667Y-87308957D01*
X116708439Y-87301051D01*
X116689054Y-87065263D01*
X116687064Y-87053242D01*
X116629955Y-86825882D01*
X116626023Y-86814331D01*
X116565774Y-86675768D01*
X116555803Y-86663232D01*
X116554247Y-86663465D01*
X116548038Y-86667692D01*
X115924601Y-87291129D01*
X115916593Y-87305000D01*
X114490653Y-87305000D01*
X114482645Y-87291129D01*
X113863813Y-86672297D01*
X113849942Y-86664289D01*
X113847750Y-86665554D01*
X113844425Y-86670312D01*
X113793632Y-86779735D01*
X113789427Y-86791164D01*
X113726774Y-87017079D01*
X113724493Y-87029042D01*
X113699581Y-87262148D01*
X113699283Y-87274325D01*
X106411413Y-87274325D01*
X106350266Y-87150332D01*
X106328211Y-87117323D01*
X106220031Y-86955421D01*
X106186076Y-86904603D01*
X105991216Y-86682407D01*
X105879029Y-86584022D01*
X105772685Y-86490761D01*
X105772684Y-86490760D01*
X105769020Y-86487547D01*
X105523292Y-86323357D01*
X105258234Y-86192645D01*
X104978382Y-86097648D01*
X104973609Y-86096699D01*
X104973603Y-86096697D01*
X104693308Y-86040943D01*
X104693305Y-86040943D01*
X104688526Y-86039992D01*
X104683665Y-86039673D01*
X104683662Y-86039673D01*
X104398490Y-86020982D01*
X104393623Y-86020663D01*
X104388756Y-86020982D01*
X104103584Y-86039673D01*
X104103581Y-86039673D01*
X104098720Y-86039992D01*
X104093941Y-86040943D01*
X104093938Y-86040943D01*
X103813643Y-86096697D01*
X103813637Y-86096699D01*
X103808864Y-86097648D01*
X103529012Y-86192645D01*
X103263955Y-86323357D01*
X103259908Y-86326061D01*
X103259903Y-86326064D01*
X103154681Y-86396371D01*
X103018226Y-86487547D01*
X103014562Y-86490760D01*
X103014561Y-86490761D01*
X102908217Y-86584022D01*
X102796030Y-86682407D01*
X102601170Y-86904603D01*
X102567215Y-86955421D01*
X102459036Y-87117323D01*
X102436980Y-87150332D01*
X102306268Y-87415389D01*
X102211271Y-87695241D01*
X102210322Y-87700014D01*
X102210320Y-87700020D01*
X102156237Y-87971913D01*
X102153615Y-87985097D01*
X102153296Y-87989958D01*
X102153296Y-87989961D01*
X102144324Y-88126856D01*
X102134286Y-88280000D01*
X101423623Y-88280000D01*
X101423623Y-85952492D01*
X114562050Y-85952492D01*
X114562980Y-85956689D01*
X114564522Y-85958792D01*
X115189752Y-86584022D01*
X115203623Y-86592030D01*
X115217494Y-86584022D01*
X115679192Y-86122324D01*
X125139235Y-86122324D01*
X125148014Y-86128014D01*
X125357997Y-86208199D01*
X125369687Y-86211595D01*
X125599419Y-86258334D01*
X125611517Y-86259777D01*
X125845785Y-86268368D01*
X125857974Y-86267814D01*
X126090491Y-86238027D01*
X126102414Y-86235493D01*
X126326963Y-86168125D01*
X126338305Y-86163680D01*
X126412567Y-86127300D01*
X126424638Y-86116770D01*
X126423993Y-86113482D01*
X126421476Y-86109960D01*
X125797494Y-85485978D01*
X125783623Y-85477970D01*
X125769752Y-85485978D01*
X125147196Y-86108534D01*
X125139235Y-86122324D01*
X115679192Y-86122324D01*
X115838167Y-85963349D01*
X115846175Y-85949478D01*
X115843550Y-85944931D01*
X115842857Y-85944410D01*
X115825973Y-85935089D01*
X115814845Y-85930088D01*
X115593869Y-85851835D01*
X115582086Y-85848722D01*
X115351293Y-85807612D01*
X115339152Y-85806464D01*
X115104740Y-85803600D01*
X115092592Y-85804449D01*
X114860847Y-85839911D01*
X114849004Y-85842733D01*
X114626161Y-85915569D01*
X114614940Y-85920286D01*
X114573858Y-85941672D01*
X114562050Y-85952492D01*
X101423623Y-85952492D01*
X101423623Y-85882325D01*
X101424341Y-85867720D01*
X101441401Y-85694510D01*
X101447099Y-85665863D01*
X101495483Y-85506360D01*
X101506661Y-85479374D01*
X101585234Y-85332374D01*
X101601460Y-85308089D01*
X101620694Y-85284653D01*
X101707207Y-85179236D01*
X101727860Y-85158583D01*
X101738974Y-85149462D01*
X101856714Y-85052836D01*
X101880999Y-85036610D01*
X101940974Y-85004553D01*
X102027998Y-84958037D01*
X102054982Y-84946861D01*
X102214487Y-84898476D01*
X102243133Y-84892778D01*
X102416343Y-84875718D01*
X102430948Y-84875000D01*
X124151554Y-84875000D01*
X124226054Y-84894962D01*
X124280592Y-84949500D01*
X124296909Y-84991243D01*
X124346015Y-85209143D01*
X124349655Y-85220757D01*
X124420567Y-85395394D01*
X124430229Y-85408169D01*
X124430839Y-85408093D01*
X124438509Y-85403007D01*
X124966516Y-84875000D01*
X126600730Y-84875000D01*
X127123467Y-85397737D01*
X127137338Y-85405745D01*
X127140358Y-85404002D01*
X127142736Y-85400687D01*
X127180361Y-85324556D01*
X127184845Y-85313232D01*
X127252995Y-85088924D01*
X127255570Y-85077010D01*
X127265109Y-85004553D01*
X127294624Y-84933295D01*
X127355813Y-84886342D01*
X127412834Y-84875000D01*
X148362362Y-84875000D01*
X148362362Y-84876044D01*
X148364641Y-84875491D01*
X148368498Y-84876321D01*
X148379659Y-84875000D01*
X148383401Y-84875000D01*
X148386200Y-84875132D01*
X148388444Y-84875000D01*
X151985632Y-84875000D01*
X152060132Y-84894962D01*
X152114670Y-84949500D01*
X152130236Y-84988813D01*
X152131055Y-84996234D01*
X152185495Y-85145000D01*
X152190506Y-85152457D01*
X152237785Y-85222815D01*
X152273850Y-85276486D01*
X152280491Y-85282529D01*
X152280493Y-85282531D01*
X152335270Y-85332374D01*
X152391018Y-85383100D01*
X152398908Y-85387384D01*
X152432725Y-85405745D01*
X152530235Y-85458689D01*
X152603730Y-85477970D01*
X152674780Y-85496610D01*
X152674782Y-85496610D01*
X152683464Y-85498888D01*
X152692440Y-85499029D01*
X152832881Y-85501235D01*
X152841858Y-85501376D01*
X152996274Y-85466010D01*
X153137797Y-85394832D01*
X153258256Y-85291950D01*
X153263497Y-85284656D01*
X153263500Y-85284653D01*
X153263862Y-85284149D01*
X153264271Y-85283814D01*
X153269579Y-85278042D01*
X153270401Y-85278797D01*
X153323548Y-85235299D01*
X153384860Y-85222100D01*
X164711466Y-85222100D01*
X164728192Y-85223880D01*
X164737667Y-85224327D01*
X164749711Y-85226920D01*
X164781708Y-85223133D01*
X164787104Y-85222815D01*
X164787087Y-85222606D01*
X164793209Y-85222100D01*
X164799359Y-85222100D01*
X164805424Y-85221090D01*
X164805429Y-85221090D01*
X164817876Y-85219018D01*
X164824826Y-85218029D01*
X164842553Y-85215931D01*
X164862943Y-85213518D01*
X164862944Y-85213518D01*
X164875176Y-85212070D01*
X164883428Y-85208107D01*
X164892461Y-85206604D01*
X164937103Y-85182517D01*
X164943343Y-85179337D01*
X164989067Y-85157381D01*
X164993343Y-85153786D01*
X164995616Y-85151513D01*
X164997122Y-85150132D01*
X165003649Y-85146610D01*
X165039922Y-85107370D01*
X165043976Y-85103153D01*
X165228488Y-84918641D01*
X165295283Y-84880077D01*
X165333847Y-84875000D01*
X168816298Y-84875000D01*
X168830903Y-84875718D01*
X169004113Y-84892778D01*
X169032759Y-84898476D01*
X169192264Y-84946861D01*
X169219248Y-84958037D01*
X169306273Y-85004553D01*
X169366247Y-85036610D01*
X169390532Y-85052836D01*
X169508272Y-85149462D01*
X169519386Y-85158583D01*
X169540039Y-85179236D01*
X169626553Y-85284653D01*
X169645786Y-85308089D01*
X169662012Y-85332374D01*
X169740585Y-85479374D01*
X169751763Y-85506360D01*
X169800147Y-85665863D01*
X169805845Y-85694510D01*
X169822905Y-85867720D01*
X169823623Y-85882325D01*
X169823623Y-89142935D01*
X169820938Y-89164195D01*
X169821852Y-89164315D01*
X169801175Y-89321374D01*
X169818559Y-89478831D01*
X169820194Y-89483298D01*
X169823623Y-89512935D01*
X169823623Y-91637675D01*
X169822905Y-91652280D01*
X169805845Y-91825490D01*
X169800147Y-91854136D01*
X169776306Y-91932733D01*
X169751763Y-92013640D01*
X169740586Y-92040625D01*
X169689460Y-92136275D01*
X169662013Y-92187624D01*
X169645786Y-92211911D01*
X169540040Y-92340763D01*
X169519385Y-92361417D01*
X169390533Y-92467162D01*
X169380745Y-92473703D01*
X169375926Y-92478216D01*
X169206306Y-92568880D01*
X169018713Y-92625785D01*
X168823623Y-92645000D01*
X148523623Y-92645000D01*
X148523623Y-99137675D01*
X148522905Y-99152280D01*
X148505845Y-99325490D01*
X148500147Y-99354137D01*
X148451763Y-99513640D01*
X148440585Y-99540626D01*
X148362013Y-99687624D01*
X148345786Y-99711911D01*
X148240040Y-99840763D01*
X148219387Y-99861416D01*
X148107680Y-99953092D01*
X148090534Y-99967163D01*
X148066249Y-99983389D01*
X147919249Y-100061962D01*
X147892264Y-100073139D01*
X147854431Y-100084616D01*
X147732760Y-100121524D01*
X147704113Y-100127222D01*
X147530903Y-100144282D01*
X147516298Y-100145000D01*
X142623623Y-100145000D01*
X142623623Y-104167893D01*
X142622981Y-104167893D01*
X142623623Y-104177691D01*
X142623623Y-104603507D01*
X142622981Y-104603507D01*
X142623623Y-104613305D01*
X142623623Y-107395000D01*
X145683623Y-107395000D01*
X145727378Y-107391148D01*
X145727383Y-107391148D01*
X145728167Y-107391079D01*
X148478233Y-107148996D01*
X148481490Y-107148745D01*
X148520417Y-107146177D01*
X148526936Y-107145891D01*
X148561719Y-107145128D01*
X148565912Y-107145036D01*
X148569180Y-107145000D01*
X178967055Y-107145000D01*
X179041555Y-107164962D01*
X179096093Y-107219500D01*
X179116055Y-107294000D01*
X179096093Y-107368500D01*
X179048753Y-107418605D01*
X179023190Y-107435365D01*
X179018812Y-107438127D01*
X179010752Y-107443018D01*
X178957085Y-107475584D01*
X178948745Y-107482950D01*
X178948401Y-107483294D01*
X178943620Y-107487534D01*
X178936451Y-107492234D01*
X178930499Y-107498518D01*
X178930498Y-107498518D01*
X178883719Y-107547899D01*
X178880908Y-107550787D01*
X178316491Y-108115204D01*
X178308052Y-108122922D01*
X178301403Y-108127282D01*
X178255971Y-108175241D01*
X178248671Y-108182947D01*
X178245860Y-108185835D01*
X178224009Y-108207686D01*
X178221321Y-108211084D01*
X178219237Y-108213425D01*
X178213226Y-108220364D01*
X178180407Y-108255008D01*
X178176060Y-108262491D01*
X178176056Y-108262497D01*
X178168753Y-108275071D01*
X178156761Y-108292684D01*
X178142364Y-108310881D01*
X178122150Y-108354133D01*
X178116015Y-108365868D01*
X178092039Y-108407144D01*
X178085826Y-108427660D01*
X178085316Y-108429343D01*
X178077698Y-108449242D01*
X178067870Y-108470270D01*
X178066108Y-108478743D01*
X178058149Y-108517005D01*
X178054875Y-108529849D01*
X178052378Y-108538093D01*
X178041041Y-108575528D01*
X178040505Y-108584170D01*
X178039604Y-108598688D01*
X178036768Y-108619799D01*
X178033806Y-108634041D01*
X178033805Y-108634048D01*
X178032043Y-108642521D01*
X178032277Y-108651169D01*
X178032276Y-108651179D01*
X178033333Y-108690238D01*
X178033102Y-108703489D01*
X178030147Y-108751128D01*
X178034077Y-108773999D01*
X178036175Y-108795193D01*
X178036802Y-108818394D01*
X178048736Y-108863403D01*
X178049034Y-108864528D01*
X178051858Y-108877479D01*
X178059942Y-108924525D01*
X178067224Y-108941638D01*
X178069027Y-108945876D01*
X178075943Y-108966021D01*
X178081892Y-108988456D01*
X178085973Y-108996084D01*
X178085974Y-108996085D01*
X178104410Y-109030539D01*
X178110140Y-109042498D01*
X178128827Y-109086416D01*
X178133955Y-109093384D01*
X178142584Y-109105110D01*
X178153950Y-109123125D01*
X178155948Y-109126858D01*
X178164897Y-109143582D01*
X178170627Y-109150069D01*
X178170627Y-109150070D01*
X178196484Y-109179347D01*
X178204811Y-109189668D01*
X178227971Y-109221140D01*
X178227977Y-109221146D01*
X178233108Y-109228119D01*
X178250795Y-109243145D01*
X178266005Y-109258066D01*
X178275626Y-109268960D01*
X178275629Y-109268963D01*
X178281361Y-109275453D01*
X178319065Y-109302099D01*
X178320334Y-109302996D01*
X178330810Y-109311122D01*
X178367191Y-109342030D01*
X178379821Y-109348479D01*
X178417418Y-109375820D01*
X178868781Y-109827182D01*
X178876498Y-109835619D01*
X178880857Y-109842268D01*
X178887138Y-109848218D01*
X178936521Y-109894999D01*
X178939409Y-109897810D01*
X178961261Y-109919662D01*
X178964659Y-109922350D01*
X178967000Y-109924434D01*
X178973939Y-109930445D01*
X179008583Y-109963264D01*
X179016066Y-109967611D01*
X179016072Y-109967615D01*
X179028646Y-109974918D01*
X179046259Y-109986910D01*
X179064456Y-110001307D01*
X179107708Y-110021521D01*
X179119444Y-110027657D01*
X179153233Y-110047284D01*
X179153235Y-110047285D01*
X179160719Y-110051632D01*
X179182922Y-110058356D01*
X179202817Y-110065973D01*
X179216005Y-110072137D01*
X179216007Y-110072138D01*
X179223845Y-110075801D01*
X179261960Y-110083729D01*
X179270580Y-110085522D01*
X179283424Y-110088796D01*
X179320818Y-110100121D01*
X179320819Y-110100121D01*
X179329103Y-110102630D01*
X179342441Y-110103457D01*
X179352263Y-110104067D01*
X179373374Y-110106903D01*
X179387616Y-110109865D01*
X179387623Y-110109866D01*
X179396096Y-110111628D01*
X179443821Y-110110337D01*
X179457066Y-110110569D01*
X179504703Y-110113524D01*
X179513233Y-110112058D01*
X179513237Y-110112058D01*
X179527563Y-110109596D01*
X179548771Y-110107497D01*
X179557130Y-110107271D01*
X179563321Y-110107104D01*
X179563322Y-110107104D01*
X179571969Y-110106870D01*
X179618130Y-110094630D01*
X179631066Y-110091811D01*
X179636667Y-110090848D01*
X179669566Y-110085196D01*
X179669572Y-110085194D01*
X179678100Y-110083729D01*
X179686064Y-110080340D01*
X179686068Y-110080339D01*
X179699445Y-110074647D01*
X179719597Y-110067728D01*
X179733659Y-110063999D01*
X179733661Y-110063998D01*
X179742031Y-110061779D01*
X179756306Y-110054141D01*
X179784114Y-110039261D01*
X179796073Y-110033531D01*
X179817704Y-110024327D01*
X179839991Y-110014844D01*
X179858685Y-110001087D01*
X179876700Y-109989721D01*
X179889526Y-109982858D01*
X179889531Y-109982855D01*
X179897157Y-109978774D01*
X179932928Y-109947182D01*
X179943246Y-109938857D01*
X179974725Y-109915692D01*
X179974727Y-109915690D01*
X179981694Y-109910563D01*
X179996716Y-109892881D01*
X180011636Y-109877672D01*
X180022537Y-109868045D01*
X180022543Y-109868038D01*
X180029029Y-109862310D01*
X180056580Y-109823326D01*
X180064684Y-109812876D01*
X180095605Y-109776480D01*
X180106159Y-109755812D01*
X180117178Y-109737582D01*
X180125573Y-109725703D01*
X180125576Y-109725698D01*
X180130570Y-109718631D01*
X180148411Y-109674362D01*
X180153910Y-109662297D01*
X180171676Y-109627504D01*
X180175616Y-109619788D01*
X180177673Y-109611380D01*
X180177676Y-109611373D01*
X180181131Y-109597253D01*
X180187661Y-109576974D01*
X180195368Y-109557851D01*
X180241732Y-109496214D01*
X180312703Y-109466016D01*
X180333567Y-109464548D01*
X182475073Y-109464548D01*
X182497482Y-109466243D01*
X182517064Y-109469222D01*
X182525686Y-109468521D01*
X182525697Y-109468521D01*
X182568501Y-109465039D01*
X182580581Y-109464548D01*
X182587628Y-109464548D01*
X182615260Y-109461326D01*
X182620436Y-109460813D01*
X182630882Y-109459964D01*
X182683794Y-109455660D01*
X182683796Y-109455660D01*
X182692422Y-109454958D01*
X182700662Y-109452288D01*
X182705247Y-109451372D01*
X182709728Y-109450313D01*
X182718329Y-109449310D01*
X182786211Y-109424670D01*
X182791130Y-109422981D01*
X182851570Y-109403401D01*
X182859797Y-109400736D01*
X182867196Y-109396246D01*
X182871428Y-109394309D01*
X182875571Y-109392235D01*
X182883709Y-109389280D01*
X182944106Y-109349682D01*
X182948472Y-109346928D01*
X183004536Y-109312907D01*
X183004537Y-109312906D01*
X183010208Y-109309465D01*
X183015382Y-109304896D01*
X183016808Y-109303637D01*
X183016817Y-109303629D01*
X183018549Y-109302099D01*
X183018910Y-109301738D01*
X183023675Y-109297514D01*
X183030843Y-109292814D01*
X183083558Y-109237167D01*
X183086369Y-109234279D01*
X183179919Y-109140729D01*
X185365864Y-109140729D01*
X185367163Y-109142980D01*
X185371817Y-109146239D01*
X185424228Y-109170678D01*
X185436422Y-109175116D01*
X185652023Y-109232887D01*
X185664778Y-109235136D01*
X185887142Y-109254590D01*
X185900104Y-109254590D01*
X185926005Y-109252324D01*
X192609235Y-109252324D01*
X192618014Y-109258014D01*
X192827997Y-109338199D01*
X192839687Y-109341595D01*
X193069419Y-109388334D01*
X193081517Y-109389777D01*
X193315785Y-109398368D01*
X193327974Y-109397814D01*
X193560491Y-109368027D01*
X193572414Y-109365493D01*
X193796963Y-109298125D01*
X193808305Y-109293680D01*
X193882567Y-109257300D01*
X193894638Y-109246770D01*
X193893993Y-109243482D01*
X193891476Y-109239960D01*
X193267494Y-108615978D01*
X193253623Y-108607970D01*
X193239752Y-108615978D01*
X192617196Y-109238534D01*
X192609235Y-109252324D01*
X185926005Y-109252324D01*
X186122468Y-109235136D01*
X186135223Y-109232887D01*
X186350824Y-109175116D01*
X186363018Y-109170678D01*
X186409465Y-109149020D01*
X186421736Y-109138723D01*
X186421285Y-109136164D01*
X186418027Y-109131511D01*
X185907494Y-108620978D01*
X185893623Y-108612970D01*
X185879752Y-108620978D01*
X185373872Y-109126858D01*
X185365864Y-109140729D01*
X183179919Y-109140729D01*
X183272507Y-109048141D01*
X183339302Y-109009577D01*
X183377866Y-109004500D01*
X184131969Y-109004499D01*
X184228689Y-109004499D01*
X184270993Y-108996085D01*
X184288530Y-108992597D01*
X184302924Y-108989734D01*
X184387107Y-108933484D01*
X184443357Y-108849301D01*
X184458123Y-108775067D01*
X184458123Y-108570121D01*
X184478085Y-108495621D01*
X184532623Y-108441083D01*
X184607123Y-108421121D01*
X184650836Y-108428828D01*
X184657462Y-108427660D01*
X184662112Y-108424404D01*
X185788264Y-107298252D01*
X185855059Y-107259688D01*
X185932187Y-107259688D01*
X185998982Y-107298252D01*
X187120480Y-108419750D01*
X187134351Y-108427758D01*
X187136603Y-108426458D01*
X187139860Y-108421807D01*
X187164304Y-108369389D01*
X187168738Y-108357207D01*
X187226510Y-108141600D01*
X187228759Y-108128845D01*
X187248213Y-107906481D01*
X187248213Y-107893519D01*
X187245659Y-107864325D01*
X191749283Y-107864325D01*
X191762778Y-108098374D01*
X191764473Y-108110435D01*
X191816015Y-108339143D01*
X191819655Y-108350757D01*
X191890567Y-108525394D01*
X191900229Y-108538169D01*
X191900839Y-108538093D01*
X191908509Y-108533007D01*
X192532645Y-107908871D01*
X192540653Y-107895000D01*
X193966593Y-107895000D01*
X193974601Y-107908871D01*
X194593467Y-108527737D01*
X194607338Y-108535745D01*
X194610358Y-108534002D01*
X194612736Y-108530687D01*
X194650361Y-108454556D01*
X194654845Y-108443232D01*
X194722995Y-108218924D01*
X194725570Y-108207011D01*
X194756449Y-107972457D01*
X194757064Y-107964570D01*
X194758667Y-107898957D01*
X194758553Y-107895000D01*
X196994331Y-107895000D01*
X197013462Y-108113674D01*
X197015145Y-108119956D01*
X197015146Y-108119960D01*
X197017108Y-108127282D01*
X197070276Y-108325703D01*
X197073026Y-108331601D01*
X197073027Y-108331603D01*
X197107150Y-108404781D01*
X197163044Y-108524646D01*
X197166775Y-108529974D01*
X197166777Y-108529978D01*
X197223176Y-108610523D01*
X197288949Y-108704457D01*
X197444166Y-108859674D01*
X197460263Y-108870945D01*
X197618645Y-108981846D01*
X197618649Y-108981848D01*
X197623977Y-108985579D01*
X197675441Y-109009577D01*
X197758143Y-109048141D01*
X197822920Y-109078347D01*
X197922799Y-109105110D01*
X198028663Y-109133477D01*
X198028667Y-109133478D01*
X198034949Y-109135161D01*
X198253623Y-109154292D01*
X198472297Y-109135161D01*
X198478579Y-109133478D01*
X198478583Y-109133477D01*
X198584447Y-109105110D01*
X198684326Y-109078347D01*
X198749104Y-109048141D01*
X198831805Y-109009577D01*
X198883269Y-108985579D01*
X198888597Y-108981848D01*
X198888601Y-108981846D01*
X199046983Y-108870945D01*
X199063080Y-108859674D01*
X199218297Y-108704457D01*
X199284070Y-108610523D01*
X199340469Y-108529978D01*
X199340471Y-108529974D01*
X199344202Y-108524646D01*
X199400096Y-108404781D01*
X199434219Y-108331603D01*
X199434220Y-108331601D01*
X199436970Y-108325703D01*
X199490138Y-108127282D01*
X199492100Y-108119960D01*
X199492101Y-108119956D01*
X199493784Y-108113674D01*
X199512915Y-107895000D01*
X199493784Y-107676326D01*
X199489248Y-107659395D01*
X199459173Y-107547158D01*
X199436970Y-107464297D01*
X199433076Y-107455945D01*
X199372525Y-107326093D01*
X199344202Y-107265354D01*
X199340471Y-107260026D01*
X199340469Y-107260022D01*
X199262727Y-107148996D01*
X199218297Y-107085543D01*
X199063080Y-106930326D01*
X198933907Y-106839878D01*
X198888601Y-106808154D01*
X198888597Y-106808152D01*
X198883269Y-106804421D01*
X198753785Y-106744042D01*
X198690226Y-106714404D01*
X198690224Y-106714403D01*
X198684326Y-106711653D01*
X198547769Y-106675062D01*
X198478583Y-106656523D01*
X198478579Y-106656522D01*
X198472297Y-106654839D01*
X198253623Y-106635708D01*
X198034949Y-106654839D01*
X198028667Y-106656522D01*
X198028663Y-106656523D01*
X197959477Y-106675062D01*
X197822920Y-106711653D01*
X197817022Y-106714403D01*
X197817020Y-106714404D01*
X197753461Y-106744042D01*
X197623977Y-106804421D01*
X197618649Y-106808152D01*
X197618645Y-106808154D01*
X197573339Y-106839878D01*
X197444166Y-106930326D01*
X197288949Y-107085543D01*
X197244519Y-107148996D01*
X197166777Y-107260022D01*
X197166775Y-107260026D01*
X197163044Y-107265354D01*
X197134721Y-107326093D01*
X197074171Y-107455945D01*
X197070276Y-107464297D01*
X197048073Y-107547158D01*
X197017999Y-107659395D01*
X197013462Y-107676326D01*
X196994331Y-107895000D01*
X194758553Y-107895000D01*
X194758439Y-107891051D01*
X194739054Y-107655263D01*
X194737064Y-107643242D01*
X194679955Y-107415882D01*
X194676023Y-107404331D01*
X194615774Y-107265768D01*
X194605803Y-107253232D01*
X194604247Y-107253465D01*
X194598038Y-107257692D01*
X193974601Y-107881129D01*
X193966593Y-107895000D01*
X192540653Y-107895000D01*
X192532645Y-107881129D01*
X191913813Y-107262297D01*
X191899942Y-107254289D01*
X191897750Y-107255554D01*
X191894425Y-107260312D01*
X191843632Y-107369735D01*
X191839427Y-107381164D01*
X191776774Y-107607079D01*
X191774493Y-107619042D01*
X191749581Y-107852148D01*
X191749283Y-107864325D01*
X187245659Y-107864325D01*
X187238268Y-107779844D01*
X187251661Y-107703888D01*
X187301238Y-107644804D01*
X187373715Y-107618425D01*
X187424511Y-107622735D01*
X187546620Y-107654770D01*
X187546622Y-107654770D01*
X187555304Y-107657048D01*
X187564280Y-107657189D01*
X187704721Y-107659395D01*
X187713698Y-107659536D01*
X187868114Y-107624170D01*
X188009637Y-107552992D01*
X188073418Y-107498518D01*
X188123265Y-107455945D01*
X188123268Y-107455941D01*
X188130096Y-107450110D01*
X188185945Y-107372388D01*
X188217294Y-107328762D01*
X188217295Y-107328759D01*
X188222537Y-107321465D01*
X188225887Y-107313131D01*
X188225890Y-107313126D01*
X188272127Y-107198109D01*
X188312002Y-107145000D01*
X189123623Y-107145000D01*
X189123623Y-106542492D01*
X192612050Y-106542492D01*
X192612980Y-106546689D01*
X192614522Y-106548792D01*
X193239752Y-107174022D01*
X193253623Y-107182030D01*
X193267494Y-107174022D01*
X193888167Y-106553349D01*
X193896175Y-106539478D01*
X193893550Y-106534931D01*
X193892857Y-106534410D01*
X193875973Y-106525089D01*
X193864845Y-106520088D01*
X193643869Y-106441835D01*
X193632086Y-106438722D01*
X193401293Y-106397612D01*
X193389152Y-106396464D01*
X193154740Y-106393600D01*
X193142592Y-106394449D01*
X192910847Y-106429911D01*
X192899004Y-106432733D01*
X192676161Y-106505569D01*
X192664940Y-106510286D01*
X192623858Y-106531672D01*
X192612050Y-106542492D01*
X189123623Y-106542492D01*
X189123623Y-103482776D01*
X189143585Y-103408276D01*
X189198123Y-103353738D01*
X189272623Y-103333776D01*
X189319038Y-103341190D01*
X189538373Y-103413092D01*
X189547055Y-103415370D01*
X189845716Y-103474776D01*
X189854590Y-103475992D01*
X190158231Y-103499090D01*
X190167201Y-103499231D01*
X190471410Y-103485683D01*
X190480317Y-103484747D01*
X190780712Y-103434747D01*
X190789440Y-103432748D01*
X191081641Y-103347026D01*
X191090074Y-103343990D01*
X191369875Y-103223778D01*
X191377861Y-103219762D01*
X191641185Y-103066810D01*
X191642446Y-103065973D01*
X191651230Y-103054709D01*
X191650880Y-103053845D01*
X199857747Y-103053845D01*
X199861045Y-103059558D01*
X200056932Y-103181724D01*
X200064812Y-103186003D01*
X200340682Y-103314936D01*
X200349019Y-103318237D01*
X200638373Y-103413092D01*
X200647055Y-103415370D01*
X200945716Y-103474776D01*
X200954590Y-103475992D01*
X201258231Y-103499090D01*
X201267201Y-103499231D01*
X201571410Y-103485683D01*
X201580317Y-103484747D01*
X201880712Y-103434747D01*
X201889440Y-103432748D01*
X202181641Y-103347026D01*
X202190074Y-103343990D01*
X202469875Y-103223778D01*
X202477861Y-103219762D01*
X202741185Y-103066810D01*
X202742446Y-103065973D01*
X202751230Y-103054709D01*
X202747830Y-103046313D01*
X201317494Y-101615978D01*
X201303623Y-101607970D01*
X201289752Y-101615978D01*
X199865755Y-103039974D01*
X199857747Y-103053845D01*
X191650880Y-103053845D01*
X191647830Y-103046313D01*
X189601875Y-101000359D01*
X189563311Y-100933564D01*
X189563311Y-100895000D01*
X190916593Y-100895000D01*
X190924601Y-100908871D01*
X192348283Y-102332554D01*
X192362154Y-102340562D01*
X192367973Y-102337203D01*
X192483788Y-102153649D01*
X192488107Y-102145793D01*
X192618486Y-101870593D01*
X192621827Y-101862282D01*
X192718196Y-101573426D01*
X192720520Y-101564756D01*
X192781492Y-101266401D01*
X192782752Y-101257551D01*
X192807591Y-100952169D01*
X192807832Y-100946919D01*
X192808347Y-100897634D01*
X192808216Y-100892369D01*
X192807000Y-100872205D01*
X198699237Y-100872205D01*
X198714378Y-101176355D01*
X198715360Y-101185249D01*
X198766932Y-101485378D01*
X198768976Y-101494093D01*
X198856229Y-101785847D01*
X198859309Y-101794264D01*
X198980978Y-102073418D01*
X198985046Y-102081402D01*
X199135269Y-102336938D01*
X199143330Y-102343159D01*
X199151865Y-102339652D01*
X200582645Y-100908871D01*
X200590653Y-100895000D01*
X202016593Y-100895000D01*
X202024601Y-100908871D01*
X203448283Y-102332554D01*
X203462154Y-102340562D01*
X203467973Y-102337203D01*
X203583788Y-102153649D01*
X203588107Y-102145793D01*
X203718486Y-101870593D01*
X203721827Y-101862282D01*
X203818196Y-101573426D01*
X203820520Y-101564756D01*
X203881492Y-101266401D01*
X203882752Y-101257551D01*
X203907591Y-100952169D01*
X203907832Y-100946919D01*
X203908347Y-100897634D01*
X203908216Y-100892369D01*
X203889780Y-100586544D01*
X203888706Y-100577671D01*
X203833991Y-100278084D01*
X203831858Y-100269399D01*
X203741552Y-99978566D01*
X203738389Y-99970195D01*
X203613803Y-99692330D01*
X203609649Y-99684383D01*
X203473840Y-99458808D01*
X203462311Y-99447694D01*
X203456308Y-99449421D01*
X202024601Y-100881129D01*
X202016593Y-100895000D01*
X200590653Y-100895000D01*
X200582645Y-100881129D01*
X199158283Y-99456766D01*
X199144412Y-99448758D01*
X199138802Y-99451997D01*
X199010398Y-99660306D01*
X199006168Y-99668197D01*
X198878679Y-99944740D01*
X198875423Y-99953092D01*
X198782078Y-100242960D01*
X198779852Y-100251629D01*
X198722008Y-100550605D01*
X198720838Y-100559487D01*
X198699331Y-100863247D01*
X198699237Y-100872205D01*
X192807000Y-100872205D01*
X192789780Y-100586544D01*
X192788706Y-100577671D01*
X192733991Y-100278084D01*
X192731858Y-100269399D01*
X192641552Y-99978566D01*
X192638389Y-99970195D01*
X192513803Y-99692330D01*
X192509649Y-99684383D01*
X192373840Y-99458808D01*
X192362311Y-99447694D01*
X192356308Y-99449421D01*
X190924601Y-100881129D01*
X190916593Y-100895000D01*
X189563311Y-100895000D01*
X189563311Y-100856436D01*
X189601875Y-100789641D01*
X190203623Y-100187893D01*
X191642275Y-98749242D01*
X191650026Y-98735816D01*
X199855784Y-98735816D01*
X199857449Y-98741720D01*
X201289752Y-100174022D01*
X201303623Y-100182030D01*
X201317494Y-100174022D01*
X202742275Y-98749242D01*
X202750283Y-98735371D01*
X202747103Y-98729862D01*
X202526292Y-98595342D01*
X202518380Y-98591153D01*
X202241173Y-98465114D01*
X202232802Y-98461901D01*
X201942455Y-98370076D01*
X201933769Y-98367895D01*
X201634502Y-98311618D01*
X201625603Y-98310493D01*
X201321739Y-98290577D01*
X201312781Y-98290531D01*
X201008721Y-98307263D01*
X200999823Y-98308293D01*
X200699975Y-98361435D01*
X200691257Y-98363528D01*
X200399969Y-98452306D01*
X200391583Y-98455424D01*
X200113061Y-98578557D01*
X200105098Y-98582667D01*
X199866959Y-98724344D01*
X199855784Y-98735816D01*
X191650026Y-98735816D01*
X191650283Y-98735371D01*
X191647103Y-98729862D01*
X191426292Y-98595342D01*
X191418380Y-98591153D01*
X191141173Y-98465114D01*
X191132802Y-98461901D01*
X190842455Y-98370076D01*
X190833769Y-98367895D01*
X190534502Y-98311618D01*
X190525603Y-98310493D01*
X190221739Y-98290577D01*
X190212781Y-98290531D01*
X189908721Y-98307263D01*
X189899823Y-98308293D01*
X189599975Y-98361435D01*
X189591257Y-98363528D01*
X189316062Y-98447401D01*
X189238978Y-98450026D01*
X189170910Y-98413757D01*
X189130096Y-98348313D01*
X189123623Y-98304874D01*
X189123623Y-94752324D01*
X195109235Y-94752324D01*
X195118014Y-94758014D01*
X195327997Y-94838199D01*
X195339687Y-94841595D01*
X195569419Y-94888334D01*
X195581517Y-94889777D01*
X195815785Y-94898368D01*
X195827974Y-94897814D01*
X196060491Y-94868027D01*
X196072414Y-94865493D01*
X196296963Y-94798125D01*
X196308305Y-94793680D01*
X196382567Y-94757300D01*
X196394638Y-94746770D01*
X196393993Y-94743482D01*
X196391476Y-94739960D01*
X195767494Y-94115978D01*
X195753623Y-94107970D01*
X195739752Y-94115978D01*
X195117196Y-94738534D01*
X195109235Y-94752324D01*
X189123623Y-94752324D01*
X189123623Y-93395000D01*
X191994331Y-93395000D01*
X192013462Y-93613674D01*
X192070276Y-93825703D01*
X192163044Y-94024646D01*
X192166775Y-94029974D01*
X192166777Y-94029978D01*
X192215855Y-94100068D01*
X192288949Y-94204457D01*
X192444166Y-94359674D01*
X192449492Y-94363403D01*
X192618645Y-94481846D01*
X192618649Y-94481848D01*
X192623977Y-94485579D01*
X192822920Y-94578347D01*
X192888312Y-94595869D01*
X193028663Y-94633477D01*
X193028667Y-94633478D01*
X193034949Y-94635161D01*
X193253623Y-94654292D01*
X193472297Y-94635161D01*
X193478579Y-94633478D01*
X193478583Y-94633477D01*
X193618934Y-94595869D01*
X193684326Y-94578347D01*
X193883269Y-94485579D01*
X193888597Y-94481848D01*
X193888601Y-94481846D01*
X194057754Y-94363403D01*
X194063080Y-94359674D01*
X194218297Y-94204457D01*
X194290515Y-94101319D01*
X194349598Y-94051743D01*
X194394152Y-94038925D01*
X194400841Y-94038092D01*
X194408509Y-94033007D01*
X195032645Y-93408871D01*
X195040653Y-93395000D01*
X196466593Y-93395000D01*
X196474601Y-93408871D01*
X197093467Y-94027737D01*
X197121600Y-94043980D01*
X197168301Y-94056493D01*
X197215855Y-94100068D01*
X197288949Y-94204457D01*
X197444166Y-94359674D01*
X197449492Y-94363403D01*
X197618645Y-94481846D01*
X197618649Y-94481848D01*
X197623977Y-94485579D01*
X197822920Y-94578347D01*
X197888312Y-94595869D01*
X198028663Y-94633477D01*
X198028667Y-94633478D01*
X198034949Y-94635161D01*
X198253623Y-94654292D01*
X198472297Y-94635161D01*
X198478579Y-94633478D01*
X198478583Y-94633477D01*
X198618934Y-94595869D01*
X198684326Y-94578347D01*
X198883269Y-94485579D01*
X198888597Y-94481848D01*
X198888601Y-94481846D01*
X199057754Y-94363403D01*
X199063080Y-94359674D01*
X199218297Y-94204457D01*
X199291391Y-94100068D01*
X199340469Y-94029978D01*
X199340471Y-94029974D01*
X199344202Y-94024646D01*
X199436970Y-93825703D01*
X199493784Y-93613674D01*
X199512915Y-93395000D01*
X199493784Y-93176326D01*
X199489814Y-93161507D01*
X199454647Y-93030269D01*
X199436970Y-92964297D01*
X199428115Y-92945306D01*
X199346953Y-92771254D01*
X199344202Y-92765354D01*
X199340471Y-92760026D01*
X199340469Y-92760022D01*
X199222026Y-92590869D01*
X199218297Y-92585543D01*
X199063080Y-92430326D01*
X198964668Y-92361417D01*
X198888601Y-92308154D01*
X198888597Y-92308152D01*
X198883269Y-92304421D01*
X198684326Y-92211653D01*
X198578312Y-92183246D01*
X198478583Y-92156523D01*
X198478579Y-92156522D01*
X198472297Y-92154839D01*
X198253623Y-92135708D01*
X198034949Y-92154839D01*
X198028667Y-92156522D01*
X198028663Y-92156523D01*
X197928935Y-92183246D01*
X197822920Y-92211653D01*
X197623977Y-92304421D01*
X197618649Y-92308152D01*
X197618645Y-92308154D01*
X197542578Y-92361417D01*
X197444166Y-92430326D01*
X197288949Y-92585543D01*
X197285220Y-92590869D01*
X197285214Y-92590876D01*
X197215930Y-92689823D01*
X197156847Y-92739400D01*
X197115901Y-92751723D01*
X197104247Y-92753465D01*
X197098038Y-92757692D01*
X196474601Y-93381129D01*
X196466593Y-93395000D01*
X195040653Y-93395000D01*
X195032645Y-93381129D01*
X194413813Y-92762297D01*
X194385688Y-92746059D01*
X194338969Y-92733541D01*
X194291415Y-92689966D01*
X194222026Y-92590869D01*
X194218297Y-92585543D01*
X194063080Y-92430326D01*
X193964668Y-92361417D01*
X193888601Y-92308154D01*
X193888597Y-92308152D01*
X193883269Y-92304421D01*
X193684326Y-92211653D01*
X193578312Y-92183246D01*
X193478583Y-92156523D01*
X193478579Y-92156522D01*
X193472297Y-92154839D01*
X193253623Y-92135708D01*
X193034949Y-92154839D01*
X193028667Y-92156522D01*
X193028663Y-92156523D01*
X192928935Y-92183246D01*
X192822920Y-92211653D01*
X192623977Y-92304421D01*
X192618649Y-92308152D01*
X192618645Y-92308154D01*
X192542578Y-92361417D01*
X192444166Y-92430326D01*
X192288949Y-92585543D01*
X192285220Y-92590869D01*
X192166777Y-92760022D01*
X192166775Y-92760026D01*
X192163044Y-92765354D01*
X192160293Y-92771254D01*
X192079132Y-92945306D01*
X192070276Y-92964297D01*
X192052599Y-93030269D01*
X192017433Y-93161507D01*
X192013462Y-93176326D01*
X191994331Y-93395000D01*
X189123623Y-93395000D01*
X189123623Y-92042492D01*
X195112050Y-92042492D01*
X195112980Y-92046689D01*
X195114522Y-92048792D01*
X195739752Y-92674022D01*
X195753623Y-92682030D01*
X195767494Y-92674022D01*
X196388167Y-92053349D01*
X196396175Y-92039478D01*
X196393550Y-92034931D01*
X196392857Y-92034410D01*
X196375973Y-92025089D01*
X196364845Y-92020088D01*
X196143869Y-91941835D01*
X196132086Y-91938722D01*
X195901293Y-91897612D01*
X195889152Y-91896464D01*
X195654740Y-91893600D01*
X195642592Y-91894449D01*
X195410847Y-91929911D01*
X195399004Y-91932733D01*
X195176161Y-92005569D01*
X195164940Y-92010286D01*
X195123858Y-92031672D01*
X195112050Y-92042492D01*
X189123623Y-92042492D01*
X189123623Y-90672683D01*
X191070509Y-90672683D01*
X191070954Y-90673455D01*
X191078204Y-90678299D01*
X191243831Y-90746904D01*
X191254936Y-90750512D01*
X191473637Y-90803018D01*
X191485160Y-90804843D01*
X191709391Y-90822490D01*
X191721055Y-90822490D01*
X191945286Y-90804843D01*
X191956809Y-90803018D01*
X192175510Y-90750512D01*
X192186615Y-90746904D01*
X192347678Y-90680190D01*
X192360384Y-90670440D01*
X192360268Y-90669557D01*
X192355423Y-90662306D01*
X191729094Y-90035978D01*
X191715223Y-90027970D01*
X191701352Y-90035978D01*
X191078517Y-90658812D01*
X191070509Y-90672683D01*
X189123623Y-90672683D01*
X189123623Y-89320832D01*
X190207733Y-89320832D01*
X190225380Y-89545063D01*
X190227205Y-89556586D01*
X190279711Y-89775287D01*
X190283319Y-89786392D01*
X190350033Y-89947455D01*
X190359783Y-89960161D01*
X190360666Y-89960045D01*
X190367917Y-89955200D01*
X190994245Y-89328871D01*
X191002253Y-89315000D01*
X192428193Y-89315000D01*
X192436201Y-89328871D01*
X193059035Y-89951706D01*
X193101039Y-89975957D01*
X193117852Y-89980462D01*
X193165406Y-90024038D01*
X193233481Y-90121261D01*
X193233485Y-90121266D01*
X193237211Y-90126587D01*
X193392836Y-90282212D01*
X193410311Y-90294448D01*
X193567788Y-90404715D01*
X193567792Y-90404717D01*
X193573120Y-90408448D01*
X193772587Y-90501461D01*
X193778868Y-90503144D01*
X193978895Y-90556741D01*
X193978900Y-90556742D01*
X193985174Y-90558423D01*
X193991645Y-90558989D01*
X193991650Y-90558990D01*
X194197942Y-90577038D01*
X194204423Y-90577605D01*
X194210904Y-90577038D01*
X194417196Y-90558990D01*
X194417201Y-90558989D01*
X194423672Y-90558423D01*
X194429946Y-90556742D01*
X194429951Y-90556741D01*
X194629978Y-90503144D01*
X194636259Y-90501461D01*
X194835726Y-90408448D01*
X194841054Y-90404717D01*
X194841058Y-90404715D01*
X194998535Y-90294448D01*
X195016010Y-90282212D01*
X195171635Y-90126587D01*
X195175361Y-90121266D01*
X195175365Y-90121261D01*
X195288248Y-89960045D01*
X195297871Y-89946302D01*
X195313984Y-89911748D01*
X195363561Y-89852666D01*
X195436037Y-89826287D01*
X195511994Y-89839680D01*
X195571077Y-89889258D01*
X195584061Y-89911745D01*
X195600175Y-89946302D01*
X195609798Y-89960045D01*
X195722681Y-90121261D01*
X195722685Y-90121266D01*
X195726411Y-90126587D01*
X195882036Y-90282212D01*
X195899511Y-90294448D01*
X196056988Y-90404715D01*
X196056992Y-90404717D01*
X196062320Y-90408448D01*
X196261787Y-90501461D01*
X196268068Y-90503144D01*
X196468095Y-90556741D01*
X196468100Y-90556742D01*
X196474374Y-90558423D01*
X196480845Y-90558989D01*
X196480850Y-90558990D01*
X196687142Y-90577038D01*
X196693623Y-90577605D01*
X196700104Y-90577038D01*
X196906396Y-90558990D01*
X196906401Y-90558989D01*
X196912872Y-90558423D01*
X196919146Y-90556742D01*
X196919151Y-90556741D01*
X197119178Y-90503144D01*
X197125459Y-90501461D01*
X197324926Y-90408448D01*
X197330254Y-90404717D01*
X197330258Y-90404715D01*
X197487735Y-90294448D01*
X197505210Y-90282212D01*
X197554666Y-90232756D01*
X203559123Y-90232756D01*
X203560788Y-90248084D01*
X203563490Y-90272950D01*
X203565825Y-90294448D01*
X203616552Y-90429764D01*
X203703219Y-90545404D01*
X203818859Y-90632071D01*
X203954175Y-90682798D01*
X203963459Y-90683807D01*
X203963461Y-90683807D01*
X203983672Y-90686002D01*
X204015867Y-90689500D01*
X204811379Y-90689500D01*
X204843574Y-90686002D01*
X204863785Y-90683807D01*
X204863787Y-90683807D01*
X204873071Y-90682798D01*
X205008387Y-90632071D01*
X205124027Y-90545404D01*
X205210694Y-90429764D01*
X205261421Y-90294448D01*
X205263757Y-90272950D01*
X205266458Y-90248084D01*
X205268123Y-90232756D01*
X205268123Y-89953886D01*
X205288085Y-89879386D01*
X205342623Y-89824848D01*
X205417123Y-89804886D01*
X205491623Y-89824848D01*
X205546161Y-89879386D01*
X205565250Y-89937789D01*
X205574135Y-90019573D01*
X205633353Y-90195535D01*
X205728974Y-90354677D01*
X205776293Y-90404715D01*
X205850994Y-90483709D01*
X205850997Y-90483712D01*
X205856539Y-90489572D01*
X205863215Y-90494109D01*
X206003420Y-90589393D01*
X206003424Y-90589395D01*
X206010094Y-90593928D01*
X206017583Y-90596923D01*
X206017586Y-90596925D01*
X206112656Y-90634950D01*
X206182476Y-90662876D01*
X206365642Y-90693199D01*
X206373699Y-90692777D01*
X206373703Y-90692777D01*
X206475188Y-90687458D01*
X206551047Y-90683482D01*
X206730040Y-90634179D01*
X206894271Y-90547590D01*
X206928036Y-90519057D01*
X207029914Y-90432963D01*
X207036077Y-90427755D01*
X207042139Y-90419827D01*
X207128743Y-90306552D01*
X207148842Y-90280264D01*
X207227305Y-90112000D01*
X207232083Y-90090627D01*
X207266472Y-89936776D01*
X207266472Y-89936775D01*
X207267805Y-89930812D01*
X207268123Y-89925124D01*
X207268123Y-89188615D01*
X207253111Y-89050427D01*
X207193893Y-88874465D01*
X207098272Y-88715323D01*
X206997613Y-88608880D01*
X206976252Y-88586291D01*
X206976249Y-88586288D01*
X206970707Y-88580428D01*
X206929174Y-88552202D01*
X206823826Y-88480607D01*
X206823822Y-88480605D01*
X206817152Y-88476072D01*
X206809663Y-88473077D01*
X206809660Y-88473075D01*
X206705476Y-88431405D01*
X206644770Y-88407124D01*
X206461604Y-88376801D01*
X206453547Y-88377223D01*
X206453543Y-88377223D01*
X206352058Y-88382542D01*
X206276199Y-88386518D01*
X206097206Y-88435821D01*
X205932975Y-88522410D01*
X205926815Y-88527616D01*
X205926813Y-88527617D01*
X205865199Y-88579685D01*
X205791169Y-88642245D01*
X205786269Y-88648654D01*
X205786268Y-88648655D01*
X205763549Y-88678370D01*
X205678404Y-88789736D01*
X205599941Y-88958000D01*
X205598183Y-88965865D01*
X205598182Y-88965868D01*
X205562535Y-89125346D01*
X205526802Y-89193697D01*
X205461680Y-89235025D01*
X205384620Y-89238255D01*
X205316269Y-89202522D01*
X205274941Y-89137400D01*
X205268123Y-89092843D01*
X205268123Y-88837244D01*
X205263896Y-88798334D01*
X205262430Y-88784838D01*
X205262430Y-88784836D01*
X205261421Y-88775552D01*
X205210694Y-88640236D01*
X205124027Y-88524596D01*
X205008387Y-88437929D01*
X204873071Y-88387202D01*
X204863787Y-88386193D01*
X204863785Y-88386193D01*
X204843574Y-88383998D01*
X204811379Y-88380500D01*
X204015867Y-88380500D01*
X203983672Y-88383998D01*
X203963461Y-88386193D01*
X203963459Y-88386193D01*
X203954175Y-88387202D01*
X203818859Y-88437929D01*
X203703219Y-88524596D01*
X203616552Y-88640236D01*
X203565825Y-88775552D01*
X203564816Y-88784836D01*
X203564816Y-88784838D01*
X203563350Y-88798334D01*
X203559123Y-88837244D01*
X203559123Y-90232756D01*
X197554666Y-90232756D01*
X197660835Y-90126587D01*
X197664561Y-90121266D01*
X197664565Y-90121261D01*
X197777448Y-89960045D01*
X197787071Y-89946302D01*
X197880084Y-89746836D01*
X197889779Y-89710654D01*
X197935364Y-89540528D01*
X197935365Y-89540523D01*
X197937046Y-89534249D01*
X197941895Y-89478831D01*
X197955661Y-89321481D01*
X197956228Y-89315000D01*
X197947985Y-89220784D01*
X197937613Y-89102227D01*
X197937612Y-89102222D01*
X197937046Y-89095751D01*
X197934369Y-89085757D01*
X197881767Y-88889445D01*
X197880084Y-88883164D01*
X197787071Y-88683698D01*
X197724280Y-88594022D01*
X197664565Y-88508739D01*
X197664561Y-88508734D01*
X197660835Y-88503413D01*
X197505210Y-88347788D01*
X197401448Y-88275133D01*
X197330258Y-88225285D01*
X197330254Y-88225283D01*
X197324926Y-88221552D01*
X197125459Y-88128539D01*
X197119178Y-88126856D01*
X196919151Y-88073259D01*
X196919146Y-88073258D01*
X196912872Y-88071577D01*
X196906401Y-88071011D01*
X196906396Y-88071010D01*
X196700104Y-88052962D01*
X196693623Y-88052395D01*
X196687142Y-88052962D01*
X196480850Y-88071010D01*
X196480845Y-88071011D01*
X196474374Y-88071577D01*
X196468100Y-88073258D01*
X196468095Y-88073259D01*
X196268068Y-88126856D01*
X196261787Y-88128539D01*
X196062321Y-88221552D01*
X196056993Y-88225283D01*
X195887362Y-88344058D01*
X195887357Y-88344062D01*
X195882036Y-88347788D01*
X195726411Y-88503413D01*
X195722685Y-88508734D01*
X195722681Y-88508739D01*
X195662966Y-88594022D01*
X195600175Y-88683698D01*
X195584488Y-88717339D01*
X195584063Y-88718251D01*
X195534485Y-88777334D01*
X195462009Y-88803713D01*
X195386052Y-88790320D01*
X195326969Y-88740742D01*
X195313983Y-88718251D01*
X195313558Y-88717339D01*
X195297871Y-88683698D01*
X195235080Y-88594022D01*
X195175365Y-88508739D01*
X195175361Y-88508734D01*
X195171635Y-88503413D01*
X195016010Y-88347788D01*
X194912248Y-88275133D01*
X194841058Y-88225285D01*
X194841054Y-88225283D01*
X194835726Y-88221552D01*
X194636259Y-88128539D01*
X194629978Y-88126856D01*
X194429951Y-88073259D01*
X194429946Y-88073258D01*
X194423672Y-88071577D01*
X194417201Y-88071011D01*
X194417196Y-88071010D01*
X194210904Y-88052962D01*
X194204423Y-88052395D01*
X194197942Y-88052962D01*
X193991650Y-88071010D01*
X193991645Y-88071011D01*
X193985174Y-88071577D01*
X193978900Y-88073258D01*
X193978895Y-88073259D01*
X193778868Y-88126856D01*
X193772587Y-88128539D01*
X193573121Y-88221552D01*
X193567793Y-88225283D01*
X193398162Y-88344058D01*
X193398157Y-88344062D01*
X193392836Y-88347788D01*
X193237211Y-88503413D01*
X193168159Y-88602030D01*
X193163363Y-88608880D01*
X193104280Y-88658458D01*
X193073608Y-88667398D01*
X193062528Y-88674801D01*
X192436201Y-89301129D01*
X192428193Y-89315000D01*
X191002253Y-89315000D01*
X190994245Y-89301129D01*
X190371411Y-88678294D01*
X190357540Y-88670286D01*
X190356768Y-88670731D01*
X190351924Y-88677981D01*
X190283319Y-88843608D01*
X190279711Y-88854713D01*
X190227205Y-89073414D01*
X190225380Y-89084937D01*
X190207733Y-89309168D01*
X190207733Y-89320832D01*
X189123623Y-89320832D01*
X189123623Y-87959560D01*
X191070062Y-87959560D01*
X191070178Y-87960443D01*
X191075023Y-87967694D01*
X191701352Y-88594022D01*
X191715223Y-88602030D01*
X191729094Y-88594022D01*
X192351929Y-87971188D01*
X192359937Y-87957317D01*
X192359492Y-87956545D01*
X192352242Y-87951701D01*
X192186615Y-87883096D01*
X192175510Y-87879488D01*
X191956809Y-87826982D01*
X191945286Y-87825157D01*
X191721055Y-87807510D01*
X191709391Y-87807510D01*
X191485160Y-87825157D01*
X191473637Y-87826982D01*
X191254936Y-87879488D01*
X191243831Y-87883096D01*
X191082768Y-87949810D01*
X191070062Y-87959560D01*
X189123623Y-87959560D01*
X189123623Y-87087019D01*
X201555424Y-87087019D01*
X201555846Y-87095076D01*
X201555846Y-87095080D01*
X201560031Y-87174920D01*
X201565141Y-87272424D01*
X201614444Y-87451417D01*
X201701033Y-87615648D01*
X201706239Y-87621808D01*
X201706240Y-87621810D01*
X201712252Y-87628924D01*
X201820868Y-87757454D01*
X201968359Y-87870219D01*
X202136623Y-87948682D01*
X202144488Y-87950440D01*
X202144491Y-87950441D01*
X202311847Y-87987849D01*
X202317811Y-87989182D01*
X202323499Y-87989500D01*
X202460008Y-87989500D01*
X202558071Y-87978847D01*
X202590170Y-87975360D01*
X202590171Y-87975360D01*
X202598196Y-87974488D01*
X202774158Y-87915270D01*
X202933300Y-87819649D01*
X203019539Y-87738096D01*
X203062332Y-87697629D01*
X203062335Y-87697626D01*
X203068195Y-87692084D01*
X203096048Y-87651100D01*
X203168016Y-87545203D01*
X203168018Y-87545199D01*
X203172551Y-87538529D01*
X203241499Y-87366147D01*
X203271822Y-87182981D01*
X203270539Y-87158485D01*
X203266793Y-87087019D01*
X207555424Y-87087019D01*
X207555846Y-87095076D01*
X207555846Y-87095080D01*
X207560031Y-87174920D01*
X207565141Y-87272424D01*
X207614444Y-87451417D01*
X207701033Y-87615648D01*
X207706239Y-87621808D01*
X207706240Y-87621810D01*
X207712252Y-87628924D01*
X207820868Y-87757454D01*
X207968359Y-87870219D01*
X208136623Y-87948682D01*
X208144488Y-87950440D01*
X208144491Y-87950441D01*
X208311847Y-87987849D01*
X208317811Y-87989182D01*
X208323499Y-87989500D01*
X208460008Y-87989500D01*
X208558071Y-87978847D01*
X208590170Y-87975360D01*
X208590171Y-87975360D01*
X208598196Y-87974488D01*
X208774158Y-87915270D01*
X208933300Y-87819649D01*
X209019539Y-87738096D01*
X209062332Y-87697629D01*
X209062335Y-87697626D01*
X209068195Y-87692084D01*
X209096048Y-87651100D01*
X209168016Y-87545203D01*
X209168018Y-87545199D01*
X209172551Y-87538529D01*
X209241499Y-87366147D01*
X209271822Y-87182981D01*
X209270539Y-87158485D01*
X209262527Y-87005634D01*
X209262105Y-86997576D01*
X209212802Y-86818583D01*
X209126213Y-86654352D01*
X209084257Y-86604703D01*
X209011586Y-86518709D01*
X209006378Y-86512546D01*
X208858887Y-86399781D01*
X208690623Y-86321318D01*
X208682758Y-86319560D01*
X208682755Y-86319559D01*
X208515399Y-86282151D01*
X208515398Y-86282151D01*
X208509435Y-86280818D01*
X208503747Y-86280500D01*
X208367238Y-86280500D01*
X208269175Y-86291153D01*
X208237076Y-86294640D01*
X208237075Y-86294640D01*
X208229050Y-86295512D01*
X208053088Y-86354730D01*
X207893946Y-86450351D01*
X207887427Y-86456516D01*
X207764914Y-86572371D01*
X207764911Y-86572374D01*
X207759051Y-86577916D01*
X207754514Y-86584592D01*
X207659230Y-86724797D01*
X207659228Y-86724801D01*
X207654695Y-86731471D01*
X207651700Y-86738960D01*
X207651698Y-86738963D01*
X207622706Y-86811448D01*
X207585747Y-86903853D01*
X207555424Y-87087019D01*
X203266793Y-87087019D01*
X203262527Y-87005634D01*
X203262105Y-86997576D01*
X203212802Y-86818583D01*
X203126213Y-86654352D01*
X203084257Y-86604703D01*
X203011586Y-86518709D01*
X203006378Y-86512546D01*
X202858887Y-86399781D01*
X202690623Y-86321318D01*
X202682758Y-86319560D01*
X202682755Y-86319559D01*
X202515399Y-86282151D01*
X202515398Y-86282151D01*
X202509435Y-86280818D01*
X202503747Y-86280500D01*
X202367238Y-86280500D01*
X202269175Y-86291153D01*
X202237076Y-86294640D01*
X202237075Y-86294640D01*
X202229050Y-86295512D01*
X202053088Y-86354730D01*
X201893946Y-86450351D01*
X201887427Y-86456516D01*
X201764914Y-86572371D01*
X201764911Y-86572374D01*
X201759051Y-86577916D01*
X201754514Y-86584592D01*
X201659230Y-86724797D01*
X201659228Y-86724801D01*
X201654695Y-86731471D01*
X201651700Y-86738960D01*
X201651698Y-86738963D01*
X201622706Y-86811448D01*
X201585747Y-86903853D01*
X201555424Y-87087019D01*
X189123623Y-87087019D01*
X189123623Y-84251427D01*
X189143585Y-84176927D01*
X189198123Y-84122389D01*
X189272623Y-84102427D01*
X189310810Y-84107404D01*
X189449907Y-84144285D01*
X189460251Y-84146258D01*
X189711206Y-84175960D01*
X189721691Y-84176455D01*
X189974339Y-84170501D01*
X189984809Y-84169511D01*
X190234094Y-84128019D01*
X190244297Y-84125569D01*
X190485265Y-84049362D01*
X190495018Y-84045500D01*
X190702036Y-83946090D01*
X190714186Y-83935658D01*
X190714097Y-83935185D01*
X197697407Y-83935185D01*
X197700530Y-83940595D01*
X197754035Y-83972808D01*
X197763394Y-83977576D01*
X197996097Y-84076113D01*
X198006057Y-84079523D01*
X198250307Y-84144285D01*
X198260651Y-84146258D01*
X198511606Y-84175960D01*
X198522091Y-84176455D01*
X198774739Y-84170501D01*
X198785209Y-84169511D01*
X199034494Y-84128019D01*
X199044697Y-84125569D01*
X199285665Y-84049362D01*
X199295418Y-84045500D01*
X199502436Y-83946090D01*
X199514586Y-83935658D01*
X199514024Y-83932668D01*
X199511200Y-83928683D01*
X198618494Y-83035978D01*
X198604623Y-83027970D01*
X198590752Y-83035978D01*
X197705415Y-83921314D01*
X197697407Y-83935185D01*
X190714097Y-83935185D01*
X190713624Y-83932668D01*
X190710800Y-83928683D01*
X189202475Y-82420359D01*
X189163911Y-82353564D01*
X189163911Y-82315000D01*
X190517193Y-82315000D01*
X190525201Y-82328871D01*
X191411312Y-83214983D01*
X191425183Y-83222991D01*
X191430897Y-83219693D01*
X191448460Y-83191531D01*
X191453384Y-83182230D01*
X191555564Y-82951105D01*
X191559122Y-82941224D01*
X191627723Y-82697985D01*
X191629850Y-82687711D01*
X191663688Y-82435788D01*
X191664314Y-82428212D01*
X191667752Y-82318802D01*
X191667603Y-82311212D01*
X191664100Y-82261734D01*
X196742102Y-82261734D01*
X196752023Y-82514236D01*
X196753177Y-82524691D01*
X196798578Y-82773283D01*
X196801195Y-82783477D01*
X196881167Y-83023183D01*
X196885194Y-83032904D01*
X196974523Y-83211678D01*
X196985146Y-83223665D01*
X196988728Y-83222932D01*
X196991792Y-83220725D01*
X197883645Y-82328871D01*
X197891653Y-82315000D01*
X199317593Y-82315000D01*
X199325601Y-82328871D01*
X200211712Y-83214983D01*
X200225583Y-83222991D01*
X200231297Y-83219693D01*
X200248860Y-83191531D01*
X200253784Y-83182230D01*
X200355964Y-82951105D01*
X200359522Y-82941224D01*
X200428123Y-82697985D01*
X200430250Y-82687711D01*
X200464088Y-82435788D01*
X200464714Y-82428212D01*
X200468152Y-82318802D01*
X200468003Y-82311212D01*
X200450051Y-82057662D01*
X200448570Y-82047261D01*
X200395382Y-81800212D01*
X200392449Y-81790117D01*
X200304983Y-81553028D01*
X200300653Y-81543439D01*
X200233788Y-81419517D01*
X200222795Y-81407872D01*
X200218046Y-81408999D01*
X200216807Y-81409922D01*
X199325601Y-82301129D01*
X199317593Y-82315000D01*
X197891653Y-82315000D01*
X197883645Y-82301129D01*
X196998755Y-81416238D01*
X196984884Y-81408230D01*
X196979761Y-81411188D01*
X196933663Y-81490550D01*
X196929040Y-81499988D01*
X196834162Y-81734227D01*
X196830920Y-81744204D01*
X196769995Y-81989476D01*
X196768189Y-81999825D01*
X196742433Y-82251213D01*
X196742102Y-82261734D01*
X191664100Y-82261734D01*
X191649651Y-82057662D01*
X191648170Y-82047261D01*
X191594982Y-81800212D01*
X191592049Y-81790117D01*
X191504583Y-81553028D01*
X191500253Y-81543439D01*
X191433388Y-81419517D01*
X191422395Y-81407872D01*
X191417646Y-81408999D01*
X191416407Y-81409922D01*
X190525201Y-82301129D01*
X190517193Y-82315000D01*
X189163911Y-82315000D01*
X189163911Y-82276436D01*
X189202475Y-82209641D01*
X189804223Y-81607893D01*
X190702872Y-80709245D01*
X190710317Y-80696350D01*
X197696901Y-80696350D01*
X197697821Y-80700517D01*
X197699395Y-80702666D01*
X198590752Y-81594022D01*
X198604623Y-81602030D01*
X198618494Y-81594022D01*
X199503272Y-80709245D01*
X199511280Y-80695374D01*
X199508535Y-80690620D01*
X199508200Y-80690366D01*
X199402718Y-80631293D01*
X199393215Y-80626821D01*
X199157527Y-80535640D01*
X199147477Y-80532548D01*
X198901294Y-80475487D01*
X198890911Y-80473842D01*
X198639153Y-80452037D01*
X198628630Y-80451872D01*
X198376305Y-80465758D01*
X198365879Y-80467075D01*
X198118033Y-80516374D01*
X198107876Y-80519153D01*
X197869456Y-80602880D01*
X197859797Y-80607060D01*
X197708720Y-80685539D01*
X197696901Y-80696350D01*
X190710317Y-80696350D01*
X190710880Y-80695374D01*
X190708135Y-80690620D01*
X190707800Y-80690366D01*
X190602318Y-80631293D01*
X190592815Y-80626821D01*
X190357127Y-80535640D01*
X190347077Y-80532548D01*
X190100894Y-80475487D01*
X190090511Y-80473842D01*
X189838753Y-80452037D01*
X189828230Y-80451872D01*
X189575905Y-80465758D01*
X189565479Y-80467075D01*
X189317626Y-80516376D01*
X189311937Y-80517932D01*
X189234810Y-80518334D01*
X189167815Y-80480119D01*
X189128903Y-80413526D01*
X189123623Y-80374212D01*
X189123623Y-77152325D01*
X189124341Y-77137720D01*
X189141401Y-76964510D01*
X189147099Y-76935863D01*
X189195483Y-76776360D01*
X189206661Y-76749374D01*
X189285233Y-76602376D01*
X189301460Y-76578089D01*
X189313871Y-76562967D01*
X189403728Y-76453475D01*
X189466422Y-76408550D01*
X189518907Y-76399000D01*
X200138340Y-76399000D01*
X200212840Y-76418962D01*
G37*
%TD.AperFunction*%
%TA.AperFunction,Conductor*%
G36*
X176285594Y-89327381D02*
G01*
X176344318Y-89339062D01*
X176406225Y-89371445D01*
X176440799Y-89432161D01*
X176444123Y-89460678D01*
X176444123Y-90738602D01*
X176444783Y-90743082D01*
X176449772Y-90776974D01*
X176440061Y-90846166D01*
X176395989Y-90898133D01*
X176389804Y-90902266D01*
X176345104Y-90920782D01*
X176300205Y-90929712D01*
X176285603Y-90932617D01*
X176261412Y-90935000D01*
X175705834Y-90935000D01*
X175681643Y-90932617D01*
X175667041Y-90929712D01*
X175622142Y-90920782D01*
X175577445Y-90902268D01*
X175537354Y-90875480D01*
X175503143Y-90841269D01*
X175476355Y-90801178D01*
X175457841Y-90756480D01*
X175446006Y-90696980D01*
X175443623Y-90672789D01*
X175443623Y-89587211D01*
X175446006Y-89563020D01*
X175457841Y-89503520D01*
X175476355Y-89458822D01*
X175503143Y-89418731D01*
X175537354Y-89384520D01*
X175556922Y-89371445D01*
X175577445Y-89357732D01*
X175622142Y-89339218D01*
X175681643Y-89327383D01*
X175705834Y-89325000D01*
X176261412Y-89325000D01*
X176285594Y-89327381D01*
G37*
%TD.AperFunction*%
%TA.AperFunction,Conductor*%
G36*
X158756662Y-93074685D02*
G01*
X158802417Y-93127489D01*
X158813623Y-93179000D01*
X158813623Y-93635000D01*
X160499623Y-93635000D01*
X160566662Y-93654685D01*
X160612417Y-93707489D01*
X160623623Y-93759000D01*
X160623623Y-95115000D01*
X163669623Y-95115000D01*
X163736662Y-95134685D01*
X163782417Y-95187489D01*
X163793623Y-95239000D01*
X163793623Y-97051000D01*
X163773938Y-97118039D01*
X163721134Y-97163794D01*
X163669623Y-97175000D01*
X160747623Y-97175000D01*
X160680584Y-97155315D01*
X160634829Y-97102511D01*
X160623623Y-97051000D01*
X160623623Y-95965000D01*
X158937623Y-95965000D01*
X158870584Y-95945315D01*
X158824829Y-95892511D01*
X158813623Y-95841000D01*
X158813623Y-95115000D01*
X155767623Y-95115000D01*
X155700584Y-95095315D01*
X155654829Y-95042511D01*
X155643623Y-94991000D01*
X155643623Y-93179000D01*
X155663308Y-93111961D01*
X155716112Y-93066206D01*
X155767623Y-93055000D01*
X158689623Y-93055000D01*
X158756662Y-93074685D01*
G37*
%TD.AperFunction*%
%TA.AperFunction,Conductor*%
G36*
X182516662Y-81064685D02*
G01*
X182562417Y-81117489D01*
X182573623Y-81169000D01*
X182573623Y-82821000D01*
X182553938Y-82888039D01*
X182501134Y-82933794D01*
X182449623Y-82945000D01*
X180797623Y-82945000D01*
X180730584Y-82925315D01*
X180684829Y-82872511D01*
X180673623Y-82821000D01*
X180673623Y-81169000D01*
X180693308Y-81101961D01*
X180746112Y-81056206D01*
X180797623Y-81045000D01*
X182449623Y-81045000D01*
X182516662Y-81064685D01*
G37*
%TD.AperFunction*%
%TA.AperFunction,Conductor*%
G36*
X141266662Y-82364685D02*
G01*
X141312417Y-82417489D01*
X141323623Y-82469000D01*
X141323623Y-83742501D01*
X141303938Y-83809540D01*
X141251134Y-83855295D01*
X141199623Y-83866501D01*
X138437623Y-83866501D01*
X138370584Y-83846816D01*
X138324829Y-83794012D01*
X138313623Y-83742501D01*
X138313623Y-82469000D01*
X138333308Y-82401961D01*
X138386112Y-82356206D01*
X138437623Y-82345000D01*
X141199623Y-82345000D01*
X141266662Y-82364685D01*
G37*
%TD.AperFunction*%
%TA.AperFunction,Conductor*%
G36*
X139942814Y-76783907D02*
G01*
X139978778Y-76833407D01*
X139983623Y-76864000D01*
X139983623Y-80306000D01*
X139964716Y-80364191D01*
X139915216Y-80400155D01*
X139884623Y-80405000D01*
X133522623Y-80405000D01*
X133464432Y-80386093D01*
X133428468Y-80336593D01*
X133423623Y-80306000D01*
X133423623Y-76864000D01*
X133442530Y-76805809D01*
X133492030Y-76769845D01*
X133522623Y-76765000D01*
X139884623Y-76765000D01*
X139942814Y-76783907D01*
G37*
%TD.AperFunction*%
%TA.AperFunction,Conductor*%
G36*
X99444754Y-81425225D02*
G01*
X99537012Y-81443576D01*
X99541229Y-81445323D01*
X99618465Y-81496930D01*
X99621693Y-81500158D01*
X99673300Y-81577394D01*
X99675047Y-81581611D01*
X99693398Y-81673869D01*
X99693623Y-81676152D01*
X99693623Y-86173848D01*
X99693398Y-86176131D01*
X99675047Y-86268389D01*
X99673300Y-86272606D01*
X99621693Y-86349842D01*
X99618465Y-86353070D01*
X99541229Y-86404677D01*
X99537012Y-86406424D01*
X99444754Y-86424775D01*
X99442471Y-86425000D01*
X94944775Y-86425000D01*
X94942492Y-86424775D01*
X94850234Y-86406424D01*
X94846017Y-86404677D01*
X94768781Y-86353070D01*
X94765553Y-86349842D01*
X94713946Y-86272606D01*
X94712199Y-86268389D01*
X94693848Y-86176131D01*
X94693623Y-86173848D01*
X94693623Y-81676152D01*
X94693848Y-81673869D01*
X94712199Y-81581611D01*
X94713946Y-81577394D01*
X94765553Y-81500158D01*
X94768781Y-81496930D01*
X94846017Y-81445323D01*
X94850234Y-81443576D01*
X94942492Y-81425225D01*
X94944775Y-81425000D01*
X99442471Y-81425000D01*
X99444754Y-81425225D01*
G37*
%TD.AperFunction*%
M02*
