%TF.GenerationSoftware,KiCad,Pcbnew,6.0.0-2.fc35*%
%TF.CreationDate,2022-02-25T18:53:21-08:00*%
%TF.ProjectId,Doorbell,446f6f72-6265-46c6-9c2e-6b696361645f,B*%
%TF.SameCoordinates,Original*%
%TF.FileFunction,Legend,Top*%
%TF.FilePolarity,Positive*%
%FSLAX46Y46*%
G04 Gerber Fmt 4.6, Leading zero omitted, Abs format (unit mm)*
G04 Created by KiCad (PCBNEW 6.0.0-2.fc35) date 2022-02-25 18:53:21*
%MOMM*%
%LPD*%
G01*
G04 APERTURE LIST*
G04 Aperture macros list*
%AMRoundRect*
0 Rectangle with rounded corners*
0 $1 Rounding radius*
0 $2 $3 $4 $5 $6 $7 $8 $9 X,Y pos of 4 corners*
0 Add a 4 corners polygon primitive as box body*
4,1,4,$2,$3,$4,$5,$6,$7,$8,$9,$2,$3,0*
0 Add four circle primitives for the rounded corners*
1,1,$1+$1,$2,$3*
1,1,$1+$1,$4,$5*
1,1,$1+$1,$6,$7*
1,1,$1+$1,$8,$9*
0 Add four rect primitives between the rounded corners*
20,1,$1+$1,$2,$3,$4,$5,0*
20,1,$1+$1,$4,$5,$6,$7,0*
20,1,$1+$1,$6,$7,$8,$9,0*
20,1,$1+$1,$8,$9,$2,$3,0*%
G04 Aperture macros list end*
%ADD10C,0.150000*%
%ADD11C,0.125000*%
%ADD12C,0.120000*%
%ADD13C,0.200000*%
%ADD14C,0.127000*%
%ADD15C,0.100000*%
%ADD16C,0.010000*%
%ADD17RoundRect,0.250000X-0.412500X-0.650000X0.412500X-0.650000X0.412500X0.650000X-0.412500X0.650000X0*%
%ADD18RoundRect,0.237500X-0.237500X0.300000X-0.237500X-0.300000X0.237500X-0.300000X0.237500X0.300000X0*%
%ADD19RoundRect,0.237500X-0.300000X-0.237500X0.300000X-0.237500X0.300000X0.237500X-0.300000X0.237500X0*%
%ADD20RoundRect,0.237500X0.237500X-0.300000X0.237500X0.300000X-0.237500X0.300000X-0.237500X-0.300000X0*%
%ADD21R,1.400000X1.300000*%
%ADD22R,0.800000X1.500000*%
%ADD23R,1.000000X0.950000*%
%ADD24R,1.300000X1.400000*%
%ADD25R,1.400000X1.900000*%
%ADD26R,5.003800X3.098800*%
%ADD27R,0.300000X0.325000*%
%ADD28R,0.613000X0.950000*%
%ADD29RoundRect,0.150000X0.150000X-0.587500X0.150000X0.587500X-0.150000X0.587500X-0.150000X-0.587500X0*%
%ADD30RoundRect,0.150000X0.587500X0.150000X-0.587500X0.150000X-0.587500X-0.150000X0.587500X-0.150000X0*%
%ADD31RoundRect,0.592800X2.157200X-1.357200X2.157200X1.357200X-2.157200X1.357200X-2.157200X-1.357200X0*%
%ADD32RoundRect,0.237500X-0.237500X0.250000X-0.237500X-0.250000X0.237500X-0.250000X0.237500X0.250000X0*%
%ADD33RoundRect,0.237500X0.250000X0.237500X-0.250000X0.237500X-0.250000X-0.237500X0.250000X-0.237500X0*%
%ADD34RoundRect,0.237500X0.237500X-0.250000X0.237500X0.250000X-0.237500X0.250000X-0.237500X-0.250000X0*%
%ADD35RoundRect,0.237500X-0.250000X-0.237500X0.250000X-0.237500X0.250000X0.237500X-0.250000X0.237500X0*%
%ADD36RoundRect,0.008100X-0.411900X-0.126900X0.411900X-0.126900X0.411900X0.126900X-0.411900X0.126900X0*%
%ADD37RoundRect,0.008100X-0.126900X-0.411900X0.126900X-0.411900X0.126900X0.411900X-0.126900X0.411900X0*%
%ADD38R,1.100000X1.100000*%
%ADD39RoundRect,0.100000X-0.637500X-0.100000X0.637500X-0.100000X0.637500X0.100000X-0.637500X0.100000X0*%
%ADD40R,1.100000X0.500000*%
%ADD41R,2.000000X2.000000*%
%ADD42R,1.800000X1.800000*%
%ADD43C,1.800000*%
%ADD44R,1.000000X1.000000*%
%ADD45RoundRect,0.250000X-0.650000X0.412500X-0.650000X-0.412500X0.650000X-0.412500X0.650000X0.412500X0*%
%ADD46RoundRect,0.250000X0.450000X-0.350000X0.450000X0.350000X-0.450000X0.350000X-0.450000X-0.350000X0*%
%ADD47RoundRect,0.250000X-0.350000X-0.450000X0.350000X-0.450000X0.350000X0.450000X-0.350000X0.450000X0*%
%ADD48R,0.500000X0.400000*%
%ADD49R,0.920000X0.285000*%
%ADD50R,0.355600X1.625600*%
%ADD51R,4.089400X2.743200*%
%ADD52RoundRect,0.250000X-0.412500X-1.100000X0.412500X-1.100000X0.412500X1.100000X-0.412500X1.100000X0*%
%ADD53R,1.550000X0.600000*%
%ADD54O,1.550000X0.600000*%
%ADD55RoundRect,0.250001X0.624999X-0.462499X0.624999X0.462499X-0.624999X0.462499X-0.624999X-0.462499X0*%
%ADD56C,2.000000*%
%ADD57R,4.038600X3.556000*%
%ADD58R,1.840000X0.640000*%
%ADD59R,0.900000X0.800000*%
%ADD60RoundRect,0.250000X0.350000X0.450000X-0.350000X0.450000X-0.350000X-0.450000X0.350000X-0.450000X0*%
%ADD61R,0.279400X1.473200*%
%ADD62R,1.473200X0.279400*%
%ADD63RoundRect,0.042000X-0.633000X-0.258000X0.633000X-0.258000X0.633000X0.258000X-0.633000X0.258000X0*%
%ADD64RoundRect,0.090000X0.210000X-0.520000X0.210000X0.520000X-0.210000X0.520000X-0.210000X-0.520000X0*%
%ADD65R,2.600000X2.600000*%
%ADD66C,2.600000*%
%ADD67C,2.006600*%
%ADD68C,2.717800*%
%ADD69C,1.200000*%
%ADD70RoundRect,0.250000X0.350000X0.650000X-0.350000X0.650000X-0.350000X-0.650000X0.350000X-0.650000X0*%
%ADD71O,1.200000X1.800000*%
%ADD72R,1.980000X1.980000*%
%ADD73C,1.980000*%
%ADD74RoundRect,0.250000X-0.350000X-0.650000X0.350000X-0.650000X0.350000X0.650000X-0.350000X0.650000X0*%
%ADD75C,4.000000*%
%ADD76R,1.700000X1.700000*%
%ADD77C,1.700000*%
%ADD78C,4.200000*%
%ADD79C,1.100000*%
G04 APERTURE END LIST*
D10*
X187376956Y-84722142D02*
X187329337Y-84769761D01*
X187186480Y-84817380D01*
X187091242Y-84817380D01*
X186948384Y-84769761D01*
X186853146Y-84674523D01*
X186805527Y-84579285D01*
X186757908Y-84388809D01*
X186757908Y-84245952D01*
X186805527Y-84055476D01*
X186853146Y-83960238D01*
X186948384Y-83865000D01*
X187091242Y-83817380D01*
X187186480Y-83817380D01*
X187329337Y-83865000D01*
X187376956Y-83912619D01*
X187710289Y-83817380D02*
X188329337Y-83817380D01*
X187996003Y-84198333D01*
X188138861Y-84198333D01*
X188234099Y-84245952D01*
X188281718Y-84293571D01*
X188329337Y-84388809D01*
X188329337Y-84626904D01*
X188281718Y-84722142D01*
X188234099Y-84769761D01*
X188138861Y-84817380D01*
X187853146Y-84817380D01*
X187757908Y-84769761D01*
X187710289Y-84722142D01*
X203300765Y-92981666D02*
X203348384Y-93029285D01*
X203396003Y-93172142D01*
X203396003Y-93267380D01*
X203348384Y-93410238D01*
X203253146Y-93505476D01*
X203157908Y-93553095D01*
X202967432Y-93600714D01*
X202824575Y-93600714D01*
X202634099Y-93553095D01*
X202538861Y-93505476D01*
X202443623Y-93410238D01*
X202396003Y-93267380D01*
X202396003Y-93172142D01*
X202443623Y-93029285D01*
X202491242Y-92981666D01*
X202824575Y-92410238D02*
X202776956Y-92505476D01*
X202729337Y-92553095D01*
X202634099Y-92600714D01*
X202586480Y-92600714D01*
X202491242Y-92553095D01*
X202443623Y-92505476D01*
X202396003Y-92410238D01*
X202396003Y-92219761D01*
X202443623Y-92124523D01*
X202491242Y-92076904D01*
X202586480Y-92029285D01*
X202634099Y-92029285D01*
X202729337Y-92076904D01*
X202776956Y-92124523D01*
X202824575Y-92219761D01*
X202824575Y-92410238D01*
X202872194Y-92505476D01*
X202919813Y-92553095D01*
X203015051Y-92600714D01*
X203205527Y-92600714D01*
X203300765Y-92553095D01*
X203348384Y-92505476D01*
X203396003Y-92410238D01*
X203396003Y-92219761D01*
X203348384Y-92124523D01*
X203300765Y-92076904D01*
X203205527Y-92029285D01*
X203015051Y-92029285D01*
X202919813Y-92076904D01*
X202872194Y-92124523D01*
X202824575Y-92219761D01*
X161480765Y-82785357D02*
X161528384Y-82832976D01*
X161576003Y-82975833D01*
X161576003Y-83071071D01*
X161528384Y-83213928D01*
X161433146Y-83309166D01*
X161337908Y-83356785D01*
X161147432Y-83404404D01*
X161004575Y-83404404D01*
X160814099Y-83356785D01*
X160718861Y-83309166D01*
X160623623Y-83213928D01*
X160576003Y-83071071D01*
X160576003Y-82975833D01*
X160623623Y-82832976D01*
X160671242Y-82785357D01*
X161576003Y-81832976D02*
X161576003Y-82404404D01*
X161576003Y-82118690D02*
X160576003Y-82118690D01*
X160718861Y-82213928D01*
X160814099Y-82309166D01*
X160861718Y-82404404D01*
X161004575Y-81261547D02*
X160956956Y-81356785D01*
X160909337Y-81404404D01*
X160814099Y-81452023D01*
X160766480Y-81452023D01*
X160671242Y-81404404D01*
X160623623Y-81356785D01*
X160576003Y-81261547D01*
X160576003Y-81071071D01*
X160623623Y-80975833D01*
X160671242Y-80928214D01*
X160766480Y-80880595D01*
X160814099Y-80880595D01*
X160909337Y-80928214D01*
X160956956Y-80975833D01*
X161004575Y-81071071D01*
X161004575Y-81261547D01*
X161052194Y-81356785D01*
X161099813Y-81404404D01*
X161195051Y-81452023D01*
X161385527Y-81452023D01*
X161480765Y-81404404D01*
X161528384Y-81356785D01*
X161576003Y-81261547D01*
X161576003Y-81071071D01*
X161528384Y-80975833D01*
X161480765Y-80928214D01*
X161385527Y-80880595D01*
X161195051Y-80880595D01*
X161099813Y-80928214D01*
X161052194Y-80975833D01*
X161004575Y-81071071D01*
X190010765Y-93467857D02*
X190058384Y-93515476D01*
X190106003Y-93658333D01*
X190106003Y-93753571D01*
X190058384Y-93896428D01*
X189963146Y-93991666D01*
X189867908Y-94039285D01*
X189677432Y-94086904D01*
X189534575Y-94086904D01*
X189344099Y-94039285D01*
X189248861Y-93991666D01*
X189153623Y-93896428D01*
X189106003Y-93753571D01*
X189106003Y-93658333D01*
X189153623Y-93515476D01*
X189201242Y-93467857D01*
X189106003Y-93134523D02*
X189106003Y-92515476D01*
X189486956Y-92848809D01*
X189486956Y-92705952D01*
X189534575Y-92610714D01*
X189582194Y-92563095D01*
X189677432Y-92515476D01*
X189915527Y-92515476D01*
X190010765Y-92563095D01*
X190058384Y-92610714D01*
X190106003Y-92705952D01*
X190106003Y-92991666D01*
X190058384Y-93086904D01*
X190010765Y-93134523D01*
X189106003Y-92182142D02*
X189106003Y-91563095D01*
X189486956Y-91896428D01*
X189486956Y-91753571D01*
X189534575Y-91658333D01*
X189582194Y-91610714D01*
X189677432Y-91563095D01*
X189915527Y-91563095D01*
X190010765Y-91610714D01*
X190058384Y-91658333D01*
X190106003Y-91753571D01*
X190106003Y-92039285D01*
X190058384Y-92134523D01*
X190010765Y-92182142D01*
X196660765Y-100467857D02*
X196708384Y-100515476D01*
X196756003Y-100658333D01*
X196756003Y-100753571D01*
X196708384Y-100896428D01*
X196613146Y-100991666D01*
X196517908Y-101039285D01*
X196327432Y-101086904D01*
X196184575Y-101086904D01*
X195994099Y-101039285D01*
X195898861Y-100991666D01*
X195803623Y-100896428D01*
X195756003Y-100753571D01*
X195756003Y-100658333D01*
X195803623Y-100515476D01*
X195851242Y-100467857D01*
X195756003Y-100134523D02*
X195756003Y-99515476D01*
X196136956Y-99848809D01*
X196136956Y-99705952D01*
X196184575Y-99610714D01*
X196232194Y-99563095D01*
X196327432Y-99515476D01*
X196565527Y-99515476D01*
X196660765Y-99563095D01*
X196708384Y-99610714D01*
X196756003Y-99705952D01*
X196756003Y-99991666D01*
X196708384Y-100086904D01*
X196660765Y-100134523D01*
X196089337Y-98658333D02*
X196756003Y-98658333D01*
X195708384Y-98896428D02*
X196422670Y-99134523D01*
X196422670Y-98515476D01*
X202450765Y-107192142D02*
X202403146Y-107239761D01*
X202260289Y-107287380D01*
X202165051Y-107287380D01*
X202022194Y-107239761D01*
X201926956Y-107144523D01*
X201879337Y-107049285D01*
X201831718Y-106858809D01*
X201831718Y-106715952D01*
X201879337Y-106525476D01*
X201926956Y-106430238D01*
X202022194Y-106335000D01*
X202165051Y-106287380D01*
X202260289Y-106287380D01*
X202403146Y-106335000D01*
X202450765Y-106382619D01*
X202784099Y-106287380D02*
X203403146Y-106287380D01*
X203069813Y-106668333D01*
X203212670Y-106668333D01*
X203307908Y-106715952D01*
X203355527Y-106763571D01*
X203403146Y-106858809D01*
X203403146Y-107096904D01*
X203355527Y-107192142D01*
X203307908Y-107239761D01*
X203212670Y-107287380D01*
X202926956Y-107287380D01*
X202831718Y-107239761D01*
X202784099Y-107192142D01*
X204307908Y-106287380D02*
X203831718Y-106287380D01*
X203784099Y-106763571D01*
X203831718Y-106715952D01*
X203926956Y-106668333D01*
X204165051Y-106668333D01*
X204260289Y-106715952D01*
X204307908Y-106763571D01*
X204355527Y-106858809D01*
X204355527Y-107096904D01*
X204307908Y-107192142D01*
X204260289Y-107239761D01*
X204165051Y-107287380D01*
X203926956Y-107287380D01*
X203831718Y-107239761D01*
X203784099Y-107192142D01*
X178860765Y-115077857D02*
X178908384Y-115125476D01*
X178956003Y-115268333D01*
X178956003Y-115363571D01*
X178908384Y-115506428D01*
X178813146Y-115601666D01*
X178717908Y-115649285D01*
X178527432Y-115696904D01*
X178384575Y-115696904D01*
X178194099Y-115649285D01*
X178098861Y-115601666D01*
X178003623Y-115506428D01*
X177956003Y-115363571D01*
X177956003Y-115268333D01*
X178003623Y-115125476D01*
X178051242Y-115077857D01*
X177956003Y-114744523D02*
X177956003Y-114125476D01*
X178336956Y-114458809D01*
X178336956Y-114315952D01*
X178384575Y-114220714D01*
X178432194Y-114173095D01*
X178527432Y-114125476D01*
X178765527Y-114125476D01*
X178860765Y-114173095D01*
X178908384Y-114220714D01*
X178956003Y-114315952D01*
X178956003Y-114601666D01*
X178908384Y-114696904D01*
X178860765Y-114744523D01*
X177956003Y-113268333D02*
X177956003Y-113458809D01*
X178003623Y-113554047D01*
X178051242Y-113601666D01*
X178194099Y-113696904D01*
X178384575Y-113744523D01*
X178765527Y-113744523D01*
X178860765Y-113696904D01*
X178908384Y-113649285D01*
X178956003Y-113554047D01*
X178956003Y-113363571D01*
X178908384Y-113268333D01*
X178860765Y-113220714D01*
X178765527Y-113173095D01*
X178527432Y-113173095D01*
X178432194Y-113220714D01*
X178384575Y-113268333D01*
X178336956Y-113363571D01*
X178336956Y-113554047D01*
X178384575Y-113649285D01*
X178432194Y-113696904D01*
X178527432Y-113744523D01*
X133616003Y-93793095D02*
X132616003Y-93793095D01*
X132616003Y-93555000D01*
X132663623Y-93412142D01*
X132758861Y-93316904D01*
X132854099Y-93269285D01*
X133044575Y-93221666D01*
X133187432Y-93221666D01*
X133377908Y-93269285D01*
X133473146Y-93316904D01*
X133568384Y-93412142D01*
X133616003Y-93555000D01*
X133616003Y-93793095D01*
X132616003Y-92364523D02*
X132616003Y-92555000D01*
X132663623Y-92650238D01*
X132711242Y-92697857D01*
X132854099Y-92793095D01*
X133044575Y-92840714D01*
X133425527Y-92840714D01*
X133520765Y-92793095D01*
X133568384Y-92745476D01*
X133616003Y-92650238D01*
X133616003Y-92459761D01*
X133568384Y-92364523D01*
X133520765Y-92316904D01*
X133425527Y-92269285D01*
X133187432Y-92269285D01*
X133092194Y-92316904D01*
X133044575Y-92364523D01*
X132996956Y-92459761D01*
X132996956Y-92650238D01*
X133044575Y-92745476D01*
X133092194Y-92793095D01*
X133187432Y-92840714D01*
X151900200Y-92618662D02*
X151900200Y-93761711D01*
X151823997Y-93990321D01*
X151671590Y-94142727D01*
X151442980Y-94218930D01*
X151290574Y-94218930D01*
X152586029Y-92771069D02*
X152662232Y-92694866D01*
X152814639Y-92618662D01*
X153195655Y-92618662D01*
X153348061Y-92694866D01*
X153424265Y-92771069D01*
X153500468Y-92923475D01*
X153500468Y-93075882D01*
X153424265Y-93304491D01*
X152509826Y-94218930D01*
X153500468Y-94218930D01*
X113206956Y-108327380D02*
X112730765Y-108327380D01*
X112730765Y-107327380D01*
X114064099Y-108327380D02*
X113492670Y-108327380D01*
X113778384Y-108327380D02*
X113778384Y-107327380D01*
X113683146Y-107470238D01*
X113587908Y-107565476D01*
X113492670Y-107613095D01*
X112806003Y-116145000D02*
X113044099Y-116145000D01*
X112948861Y-116383095D02*
X113044099Y-116145000D01*
X112948861Y-115906904D01*
X113234575Y-116287857D02*
X113044099Y-116145000D01*
X113234575Y-116002142D01*
X180028384Y-86922619D02*
X179933146Y-86875000D01*
X179837908Y-86779761D01*
X179695051Y-86636904D01*
X179599813Y-86589285D01*
X179504575Y-86589285D01*
X179552194Y-86827380D02*
X179456956Y-86779761D01*
X179361718Y-86684523D01*
X179314099Y-86494047D01*
X179314099Y-86160714D01*
X179361718Y-85970238D01*
X179456956Y-85875000D01*
X179552194Y-85827380D01*
X179742670Y-85827380D01*
X179837908Y-85875000D01*
X179933146Y-85970238D01*
X179980765Y-86160714D01*
X179980765Y-86494047D01*
X179933146Y-86684523D01*
X179837908Y-86779761D01*
X179742670Y-86827380D01*
X179552194Y-86827380D01*
X180933146Y-86827380D02*
X180361718Y-86827380D01*
X180647432Y-86827380D02*
X180647432Y-85827380D01*
X180552194Y-85970238D01*
X180456956Y-86065476D01*
X180361718Y-86113095D01*
D11*
X180667432Y-82745000D02*
X180548384Y-82745000D01*
X180596003Y-82625952D02*
X180548384Y-82745000D01*
X180596003Y-82864047D01*
X180453146Y-82673571D02*
X180548384Y-82745000D01*
X180453146Y-82816428D01*
D10*
X92608384Y-85712619D02*
X92513146Y-85665000D01*
X92417908Y-85569761D01*
X92275051Y-85426904D01*
X92179813Y-85379285D01*
X92084575Y-85379285D01*
X92132194Y-85617380D02*
X92036956Y-85569761D01*
X91941718Y-85474523D01*
X91894099Y-85284047D01*
X91894099Y-84950714D01*
X91941718Y-84760238D01*
X92036956Y-84665000D01*
X92132194Y-84617380D01*
X92322670Y-84617380D01*
X92417908Y-84665000D01*
X92513146Y-84760238D01*
X92560765Y-84950714D01*
X92560765Y-85284047D01*
X92513146Y-85474523D01*
X92417908Y-85569761D01*
X92322670Y-85617380D01*
X92132194Y-85617380D01*
X93417908Y-84950714D02*
X93417908Y-85617380D01*
X93179813Y-84569761D02*
X92941718Y-85284047D01*
X93560765Y-85284047D01*
X115698384Y-96282619D02*
X115603146Y-96235000D01*
X115507908Y-96139761D01*
X115365051Y-95996904D01*
X115269813Y-95949285D01*
X115174575Y-95949285D01*
X115222194Y-96187380D02*
X115126956Y-96139761D01*
X115031718Y-96044523D01*
X114984099Y-95854047D01*
X114984099Y-95520714D01*
X115031718Y-95330238D01*
X115126956Y-95235000D01*
X115222194Y-95187380D01*
X115412670Y-95187380D01*
X115507908Y-95235000D01*
X115603146Y-95330238D01*
X115650765Y-95520714D01*
X115650765Y-95854047D01*
X115603146Y-96044523D01*
X115507908Y-96139761D01*
X115412670Y-96187380D01*
X115222194Y-96187380D01*
X116555527Y-95187380D02*
X116079337Y-95187380D01*
X116031718Y-95663571D01*
X116079337Y-95615952D01*
X116174575Y-95568333D01*
X116412670Y-95568333D01*
X116507908Y-95615952D01*
X116555527Y-95663571D01*
X116603146Y-95758809D01*
X116603146Y-95996904D01*
X116555527Y-96092142D01*
X116507908Y-96139761D01*
X116412670Y-96187380D01*
X116174575Y-96187380D01*
X116079337Y-96139761D01*
X116031718Y-96092142D01*
X135206956Y-97907380D02*
X134873623Y-97431190D01*
X134635527Y-97907380D02*
X134635527Y-96907380D01*
X135016480Y-96907380D01*
X135111718Y-96955000D01*
X135159337Y-97002619D01*
X135206956Y-97097857D01*
X135206956Y-97240714D01*
X135159337Y-97335952D01*
X135111718Y-97383571D01*
X135016480Y-97431190D01*
X134635527Y-97431190D01*
X135683146Y-97907380D02*
X135873623Y-97907380D01*
X135968861Y-97859761D01*
X136016480Y-97812142D01*
X136111718Y-97669285D01*
X136159337Y-97478809D01*
X136159337Y-97097857D01*
X136111718Y-97002619D01*
X136064099Y-96955000D01*
X135968861Y-96907380D01*
X135778384Y-96907380D01*
X135683146Y-96955000D01*
X135635527Y-97002619D01*
X135587908Y-97097857D01*
X135587908Y-97335952D01*
X135635527Y-97431190D01*
X135683146Y-97478809D01*
X135778384Y-97526428D01*
X135968861Y-97526428D01*
X136064099Y-97478809D01*
X136111718Y-97431190D01*
X136159337Y-97335952D01*
X128200765Y-97907380D02*
X127867432Y-97431190D01*
X127629337Y-97907380D02*
X127629337Y-96907380D01*
X128010289Y-96907380D01*
X128105527Y-96955000D01*
X128153146Y-97002619D01*
X128200765Y-97097857D01*
X128200765Y-97240714D01*
X128153146Y-97335952D01*
X128105527Y-97383571D01*
X128010289Y-97431190D01*
X127629337Y-97431190D01*
X129153146Y-97907380D02*
X128581718Y-97907380D01*
X128867432Y-97907380D02*
X128867432Y-96907380D01*
X128772194Y-97050238D01*
X128676956Y-97145476D01*
X128581718Y-97193095D01*
X129772194Y-96907380D02*
X129867432Y-96907380D01*
X129962670Y-96955000D01*
X130010289Y-97002619D01*
X130057908Y-97097857D01*
X130105527Y-97288333D01*
X130105527Y-97526428D01*
X130057908Y-97716904D01*
X130010289Y-97812142D01*
X129962670Y-97859761D01*
X129867432Y-97907380D01*
X129772194Y-97907380D01*
X129676956Y-97859761D01*
X129629337Y-97812142D01*
X129581718Y-97716904D01*
X129534099Y-97526428D01*
X129534099Y-97288333D01*
X129581718Y-97097857D01*
X129629337Y-97002619D01*
X129676956Y-96955000D01*
X129772194Y-96907380D01*
X149740765Y-105227380D02*
X149407432Y-104751190D01*
X149169337Y-105227380D02*
X149169337Y-104227380D01*
X149550289Y-104227380D01*
X149645527Y-104275000D01*
X149693146Y-104322619D01*
X149740765Y-104417857D01*
X149740765Y-104560714D01*
X149693146Y-104655952D01*
X149645527Y-104703571D01*
X149550289Y-104751190D01*
X149169337Y-104751190D01*
X150693146Y-105227380D02*
X150121718Y-105227380D01*
X150407432Y-105227380D02*
X150407432Y-104227380D01*
X150312194Y-104370238D01*
X150216956Y-104465476D01*
X150121718Y-104513095D01*
X151550289Y-104560714D02*
X151550289Y-105227380D01*
X151312194Y-104179761D02*
X151074099Y-104894047D01*
X151693146Y-104894047D01*
X113210765Y-101287380D02*
X112877432Y-100811190D01*
X112639337Y-101287380D02*
X112639337Y-100287380D01*
X113020289Y-100287380D01*
X113115527Y-100335000D01*
X113163146Y-100382619D01*
X113210765Y-100477857D01*
X113210765Y-100620714D01*
X113163146Y-100715952D01*
X113115527Y-100763571D01*
X113020289Y-100811190D01*
X112639337Y-100811190D01*
X114163146Y-101287380D02*
X113591718Y-101287380D01*
X113877432Y-101287380D02*
X113877432Y-100287380D01*
X113782194Y-100430238D01*
X113686956Y-100525476D01*
X113591718Y-100573095D01*
X115020289Y-100287380D02*
X114829813Y-100287380D01*
X114734575Y-100335000D01*
X114686956Y-100382619D01*
X114591718Y-100525476D01*
X114544099Y-100715952D01*
X114544099Y-101096904D01*
X114591718Y-101192142D01*
X114639337Y-101239761D01*
X114734575Y-101287380D01*
X114925051Y-101287380D01*
X115020289Y-101239761D01*
X115067908Y-101192142D01*
X115115527Y-101096904D01*
X115115527Y-100858809D01*
X115067908Y-100763571D01*
X115020289Y-100715952D01*
X114925051Y-100668333D01*
X114734575Y-100668333D01*
X114639337Y-100715952D01*
X114591718Y-100763571D01*
X114544099Y-100858809D01*
X108246003Y-90157857D02*
X107769813Y-90491190D01*
X108246003Y-90729285D02*
X107246003Y-90729285D01*
X107246003Y-90348333D01*
X107293623Y-90253095D01*
X107341242Y-90205476D01*
X107436480Y-90157857D01*
X107579337Y-90157857D01*
X107674575Y-90205476D01*
X107722194Y-90253095D01*
X107769813Y-90348333D01*
X107769813Y-90729285D01*
X107341242Y-89776904D02*
X107293623Y-89729285D01*
X107246003Y-89634047D01*
X107246003Y-89395952D01*
X107293623Y-89300714D01*
X107341242Y-89253095D01*
X107436480Y-89205476D01*
X107531718Y-89205476D01*
X107674575Y-89253095D01*
X108246003Y-89824523D01*
X108246003Y-89205476D01*
X107246003Y-88300714D02*
X107246003Y-88776904D01*
X107722194Y-88824523D01*
X107674575Y-88776904D01*
X107626956Y-88681666D01*
X107626956Y-88443571D01*
X107674575Y-88348333D01*
X107722194Y-88300714D01*
X107817432Y-88253095D01*
X108055527Y-88253095D01*
X108150765Y-88300714D01*
X108198384Y-88348333D01*
X108246003Y-88443571D01*
X108246003Y-88681666D01*
X108198384Y-88776904D01*
X108150765Y-88824523D01*
X190550765Y-97637380D02*
X190217432Y-97161190D01*
X189979337Y-97637380D02*
X189979337Y-96637380D01*
X190360289Y-96637380D01*
X190455527Y-96685000D01*
X190503146Y-96732619D01*
X190550765Y-96827857D01*
X190550765Y-96970714D01*
X190503146Y-97065952D01*
X190455527Y-97113571D01*
X190360289Y-97161190D01*
X189979337Y-97161190D01*
X190931718Y-96732619D02*
X190979337Y-96685000D01*
X191074575Y-96637380D01*
X191312670Y-96637380D01*
X191407908Y-96685000D01*
X191455527Y-96732619D01*
X191503146Y-96827857D01*
X191503146Y-96923095D01*
X191455527Y-97065952D01*
X190884099Y-97637380D01*
X191503146Y-97637380D01*
X192360289Y-96637380D02*
X192169813Y-96637380D01*
X192074575Y-96685000D01*
X192026956Y-96732619D01*
X191931718Y-96875476D01*
X191884099Y-97065952D01*
X191884099Y-97446904D01*
X191931718Y-97542142D01*
X191979337Y-97589761D01*
X192074575Y-97637380D01*
X192265051Y-97637380D01*
X192360289Y-97589761D01*
X192407908Y-97542142D01*
X192455527Y-97446904D01*
X192455527Y-97208809D01*
X192407908Y-97113571D01*
X192360289Y-97065952D01*
X192265051Y-97018333D01*
X192074575Y-97018333D01*
X191979337Y-97065952D01*
X191931718Y-97113571D01*
X191884099Y-97208809D01*
X200990765Y-97637380D02*
X200657432Y-97161190D01*
X200419337Y-97637380D02*
X200419337Y-96637380D01*
X200800289Y-96637380D01*
X200895527Y-96685000D01*
X200943146Y-96732619D01*
X200990765Y-96827857D01*
X200990765Y-96970714D01*
X200943146Y-97065952D01*
X200895527Y-97113571D01*
X200800289Y-97161190D01*
X200419337Y-97161190D01*
X201371718Y-96732619D02*
X201419337Y-96685000D01*
X201514575Y-96637380D01*
X201752670Y-96637380D01*
X201847908Y-96685000D01*
X201895527Y-96732619D01*
X201943146Y-96827857D01*
X201943146Y-96923095D01*
X201895527Y-97065952D01*
X201324099Y-97637380D01*
X201943146Y-97637380D01*
X202276480Y-96637380D02*
X202943146Y-96637380D01*
X202514575Y-97637380D01*
X190600765Y-95967380D02*
X190267432Y-95491190D01*
X190029337Y-95967380D02*
X190029337Y-94967380D01*
X190410289Y-94967380D01*
X190505527Y-95015000D01*
X190553146Y-95062619D01*
X190600765Y-95157857D01*
X190600765Y-95300714D01*
X190553146Y-95395952D01*
X190505527Y-95443571D01*
X190410289Y-95491190D01*
X190029337Y-95491190D01*
X190981718Y-95062619D02*
X191029337Y-95015000D01*
X191124575Y-94967380D01*
X191362670Y-94967380D01*
X191457908Y-95015000D01*
X191505527Y-95062619D01*
X191553146Y-95157857D01*
X191553146Y-95253095D01*
X191505527Y-95395952D01*
X190934099Y-95967380D01*
X191553146Y-95967380D01*
X192124575Y-95395952D02*
X192029337Y-95348333D01*
X191981718Y-95300714D01*
X191934099Y-95205476D01*
X191934099Y-95157857D01*
X191981718Y-95062619D01*
X192029337Y-95015000D01*
X192124575Y-94967380D01*
X192315051Y-94967380D01*
X192410289Y-95015000D01*
X192457908Y-95062619D01*
X192505527Y-95157857D01*
X192505527Y-95205476D01*
X192457908Y-95300714D01*
X192410289Y-95348333D01*
X192315051Y-95395952D01*
X192124575Y-95395952D01*
X192029337Y-95443571D01*
X191981718Y-95491190D01*
X191934099Y-95586428D01*
X191934099Y-95776904D01*
X191981718Y-95872142D01*
X192029337Y-95919761D01*
X192124575Y-95967380D01*
X192315051Y-95967380D01*
X192410289Y-95919761D01*
X192457908Y-95872142D01*
X192505527Y-95776904D01*
X192505527Y-95586428D01*
X192457908Y-95491190D01*
X192410289Y-95443571D01*
X192315051Y-95395952D01*
X200970765Y-95927380D02*
X200637432Y-95451190D01*
X200399337Y-95927380D02*
X200399337Y-94927380D01*
X200780289Y-94927380D01*
X200875527Y-94975000D01*
X200923146Y-95022619D01*
X200970765Y-95117857D01*
X200970765Y-95260714D01*
X200923146Y-95355952D01*
X200875527Y-95403571D01*
X200780289Y-95451190D01*
X200399337Y-95451190D01*
X201351718Y-95022619D02*
X201399337Y-94975000D01*
X201494575Y-94927380D01*
X201732670Y-94927380D01*
X201827908Y-94975000D01*
X201875527Y-95022619D01*
X201923146Y-95117857D01*
X201923146Y-95213095D01*
X201875527Y-95355952D01*
X201304099Y-95927380D01*
X201923146Y-95927380D01*
X202399337Y-95927380D02*
X202589813Y-95927380D01*
X202685051Y-95879761D01*
X202732670Y-95832142D01*
X202827908Y-95689285D01*
X202875527Y-95498809D01*
X202875527Y-95117857D01*
X202827908Y-95022619D01*
X202780289Y-94975000D01*
X202685051Y-94927380D01*
X202494575Y-94927380D01*
X202399337Y-94975000D01*
X202351718Y-95022619D01*
X202304099Y-95117857D01*
X202304099Y-95355952D01*
X202351718Y-95451190D01*
X202399337Y-95498809D01*
X202494575Y-95546428D01*
X202685051Y-95546428D01*
X202780289Y-95498809D01*
X202827908Y-95451190D01*
X202875527Y-95355952D01*
X195280765Y-104107380D02*
X194947432Y-103631190D01*
X194709337Y-104107380D02*
X194709337Y-103107380D01*
X195090289Y-103107380D01*
X195185527Y-103155000D01*
X195233146Y-103202619D01*
X195280765Y-103297857D01*
X195280765Y-103440714D01*
X195233146Y-103535952D01*
X195185527Y-103583571D01*
X195090289Y-103631190D01*
X194709337Y-103631190D01*
X195614099Y-103107380D02*
X196233146Y-103107380D01*
X195899813Y-103488333D01*
X196042670Y-103488333D01*
X196137908Y-103535952D01*
X196185527Y-103583571D01*
X196233146Y-103678809D01*
X196233146Y-103916904D01*
X196185527Y-104012142D01*
X196137908Y-104059761D01*
X196042670Y-104107380D01*
X195756956Y-104107380D01*
X195661718Y-104059761D01*
X195614099Y-104012142D01*
X196852194Y-103107380D02*
X196947432Y-103107380D01*
X197042670Y-103155000D01*
X197090289Y-103202619D01*
X197137908Y-103297857D01*
X197185527Y-103488333D01*
X197185527Y-103726428D01*
X197137908Y-103916904D01*
X197090289Y-104012142D01*
X197042670Y-104059761D01*
X196947432Y-104107380D01*
X196852194Y-104107380D01*
X196756956Y-104059761D01*
X196709337Y-104012142D01*
X196661718Y-103916904D01*
X196614099Y-103726428D01*
X196614099Y-103488333D01*
X196661718Y-103297857D01*
X196709337Y-103202619D01*
X196756956Y-103155000D01*
X196852194Y-103107380D01*
X198850765Y-104137380D02*
X198517432Y-103661190D01*
X198279337Y-104137380D02*
X198279337Y-103137380D01*
X198660289Y-103137380D01*
X198755527Y-103185000D01*
X198803146Y-103232619D01*
X198850765Y-103327857D01*
X198850765Y-103470714D01*
X198803146Y-103565952D01*
X198755527Y-103613571D01*
X198660289Y-103661190D01*
X198279337Y-103661190D01*
X199184099Y-103137380D02*
X199803146Y-103137380D01*
X199469813Y-103518333D01*
X199612670Y-103518333D01*
X199707908Y-103565952D01*
X199755527Y-103613571D01*
X199803146Y-103708809D01*
X199803146Y-103946904D01*
X199755527Y-104042142D01*
X199707908Y-104089761D01*
X199612670Y-104137380D01*
X199326956Y-104137380D01*
X199231718Y-104089761D01*
X199184099Y-104042142D01*
X200755527Y-104137380D02*
X200184099Y-104137380D01*
X200469813Y-104137380D02*
X200469813Y-103137380D01*
X200374575Y-103280238D01*
X200279337Y-103375476D01*
X200184099Y-103423095D01*
X149638765Y-115811380D02*
X149305432Y-115335190D01*
X149067337Y-115811380D02*
X149067337Y-114811380D01*
X149448289Y-114811380D01*
X149543527Y-114859000D01*
X149591146Y-114906619D01*
X149638765Y-115001857D01*
X149638765Y-115144714D01*
X149591146Y-115239952D01*
X149543527Y-115287571D01*
X149448289Y-115335190D01*
X149067337Y-115335190D01*
X149972099Y-114811380D02*
X150591146Y-114811380D01*
X150257813Y-115192333D01*
X150400670Y-115192333D01*
X150495908Y-115239952D01*
X150543527Y-115287571D01*
X150591146Y-115382809D01*
X150591146Y-115620904D01*
X150543527Y-115716142D01*
X150495908Y-115763761D01*
X150400670Y-115811380D01*
X150114956Y-115811380D01*
X150019718Y-115763761D01*
X149972099Y-115716142D01*
X150972099Y-114906619D02*
X151019718Y-114859000D01*
X151114956Y-114811380D01*
X151353051Y-114811380D01*
X151448289Y-114859000D01*
X151495908Y-114906619D01*
X151543527Y-115001857D01*
X151543527Y-115097095D01*
X151495908Y-115239952D01*
X150924480Y-115811380D01*
X151543527Y-115811380D01*
X180571718Y-79457380D02*
X180571718Y-80266904D01*
X180619337Y-80362142D01*
X180666956Y-80409761D01*
X180762194Y-80457380D01*
X180952670Y-80457380D01*
X181047908Y-80409761D01*
X181095527Y-80362142D01*
X181143146Y-80266904D01*
X181143146Y-79457380D01*
X181571718Y-79552619D02*
X181619337Y-79505000D01*
X181714575Y-79457380D01*
X181952670Y-79457380D01*
X182047908Y-79505000D01*
X182095527Y-79552619D01*
X182143146Y-79647857D01*
X182143146Y-79743095D01*
X182095527Y-79885952D01*
X181524099Y-80457380D01*
X182143146Y-80457380D01*
X172925527Y-115277380D02*
X172925527Y-116086904D01*
X172973146Y-116182142D01*
X173020765Y-116229761D01*
X173116003Y-116277380D01*
X173306480Y-116277380D01*
X173401718Y-116229761D01*
X173449337Y-116182142D01*
X173496956Y-116086904D01*
X173496956Y-115277380D01*
X174496956Y-116277380D02*
X173925527Y-116277380D01*
X174211242Y-116277380D02*
X174211242Y-115277380D01*
X174116003Y-115420238D01*
X174020765Y-115515476D01*
X173925527Y-115563095D01*
X175449337Y-116277380D02*
X174877908Y-116277380D01*
X175163623Y-116277380D02*
X175163623Y-115277380D01*
X175068384Y-115420238D01*
X174973146Y-115515476D01*
X174877908Y-115563095D01*
X169953623Y-116817380D02*
X169953623Y-117055476D01*
X169715527Y-116960238D02*
X169953623Y-117055476D01*
X170191718Y-116960238D01*
X169810765Y-117245952D02*
X169953623Y-117055476D01*
X170096480Y-117245952D01*
X166601718Y-82497380D02*
X166601718Y-83306904D01*
X166649337Y-83402142D01*
X166696956Y-83449761D01*
X166792194Y-83497380D01*
X166982670Y-83497380D01*
X167077908Y-83449761D01*
X167125527Y-83402142D01*
X167173146Y-83306904D01*
X167173146Y-82497380D01*
X168077908Y-82497380D02*
X167887432Y-82497380D01*
X167792194Y-82545000D01*
X167744575Y-82592619D01*
X167649337Y-82735476D01*
X167601718Y-82925952D01*
X167601718Y-83306904D01*
X167649337Y-83402142D01*
X167696956Y-83449761D01*
X167792194Y-83497380D01*
X167982670Y-83497380D01*
X168077908Y-83449761D01*
X168125527Y-83402142D01*
X168173146Y-83306904D01*
X168173146Y-83068809D01*
X168125527Y-82973571D01*
X168077908Y-82925952D01*
X167982670Y-82878333D01*
X167792194Y-82878333D01*
X167696956Y-82925952D01*
X167649337Y-82973571D01*
X167601718Y-83068809D01*
X171443623Y-81542619D02*
X171443623Y-81304523D01*
X171681718Y-81399761D02*
X171443623Y-81304523D01*
X171205527Y-81399761D01*
X171586480Y-81114047D02*
X171443623Y-81304523D01*
X171300765Y-81114047D01*
X91050765Y-97887380D02*
X90717432Y-97411190D01*
X90479337Y-97887380D02*
X90479337Y-96887380D01*
X90860289Y-96887380D01*
X90955527Y-96935000D01*
X91003146Y-96982619D01*
X91050765Y-97077857D01*
X91050765Y-97220714D01*
X91003146Y-97315952D01*
X90955527Y-97363571D01*
X90860289Y-97411190D01*
X90479337Y-97411190D01*
X91431718Y-96982619D02*
X91479337Y-96935000D01*
X91574575Y-96887380D01*
X91812670Y-96887380D01*
X91907908Y-96935000D01*
X91955527Y-96982619D01*
X92003146Y-97077857D01*
X92003146Y-97173095D01*
X91955527Y-97315952D01*
X91384099Y-97887380D01*
X92003146Y-97887380D01*
X92955527Y-97887380D02*
X92384099Y-97887380D01*
X92669813Y-97887380D02*
X92669813Y-96887380D01*
X92574575Y-97030238D01*
X92479337Y-97125476D01*
X92384099Y-97173095D01*
X154346765Y-115811380D02*
X154013432Y-115335190D01*
X153775337Y-115811380D02*
X153775337Y-114811380D01*
X154156289Y-114811380D01*
X154251527Y-114859000D01*
X154299146Y-114906619D01*
X154346765Y-115001857D01*
X154346765Y-115144714D01*
X154299146Y-115239952D01*
X154251527Y-115287571D01*
X154156289Y-115335190D01*
X153775337Y-115335190D01*
X154680099Y-114811380D02*
X155299146Y-114811380D01*
X154965813Y-115192333D01*
X155108670Y-115192333D01*
X155203908Y-115239952D01*
X155251527Y-115287571D01*
X155299146Y-115382809D01*
X155299146Y-115620904D01*
X155251527Y-115716142D01*
X155203908Y-115763761D01*
X155108670Y-115811380D01*
X154822956Y-115811380D01*
X154727718Y-115763761D01*
X154680099Y-115716142D01*
X155632480Y-114811380D02*
X156251527Y-114811380D01*
X155918194Y-115192333D01*
X156061051Y-115192333D01*
X156156289Y-115239952D01*
X156203908Y-115287571D01*
X156251527Y-115382809D01*
X156251527Y-115620904D01*
X156203908Y-115716142D01*
X156156289Y-115763761D01*
X156061051Y-115811380D01*
X155775337Y-115811380D01*
X155680099Y-115763761D01*
X155632480Y-115716142D01*
X95286003Y-82033095D02*
X94286003Y-82033095D01*
X94286003Y-81795000D01*
X94333623Y-81652142D01*
X94428861Y-81556904D01*
X94524099Y-81509285D01*
X94714575Y-81461666D01*
X94857432Y-81461666D01*
X95047908Y-81509285D01*
X95143146Y-81556904D01*
X95238384Y-81652142D01*
X95286003Y-81795000D01*
X95286003Y-82033095D01*
X94619337Y-80604523D02*
X95286003Y-80604523D01*
X94238384Y-80842619D02*
X94952670Y-81080714D01*
X94952670Y-80461666D01*
X93765051Y-84605952D02*
X93765051Y-83844047D01*
X91905051Y-79125952D02*
X91905051Y-78364047D01*
X92286003Y-78745000D02*
X91524099Y-78745000D01*
X105486003Y-80373095D02*
X104486003Y-80373095D01*
X104486003Y-80135000D01*
X104533623Y-79992142D01*
X104628861Y-79896904D01*
X104724099Y-79849285D01*
X104914575Y-79801666D01*
X105057432Y-79801666D01*
X105247908Y-79849285D01*
X105343146Y-79896904D01*
X105438384Y-79992142D01*
X105486003Y-80135000D01*
X105486003Y-80373095D01*
X105486003Y-78849285D02*
X105486003Y-79420714D01*
X105486003Y-79135000D02*
X104486003Y-79135000D01*
X104628861Y-79230238D01*
X104724099Y-79325476D01*
X104771718Y-79420714D01*
X107826003Y-83821666D02*
X107349813Y-84155000D01*
X107826003Y-84393095D02*
X106826003Y-84393095D01*
X106826003Y-84012142D01*
X106873623Y-83916904D01*
X106921242Y-83869285D01*
X107016480Y-83821666D01*
X107159337Y-83821666D01*
X107254575Y-83869285D01*
X107302194Y-83916904D01*
X107349813Y-84012142D01*
X107349813Y-84393095D01*
X106826003Y-83488333D02*
X106826003Y-82869285D01*
X107206956Y-83202619D01*
X107206956Y-83059761D01*
X107254575Y-82964523D01*
X107302194Y-82916904D01*
X107397432Y-82869285D01*
X107635527Y-82869285D01*
X107730765Y-82916904D01*
X107778384Y-82964523D01*
X107826003Y-83059761D01*
X107826003Y-83345476D01*
X107778384Y-83440714D01*
X107730765Y-83488333D01*
X105390765Y-94607857D02*
X105438384Y-94655476D01*
X105486003Y-94798333D01*
X105486003Y-94893571D01*
X105438384Y-95036428D01*
X105343146Y-95131666D01*
X105247908Y-95179285D01*
X105057432Y-95226904D01*
X104914575Y-95226904D01*
X104724099Y-95179285D01*
X104628861Y-95131666D01*
X104533623Y-95036428D01*
X104486003Y-94893571D01*
X104486003Y-94798333D01*
X104533623Y-94655476D01*
X104581242Y-94607857D01*
X104581242Y-94226904D02*
X104533623Y-94179285D01*
X104486003Y-94084047D01*
X104486003Y-93845952D01*
X104533623Y-93750714D01*
X104581242Y-93703095D01*
X104676480Y-93655476D01*
X104771718Y-93655476D01*
X104914575Y-93703095D01*
X105486003Y-94274523D01*
X105486003Y-93655476D01*
X105486003Y-92703095D02*
X105486003Y-93274523D01*
X105486003Y-92988809D02*
X104486003Y-92988809D01*
X104628861Y-93084047D01*
X104724099Y-93179285D01*
X104771718Y-93274523D01*
X100630765Y-93547857D02*
X100678384Y-93595476D01*
X100726003Y-93738333D01*
X100726003Y-93833571D01*
X100678384Y-93976428D01*
X100583146Y-94071666D01*
X100487908Y-94119285D01*
X100297432Y-94166904D01*
X100154575Y-94166904D01*
X99964099Y-94119285D01*
X99868861Y-94071666D01*
X99773623Y-93976428D01*
X99726003Y-93833571D01*
X99726003Y-93738333D01*
X99773623Y-93595476D01*
X99821242Y-93547857D01*
X99821242Y-93166904D02*
X99773623Y-93119285D01*
X99726003Y-93024047D01*
X99726003Y-92785952D01*
X99773623Y-92690714D01*
X99821242Y-92643095D01*
X99916480Y-92595476D01*
X100011718Y-92595476D01*
X100154575Y-92643095D01*
X100726003Y-93214523D01*
X100726003Y-92595476D01*
X99726003Y-92262142D02*
X99726003Y-91643095D01*
X100106956Y-91976428D01*
X100106956Y-91833571D01*
X100154575Y-91738333D01*
X100202194Y-91690714D01*
X100297432Y-91643095D01*
X100535527Y-91643095D01*
X100630765Y-91690714D01*
X100678384Y-91738333D01*
X100726003Y-91833571D01*
X100726003Y-92119285D01*
X100678384Y-92214523D01*
X100630765Y-92262142D01*
X96666003Y-107127857D02*
X96189813Y-107461190D01*
X96666003Y-107699285D02*
X95666003Y-107699285D01*
X95666003Y-107318333D01*
X95713623Y-107223095D01*
X95761242Y-107175476D01*
X95856480Y-107127857D01*
X95999337Y-107127857D01*
X96094575Y-107175476D01*
X96142194Y-107223095D01*
X96189813Y-107318333D01*
X96189813Y-107699285D01*
X96666003Y-106175476D02*
X96666003Y-106746904D01*
X96666003Y-106461190D02*
X95666003Y-106461190D01*
X95808861Y-106556428D01*
X95904099Y-106651666D01*
X95951718Y-106746904D01*
X95666003Y-105842142D02*
X95666003Y-105175476D01*
X96666003Y-105604047D01*
X91430765Y-92347380D02*
X91097432Y-91871190D01*
X90859337Y-92347380D02*
X90859337Y-91347380D01*
X91240289Y-91347380D01*
X91335527Y-91395000D01*
X91383146Y-91442619D01*
X91430765Y-91537857D01*
X91430765Y-91680714D01*
X91383146Y-91775952D01*
X91335527Y-91823571D01*
X91240289Y-91871190D01*
X90859337Y-91871190D01*
X91811718Y-91442619D02*
X91859337Y-91395000D01*
X91954575Y-91347380D01*
X92192670Y-91347380D01*
X92287908Y-91395000D01*
X92335527Y-91442619D01*
X92383146Y-91537857D01*
X92383146Y-91633095D01*
X92335527Y-91775952D01*
X91764099Y-92347380D01*
X92383146Y-92347380D01*
X93002194Y-91347380D02*
X93097432Y-91347380D01*
X93192670Y-91395000D01*
X93240289Y-91442619D01*
X93287908Y-91537857D01*
X93335527Y-91728333D01*
X93335527Y-91966428D01*
X93287908Y-92156904D01*
X93240289Y-92252142D01*
X93192670Y-92299761D01*
X93097432Y-92347380D01*
X93002194Y-92347380D01*
X92906956Y-92299761D01*
X92859337Y-92252142D01*
X92811718Y-92156904D01*
X92764099Y-91966428D01*
X92764099Y-91728333D01*
X92811718Y-91537857D01*
X92859337Y-91442619D01*
X92906956Y-91395000D01*
X93002194Y-91347380D01*
X102086003Y-106457857D02*
X101609813Y-106791190D01*
X102086003Y-107029285D02*
X101086003Y-107029285D01*
X101086003Y-106648333D01*
X101133623Y-106553095D01*
X101181242Y-106505476D01*
X101276480Y-106457857D01*
X101419337Y-106457857D01*
X101514575Y-106505476D01*
X101562194Y-106553095D01*
X101609813Y-106648333D01*
X101609813Y-107029285D01*
X102086003Y-105505476D02*
X102086003Y-106076904D01*
X102086003Y-105791190D02*
X101086003Y-105791190D01*
X101228861Y-105886428D01*
X101324099Y-105981666D01*
X101371718Y-106076904D01*
X101514575Y-104934047D02*
X101466956Y-105029285D01*
X101419337Y-105076904D01*
X101324099Y-105124523D01*
X101276480Y-105124523D01*
X101181242Y-105076904D01*
X101133623Y-105029285D01*
X101086003Y-104934047D01*
X101086003Y-104743571D01*
X101133623Y-104648333D01*
X101181242Y-104600714D01*
X101276480Y-104553095D01*
X101324099Y-104553095D01*
X101419337Y-104600714D01*
X101466956Y-104648333D01*
X101514575Y-104743571D01*
X101514575Y-104934047D01*
X101562194Y-105029285D01*
X101609813Y-105076904D01*
X101705051Y-105124523D01*
X101895527Y-105124523D01*
X101990765Y-105076904D01*
X102038384Y-105029285D01*
X102086003Y-104934047D01*
X102086003Y-104743571D01*
X102038384Y-104648333D01*
X101990765Y-104600714D01*
X101895527Y-104553095D01*
X101705051Y-104553095D01*
X101609813Y-104600714D01*
X101562194Y-104648333D01*
X101514575Y-104743571D01*
X110860765Y-95412142D02*
X110813146Y-95459761D01*
X110670289Y-95507380D01*
X110575051Y-95507380D01*
X110432194Y-95459761D01*
X110336956Y-95364523D01*
X110289337Y-95269285D01*
X110241718Y-95078809D01*
X110241718Y-94935952D01*
X110289337Y-94745476D01*
X110336956Y-94650238D01*
X110432194Y-94555000D01*
X110575051Y-94507380D01*
X110670289Y-94507380D01*
X110813146Y-94555000D01*
X110860765Y-94602619D01*
X111241718Y-94602619D02*
X111289337Y-94555000D01*
X111384575Y-94507380D01*
X111622670Y-94507380D01*
X111717908Y-94555000D01*
X111765527Y-94602619D01*
X111813146Y-94697857D01*
X111813146Y-94793095D01*
X111765527Y-94935952D01*
X111194099Y-95507380D01*
X111813146Y-95507380D01*
X112432194Y-94507380D02*
X112527432Y-94507380D01*
X112622670Y-94555000D01*
X112670289Y-94602619D01*
X112717908Y-94697857D01*
X112765527Y-94888333D01*
X112765527Y-95126428D01*
X112717908Y-95316904D01*
X112670289Y-95412142D01*
X112622670Y-95459761D01*
X112527432Y-95507380D01*
X112432194Y-95507380D01*
X112336956Y-95459761D01*
X112289337Y-95412142D01*
X112241718Y-95316904D01*
X112194099Y-95126428D01*
X112194099Y-94888333D01*
X112241718Y-94697857D01*
X112289337Y-94602619D01*
X112336956Y-94555000D01*
X112432194Y-94507380D01*
X109130765Y-100952142D02*
X109083146Y-100999761D01*
X108940289Y-101047380D01*
X108845051Y-101047380D01*
X108702194Y-100999761D01*
X108606956Y-100904523D01*
X108559337Y-100809285D01*
X108511718Y-100618809D01*
X108511718Y-100475952D01*
X108559337Y-100285476D01*
X108606956Y-100190238D01*
X108702194Y-100095000D01*
X108845051Y-100047380D01*
X108940289Y-100047380D01*
X109083146Y-100095000D01*
X109130765Y-100142619D01*
X109511718Y-100142619D02*
X109559337Y-100095000D01*
X109654575Y-100047380D01*
X109892670Y-100047380D01*
X109987908Y-100095000D01*
X110035527Y-100142619D01*
X110083146Y-100237857D01*
X110083146Y-100333095D01*
X110035527Y-100475952D01*
X109464099Y-101047380D01*
X110083146Y-101047380D01*
X110464099Y-100142619D02*
X110511718Y-100095000D01*
X110606956Y-100047380D01*
X110845051Y-100047380D01*
X110940289Y-100095000D01*
X110987908Y-100142619D01*
X111035527Y-100237857D01*
X111035527Y-100333095D01*
X110987908Y-100475952D01*
X110416480Y-101047380D01*
X111035527Y-101047380D01*
X98218384Y-81152619D02*
X98123146Y-81105000D01*
X98027908Y-81009761D01*
X97885051Y-80866904D01*
X97789813Y-80819285D01*
X97694575Y-80819285D01*
X97742194Y-81057380D02*
X97646956Y-81009761D01*
X97551718Y-80914523D01*
X97504099Y-80724047D01*
X97504099Y-80390714D01*
X97551718Y-80200238D01*
X97646956Y-80105000D01*
X97742194Y-80057380D01*
X97932670Y-80057380D01*
X98027908Y-80105000D01*
X98123146Y-80200238D01*
X98170765Y-80390714D01*
X98170765Y-80724047D01*
X98123146Y-80914523D01*
X98027908Y-81009761D01*
X97932670Y-81057380D01*
X97742194Y-81057380D01*
X98551718Y-80152619D02*
X98599337Y-80105000D01*
X98694575Y-80057380D01*
X98932670Y-80057380D01*
X99027908Y-80105000D01*
X99075527Y-80152619D01*
X99123146Y-80247857D01*
X99123146Y-80343095D01*
X99075527Y-80485952D01*
X98504099Y-81057380D01*
X99123146Y-81057380D01*
X103731718Y-104357380D02*
X103731718Y-105166904D01*
X103779337Y-105262142D01*
X103826956Y-105309761D01*
X103922194Y-105357380D01*
X104112670Y-105357380D01*
X104207908Y-105309761D01*
X104255527Y-105262142D01*
X104303146Y-105166904D01*
X104303146Y-104357380D01*
X104922194Y-104785952D02*
X104826956Y-104738333D01*
X104779337Y-104690714D01*
X104731718Y-104595476D01*
X104731718Y-104547857D01*
X104779337Y-104452619D01*
X104826956Y-104405000D01*
X104922194Y-104357380D01*
X105112670Y-104357380D01*
X105207908Y-104405000D01*
X105255527Y-104452619D01*
X105303146Y-104547857D01*
X105303146Y-104595476D01*
X105255527Y-104690714D01*
X105207908Y-104738333D01*
X105112670Y-104785952D01*
X104922194Y-104785952D01*
X104826956Y-104833571D01*
X104779337Y-104881190D01*
X104731718Y-104976428D01*
X104731718Y-105166904D01*
X104779337Y-105262142D01*
X104826956Y-105309761D01*
X104922194Y-105357380D01*
X105112670Y-105357380D01*
X105207908Y-105309761D01*
X105255527Y-105262142D01*
X105303146Y-105166904D01*
X105303146Y-104976428D01*
X105255527Y-104881190D01*
X105207908Y-104833571D01*
X105112670Y-104785952D01*
X110936003Y-102075000D02*
X111174099Y-102075000D01*
X111078861Y-102313095D02*
X111174099Y-102075000D01*
X111078861Y-101836904D01*
X111364575Y-102217857D02*
X111174099Y-102075000D01*
X111364575Y-101932142D01*
X118810765Y-106557857D02*
X118858384Y-106605476D01*
X118906003Y-106748333D01*
X118906003Y-106843571D01*
X118858384Y-106986428D01*
X118763146Y-107081666D01*
X118667908Y-107129285D01*
X118477432Y-107176904D01*
X118334575Y-107176904D01*
X118144099Y-107129285D01*
X118048861Y-107081666D01*
X117953623Y-106986428D01*
X117906003Y-106843571D01*
X117906003Y-106748333D01*
X117953623Y-106605476D01*
X118001242Y-106557857D01*
X118001242Y-106176904D02*
X117953623Y-106129285D01*
X117906003Y-106034047D01*
X117906003Y-105795952D01*
X117953623Y-105700714D01*
X118001242Y-105653095D01*
X118096480Y-105605476D01*
X118191718Y-105605476D01*
X118334575Y-105653095D01*
X118906003Y-106224523D01*
X118906003Y-105605476D01*
X118334575Y-105034047D02*
X118286956Y-105129285D01*
X118239337Y-105176904D01*
X118144099Y-105224523D01*
X118096480Y-105224523D01*
X118001242Y-105176904D01*
X117953623Y-105129285D01*
X117906003Y-105034047D01*
X117906003Y-104843571D01*
X117953623Y-104748333D01*
X118001242Y-104700714D01*
X118096480Y-104653095D01*
X118144099Y-104653095D01*
X118239337Y-104700714D01*
X118286956Y-104748333D01*
X118334575Y-104843571D01*
X118334575Y-105034047D01*
X118382194Y-105129285D01*
X118429813Y-105176904D01*
X118525051Y-105224523D01*
X118715527Y-105224523D01*
X118810765Y-105176904D01*
X118858384Y-105129285D01*
X118906003Y-105034047D01*
X118906003Y-104843571D01*
X118858384Y-104748333D01*
X118810765Y-104700714D01*
X118715527Y-104653095D01*
X118525051Y-104653095D01*
X118429813Y-104700714D01*
X118382194Y-104748333D01*
X118334575Y-104843571D01*
X118810765Y-103047857D02*
X118858384Y-103095476D01*
X118906003Y-103238333D01*
X118906003Y-103333571D01*
X118858384Y-103476428D01*
X118763146Y-103571666D01*
X118667908Y-103619285D01*
X118477432Y-103666904D01*
X118334575Y-103666904D01*
X118144099Y-103619285D01*
X118048861Y-103571666D01*
X117953623Y-103476428D01*
X117906003Y-103333571D01*
X117906003Y-103238333D01*
X117953623Y-103095476D01*
X118001242Y-103047857D01*
X118001242Y-102666904D02*
X117953623Y-102619285D01*
X117906003Y-102524047D01*
X117906003Y-102285952D01*
X117953623Y-102190714D01*
X118001242Y-102143095D01*
X118096480Y-102095476D01*
X118191718Y-102095476D01*
X118334575Y-102143095D01*
X118906003Y-102714523D01*
X118906003Y-102095476D01*
X117906003Y-101762142D02*
X117906003Y-101095476D01*
X118906003Y-101524047D01*
X118810765Y-96197857D02*
X118858384Y-96245476D01*
X118906003Y-96388333D01*
X118906003Y-96483571D01*
X118858384Y-96626428D01*
X118763146Y-96721666D01*
X118667908Y-96769285D01*
X118477432Y-96816904D01*
X118334575Y-96816904D01*
X118144099Y-96769285D01*
X118048861Y-96721666D01*
X117953623Y-96626428D01*
X117906003Y-96483571D01*
X117906003Y-96388333D01*
X117953623Y-96245476D01*
X118001242Y-96197857D01*
X118001242Y-95816904D02*
X117953623Y-95769285D01*
X117906003Y-95674047D01*
X117906003Y-95435952D01*
X117953623Y-95340714D01*
X118001242Y-95293095D01*
X118096480Y-95245476D01*
X118191718Y-95245476D01*
X118334575Y-95293095D01*
X118906003Y-95864523D01*
X118906003Y-95245476D01*
X117906003Y-94340714D02*
X117906003Y-94816904D01*
X118382194Y-94864523D01*
X118334575Y-94816904D01*
X118286956Y-94721666D01*
X118286956Y-94483571D01*
X118334575Y-94388333D01*
X118382194Y-94340714D01*
X118477432Y-94293095D01*
X118715527Y-94293095D01*
X118810765Y-94340714D01*
X118858384Y-94388333D01*
X118906003Y-94483571D01*
X118906003Y-94721666D01*
X118858384Y-94816904D01*
X118810765Y-94864523D01*
X118810765Y-99627857D02*
X118858384Y-99675476D01*
X118906003Y-99818333D01*
X118906003Y-99913571D01*
X118858384Y-100056428D01*
X118763146Y-100151666D01*
X118667908Y-100199285D01*
X118477432Y-100246904D01*
X118334575Y-100246904D01*
X118144099Y-100199285D01*
X118048861Y-100151666D01*
X117953623Y-100056428D01*
X117906003Y-99913571D01*
X117906003Y-99818333D01*
X117953623Y-99675476D01*
X118001242Y-99627857D01*
X118001242Y-99246904D02*
X117953623Y-99199285D01*
X117906003Y-99104047D01*
X117906003Y-98865952D01*
X117953623Y-98770714D01*
X118001242Y-98723095D01*
X118096480Y-98675476D01*
X118191718Y-98675476D01*
X118334575Y-98723095D01*
X118906003Y-99294523D01*
X118906003Y-98675476D01*
X117906003Y-97818333D02*
X117906003Y-98008809D01*
X117953623Y-98104047D01*
X118001242Y-98151666D01*
X118144099Y-98246904D01*
X118334575Y-98294523D01*
X118715527Y-98294523D01*
X118810765Y-98246904D01*
X118858384Y-98199285D01*
X118906003Y-98104047D01*
X118906003Y-97913571D01*
X118858384Y-97818333D01*
X118810765Y-97770714D01*
X118715527Y-97723095D01*
X118477432Y-97723095D01*
X118382194Y-97770714D01*
X118334575Y-97818333D01*
X118286956Y-97913571D01*
X118286956Y-98104047D01*
X118334575Y-98199285D01*
X118382194Y-98246904D01*
X118477432Y-98294523D01*
X127985527Y-89157380D02*
X127985527Y-89966904D01*
X128033146Y-90062142D01*
X128080765Y-90109761D01*
X128176003Y-90157380D01*
X128366480Y-90157380D01*
X128461718Y-90109761D01*
X128509337Y-90062142D01*
X128556956Y-89966904D01*
X128556956Y-89157380D01*
X129556956Y-90157380D02*
X128985527Y-90157380D01*
X129271242Y-90157380D02*
X129271242Y-89157380D01*
X129176003Y-89300238D01*
X129080765Y-89395476D01*
X128985527Y-89443095D01*
X130176003Y-89157380D02*
X130271242Y-89157380D01*
X130366480Y-89205000D01*
X130414099Y-89252619D01*
X130461718Y-89347857D01*
X130509337Y-89538333D01*
X130509337Y-89776428D01*
X130461718Y-89966904D01*
X130414099Y-90062142D01*
X130366480Y-90109761D01*
X130271242Y-90157380D01*
X130176003Y-90157380D01*
X130080765Y-90109761D01*
X130033146Y-90062142D01*
X129985527Y-89966904D01*
X129937908Y-89776428D01*
X129937908Y-89538333D01*
X129985527Y-89347857D01*
X130033146Y-89252619D01*
X130080765Y-89205000D01*
X130176003Y-89157380D01*
X128093623Y-92017380D02*
X128093623Y-92255476D01*
X127855527Y-92160238D02*
X128093623Y-92255476D01*
X128331718Y-92160238D01*
X127950765Y-92445952D02*
X128093623Y-92255476D01*
X128236480Y-92445952D01*
X194810289Y-81433571D02*
X194476956Y-81433571D01*
X194476956Y-81957380D02*
X194476956Y-80957380D01*
X194953146Y-80957380D01*
X195667432Y-81433571D02*
X195810289Y-81481190D01*
X195857908Y-81528809D01*
X195905527Y-81624047D01*
X195905527Y-81766904D01*
X195857908Y-81862142D01*
X195810289Y-81909761D01*
X195715051Y-81957380D01*
X195334099Y-81957380D01*
X195334099Y-80957380D01*
X195667432Y-80957380D01*
X195762670Y-81005000D01*
X195810289Y-81052619D01*
X195857908Y-81147857D01*
X195857908Y-81243095D01*
X195810289Y-81338333D01*
X195762670Y-81385952D01*
X195667432Y-81433571D01*
X195334099Y-81433571D01*
X196857908Y-81957380D02*
X196286480Y-81957380D01*
X196572194Y-81957380D02*
X196572194Y-80957380D01*
X196476956Y-81100238D01*
X196381718Y-81195476D01*
X196286480Y-81243095D01*
X191930289Y-81403571D02*
X191596956Y-81403571D01*
X191596956Y-81927380D02*
X191596956Y-80927380D01*
X192073146Y-80927380D01*
X192787432Y-81403571D02*
X192930289Y-81451190D01*
X192977908Y-81498809D01*
X193025527Y-81594047D01*
X193025527Y-81736904D01*
X192977908Y-81832142D01*
X192930289Y-81879761D01*
X192835051Y-81927380D01*
X192454099Y-81927380D01*
X192454099Y-80927380D01*
X192787432Y-80927380D01*
X192882670Y-80975000D01*
X192930289Y-81022619D01*
X192977908Y-81117857D01*
X192977908Y-81213095D01*
X192930289Y-81308333D01*
X192882670Y-81355952D01*
X192787432Y-81403571D01*
X192454099Y-81403571D01*
X193406480Y-81022619D02*
X193454099Y-80975000D01*
X193549337Y-80927380D01*
X193787432Y-80927380D01*
X193882670Y-80975000D01*
X193930289Y-81022619D01*
X193977908Y-81117857D01*
X193977908Y-81213095D01*
X193930289Y-81355952D01*
X193358861Y-81927380D01*
X193977908Y-81927380D01*
X119780765Y-78342142D02*
X119733146Y-78389761D01*
X119590289Y-78437380D01*
X119495051Y-78437380D01*
X119352194Y-78389761D01*
X119256956Y-78294523D01*
X119209337Y-78199285D01*
X119161718Y-78008809D01*
X119161718Y-77865952D01*
X119209337Y-77675476D01*
X119256956Y-77580238D01*
X119352194Y-77485000D01*
X119495051Y-77437380D01*
X119590289Y-77437380D01*
X119733146Y-77485000D01*
X119780765Y-77532619D01*
X120114099Y-77437380D02*
X120733146Y-77437380D01*
X120399813Y-77818333D01*
X120542670Y-77818333D01*
X120637908Y-77865952D01*
X120685527Y-77913571D01*
X120733146Y-78008809D01*
X120733146Y-78246904D01*
X120685527Y-78342142D01*
X120637908Y-78389761D01*
X120542670Y-78437380D01*
X120256956Y-78437380D01*
X120161718Y-78389761D01*
X120114099Y-78342142D01*
X121114099Y-77532619D02*
X121161718Y-77485000D01*
X121256956Y-77437380D01*
X121495051Y-77437380D01*
X121590289Y-77485000D01*
X121637908Y-77532619D01*
X121685527Y-77627857D01*
X121685527Y-77723095D01*
X121637908Y-77865952D01*
X121066480Y-78437380D01*
X121685527Y-78437380D01*
X137746956Y-92087380D02*
X137270765Y-92087380D01*
X137270765Y-91087380D01*
X138032670Y-91182619D02*
X138080289Y-91135000D01*
X138175527Y-91087380D01*
X138413623Y-91087380D01*
X138508861Y-91135000D01*
X138556480Y-91182619D01*
X138604099Y-91277857D01*
X138604099Y-91373095D01*
X138556480Y-91515952D01*
X137985051Y-92087380D01*
X138604099Y-92087380D01*
X137396003Y-83665000D02*
X137634099Y-83665000D01*
X137538861Y-83903095D02*
X137634099Y-83665000D01*
X137538861Y-83426904D01*
X137824575Y-83807857D02*
X137634099Y-83665000D01*
X137824575Y-83522142D01*
X139411411Y-91677160D02*
X139411411Y-92487010D01*
X139459050Y-92582286D01*
X139506688Y-92629924D01*
X139601964Y-92677562D01*
X139792517Y-92677562D01*
X139887793Y-92629924D01*
X139935432Y-92582286D01*
X139983070Y-92487010D01*
X139983070Y-91677160D01*
X140935834Y-91677160D02*
X140459452Y-91677160D01*
X140411813Y-92153542D01*
X140459452Y-92105904D01*
X140554728Y-92058266D01*
X140792919Y-92058266D01*
X140888195Y-92105904D01*
X140935834Y-92153542D01*
X140983472Y-92248819D01*
X140983472Y-92487010D01*
X140935834Y-92582286D01*
X140888195Y-92629924D01*
X140792919Y-92677562D01*
X140554728Y-92677562D01*
X140459452Y-92629924D01*
X140411813Y-92582286D01*
X139411411Y-100687160D02*
X139411411Y-101497010D01*
X139459050Y-101592286D01*
X139506688Y-101639924D01*
X139601964Y-101687562D01*
X139792517Y-101687562D01*
X139887793Y-101639924D01*
X139935432Y-101592286D01*
X139983070Y-101497010D01*
X139983070Y-100687160D01*
X140888195Y-101020628D02*
X140888195Y-101687562D01*
X140650004Y-100639522D02*
X140411813Y-101354095D01*
X141031110Y-101354095D01*
X182176956Y-82532142D02*
X182129337Y-82579761D01*
X181986480Y-82627380D01*
X181891242Y-82627380D01*
X181748384Y-82579761D01*
X181653146Y-82484523D01*
X181605527Y-82389285D01*
X181557908Y-82198809D01*
X181557908Y-82055952D01*
X181605527Y-81865476D01*
X181653146Y-81770238D01*
X181748384Y-81675000D01*
X181891242Y-81627380D01*
X181986480Y-81627380D01*
X182129337Y-81675000D01*
X182176956Y-81722619D01*
X183129337Y-82627380D02*
X182557908Y-82627380D01*
X182843623Y-82627380D02*
X182843623Y-81627380D01*
X182748384Y-81770238D01*
X182653146Y-81865476D01*
X182557908Y-81913095D01*
X174416956Y-84097380D02*
X174083623Y-83621190D01*
X173845527Y-84097380D02*
X173845527Y-83097380D01*
X174226480Y-83097380D01*
X174321718Y-83145000D01*
X174369337Y-83192619D01*
X174416956Y-83287857D01*
X174416956Y-83430714D01*
X174369337Y-83525952D01*
X174321718Y-83573571D01*
X174226480Y-83621190D01*
X173845527Y-83621190D01*
X174750289Y-83097380D02*
X175416956Y-83097380D01*
X174988384Y-84097380D01*
X179406956Y-79197380D02*
X179073623Y-78721190D01*
X178835527Y-79197380D02*
X178835527Y-78197380D01*
X179216480Y-78197380D01*
X179311718Y-78245000D01*
X179359337Y-78292619D01*
X179406956Y-78387857D01*
X179406956Y-78530714D01*
X179359337Y-78625952D01*
X179311718Y-78673571D01*
X179216480Y-78721190D01*
X178835527Y-78721190D01*
X180264099Y-78530714D02*
X180264099Y-79197380D01*
X180026003Y-78149761D02*
X179787908Y-78864047D01*
X180406956Y-78864047D01*
X176096956Y-79197380D02*
X175763623Y-78721190D01*
X175525527Y-79197380D02*
X175525527Y-78197380D01*
X175906480Y-78197380D01*
X176001718Y-78245000D01*
X176049337Y-78292619D01*
X176096956Y-78387857D01*
X176096956Y-78530714D01*
X176049337Y-78625952D01*
X176001718Y-78673571D01*
X175906480Y-78721190D01*
X175525527Y-78721190D01*
X176954099Y-78197380D02*
X176763623Y-78197380D01*
X176668384Y-78245000D01*
X176620765Y-78292619D01*
X176525527Y-78435476D01*
X176477908Y-78625952D01*
X176477908Y-79006904D01*
X176525527Y-79102142D01*
X176573146Y-79149761D01*
X176668384Y-79197380D01*
X176858861Y-79197380D01*
X176954099Y-79149761D01*
X177001718Y-79102142D01*
X177049337Y-79006904D01*
X177049337Y-78768809D01*
X177001718Y-78673571D01*
X176954099Y-78625952D01*
X176858861Y-78578333D01*
X176668384Y-78578333D01*
X176573146Y-78625952D01*
X176525527Y-78673571D01*
X176477908Y-78768809D01*
X177736956Y-84057380D02*
X177403623Y-83581190D01*
X177165527Y-84057380D02*
X177165527Y-83057380D01*
X177546480Y-83057380D01*
X177641718Y-83105000D01*
X177689337Y-83152619D01*
X177736956Y-83247857D01*
X177736956Y-83390714D01*
X177689337Y-83485952D01*
X177641718Y-83533571D01*
X177546480Y-83581190D01*
X177165527Y-83581190D01*
X178641718Y-83057380D02*
X178165527Y-83057380D01*
X178117908Y-83533571D01*
X178165527Y-83485952D01*
X178260765Y-83438333D01*
X178498861Y-83438333D01*
X178594099Y-83485952D01*
X178641718Y-83533571D01*
X178689337Y-83628809D01*
X178689337Y-83866904D01*
X178641718Y-83962142D01*
X178594099Y-84009761D01*
X178498861Y-84057380D01*
X178260765Y-84057380D01*
X178165527Y-84009761D01*
X178117908Y-83962142D01*
X208450765Y-92981666D02*
X208498384Y-93029285D01*
X208546003Y-93172142D01*
X208546003Y-93267380D01*
X208498384Y-93410238D01*
X208403146Y-93505476D01*
X208307908Y-93553095D01*
X208117432Y-93600714D01*
X207974575Y-93600714D01*
X207784099Y-93553095D01*
X207688861Y-93505476D01*
X207593623Y-93410238D01*
X207546003Y-93267380D01*
X207546003Y-93172142D01*
X207593623Y-93029285D01*
X207641242Y-92981666D01*
X207546003Y-92648333D02*
X207546003Y-91981666D01*
X208546003Y-92410238D01*
X114195527Y-92937380D02*
X114195527Y-91937380D01*
X114433623Y-91937380D01*
X114576480Y-91985000D01*
X114671718Y-92080238D01*
X114719337Y-92175476D01*
X114766956Y-92365952D01*
X114766956Y-92508809D01*
X114719337Y-92699285D01*
X114671718Y-92794523D01*
X114576480Y-92889761D01*
X114433623Y-92937380D01*
X114195527Y-92937380D01*
X115671718Y-91937380D02*
X115195527Y-91937380D01*
X115147908Y-92413571D01*
X115195527Y-92365952D01*
X115290765Y-92318333D01*
X115528861Y-92318333D01*
X115624099Y-92365952D01*
X115671718Y-92413571D01*
X115719337Y-92508809D01*
X115719337Y-92746904D01*
X115671718Y-92842142D01*
X115624099Y-92889761D01*
X115528861Y-92937380D01*
X115290765Y-92937380D01*
X115195527Y-92889761D01*
X115147908Y-92842142D01*
X114510765Y-78822142D02*
X114463146Y-78869761D01*
X114320289Y-78917380D01*
X114225051Y-78917380D01*
X114082194Y-78869761D01*
X113986956Y-78774523D01*
X113939337Y-78679285D01*
X113891718Y-78488809D01*
X113891718Y-78345952D01*
X113939337Y-78155476D01*
X113986956Y-78060238D01*
X114082194Y-77965000D01*
X114225051Y-77917380D01*
X114320289Y-77917380D01*
X114463146Y-77965000D01*
X114510765Y-78012619D01*
X114891718Y-78012619D02*
X114939337Y-77965000D01*
X115034575Y-77917380D01*
X115272670Y-77917380D01*
X115367908Y-77965000D01*
X115415527Y-78012619D01*
X115463146Y-78107857D01*
X115463146Y-78203095D01*
X115415527Y-78345952D01*
X114844099Y-78917380D01*
X115463146Y-78917380D01*
X115939337Y-78917380D02*
X116129813Y-78917380D01*
X116225051Y-78869761D01*
X116272670Y-78822142D01*
X116367908Y-78679285D01*
X116415527Y-78488809D01*
X116415527Y-78107857D01*
X116367908Y-78012619D01*
X116320289Y-77965000D01*
X116225051Y-77917380D01*
X116034575Y-77917380D01*
X115939337Y-77965000D01*
X115891718Y-78012619D01*
X115844099Y-78107857D01*
X115844099Y-78345952D01*
X115891718Y-78441190D01*
X115939337Y-78488809D01*
X116034575Y-78536428D01*
X116225051Y-78536428D01*
X116320289Y-78488809D01*
X116367908Y-78441190D01*
X116415527Y-78345952D01*
X127330765Y-95752142D02*
X127283146Y-95799761D01*
X127140289Y-95847380D01*
X127045051Y-95847380D01*
X126902194Y-95799761D01*
X126806956Y-95704523D01*
X126759337Y-95609285D01*
X126711718Y-95418809D01*
X126711718Y-95275952D01*
X126759337Y-95085476D01*
X126806956Y-94990238D01*
X126902194Y-94895000D01*
X127045051Y-94847380D01*
X127140289Y-94847380D01*
X127283146Y-94895000D01*
X127330765Y-94942619D01*
X127664099Y-94847380D02*
X128283146Y-94847380D01*
X127949813Y-95228333D01*
X128092670Y-95228333D01*
X128187908Y-95275952D01*
X128235527Y-95323571D01*
X128283146Y-95418809D01*
X128283146Y-95656904D01*
X128235527Y-95752142D01*
X128187908Y-95799761D01*
X128092670Y-95847380D01*
X127806956Y-95847380D01*
X127711718Y-95799761D01*
X127664099Y-95752142D01*
X128902194Y-94847380D02*
X128997432Y-94847380D01*
X129092670Y-94895000D01*
X129140289Y-94942619D01*
X129187908Y-95037857D01*
X129235527Y-95228333D01*
X129235527Y-95466428D01*
X129187908Y-95656904D01*
X129140289Y-95752142D01*
X129092670Y-95799761D01*
X128997432Y-95847380D01*
X128902194Y-95847380D01*
X128806956Y-95799761D01*
X128759337Y-95752142D01*
X128711718Y-95656904D01*
X128664099Y-95466428D01*
X128664099Y-95228333D01*
X128711718Y-95037857D01*
X128759337Y-94942619D01*
X128806956Y-94895000D01*
X128902194Y-94847380D01*
X145460765Y-109187380D02*
X145127432Y-108711190D01*
X144889337Y-109187380D02*
X144889337Y-108187380D01*
X145270289Y-108187380D01*
X145365527Y-108235000D01*
X145413146Y-108282619D01*
X145460765Y-108377857D01*
X145460765Y-108520714D01*
X145413146Y-108615952D01*
X145365527Y-108663571D01*
X145270289Y-108711190D01*
X144889337Y-108711190D01*
X146413146Y-109187380D02*
X145841718Y-109187380D01*
X146127432Y-109187380D02*
X146127432Y-108187380D01*
X146032194Y-108330238D01*
X145936956Y-108425476D01*
X145841718Y-108473095D01*
X146794099Y-108282619D02*
X146841718Y-108235000D01*
X146936956Y-108187380D01*
X147175051Y-108187380D01*
X147270289Y-108235000D01*
X147317908Y-108282619D01*
X147365527Y-108377857D01*
X147365527Y-108473095D01*
X147317908Y-108615952D01*
X146746480Y-109187380D01*
X147365527Y-109187380D01*
X151080765Y-103627380D02*
X150747432Y-103151190D01*
X150509337Y-103627380D02*
X150509337Y-102627380D01*
X150890289Y-102627380D01*
X150985527Y-102675000D01*
X151033146Y-102722619D01*
X151080765Y-102817857D01*
X151080765Y-102960714D01*
X151033146Y-103055952D01*
X150985527Y-103103571D01*
X150890289Y-103151190D01*
X150509337Y-103151190D01*
X152033146Y-103627380D02*
X151461718Y-103627380D01*
X151747432Y-103627380D02*
X151747432Y-102627380D01*
X151652194Y-102770238D01*
X151556956Y-102865476D01*
X151461718Y-102913095D01*
X152937908Y-102627380D02*
X152461718Y-102627380D01*
X152414099Y-103103571D01*
X152461718Y-103055952D01*
X152556956Y-103008333D01*
X152795051Y-103008333D01*
X152890289Y-103055952D01*
X152937908Y-103103571D01*
X152985527Y-103198809D01*
X152985527Y-103436904D01*
X152937908Y-103532142D01*
X152890289Y-103579761D01*
X152795051Y-103627380D01*
X152556956Y-103627380D01*
X152461718Y-103579761D01*
X152414099Y-103532142D01*
X148330765Y-110097380D02*
X147997432Y-109621190D01*
X147759337Y-110097380D02*
X147759337Y-109097380D01*
X148140289Y-109097380D01*
X148235527Y-109145000D01*
X148283146Y-109192619D01*
X148330765Y-109287857D01*
X148330765Y-109430714D01*
X148283146Y-109525952D01*
X148235527Y-109573571D01*
X148140289Y-109621190D01*
X147759337Y-109621190D01*
X149283146Y-110097380D02*
X148711718Y-110097380D01*
X148997432Y-110097380D02*
X148997432Y-109097380D01*
X148902194Y-109240238D01*
X148806956Y-109335476D01*
X148711718Y-109383095D01*
X150235527Y-110097380D02*
X149664099Y-110097380D01*
X149949813Y-110097380D02*
X149949813Y-109097380D01*
X149854575Y-109240238D01*
X149759337Y-109335476D01*
X149664099Y-109383095D01*
X147120765Y-103627380D02*
X146787432Y-103151190D01*
X146549337Y-103627380D02*
X146549337Y-102627380D01*
X146930289Y-102627380D01*
X147025527Y-102675000D01*
X147073146Y-102722619D01*
X147120765Y-102817857D01*
X147120765Y-102960714D01*
X147073146Y-103055952D01*
X147025527Y-103103571D01*
X146930289Y-103151190D01*
X146549337Y-103151190D01*
X148073146Y-103627380D02*
X147501718Y-103627380D01*
X147787432Y-103627380D02*
X147787432Y-102627380D01*
X147692194Y-102770238D01*
X147596956Y-102865476D01*
X147501718Y-102913095D01*
X148406480Y-102627380D02*
X149025527Y-102627380D01*
X148692194Y-103008333D01*
X148835051Y-103008333D01*
X148930289Y-103055952D01*
X148977908Y-103103571D01*
X149025527Y-103198809D01*
X149025527Y-103436904D01*
X148977908Y-103532142D01*
X148930289Y-103579761D01*
X148835051Y-103627380D01*
X148549337Y-103627380D01*
X148454099Y-103579761D01*
X148406480Y-103532142D01*
X157951718Y-107197380D02*
X157951718Y-108006904D01*
X157999337Y-108102142D01*
X158046956Y-108149761D01*
X158142194Y-108197380D01*
X158332670Y-108197380D01*
X158427908Y-108149761D01*
X158475527Y-108102142D01*
X158523146Y-108006904D01*
X158523146Y-107197380D01*
X158904099Y-107197380D02*
X159523146Y-107197380D01*
X159189813Y-107578333D01*
X159332670Y-107578333D01*
X159427908Y-107625952D01*
X159475527Y-107673571D01*
X159523146Y-107768809D01*
X159523146Y-108006904D01*
X159475527Y-108102142D01*
X159427908Y-108149761D01*
X159332670Y-108197380D01*
X159046956Y-108197380D01*
X158951718Y-108149761D01*
X158904099Y-108102142D01*
X160366003Y-107885000D02*
X160604099Y-107885000D01*
X160508861Y-108123095D02*
X160604099Y-107885000D01*
X160508861Y-107646904D01*
X160794575Y-108027857D02*
X160604099Y-107885000D01*
X160794575Y-107742142D01*
X150820765Y-99307857D02*
X150868384Y-99355476D01*
X150916003Y-99498333D01*
X150916003Y-99593571D01*
X150868384Y-99736428D01*
X150773146Y-99831666D01*
X150677908Y-99879285D01*
X150487432Y-99926904D01*
X150344575Y-99926904D01*
X150154099Y-99879285D01*
X150058861Y-99831666D01*
X149963623Y-99736428D01*
X149916003Y-99593571D01*
X149916003Y-99498333D01*
X149963623Y-99355476D01*
X150011242Y-99307857D01*
X150916003Y-98355476D02*
X150916003Y-98926904D01*
X150916003Y-98641190D02*
X149916003Y-98641190D01*
X150058861Y-98736428D01*
X150154099Y-98831666D01*
X150201718Y-98926904D01*
X150916003Y-97879285D02*
X150916003Y-97688809D01*
X150868384Y-97593571D01*
X150820765Y-97545952D01*
X150677908Y-97450714D01*
X150487432Y-97403095D01*
X150106480Y-97403095D01*
X150011242Y-97450714D01*
X149963623Y-97498333D01*
X149916003Y-97593571D01*
X149916003Y-97784047D01*
X149963623Y-97879285D01*
X150011242Y-97926904D01*
X150106480Y-97974523D01*
X150344575Y-97974523D01*
X150439813Y-97926904D01*
X150487432Y-97879285D01*
X150535051Y-97784047D01*
X150535051Y-97593571D01*
X150487432Y-97498333D01*
X150439813Y-97450714D01*
X150344575Y-97403095D01*
X94746003Y-100527857D02*
X94269813Y-100861190D01*
X94746003Y-101099285D02*
X93746003Y-101099285D01*
X93746003Y-100718333D01*
X93793623Y-100623095D01*
X93841242Y-100575476D01*
X93936480Y-100527857D01*
X94079337Y-100527857D01*
X94174575Y-100575476D01*
X94222194Y-100623095D01*
X94269813Y-100718333D01*
X94269813Y-101099285D01*
X93841242Y-100146904D02*
X93793623Y-100099285D01*
X93746003Y-100004047D01*
X93746003Y-99765952D01*
X93793623Y-99670714D01*
X93841242Y-99623095D01*
X93936480Y-99575476D01*
X94031718Y-99575476D01*
X94174575Y-99623095D01*
X94746003Y-100194523D01*
X94746003Y-99575476D01*
X93746003Y-99242142D02*
X93746003Y-98623095D01*
X94126956Y-98956428D01*
X94126956Y-98813571D01*
X94174575Y-98718333D01*
X94222194Y-98670714D01*
X94317432Y-98623095D01*
X94555527Y-98623095D01*
X94650765Y-98670714D01*
X94698384Y-98718333D01*
X94746003Y-98813571D01*
X94746003Y-99099285D01*
X94698384Y-99194523D01*
X94650765Y-99242142D01*
X94576718Y-92402380D02*
X94576718Y-93211904D01*
X94624337Y-93307142D01*
X94671956Y-93354761D01*
X94767194Y-93402380D01*
X94957670Y-93402380D01*
X95052908Y-93354761D01*
X95100527Y-93307142D01*
X95148146Y-93211904D01*
X95148146Y-92402380D01*
X95671956Y-93402380D02*
X95862432Y-93402380D01*
X95957670Y-93354761D01*
X96005289Y-93307142D01*
X96100527Y-93164285D01*
X96148146Y-92973809D01*
X96148146Y-92592857D01*
X96100527Y-92497619D01*
X96052908Y-92450000D01*
X95957670Y-92402380D01*
X95767194Y-92402380D01*
X95671956Y-92450000D01*
X95624337Y-92497619D01*
X95576718Y-92592857D01*
X95576718Y-92830952D01*
X95624337Y-92926190D01*
X95671956Y-92973809D01*
X95767194Y-93021428D01*
X95957670Y-93021428D01*
X96052908Y-92973809D01*
X96100527Y-92926190D01*
X96148146Y-92830952D01*
X91541242Y-104850238D02*
X91493623Y-104945476D01*
X91398384Y-105040714D01*
X91255527Y-105183571D01*
X91207908Y-105278809D01*
X91207908Y-105374047D01*
X91446003Y-105326428D02*
X91398384Y-105421666D01*
X91303146Y-105516904D01*
X91112670Y-105564523D01*
X90779337Y-105564523D01*
X90588861Y-105516904D01*
X90493623Y-105421666D01*
X90446003Y-105326428D01*
X90446003Y-105135952D01*
X90493623Y-105040714D01*
X90588861Y-104945476D01*
X90779337Y-104897857D01*
X91112670Y-104897857D01*
X91303146Y-104945476D01*
X91398384Y-105040714D01*
X91446003Y-105135952D01*
X91446003Y-105326428D01*
X90446003Y-104564523D02*
X90446003Y-103945476D01*
X90826956Y-104278809D01*
X90826956Y-104135952D01*
X90874575Y-104040714D01*
X90922194Y-103993095D01*
X91017432Y-103945476D01*
X91255527Y-103945476D01*
X91350765Y-103993095D01*
X91398384Y-104040714D01*
X91446003Y-104135952D01*
X91446003Y-104421666D01*
X91398384Y-104516904D01*
X91350765Y-104564523D01*
X98620765Y-95837380D02*
X98287432Y-95361190D01*
X98049337Y-95837380D02*
X98049337Y-94837380D01*
X98430289Y-94837380D01*
X98525527Y-94885000D01*
X98573146Y-94932619D01*
X98620765Y-95027857D01*
X98620765Y-95170714D01*
X98573146Y-95265952D01*
X98525527Y-95313571D01*
X98430289Y-95361190D01*
X98049337Y-95361190D01*
X99573146Y-95837380D02*
X99001718Y-95837380D01*
X99287432Y-95837380D02*
X99287432Y-94837380D01*
X99192194Y-94980238D01*
X99096956Y-95075476D01*
X99001718Y-95123095D01*
X100049337Y-95837380D02*
X100239813Y-95837380D01*
X100335051Y-95789761D01*
X100382670Y-95742142D01*
X100477908Y-95599285D01*
X100525527Y-95408809D01*
X100525527Y-95027857D01*
X100477908Y-94932619D01*
X100430289Y-94885000D01*
X100335051Y-94837380D01*
X100144575Y-94837380D01*
X100049337Y-94885000D01*
X100001718Y-94932619D01*
X99954099Y-95027857D01*
X99954099Y-95265952D01*
X100001718Y-95361190D01*
X100049337Y-95408809D01*
X100144575Y-95456428D01*
X100335051Y-95456428D01*
X100430289Y-95408809D01*
X100477908Y-95361190D01*
X100525527Y-95265952D01*
X96796746Y-100630619D02*
X97314842Y-100630619D01*
X97375794Y-100600142D01*
X97406270Y-100569666D01*
X97436746Y-100508714D01*
X97436746Y-100386809D01*
X97406270Y-100325857D01*
X97375794Y-100295380D01*
X97314842Y-100264904D01*
X96796746Y-100264904D01*
X96796746Y-100021095D02*
X96796746Y-99594428D01*
X97436746Y-99868714D01*
D12*
X183422371Y-85205000D02*
X184844875Y-85205000D01*
X183422371Y-83385000D02*
X184844875Y-83385000D01*
X204923623Y-92648733D02*
X204923623Y-92941267D01*
X203903623Y-92648733D02*
X203903623Y-92941267D01*
X163183623Y-82006233D02*
X163183623Y-82298767D01*
X162163623Y-82006233D02*
X162163623Y-82298767D01*
X190653623Y-92696233D02*
X190653623Y-92988767D01*
X191673623Y-92696233D02*
X191673623Y-92988767D01*
X197331123Y-99698733D02*
X197331123Y-99991267D01*
X198351123Y-99698733D02*
X198351123Y-99991267D01*
X202967356Y-104625000D02*
X203259890Y-104625000D01*
X202967356Y-105645000D02*
X203259890Y-105645000D01*
X176533623Y-114673767D02*
X176533623Y-114381233D01*
X177553623Y-114673767D02*
X177553623Y-114381233D01*
X130153623Y-90775000D02*
X130153623Y-94455000D01*
X132173623Y-90775000D02*
X132173623Y-94455000D01*
X132173623Y-90775000D02*
X130153623Y-90775000D01*
D13*
X159403623Y-76615000D02*
X147013623Y-76615000D01*
X159403623Y-92015000D02*
X158423623Y-92015000D01*
X159403623Y-79935000D02*
X159403623Y-92015000D01*
X150683623Y-92015000D02*
X145403623Y-92015000D01*
X155093623Y-92015000D02*
X152753623Y-92015000D01*
X145403623Y-78955000D02*
X145403623Y-92015000D01*
X149503623Y-80665000D02*
G75*
G03*
X149503623Y-80665000I-100000J0D01*
G01*
D12*
X106825823Y-109071100D02*
X106825823Y-123218900D01*
X116188263Y-123218900D02*
X119881423Y-123218900D01*
X110518983Y-109071100D02*
X106825823Y-109071100D01*
X119881423Y-109071100D02*
X116188263Y-109071100D01*
X106825823Y-123218900D02*
X110518983Y-123218900D01*
X119881423Y-123218900D02*
X119881423Y-109071100D01*
X181263623Y-83085000D02*
X181263623Y-85035000D01*
X178963623Y-85035000D02*
X178963623Y-83535000D01*
X181263623Y-83085000D02*
X181163623Y-83085000D01*
X91133623Y-87805000D02*
X91133623Y-87155000D01*
X91133623Y-87805000D02*
X91133623Y-89480000D01*
X94253623Y-87805000D02*
X94253623Y-88455000D01*
X94253623Y-87805000D02*
X94253623Y-87155000D01*
X115793623Y-99795000D02*
X115143623Y-99795000D01*
X115793623Y-99795000D02*
X117468623Y-99795000D01*
X115793623Y-96675000D02*
X116443623Y-96675000D01*
X115793623Y-96675000D02*
X115143623Y-96675000D01*
X132763623Y-108485000D02*
X132763623Y-102505000D01*
X137983623Y-108485000D02*
X137983623Y-102505000D01*
X131463623Y-108475000D02*
X131463623Y-102495000D01*
X126243623Y-108475000D02*
X126243623Y-102495000D01*
X150646123Y-106950276D02*
X150646123Y-107459724D01*
X149601123Y-106950276D02*
X149601123Y-107459724D01*
X114108347Y-101892500D02*
X113598899Y-101892500D01*
X114108347Y-102937500D02*
X113598899Y-102937500D01*
X109746123Y-89769724D02*
X109746123Y-89260276D01*
X108701123Y-89769724D02*
X108701123Y-89260276D01*
X194595847Y-96682500D02*
X194086399Y-96682500D01*
X194595847Y-97727500D02*
X194086399Y-97727500D01*
X198086399Y-96682500D02*
X198595847Y-96682500D01*
X198086399Y-97727500D02*
X198595847Y-97727500D01*
X194086399Y-96007500D02*
X194595847Y-96007500D01*
X194086399Y-94962500D02*
X194595847Y-94962500D01*
X198086399Y-94962500D02*
X198595847Y-94962500D01*
X198086399Y-96007500D02*
X198595847Y-96007500D01*
X195678899Y-105657500D02*
X196188347Y-105657500D01*
X195678899Y-104612500D02*
X196188347Y-104612500D01*
X199748347Y-104612500D02*
X199238899Y-104612500D01*
X199748347Y-105657500D02*
X199238899Y-105657500D01*
X150026899Y-116266500D02*
X150536347Y-116266500D01*
X150026899Y-117311500D02*
X150536347Y-117311500D01*
D14*
X183013623Y-80615000D02*
X183308623Y-80615000D01*
X186013623Y-77615000D02*
X185718623Y-77615000D01*
X186013623Y-80615000D02*
X186013623Y-80320000D01*
X183013623Y-80615000D02*
X183013623Y-80320000D01*
X183013623Y-77615000D02*
X183013623Y-77910000D01*
X186013623Y-80615000D02*
X185718623Y-80615000D01*
X186013623Y-77615000D02*
X186013623Y-77910000D01*
X183013623Y-77615000D02*
X183308623Y-77615000D01*
D13*
X182138623Y-78365000D02*
G75*
G03*
X182138623Y-78365000I-100000J0D01*
G01*
D12*
X174163623Y-116640000D02*
X170563623Y-116640000D01*
X174163623Y-116640000D02*
X176363623Y-116640000D01*
X174163623Y-124710000D02*
X171963623Y-124710000D01*
X174163623Y-124710000D02*
X176363623Y-124710000D01*
X167463623Y-81985000D02*
X164363623Y-81985000D01*
X170363623Y-76785000D02*
X164363623Y-76785000D01*
X91581123Y-99560276D02*
X91581123Y-100069724D01*
X92626123Y-99560276D02*
X92626123Y-100069724D01*
X154734899Y-116266500D02*
X155244347Y-116266500D01*
X154734899Y-117311500D02*
X155244347Y-117311500D01*
X93783623Y-82765000D02*
X93783623Y-82765000D01*
X93783623Y-80225000D02*
X93783623Y-80225000D01*
X104033623Y-77735000D02*
X104033623Y-80885000D01*
X104033623Y-77735000D02*
X102333623Y-77735000D01*
X102333623Y-77735000D02*
X102333623Y-80885000D01*
X109296123Y-83390276D02*
X109296123Y-83899724D01*
X108251123Y-83390276D02*
X108251123Y-83899724D01*
X102183623Y-93563748D02*
X102183623Y-94986252D01*
X104003623Y-93563748D02*
X104003623Y-94986252D01*
X98153623Y-93071267D02*
X98153623Y-92778733D01*
X99173623Y-93071267D02*
X99173623Y-92778733D01*
X98618623Y-106672064D02*
X98618623Y-106217936D01*
X97148623Y-106672064D02*
X97148623Y-106217936D01*
X95216559Y-90390000D02*
X95670687Y-90390000D01*
X95216559Y-91860000D02*
X95670687Y-91860000D01*
X99681123Y-105560276D02*
X99681123Y-106069724D01*
X100726123Y-105560276D02*
X100726123Y-106069724D01*
X109602371Y-96065000D02*
X111024875Y-96065000D01*
X109602371Y-97885000D02*
X111024875Y-97885000D01*
X109337356Y-99625000D02*
X109629890Y-99625000D01*
X109337356Y-98605000D02*
X109629890Y-98605000D01*
D13*
X100073623Y-83400000D02*
G75*
G03*
X100073623Y-83400000I-100000J0D01*
G01*
D12*
X105784723Y-107095900D02*
X105953082Y-107095900D01*
X105784723Y-102854100D02*
X105784723Y-107095900D01*
X110874162Y-107095900D02*
X111042523Y-107095900D01*
X105953084Y-102854100D02*
X105784723Y-102854100D01*
X111042523Y-107095900D02*
X111042523Y-102854100D01*
X111042523Y-102854100D02*
X110874164Y-102854100D01*
D15*
X107954124Y-108937400D02*
X107573124Y-108937400D01*
X107573124Y-108937400D02*
X107573124Y-108683400D01*
X107573124Y-108683400D02*
X107954124Y-108683400D01*
X107954124Y-108683400D02*
X107954124Y-108937400D01*
G36*
X107954124Y-108937400D02*
G01*
X107573124Y-108937400D01*
X107573124Y-108683400D01*
X107954124Y-108683400D01*
X107954124Y-108937400D01*
G37*
X107954124Y-108937400D02*
X107573124Y-108937400D01*
X107573124Y-108683400D01*
X107954124Y-108683400D01*
X107954124Y-108937400D01*
D12*
X120992371Y-104575000D02*
X122414875Y-104575000D01*
X120992371Y-107295000D02*
X122414875Y-107295000D01*
X120992371Y-101115000D02*
X122414875Y-101115000D01*
X120992371Y-103835000D02*
X122414875Y-103835000D01*
X120992371Y-94195000D02*
X122414875Y-94195000D01*
X120992371Y-96915000D02*
X122414875Y-96915000D01*
X120992371Y-100375000D02*
X122414875Y-100375000D01*
X120992371Y-97655000D02*
X122414875Y-97655000D01*
X121791623Y-89109330D02*
X121791623Y-90379330D01*
X121791623Y-90379330D02*
X121791623Y-91649330D01*
X121791623Y-92967000D02*
X125995623Y-92967000D01*
X125995623Y-87763000D02*
X121791623Y-87763000D01*
X194563623Y-85277064D02*
X194563623Y-84072936D01*
X196383623Y-85277064D02*
X196383623Y-84072936D01*
X192003623Y-85257064D02*
X192003623Y-84052936D01*
X193823623Y-85257064D02*
X193823623Y-84052936D01*
X129037623Y-86186000D02*
X122529623Y-86186000D01*
X130856623Y-82545000D02*
X120710623Y-82545000D01*
X124542623Y-85986000D02*
X122305623Y-85986000D01*
X130701623Y-83546000D02*
X127024623Y-83546000D01*
X124542623Y-85546000D02*
X121891623Y-85546000D01*
X124542623Y-84386000D02*
X121162623Y-84386000D01*
X124542623Y-85026000D02*
X121510623Y-85026000D01*
X124542623Y-84106000D02*
X121045623Y-84106000D01*
X130711623Y-83506000D02*
X120855623Y-83506000D01*
X130858623Y-82505000D02*
X120708623Y-82505000D01*
X124542623Y-83746000D02*
X120921623Y-83746000D01*
X129084623Y-86146000D02*
X122482623Y-86146000D01*
X128492623Y-86586000D02*
X123074623Y-86586000D01*
X130794623Y-83106000D02*
X120772623Y-83106000D01*
X130862623Y-82385000D02*
X120704623Y-82385000D01*
X124542623Y-85506000D02*
X121858623Y-85506000D01*
X129499623Y-85746000D02*
X127024623Y-85746000D01*
X130748623Y-83346000D02*
X120818623Y-83346000D01*
X128728623Y-86426000D02*
X122838623Y-86426000D01*
X130287623Y-84626000D02*
X127024623Y-84626000D01*
X129219623Y-86026000D02*
X122347623Y-86026000D01*
X129708623Y-85506000D02*
X127024623Y-85506000D01*
X130328623Y-84546000D02*
X127024623Y-84546000D01*
X124542623Y-84866000D02*
X121412623Y-84866000D01*
X124542623Y-83866000D02*
X120959623Y-83866000D01*
X124542623Y-84146000D02*
X121060623Y-84146000D01*
X124542623Y-84746000D02*
X121343623Y-84746000D01*
X130757623Y-83306000D02*
X120809623Y-83306000D01*
X130404623Y-84386000D02*
X127024623Y-84386000D01*
X124542623Y-84786000D02*
X121366623Y-84786000D01*
X130030623Y-85066000D02*
X127024623Y-85066000D01*
X130657623Y-83706000D02*
X127024623Y-83706000D01*
X130818623Y-82945000D02*
X120748623Y-82945000D01*
X130860623Y-82465000D02*
X120706623Y-82465000D01*
X130787623Y-83146000D02*
X120779623Y-83146000D01*
X124542623Y-85586000D02*
X121925623Y-85586000D01*
X130422623Y-84346000D02*
X127024623Y-84346000D01*
X130823623Y-82905000D02*
X120743623Y-82905000D01*
X124542623Y-85146000D02*
X121589623Y-85146000D01*
X130780623Y-83186000D02*
X120786623Y-83186000D01*
X130457623Y-84266000D02*
X127024623Y-84266000D01*
X130848623Y-82665000D02*
X120718623Y-82665000D01*
X124542623Y-84426000D02*
X121180623Y-84426000D01*
X129977623Y-85146000D02*
X127024623Y-85146000D01*
X130594623Y-83906000D02*
X127024623Y-83906000D01*
X124542623Y-85386000D02*
X121763623Y-85386000D01*
X129572623Y-85666000D02*
X127024623Y-85666000D01*
X130765623Y-83266000D02*
X120801623Y-83266000D01*
X130828623Y-82865000D02*
X120738623Y-82865000D01*
X130178623Y-84826000D02*
X127024623Y-84826000D01*
X124542623Y-83906000D02*
X120972623Y-83906000D01*
X127413623Y-87106000D02*
X124153623Y-87106000D01*
X130837623Y-82785000D02*
X120729623Y-82785000D01*
X130551623Y-84026000D02*
X127024623Y-84026000D01*
X130807623Y-83026000D02*
X120759623Y-83026000D01*
X130223623Y-84746000D02*
X127024623Y-84746000D01*
X124542623Y-85866000D02*
X122182623Y-85866000D01*
X124542623Y-85666000D02*
X121994623Y-85666000D01*
X130490623Y-84186000D02*
X127024623Y-84186000D01*
X124542623Y-84186000D02*
X121076623Y-84186000D01*
X129261623Y-85986000D02*
X127024623Y-85986000D01*
X127629623Y-87026000D02*
X123937623Y-87026000D01*
X124542623Y-85626000D02*
X121959623Y-85626000D01*
X130863623Y-82265000D02*
X120703623Y-82265000D01*
X129740623Y-85466000D02*
X127024623Y-85466000D01*
X128939623Y-86266000D02*
X122627623Y-86266000D01*
X130680623Y-83626000D02*
X127024623Y-83626000D01*
X128553623Y-86546000D02*
X123013623Y-86546000D01*
X124542623Y-84986000D02*
X121485623Y-84986000D01*
X124542623Y-85426000D02*
X121794623Y-85426000D01*
X130620623Y-83826000D02*
X127024623Y-83826000D01*
X130440623Y-84306000D02*
X127024623Y-84306000D01*
X128072623Y-86826000D02*
X123494623Y-86826000D01*
X124542623Y-83706000D02*
X120909623Y-83706000D01*
X129607623Y-85626000D02*
X127024623Y-85626000D01*
X124542623Y-84346000D02*
X121144623Y-84346000D01*
X129893623Y-85266000D02*
X127024623Y-85266000D01*
X129675623Y-85546000D02*
X127024623Y-85546000D01*
X124542623Y-85186000D02*
X121617623Y-85186000D01*
X129175623Y-86066000D02*
X122391623Y-86066000D01*
X129130623Y-86106000D02*
X122436623Y-86106000D01*
X130801623Y-83066000D02*
X120765623Y-83066000D01*
X124542623Y-84666000D02*
X121300623Y-84666000D01*
X124542623Y-83786000D02*
X120933623Y-83786000D01*
X124542623Y-85466000D02*
X121826623Y-85466000D01*
X127525623Y-87066000D02*
X124041623Y-87066000D01*
X130506623Y-84146000D02*
X127024623Y-84146000D01*
X130853623Y-82585000D02*
X120713623Y-82585000D01*
X126645623Y-87306000D02*
X124921623Y-87306000D01*
X130668623Y-83666000D02*
X127024623Y-83666000D01*
X124542623Y-85106000D02*
X121562623Y-85106000D01*
X127992623Y-86866000D02*
X123574623Y-86866000D01*
X124542623Y-83826000D02*
X120946623Y-83826000D01*
X124542623Y-84546000D02*
X121238623Y-84546000D01*
X129462623Y-85786000D02*
X127024623Y-85786000D01*
X124542623Y-84466000D02*
X121199623Y-84466000D01*
X124542623Y-83546000D02*
X120865623Y-83546000D01*
X130200623Y-84786000D02*
X127024623Y-84786000D01*
X130607623Y-83866000D02*
X127024623Y-83866000D01*
X129803623Y-85386000D02*
X127024623Y-85386000D01*
X127908623Y-86906000D02*
X123658623Y-86906000D01*
X128658623Y-76785354D02*
X128658623Y-77785354D01*
X127293623Y-87146000D02*
X124273623Y-87146000D01*
X129863623Y-85306000D02*
X127024623Y-85306000D01*
X130645623Y-83746000D02*
X127024623Y-83746000D01*
X130056623Y-85026000D02*
X127024623Y-85026000D01*
X124542623Y-83986000D02*
X121000623Y-83986000D01*
X130266623Y-84666000D02*
X127024623Y-84666000D01*
X130845623Y-82705000D02*
X120721623Y-82705000D01*
X128148623Y-86786000D02*
X123418623Y-86786000D01*
X124542623Y-85266000D02*
X121673623Y-85266000D01*
X130580623Y-83946000D02*
X127024623Y-83946000D01*
X130081623Y-84986000D02*
X127024623Y-84986000D01*
X128672623Y-86466000D02*
X122894623Y-86466000D01*
X128222623Y-86746000D02*
X123344623Y-86746000D01*
X130633623Y-83786000D02*
X127024623Y-83786000D01*
X130863623Y-82345000D02*
X120703623Y-82345000D01*
X128989623Y-86226000D02*
X122577623Y-86226000D01*
X130004623Y-85106000D02*
X127024623Y-85106000D01*
X126845623Y-87266000D02*
X124721623Y-87266000D01*
X130841623Y-82745000D02*
X120725623Y-82745000D01*
X130861623Y-82425000D02*
X120705623Y-82425000D01*
X124542623Y-83586000D02*
X120876623Y-83586000D01*
X124542623Y-85706000D02*
X122030623Y-85706000D01*
X130863623Y-82305000D02*
X120703623Y-82305000D01*
X127013623Y-87226000D02*
X124553623Y-87226000D01*
X129384623Y-85866000D02*
X127024623Y-85866000D01*
X124542623Y-85946000D02*
X122263623Y-85946000D01*
X130721623Y-83466000D02*
X120845623Y-83466000D01*
X129772623Y-85426000D02*
X127024623Y-85426000D01*
X130730623Y-83426000D02*
X120836623Y-83426000D01*
X128837623Y-86346000D02*
X122729623Y-86346000D01*
X124542623Y-84626000D02*
X121279623Y-84626000D01*
X128293623Y-86706000D02*
X123273623Y-86706000D01*
X124542623Y-84946000D02*
X121460623Y-84946000D01*
X129344623Y-85906000D02*
X127024623Y-85906000D01*
X130537623Y-84066000D02*
X127024623Y-84066000D01*
X124542623Y-83666000D02*
X120898623Y-83666000D01*
X124542623Y-85346000D02*
X121733623Y-85346000D01*
X129158623Y-77285354D02*
X128158623Y-77285354D01*
X129921623Y-85226000D02*
X127024623Y-85226000D01*
X124542623Y-84506000D02*
X121219623Y-84506000D01*
X124542623Y-84706000D02*
X121321623Y-84706000D01*
X127727623Y-86986000D02*
X123839623Y-86986000D01*
X127820623Y-86946000D02*
X123746623Y-86946000D01*
X124542623Y-85226000D02*
X121645623Y-85226000D01*
X124542623Y-83626000D02*
X120886623Y-83626000D01*
X124542623Y-85306000D02*
X121703623Y-85306000D01*
X130851623Y-82625000D02*
X120715623Y-82625000D01*
X130106623Y-84946000D02*
X127024623Y-84946000D01*
X124542623Y-84066000D02*
X121029623Y-84066000D01*
X130347623Y-84506000D02*
X127024623Y-84506000D01*
X124542623Y-85826000D02*
X122143623Y-85826000D01*
X128428623Y-86626000D02*
X123138623Y-86626000D01*
X130386623Y-84426000D02*
X127024623Y-84426000D01*
X124542623Y-85066000D02*
X121536623Y-85066000D01*
X130833623Y-82825000D02*
X120733623Y-82825000D01*
X129303623Y-85946000D02*
X127024623Y-85946000D01*
X129641623Y-85586000D02*
X127024623Y-85586000D01*
X130521623Y-84106000D02*
X127024623Y-84106000D01*
X128889623Y-86306000D02*
X122677623Y-86306000D01*
X126382623Y-87346000D02*
X125184623Y-87346000D01*
X124542623Y-84306000D02*
X121126623Y-84306000D01*
X129833623Y-85346000D02*
X127024623Y-85346000D01*
X127161623Y-87186000D02*
X124405623Y-87186000D01*
X124542623Y-84906000D02*
X121436623Y-84906000D01*
X130367623Y-84466000D02*
X127024623Y-84466000D01*
X129536623Y-85706000D02*
X127024623Y-85706000D01*
X128613623Y-86506000D02*
X122953623Y-86506000D01*
X130690623Y-83586000D02*
X127024623Y-83586000D01*
X130154623Y-84866000D02*
X127024623Y-84866000D01*
X129949623Y-85186000D02*
X127024623Y-85186000D01*
X124542623Y-84586000D02*
X121258623Y-84586000D01*
X130308623Y-84586000D02*
X127024623Y-84586000D01*
X124542623Y-85786000D02*
X122104623Y-85786000D01*
X130773623Y-83226000D02*
X120793623Y-83226000D01*
X124542623Y-84226000D02*
X121093623Y-84226000D01*
X124542623Y-83946000D02*
X120986623Y-83946000D01*
X130813623Y-82986000D02*
X120753623Y-82986000D01*
X124542623Y-85746000D02*
X122067623Y-85746000D01*
X130566623Y-83986000D02*
X127024623Y-83986000D01*
X130473623Y-84226000D02*
X127024623Y-84226000D01*
X130130623Y-84906000D02*
X127024623Y-84906000D01*
X124542623Y-85906000D02*
X122222623Y-85906000D01*
X130245623Y-84706000D02*
X127024623Y-84706000D01*
X128362623Y-86666000D02*
X123204623Y-86666000D01*
X124542623Y-84266000D02*
X121109623Y-84266000D01*
X124542623Y-84826000D02*
X121388623Y-84826000D01*
X129423623Y-85826000D02*
X127024623Y-85826000D01*
X124542623Y-84026000D02*
X121015623Y-84026000D01*
X130739623Y-83386000D02*
X120827623Y-83386000D01*
X128783623Y-86386000D02*
X122783623Y-86386000D01*
X130903623Y-82265000D02*
G75*
G03*
X130903623Y-82265000I-5120000J0D01*
G01*
X140295663Y-90192800D02*
X144319023Y-90192800D01*
X144319023Y-77137200D02*
X140295663Y-77137200D01*
X144319023Y-90192800D02*
X144319023Y-77137200D01*
X131568223Y-77137200D02*
X131568223Y-90192800D01*
X131568223Y-90192800D02*
X135591583Y-90192800D01*
X135591583Y-77137200D02*
X131568223Y-77137200D01*
D14*
X140683623Y-96205000D02*
X145083623Y-96205000D01*
X145083623Y-93405000D02*
X140683623Y-93405000D01*
X139011623Y-93270000D02*
G75*
G03*
X139011623Y-93270000I-127000J0D01*
G01*
X145083623Y-97165000D02*
X140683623Y-97165000D01*
X140683623Y-99965000D02*
X145083623Y-99965000D01*
X139011623Y-97030000D02*
G75*
G03*
X139011623Y-97030000I-127000J0D01*
G01*
D12*
X184817356Y-82665000D02*
X185109890Y-82665000D01*
X184817356Y-81645000D02*
X185109890Y-81645000D01*
X175106123Y-80850276D02*
X175106123Y-81359724D01*
X174061123Y-80850276D02*
X174061123Y-81359724D01*
X180086123Y-81359724D02*
X180086123Y-80850276D01*
X179041123Y-81359724D02*
X179041123Y-80850276D01*
X176766123Y-80850276D02*
X176766123Y-81359724D01*
X175721123Y-80850276D02*
X175721123Y-81359724D01*
X177381123Y-80850276D02*
X177381123Y-81359724D01*
X178426123Y-80850276D02*
X178426123Y-81359724D01*
X205903623Y-92648733D02*
X205903623Y-92941267D01*
X206923623Y-92648733D02*
X206923623Y-92941267D01*
X112873623Y-90905000D02*
X110713623Y-90905000D01*
X112873623Y-94065000D02*
X111413623Y-94065000D01*
X112873623Y-90905000D02*
X112873623Y-91835000D01*
X112873623Y-94065000D02*
X112873623Y-93135000D01*
X119767623Y-87046000D02*
X116444623Y-87046000D01*
X113962623Y-86686000D02*
X110480623Y-86686000D01*
X120282623Y-84925000D02*
X110124623Y-84925000D01*
X113962623Y-87686000D02*
X111009623Y-87686000D01*
X113962623Y-86406000D02*
X110379623Y-86406000D01*
X120131623Y-86046000D02*
X110275623Y-86046000D01*
X117492623Y-89366000D02*
X112914623Y-89366000D01*
X118550623Y-88646000D02*
X111856623Y-88646000D01*
X119926623Y-86686000D02*
X116444623Y-86686000D01*
X119824623Y-86926000D02*
X116444623Y-86926000D01*
X113962623Y-86206000D02*
X110318623Y-86206000D01*
X113962623Y-87206000D02*
X110720623Y-87206000D01*
X119027623Y-88166000D02*
X116444623Y-88166000D01*
X117848623Y-89166000D02*
X112558623Y-89166000D01*
X116713623Y-89686000D02*
X113693623Y-89686000D01*
X113962623Y-86246000D02*
X110329623Y-86246000D01*
X119476623Y-87566000D02*
X116444623Y-87566000D01*
X113962623Y-88486000D02*
X111683623Y-88486000D01*
X113962623Y-88126000D02*
X111345623Y-88126000D01*
X113962623Y-87326000D02*
X110786623Y-87326000D01*
X120261623Y-85285000D02*
X110145623Y-85285000D01*
X120000623Y-86486000D02*
X116444623Y-86486000D01*
X120257623Y-85325000D02*
X110149623Y-85325000D01*
X113962623Y-88086000D02*
X111311623Y-88086000D01*
X119971623Y-86566000D02*
X116444623Y-86566000D01*
X116581623Y-89726000D02*
X113825623Y-89726000D01*
X113962623Y-87086000D02*
X110658623Y-87086000D01*
X113962623Y-86166000D02*
X110306623Y-86166000D01*
X119550623Y-87446000D02*
X116444623Y-87446000D01*
X120253623Y-85365000D02*
X110153623Y-85365000D01*
X118578623Y-79825354D02*
X117578623Y-79825354D01*
X118457623Y-88726000D02*
X111949623Y-88726000D01*
X113962623Y-86806000D02*
X110529623Y-86806000D01*
X118033623Y-89046000D02*
X112373623Y-89046000D01*
X119787623Y-87006000D02*
X116444623Y-87006000D01*
X113962623Y-86646000D02*
X110465623Y-86646000D01*
X113962623Y-87286000D02*
X110763623Y-87286000D01*
X113962623Y-87526000D02*
X110905623Y-87526000D01*
X120207623Y-85686000D02*
X110199623Y-85686000D01*
X120065623Y-86286000D02*
X116444623Y-86286000D01*
X113962623Y-86086000D02*
X110285623Y-86086000D01*
X118309623Y-88846000D02*
X112097623Y-88846000D01*
X118956623Y-88246000D02*
X116444623Y-88246000D01*
X120233623Y-85526000D02*
X110173623Y-85526000D01*
X113962623Y-86286000D02*
X110341623Y-86286000D01*
X120281623Y-84965000D02*
X110125623Y-84965000D01*
X120227623Y-85566000D02*
X110179623Y-85566000D01*
X120159623Y-85926000D02*
X110247623Y-85926000D01*
X118919623Y-88286000D02*
X116444623Y-88286000D01*
X113962623Y-88006000D02*
X111246623Y-88006000D01*
X113962623Y-88246000D02*
X111450623Y-88246000D01*
X120121623Y-86086000D02*
X116444623Y-86086000D01*
X120027623Y-86406000D02*
X116444623Y-86406000D01*
X113962623Y-88206000D02*
X111414623Y-88206000D01*
X120088623Y-86206000D02*
X116444623Y-86206000D01*
X118257623Y-88886000D02*
X112149623Y-88886000D01*
X113962623Y-88326000D02*
X111524623Y-88326000D01*
X119893623Y-86766000D02*
X116444623Y-86766000D01*
X119728623Y-87126000D02*
X116444623Y-87126000D01*
X113962623Y-87806000D02*
X111093623Y-87806000D01*
X120248623Y-85405000D02*
X110158623Y-85405000D01*
X118504623Y-88686000D02*
X111902623Y-88686000D01*
X120014623Y-86446000D02*
X116444623Y-86446000D01*
X119686623Y-87206000D02*
X116444623Y-87206000D01*
X118804623Y-88406000D02*
X116444623Y-88406000D01*
X117713623Y-89246000D02*
X112693623Y-89246000D01*
X113962623Y-87886000D02*
X111153623Y-87886000D01*
X117973623Y-89086000D02*
X112433623Y-89086000D01*
X113962623Y-87566000D02*
X110930623Y-87566000D01*
X118681623Y-88526000D02*
X116444623Y-88526000D01*
X113962623Y-86566000D02*
X110435623Y-86566000D01*
X113962623Y-87166000D02*
X110699623Y-87166000D01*
X119253623Y-87886000D02*
X116444623Y-87886000D01*
X113962623Y-87766000D02*
X111065623Y-87766000D01*
X120150623Y-85966000D02*
X110256623Y-85966000D01*
X113962623Y-86486000D02*
X110406623Y-86486000D01*
X119450623Y-87606000D02*
X116444623Y-87606000D01*
X113962623Y-86126000D02*
X110296623Y-86126000D01*
X119574623Y-87406000D02*
X116444623Y-87406000D01*
X120238623Y-85485000D02*
X110168623Y-85485000D01*
X113962623Y-87846000D02*
X111123623Y-87846000D01*
X113962623Y-88046000D02*
X111278623Y-88046000D01*
X113962623Y-87126000D02*
X110678623Y-87126000D01*
X113962623Y-87726000D02*
X111037623Y-87726000D01*
X113962623Y-88526000D02*
X111725623Y-88526000D01*
X115802623Y-89886000D02*
X114604623Y-89886000D01*
X118882623Y-88326000D02*
X116444623Y-88326000D01*
X119341623Y-87766000D02*
X116444623Y-87766000D01*
X116065623Y-89846000D02*
X114341623Y-89846000D01*
X118639623Y-88566000D02*
X111767623Y-88566000D01*
X118359623Y-88806000D02*
X112047623Y-88806000D01*
X120177623Y-85846000D02*
X110229623Y-85846000D01*
X119941623Y-86646000D02*
X116444623Y-86646000D01*
X119707623Y-87166000D02*
X116444623Y-87166000D01*
X118078623Y-79325354D02*
X118078623Y-80325354D01*
X118764623Y-88446000D02*
X116444623Y-88446000D01*
X120100623Y-86166000D02*
X116444623Y-86166000D01*
X113962623Y-86886000D02*
X110564623Y-86886000D01*
X120077623Y-86246000D02*
X116444623Y-86246000D01*
X120243623Y-85445000D02*
X110163623Y-85445000D01*
X120168623Y-85886000D02*
X110238623Y-85886000D01*
X118092623Y-89006000D02*
X112314623Y-89006000D01*
X120283623Y-84885000D02*
X110123623Y-84885000D01*
X119095623Y-88086000D02*
X116444623Y-88086000D01*
X120110623Y-86126000D02*
X116444623Y-86126000D01*
X113962623Y-86846000D02*
X110546623Y-86846000D01*
X120141623Y-86006000D02*
X110265623Y-86006000D01*
X117912623Y-89126000D02*
X112494623Y-89126000D01*
X113962623Y-88446000D02*
X111642623Y-88446000D01*
X116433623Y-89766000D02*
X113973623Y-89766000D01*
X118843623Y-88366000D02*
X116444623Y-88366000D01*
X117147623Y-89526000D02*
X113259623Y-89526000D01*
X113962623Y-86606000D02*
X110449623Y-86606000D01*
X120200623Y-85726000D02*
X110206623Y-85726000D01*
X119160623Y-88006000D02*
X116444623Y-88006000D01*
X113962623Y-88166000D02*
X111379623Y-88166000D01*
X119283623Y-87846000D02*
X116444623Y-87846000D01*
X119748623Y-87086000D02*
X116444623Y-87086000D01*
X117782623Y-89206000D02*
X112624623Y-89206000D01*
X119860623Y-86846000D02*
X116444623Y-86846000D01*
X119501623Y-87526000D02*
X116444623Y-87526000D01*
X119424623Y-87646000D02*
X116444623Y-87646000D01*
X117049623Y-89566000D02*
X113357623Y-89566000D01*
X118723623Y-88486000D02*
X116444623Y-88486000D01*
X120185623Y-85806000D02*
X110221623Y-85806000D01*
X116833623Y-89646000D02*
X113573623Y-89646000D01*
X117642623Y-89286000D02*
X112764623Y-89286000D01*
X117240623Y-89486000D02*
X113166623Y-89486000D01*
X113962623Y-87966000D02*
X111214623Y-87966000D01*
X119369623Y-87726000D02*
X116444623Y-87726000D01*
X116945623Y-89606000D02*
X113461623Y-89606000D01*
X120193623Y-85766000D02*
X110213623Y-85766000D01*
X113962623Y-87406000D02*
X110832623Y-87406000D01*
X120221623Y-85606000D02*
X110185623Y-85606000D01*
X113962623Y-88366000D02*
X111563623Y-88366000D01*
X113962623Y-86726000D02*
X110496623Y-86726000D01*
X119223623Y-87926000D02*
X116444623Y-87926000D01*
X120053623Y-86326000D02*
X116444623Y-86326000D01*
X120271623Y-85165000D02*
X110135623Y-85165000D01*
X113962623Y-86966000D02*
X110600623Y-86966000D01*
X120276623Y-85085000D02*
X110130623Y-85085000D01*
X113962623Y-87486000D02*
X110880623Y-87486000D01*
X119842623Y-86886000D02*
X116444623Y-86886000D01*
X118409623Y-88766000D02*
X111997623Y-88766000D01*
X120280623Y-85005000D02*
X110126623Y-85005000D01*
X119526623Y-87486000D02*
X116444623Y-87486000D01*
X119986623Y-86526000D02*
X116444623Y-86526000D01*
X120283623Y-84845000D02*
X110123623Y-84845000D01*
X119128623Y-88046000D02*
X116444623Y-88046000D01*
X113962623Y-86926000D02*
X110582623Y-86926000D01*
X113962623Y-87446000D02*
X110856623Y-87446000D01*
X113962623Y-86446000D02*
X110392623Y-86446000D01*
X119620623Y-87326000D02*
X116444623Y-87326000D01*
X120278623Y-85045000D02*
X110128623Y-85045000D01*
X120273623Y-85125000D02*
X110133623Y-85125000D01*
X113962623Y-87926000D02*
X111183623Y-87926000D01*
X113962623Y-86766000D02*
X110513623Y-86766000D01*
X113962623Y-87366000D02*
X110808623Y-87366000D01*
X113962623Y-87006000D02*
X110619623Y-87006000D01*
X120214623Y-85646000D02*
X110192623Y-85646000D01*
X119313623Y-87806000D02*
X116444623Y-87806000D01*
X113962623Y-87046000D02*
X110639623Y-87046000D01*
X118992623Y-88206000D02*
X116444623Y-88206000D01*
X119598623Y-87366000D02*
X116444623Y-87366000D01*
X119910623Y-86726000D02*
X116444623Y-86726000D01*
X113962623Y-87606000D02*
X110956623Y-87606000D01*
X113962623Y-87246000D02*
X110741623Y-87246000D01*
X120040623Y-86366000D02*
X116444623Y-86366000D01*
X118203623Y-88926000D02*
X112203623Y-88926000D01*
X118148623Y-88966000D02*
X112258623Y-88966000D01*
X113962623Y-88286000D02*
X111487623Y-88286000D01*
X119806623Y-86966000D02*
X116444623Y-86966000D01*
X117412623Y-89406000D02*
X112994623Y-89406000D01*
X120268623Y-85205000D02*
X110138623Y-85205000D01*
X113962623Y-86366000D02*
X110366623Y-86366000D01*
X119397623Y-87686000D02*
X116444623Y-87686000D01*
X116265623Y-89806000D02*
X114141623Y-89806000D01*
X113962623Y-86326000D02*
X110353623Y-86326000D01*
X119061623Y-88126000D02*
X116444623Y-88126000D01*
X113962623Y-88406000D02*
X111602623Y-88406000D01*
X119877623Y-86806000D02*
X116444623Y-86806000D01*
X119957623Y-86606000D02*
X116444623Y-86606000D01*
X118595623Y-88606000D02*
X111811623Y-88606000D01*
X120265623Y-85245000D02*
X110141623Y-85245000D01*
X117568623Y-89326000D02*
X112838623Y-89326000D01*
X119665623Y-87246000D02*
X116444623Y-87246000D01*
X119192623Y-87966000D02*
X116444623Y-87966000D01*
X120283623Y-84805000D02*
X110123623Y-84805000D01*
X113962623Y-87646000D02*
X110982623Y-87646000D01*
X117328623Y-89446000D02*
X113078623Y-89446000D01*
X113962623Y-86526000D02*
X110420623Y-86526000D01*
X119643623Y-87286000D02*
X116444623Y-87286000D01*
X120323623Y-84805000D02*
G75*
G03*
X120323623Y-84805000I-5120000J0D01*
G01*
X127827356Y-93335000D02*
X128119890Y-93335000D01*
X127827356Y-94355000D02*
X128119890Y-94355000D01*
X147126123Y-106110276D02*
X147126123Y-106619724D01*
X146081123Y-106110276D02*
X146081123Y-106619724D01*
X151950687Y-100790000D02*
X151496559Y-100790000D01*
X151950687Y-102260000D02*
X151496559Y-102260000D01*
X147881123Y-106950276D02*
X147881123Y-107459724D01*
X148926123Y-106950276D02*
X148926123Y-107459724D01*
X147990687Y-102260000D02*
X147536559Y-102260000D01*
X147990687Y-100790000D02*
X147536559Y-100790000D01*
X174468323Y-93422559D02*
X174468323Y-92770300D01*
X160871182Y-92770300D02*
X160218923Y-92770300D01*
X160218923Y-106367441D02*
X160218923Y-107019700D01*
X174468323Y-92770300D02*
X173816064Y-92770300D01*
X160218923Y-92770300D02*
X160218923Y-93422559D01*
X173816064Y-107019700D02*
X174468323Y-107019700D01*
X160218923Y-107019700D02*
X160871182Y-107019700D01*
X174468323Y-107019700D02*
X174468323Y-106367441D01*
D15*
X168653123Y-91030400D02*
X169034123Y-91030400D01*
X169034123Y-91030400D02*
X169034123Y-91284400D01*
X169034123Y-91284400D02*
X168653123Y-91284400D01*
X168653123Y-91284400D02*
X168653123Y-91030400D01*
G36*
X169034123Y-91284400D02*
G01*
X168653123Y-91284400D01*
X168653123Y-91030400D01*
X169034123Y-91030400D01*
X169034123Y-91284400D01*
G37*
X169034123Y-91284400D02*
X168653123Y-91284400D01*
X168653123Y-91030400D01*
X169034123Y-91030400D01*
X169034123Y-91284400D01*
X175954223Y-104085500D02*
X176208223Y-104085500D01*
X176208223Y-104085500D02*
X176208223Y-103704500D01*
X176208223Y-103704500D02*
X175954223Y-103704500D01*
X175954223Y-103704500D02*
X175954223Y-104085500D01*
G36*
X176208223Y-104085500D02*
G01*
X175954223Y-104085500D01*
X175954223Y-103704500D01*
X176208223Y-103704500D01*
X176208223Y-104085500D01*
G37*
X176208223Y-104085500D02*
X175954223Y-104085500D01*
X175954223Y-103704500D01*
X176208223Y-103704500D01*
X176208223Y-104085500D01*
X158733023Y-101085501D02*
X158479023Y-101085501D01*
X158479023Y-101085501D02*
X158479023Y-100704501D01*
X158479023Y-100704501D02*
X158733023Y-100704501D01*
X158733023Y-100704501D02*
X158733023Y-101085501D01*
G36*
X158733023Y-101085501D02*
G01*
X158479023Y-101085501D01*
X158479023Y-100704501D01*
X158733023Y-100704501D01*
X158733023Y-101085501D01*
G37*
X158733023Y-101085501D02*
X158479023Y-101085501D01*
X158479023Y-100704501D01*
X158733023Y-100704501D01*
X158733023Y-101085501D01*
X175954223Y-94085499D02*
X176208223Y-94085499D01*
X176208223Y-94085499D02*
X176208223Y-93704499D01*
X176208223Y-93704499D02*
X175954223Y-93704499D01*
X175954223Y-93704499D02*
X175954223Y-94085499D01*
G36*
X176208223Y-94085499D02*
G01*
X175954223Y-94085499D01*
X175954223Y-93704499D01*
X176208223Y-93704499D01*
X176208223Y-94085499D01*
G37*
X176208223Y-94085499D02*
X175954223Y-94085499D01*
X175954223Y-93704499D01*
X176208223Y-93704499D01*
X176208223Y-94085499D01*
X158733023Y-106085501D02*
X158479023Y-106085501D01*
X158479023Y-106085501D02*
X158479023Y-105704501D01*
X158479023Y-105704501D02*
X158733023Y-105704501D01*
X158733023Y-105704501D02*
X158733023Y-106085501D01*
G36*
X158733023Y-106085501D02*
G01*
X158479023Y-106085501D01*
X158479023Y-105704501D01*
X158733023Y-105704501D01*
X158733023Y-106085501D01*
G37*
X158733023Y-106085501D02*
X158479023Y-106085501D01*
X158479023Y-105704501D01*
X158733023Y-105704501D01*
X158733023Y-106085501D01*
X165653123Y-108759600D02*
X166034123Y-108759600D01*
X166034123Y-108759600D02*
X166034123Y-108505600D01*
X166034123Y-108505600D02*
X165653123Y-108505600D01*
X165653123Y-108505600D02*
X165653123Y-108759600D01*
G36*
X166034123Y-108759600D02*
G01*
X165653123Y-108759600D01*
X165653123Y-108505600D01*
X166034123Y-108505600D01*
X166034123Y-108759600D01*
G37*
X166034123Y-108759600D02*
X165653123Y-108759600D01*
X165653123Y-108505600D01*
X166034123Y-108505600D01*
X166034123Y-108759600D01*
X158733023Y-96085500D02*
X158479023Y-96085500D01*
X158479023Y-96085500D02*
X158479023Y-95704500D01*
X158479023Y-95704500D02*
X158733023Y-95704500D01*
X158733023Y-95704500D02*
X158733023Y-96085500D01*
G36*
X158733023Y-96085500D02*
G01*
X158479023Y-96085500D01*
X158479023Y-95704500D01*
X158733023Y-95704500D01*
X158733023Y-96085500D01*
G37*
X158733023Y-96085500D02*
X158479023Y-96085500D01*
X158479023Y-95704500D01*
X158733023Y-95704500D01*
X158733023Y-96085500D01*
X170653124Y-108759600D02*
X171034124Y-108759600D01*
X171034124Y-108759600D02*
X171034124Y-108505600D01*
X171034124Y-108505600D02*
X170653124Y-108505600D01*
X170653124Y-108505600D02*
X170653124Y-108759600D01*
G36*
X171034124Y-108759600D02*
G01*
X170653124Y-108759600D01*
X170653124Y-108505600D01*
X171034124Y-108505600D01*
X171034124Y-108759600D01*
G37*
X171034124Y-108759600D02*
X170653124Y-108759600D01*
X170653124Y-108505600D01*
X171034124Y-108505600D01*
X171034124Y-108759600D01*
X163653122Y-91030400D02*
X164034122Y-91030400D01*
X164034122Y-91030400D02*
X164034122Y-91284400D01*
X164034122Y-91284400D02*
X163653122Y-91284400D01*
X163653122Y-91284400D02*
X163653122Y-91030400D01*
G36*
X164034122Y-91284400D02*
G01*
X163653122Y-91284400D01*
X163653122Y-91030400D01*
X164034122Y-91030400D01*
X164034122Y-91284400D01*
G37*
X164034122Y-91284400D02*
X163653122Y-91284400D01*
X163653122Y-91030400D01*
X164034122Y-91030400D01*
X164034122Y-91284400D01*
X175954223Y-99085499D02*
X176208223Y-99085499D01*
X176208223Y-99085499D02*
X176208223Y-98704499D01*
X176208223Y-98704499D02*
X175954223Y-98704499D01*
X175954223Y-98704499D02*
X175954223Y-99085499D01*
G36*
X176208223Y-99085499D02*
G01*
X175954223Y-99085499D01*
X175954223Y-98704499D01*
X176208223Y-98704499D01*
X176208223Y-99085499D01*
G37*
X176208223Y-99085499D02*
X175954223Y-99085499D01*
X175954223Y-98704499D01*
X176208223Y-98704499D01*
X176208223Y-99085499D01*
D12*
X148523623Y-98518733D02*
X148523623Y-98811267D01*
X149543623Y-98518733D02*
X149543623Y-98811267D01*
X95291123Y-99580276D02*
X95291123Y-100089724D01*
X96336123Y-99580276D02*
X96336123Y-100089724D01*
D14*
X94363623Y-93815000D02*
X95963623Y-93815000D01*
X94363623Y-96955000D02*
X95963623Y-96955000D01*
D13*
X92728623Y-94435000D02*
G75*
G03*
X92728623Y-94435000I-100000J0D01*
G01*
D12*
X94953623Y-104755000D02*
X94953623Y-104105000D01*
X91833623Y-104755000D02*
X91833623Y-104105000D01*
X91833623Y-104755000D02*
X91833623Y-106430000D01*
X94953623Y-104755000D02*
X94953623Y-105405000D01*
X99008899Y-97337500D02*
X99518347Y-97337500D01*
X99008899Y-96292500D02*
X99518347Y-96292500D01*
D14*
X100923623Y-101055000D02*
X100923623Y-99295000D01*
X97783623Y-101055000D02*
X97783623Y-99295000D01*
D13*
X98453623Y-102675000D02*
G75*
G03*
X98453623Y-102675000I-100000J0D01*
G01*
%LPC*%
D16*
X99523623Y-83650000D02*
X97023623Y-83650000D01*
X97023623Y-83650000D02*
X97023623Y-83075000D01*
X97023623Y-83075000D02*
X97373623Y-83075000D01*
X97373623Y-83075000D02*
X97373623Y-82975000D01*
X97373623Y-82975000D02*
X97023623Y-82975000D01*
X97023623Y-82975000D02*
X97023623Y-82400000D01*
X97023623Y-82400000D02*
X99523623Y-82400000D01*
X99523623Y-82400000D02*
X99523623Y-82975000D01*
X99523623Y-82975000D02*
X99173623Y-82975000D01*
X99173623Y-82975000D02*
X99173623Y-83075000D01*
X99173623Y-83075000D02*
X99523623Y-83075000D01*
X99523623Y-83075000D02*
X99523623Y-83650000D01*
G36*
X99523623Y-82975000D02*
G01*
X99173623Y-82975000D01*
X99173623Y-83075000D01*
X99523623Y-83075000D01*
X99523623Y-83650000D01*
X97023623Y-83650000D01*
X97023623Y-83075000D01*
X97373623Y-83075000D01*
X97373623Y-82975000D01*
X97023623Y-82975000D01*
X97023623Y-82400000D01*
X99523623Y-82400000D01*
X99523623Y-82975000D01*
G37*
X99523623Y-82975000D02*
X99173623Y-82975000D01*
X99173623Y-83075000D01*
X99523623Y-83075000D01*
X99523623Y-83650000D01*
X97023623Y-83650000D01*
X97023623Y-83075000D01*
X97373623Y-83075000D01*
X97373623Y-82975000D01*
X97023623Y-82975000D01*
X97023623Y-82400000D01*
X99523623Y-82400000D01*
X99523623Y-82975000D01*
D17*
X182571123Y-84295000D03*
X185696123Y-84295000D03*
D18*
X204413623Y-91932500D03*
X204413623Y-93657500D03*
X162673623Y-81290000D03*
X162673623Y-83015000D03*
X191163623Y-91980000D03*
X191163623Y-93705000D03*
X197841123Y-98982500D03*
X197841123Y-100707500D03*
D19*
X202251123Y-105135000D03*
X203976123Y-105135000D03*
D20*
X177043623Y-115390000D03*
X177043623Y-113665000D03*
D21*
X131163623Y-91605000D03*
X131163623Y-94505000D03*
D22*
X150463623Y-80755000D03*
X151563623Y-81155000D03*
X152663623Y-80755000D03*
X153763623Y-80555000D03*
X154863623Y-80755000D03*
X155963623Y-80555000D03*
X157063623Y-80755000D03*
X158163623Y-80755000D03*
D23*
X155963623Y-91840000D03*
D24*
X157353623Y-91615000D03*
X151653623Y-91615000D03*
D25*
X158953623Y-78465000D03*
X145803623Y-77465000D03*
D26*
X113353623Y-121694900D03*
X113353623Y-110595100D03*
D27*
X180763623Y-83360000D03*
X180113623Y-83360000D03*
X179463623Y-83360000D03*
D28*
X179647123Y-84285000D03*
D27*
X179463623Y-85210000D03*
X180113623Y-85210000D03*
X180763623Y-85210000D03*
D28*
X180580123Y-84285000D03*
D29*
X91743623Y-88742500D03*
X93643623Y-88742500D03*
X92693623Y-86867500D03*
D30*
X116731123Y-99185000D03*
X116731123Y-97285000D03*
X114856123Y-98235000D03*
D31*
X135373623Y-110495000D03*
X135373623Y-100495000D03*
X128853623Y-110485000D03*
X128853623Y-100485000D03*
D32*
X150123623Y-106292500D03*
X150123623Y-108117500D03*
D33*
X114766123Y-102415000D03*
X112941123Y-102415000D03*
D34*
X109223623Y-90427500D03*
X109223623Y-88602500D03*
D33*
X195253623Y-97205000D03*
X193428623Y-97205000D03*
D35*
X197428623Y-97205000D03*
X199253623Y-97205000D03*
X193428623Y-95485000D03*
X195253623Y-95485000D03*
X197428623Y-95485000D03*
X199253623Y-95485000D03*
X195021123Y-105135000D03*
X196846123Y-105135000D03*
D33*
X200406123Y-105135000D03*
X198581123Y-105135000D03*
D35*
X149369123Y-116789000D03*
X151194123Y-116789000D03*
D36*
X183078623Y-78365000D03*
X183078623Y-78865000D03*
X183078623Y-79365000D03*
X183078623Y-79865000D03*
D37*
X183763623Y-80550000D03*
X184263623Y-80550000D03*
X184763623Y-80550000D03*
X185263623Y-80550000D03*
D36*
X185948623Y-79865000D03*
X185948623Y-79365000D03*
X185948623Y-78865000D03*
X185948623Y-78365000D03*
D37*
X185263623Y-77680000D03*
X184763623Y-77680000D03*
X184263623Y-77680000D03*
X183763623Y-77680000D03*
D38*
X184513623Y-79115000D03*
D39*
X171301123Y-117100000D03*
X171301123Y-117750000D03*
X171301123Y-118400000D03*
X171301123Y-119050000D03*
X171301123Y-119700000D03*
X171301123Y-120350000D03*
X171301123Y-121000000D03*
X171301123Y-121650000D03*
X171301123Y-122300000D03*
X171301123Y-122950000D03*
X171301123Y-123600000D03*
X171301123Y-124250000D03*
X177026123Y-124250000D03*
X177026123Y-123600000D03*
X177026123Y-122950000D03*
X177026123Y-122300000D03*
X177026123Y-121650000D03*
X177026123Y-121000000D03*
X177026123Y-120350000D03*
X177026123Y-119700000D03*
X177026123Y-119050000D03*
X177026123Y-118400000D03*
X177026123Y-117750000D03*
X177026123Y-117100000D03*
D40*
X170263623Y-81290000D03*
X170263623Y-80020000D03*
X170263623Y-78750000D03*
X170263623Y-77480000D03*
X164463623Y-77480000D03*
X164463623Y-78750000D03*
X164463623Y-80020000D03*
X164463623Y-81290000D03*
D41*
X167363623Y-79385000D03*
D32*
X92103623Y-98902500D03*
X92103623Y-100727500D03*
D35*
X154077123Y-116789000D03*
X155902123Y-116789000D03*
D42*
X92703623Y-82765000D03*
D43*
X92703623Y-80225000D03*
D44*
X103183623Y-78385000D03*
X103183623Y-80885000D03*
D32*
X108773623Y-82732500D03*
X108773623Y-84557500D03*
D45*
X103093623Y-92712500D03*
X103093623Y-95837500D03*
D20*
X98663623Y-93787500D03*
X98663623Y-92062500D03*
D46*
X97883623Y-107445000D03*
X97883623Y-105445000D03*
D47*
X94443623Y-91125000D03*
X96443623Y-91125000D03*
D32*
X100203623Y-104902500D03*
X100203623Y-106727500D03*
D17*
X108751123Y-96975000D03*
X111876123Y-96975000D03*
D19*
X108621123Y-99115000D03*
X110346123Y-99115000D03*
D48*
X99173623Y-82050000D03*
D49*
X98273623Y-82050000D03*
D48*
X97373623Y-82050000D03*
D50*
X110363624Y-102333400D03*
X109713623Y-102333400D03*
X109063622Y-102333400D03*
X108413623Y-102333400D03*
X107763624Y-102333400D03*
X107113623Y-102333400D03*
X106463624Y-102333400D03*
X106463622Y-107616600D03*
X107113623Y-107616600D03*
X107763622Y-107616600D03*
X108413623Y-107616600D03*
X109063622Y-107616600D03*
X109713623Y-107616600D03*
X110363622Y-107616600D03*
D51*
X108413623Y-104975000D03*
D52*
X120141123Y-105935000D03*
X123266123Y-105935000D03*
X120141123Y-102475000D03*
X123266123Y-102475000D03*
X120141123Y-95555000D03*
X123266123Y-95555000D03*
X120141123Y-99015000D03*
X123266123Y-99015000D03*
D53*
X126593623Y-92270000D03*
D54*
X126593623Y-91000000D03*
X126593623Y-89730000D03*
X126593623Y-88460000D03*
X121193623Y-88460000D03*
X121193623Y-89730000D03*
X121193623Y-91000000D03*
X121193623Y-92270000D03*
D55*
X195473623Y-86162500D03*
X195473623Y-83187500D03*
X192913623Y-86142500D03*
X192913623Y-83167500D03*
D41*
X125783623Y-79765000D03*
D56*
X125783623Y-84765000D03*
D57*
X137943623Y-78585000D03*
X137943623Y-88745000D03*
D58*
X139798623Y-94170000D03*
X139798623Y-95440000D03*
X145968623Y-95440000D03*
X145968623Y-94170000D03*
X139798623Y-97930000D03*
X139798623Y-99200000D03*
X145968623Y-99200000D03*
X145968623Y-97930000D03*
D19*
X184101123Y-82155000D03*
X185826123Y-82155000D03*
D32*
X174583623Y-80192500D03*
X174583623Y-82017500D03*
D34*
X179563623Y-82017500D03*
X179563623Y-80192500D03*
D32*
X176243623Y-80192500D03*
X176243623Y-82017500D03*
X177903623Y-80192500D03*
X177903623Y-82017500D03*
D18*
X206413623Y-91932500D03*
X206413623Y-93657500D03*
D59*
X111113623Y-93435000D03*
X113113623Y-92485000D03*
X111113623Y-91535000D03*
D41*
X115203623Y-82305000D03*
D56*
X115203623Y-87305000D03*
D19*
X127111123Y-93845000D03*
X128836123Y-93845000D03*
D32*
X146603623Y-105452500D03*
X146603623Y-107277500D03*
D60*
X152723623Y-101525000D03*
X150723623Y-101525000D03*
D32*
X148403623Y-106292500D03*
X148403623Y-108117500D03*
D60*
X148763623Y-101525000D03*
X146763623Y-101525000D03*
D61*
X161343622Y-107515000D03*
X161843624Y-107515000D03*
X162343623Y-107515000D03*
X162843622Y-107515000D03*
X163343623Y-107515000D03*
X163843622Y-107515000D03*
X164343624Y-107515000D03*
X164843623Y-107515000D03*
X165343622Y-107515000D03*
X165843623Y-107515000D03*
X166343622Y-107515000D03*
X166843621Y-107515000D03*
X167343623Y-107515000D03*
X167843622Y-107515000D03*
X168343624Y-107515000D03*
X168843623Y-107515000D03*
X169343622Y-107515000D03*
X169843623Y-107515000D03*
X170343622Y-107515000D03*
X170843624Y-107515000D03*
X171343623Y-107515000D03*
X171843622Y-107515000D03*
X172343623Y-107515000D03*
X172843622Y-107515000D03*
X173343624Y-107515000D03*
D62*
X174963623Y-105895001D03*
X174963623Y-105394999D03*
X174963623Y-104895000D03*
X174963623Y-104395001D03*
X174963623Y-103895000D03*
X174963623Y-103395001D03*
X174963623Y-102894999D03*
X174963623Y-102395000D03*
X174963623Y-101895001D03*
X174963623Y-101395000D03*
X174963623Y-100895001D03*
X174963623Y-100394999D03*
X174963623Y-99895000D03*
X174963623Y-99395001D03*
X174963623Y-98894999D03*
X174963623Y-98395000D03*
X174963623Y-97894999D03*
X174963623Y-97395000D03*
X174963623Y-96895001D03*
X174963623Y-96394999D03*
X174963623Y-95895000D03*
X174963623Y-95394999D03*
X174963623Y-94895000D03*
X174963623Y-94395001D03*
X174963623Y-93894999D03*
D61*
X173343624Y-92275000D03*
X172843622Y-92275000D03*
X172343623Y-92275000D03*
X171843624Y-92275000D03*
X171343623Y-92275000D03*
X170843624Y-92275000D03*
X170343622Y-92275000D03*
X169843623Y-92275000D03*
X169343624Y-92275000D03*
X168843623Y-92275000D03*
X168343624Y-92275000D03*
X167843622Y-92275000D03*
X167343623Y-92275000D03*
X166843624Y-92275000D03*
X166343622Y-92275000D03*
X165843623Y-92275000D03*
X165343622Y-92275000D03*
X164843623Y-92275000D03*
X164343624Y-92275000D03*
X163843622Y-92275000D03*
X163343623Y-92275000D03*
X162843622Y-92275000D03*
X162343623Y-92275000D03*
X161843624Y-92275000D03*
X161343622Y-92275000D03*
D62*
X159723623Y-93894999D03*
X159723623Y-94395001D03*
X159723623Y-94895000D03*
X159723623Y-95394999D03*
X159723623Y-95895000D03*
X159723623Y-96394999D03*
X159723623Y-96895001D03*
X159723623Y-97395000D03*
X159723623Y-97894999D03*
X159723623Y-98395000D03*
X159723623Y-98894999D03*
X159723623Y-99395001D03*
X159723623Y-99895000D03*
X159723623Y-100394999D03*
X159723623Y-100895001D03*
X159723623Y-101395000D03*
X159723623Y-101895001D03*
X159723623Y-102395000D03*
X159723623Y-102894999D03*
X159723623Y-103395001D03*
X159723623Y-103895000D03*
X159723623Y-104395001D03*
X159723623Y-104895000D03*
X159723623Y-105394999D03*
X159723623Y-105895001D03*
D18*
X149033623Y-97802500D03*
X149033623Y-99527500D03*
D32*
X95813623Y-98922500D03*
X95813623Y-100747500D03*
D63*
X93978623Y-94435000D03*
X93978623Y-95385000D03*
X93978623Y-96335000D03*
X96348623Y-96335000D03*
X96348623Y-94435000D03*
D29*
X92443623Y-105692500D03*
X94343623Y-105692500D03*
X93393623Y-103817500D03*
D35*
X98351123Y-96815000D03*
X100176123Y-96815000D03*
D64*
X98403623Y-101420000D03*
X99353623Y-101420000D03*
X100303623Y-101420000D03*
X100303623Y-98930000D03*
X98403623Y-98930000D03*
D65*
X159053623Y-120375000D03*
D66*
X154053623Y-120375000D03*
X149053623Y-120375000D03*
D43*
X103203623Y-83015000D03*
X110703623Y-80715000D03*
D67*
X196683623Y-124483000D03*
X194194423Y-124483000D03*
X191705223Y-124483000D03*
D68*
X198594623Y-117483000D03*
X189794223Y-117483000D03*
D69*
X99043623Y-117195000D03*
X93043623Y-117195000D03*
D70*
X97043623Y-114795000D03*
D71*
X95043623Y-114795000D03*
D72*
X96643623Y-109965000D03*
D73*
X96643623Y-88125000D03*
D72*
X164233623Y-120795000D03*
D73*
X186073623Y-120795000D03*
D69*
X208413623Y-87135000D03*
X202413623Y-87135000D03*
D74*
X204413623Y-89535000D03*
D71*
X206413623Y-89535000D03*
D75*
X185393623Y-88280000D03*
X104393623Y-112280000D03*
X185393623Y-112280000D03*
X104393623Y-88280000D03*
D76*
X183353623Y-107900000D03*
D77*
X185893623Y-107900000D03*
X183353623Y-105360000D03*
X185893623Y-105360000D03*
X183353623Y-102820000D03*
X185893623Y-102820000D03*
X183353623Y-100280000D03*
X185893623Y-100280000D03*
X183353623Y-97740000D03*
X185893623Y-97740000D03*
X183353623Y-95200000D03*
X185893623Y-95200000D03*
X183353623Y-92660000D03*
X185893623Y-92660000D03*
D67*
X196693623Y-89315000D03*
X194204423Y-89315000D03*
X191715223Y-89315000D03*
D68*
X198604623Y-82315000D03*
X189804223Y-82315000D03*
D43*
X135543623Y-120695000D03*
X143043623Y-117995000D03*
D56*
X193253623Y-107895000D03*
X198253623Y-107895000D03*
X193253623Y-93395000D03*
X198253623Y-93395000D03*
X195753623Y-93395000D03*
D78*
X190203623Y-100895000D03*
X201303623Y-100895000D03*
D43*
X122843623Y-120695000D03*
X130343623Y-117995000D03*
D79*
X143733623Y-106305000D03*
X145003623Y-106305000D03*
X143733623Y-105035000D03*
X145003623Y-105035000D03*
X143733623Y-103765000D03*
X145003623Y-103765000D03*
X143733623Y-102495000D03*
X145003623Y-102495000D03*
X143733623Y-101225000D03*
X145003623Y-101225000D03*
M02*
