%TF.GenerationSoftware,KiCad,Pcbnew,6.0.0-2.fc35*%
%TF.CreationDate,2022-02-25T18:53:21-08:00*%
%TF.ProjectId,Doorbell,446f6f72-6265-46c6-9c2e-6b696361645f,B*%
%TF.SameCoordinates,Original*%
%TF.FileFunction,Legend,Bot*%
%TF.FilePolarity,Positive*%
%FSLAX46Y46*%
G04 Gerber Fmt 4.6, Leading zero omitted, Abs format (unit mm)*
G04 Created by KiCad (PCBNEW 6.0.0-2.fc35) date 2022-02-25 18:53:21*
%MOMM*%
%LPD*%
G01*
G04 APERTURE LIST*
G04 Aperture macros list*
%AMRoundRect*
0 Rectangle with rounded corners*
0 $1 Rounding radius*
0 $2 $3 $4 $5 $6 $7 $8 $9 X,Y pos of 4 corners*
0 Add a 4 corners polygon primitive as box body*
4,1,4,$2,$3,$4,$5,$6,$7,$8,$9,$2,$3,0*
0 Add four circle primitives for the rounded corners*
1,1,$1+$1,$2,$3*
1,1,$1+$1,$4,$5*
1,1,$1+$1,$6,$7*
1,1,$1+$1,$8,$9*
0 Add four rect primitives between the rounded corners*
20,1,$1+$1,$2,$3,$4,$5,0*
20,1,$1+$1,$4,$5,$6,$7,0*
20,1,$1+$1,$6,$7,$8,$9,0*
20,1,$1+$1,$8,$9,$2,$3,0*%
G04 Aperture macros list end*
%ADD10C,0.250000*%
%ADD11C,0.150000*%
%ADD12C,0.200000*%
%ADD13C,0.300000*%
%ADD14C,0.225000*%
%ADD15C,0.100000*%
%ADD16C,0.450000*%
%ADD17C,0.120000*%
%ADD18C,0.127000*%
%ADD19R,1.800000X1.800000*%
%ADD20C,1.800000*%
%ADD21R,2.000000X2.000000*%
%ADD22C,2.000000*%
%ADD23RoundRect,0.237500X-0.237500X0.300000X-0.237500X-0.300000X0.237500X-0.300000X0.237500X0.300000X0*%
%ADD24RoundRect,0.237500X-0.287500X-0.237500X0.287500X-0.237500X0.287500X0.237500X-0.287500X0.237500X0*%
%ADD25R,2.600000X2.600000*%
%ADD26C,2.600000*%
%ADD27RoundRect,0.237500X0.237500X-0.250000X0.237500X0.250000X-0.237500X0.250000X-0.237500X-0.250000X0*%
%ADD28C,2.006600*%
%ADD29C,2.717800*%
%ADD30RoundRect,0.100000X-0.100000X0.637500X-0.100000X-0.637500X0.100000X-0.637500X0.100000X0.637500X0*%
%ADD31C,1.200000*%
%ADD32RoundRect,0.250000X0.350000X0.650000X-0.350000X0.650000X-0.350000X-0.650000X0.350000X-0.650000X0*%
%ADD33O,1.200000X1.800000*%
%ADD34R,1.980000X1.980000*%
%ADD35C,1.980000*%
%ADD36RoundRect,0.250000X-0.350000X-0.650000X0.350000X-0.650000X0.350000X0.650000X-0.350000X0.650000X0*%
%ADD37C,4.000000*%
%ADD38R,1.700000X1.700000*%
%ADD39C,1.700000*%
%ADD40C,4.200000*%
%ADD41RoundRect,0.237500X0.300000X0.237500X-0.300000X0.237500X-0.300000X-0.237500X0.300000X-0.237500X0*%
%ADD42RoundRect,0.237500X0.237500X-0.300000X0.237500X0.300000X-0.237500X0.300000X-0.237500X-0.300000X0*%
%ADD43RoundRect,0.237500X-0.300000X-0.237500X0.300000X-0.237500X0.300000X0.237500X-0.300000X0.237500X0*%
%ADD44RoundRect,0.250000X-0.412500X-0.650000X0.412500X-0.650000X0.412500X0.650000X-0.412500X0.650000X0*%
%ADD45C,1.100000*%
%ADD46RoundRect,0.250000X-0.650000X0.412500X-0.650000X-0.412500X0.650000X-0.412500X0.650000X0.412500X0*%
%ADD47RoundRect,0.250000X0.625000X-0.400000X0.625000X0.400000X-0.625000X0.400000X-0.625000X-0.400000X0*%
G04 APERTURE END LIST*
D10*
X100831718Y-122627857D02*
X102355527Y-122627857D01*
X101593623Y-123389761D02*
X101593623Y-121865952D01*
D11*
X128788861Y-78027380D02*
X128788861Y-77027380D01*
X128360289Y-78027380D02*
X128360289Y-77503571D01*
X128407908Y-77408333D01*
X128503146Y-77360714D01*
X128646003Y-77360714D01*
X128741242Y-77408333D01*
X128788861Y-77455952D01*
X128026956Y-77360714D02*
X127646003Y-77360714D01*
X127884099Y-77027380D02*
X127884099Y-77884523D01*
X127836480Y-77979761D01*
X127741242Y-78027380D01*
X127646003Y-78027380D01*
X127455527Y-77360714D02*
X127074575Y-77360714D01*
X127312670Y-77027380D02*
X127312670Y-77884523D01*
X127265051Y-77979761D01*
X127169813Y-78027380D01*
X127074575Y-78027380D01*
X126741242Y-77360714D02*
X126741242Y-78360714D01*
X126741242Y-77408333D02*
X126646003Y-77360714D01*
X126455527Y-77360714D01*
X126360289Y-77408333D01*
X126312670Y-77455952D01*
X126265051Y-77551190D01*
X126265051Y-77836904D01*
X126312670Y-77932142D01*
X126360289Y-77979761D01*
X126455527Y-78027380D01*
X126646003Y-78027380D01*
X126741242Y-77979761D01*
X125884099Y-77979761D02*
X125788861Y-78027380D01*
X125598384Y-78027380D01*
X125503146Y-77979761D01*
X125455527Y-77884523D01*
X125455527Y-77836904D01*
X125503146Y-77741666D01*
X125598384Y-77694047D01*
X125741242Y-77694047D01*
X125836480Y-77646428D01*
X125884099Y-77551190D01*
X125884099Y-77503571D01*
X125836480Y-77408333D01*
X125741242Y-77360714D01*
X125598384Y-77360714D01*
X125503146Y-77408333D01*
X125026956Y-77932142D02*
X124979337Y-77979761D01*
X125026956Y-78027380D01*
X125074575Y-77979761D01*
X125026956Y-77932142D01*
X125026956Y-78027380D01*
X125026956Y-77408333D02*
X124979337Y-77455952D01*
X125026956Y-77503571D01*
X125074575Y-77455952D01*
X125026956Y-77408333D01*
X125026956Y-77503571D01*
X123836480Y-76979761D02*
X124693623Y-78265476D01*
X122788861Y-76979761D02*
X123646003Y-78265476D01*
X122026956Y-77360714D02*
X122026956Y-78170238D01*
X122074575Y-78265476D01*
X122122194Y-78313095D01*
X122217432Y-78360714D01*
X122360289Y-78360714D01*
X122455527Y-78313095D01*
X122026956Y-77979761D02*
X122122194Y-78027380D01*
X122312670Y-78027380D01*
X122407908Y-77979761D01*
X122455527Y-77932142D01*
X122503146Y-77836904D01*
X122503146Y-77551190D01*
X122455527Y-77455952D01*
X122407908Y-77408333D01*
X122312670Y-77360714D01*
X122122194Y-77360714D01*
X122026956Y-77408333D01*
X121550765Y-78027380D02*
X121550765Y-77360714D01*
X121550765Y-77027380D02*
X121598384Y-77075000D01*
X121550765Y-77122619D01*
X121503146Y-77075000D01*
X121550765Y-77027380D01*
X121550765Y-77122619D01*
X121217432Y-77360714D02*
X120836480Y-77360714D01*
X121074575Y-77027380D02*
X121074575Y-77884523D01*
X121026956Y-77979761D01*
X120931718Y-78027380D01*
X120836480Y-78027380D01*
X120503146Y-78027380D02*
X120503146Y-77027380D01*
X120074575Y-78027380D02*
X120074575Y-77503571D01*
X120122194Y-77408333D01*
X120217432Y-77360714D01*
X120360289Y-77360714D01*
X120455527Y-77408333D01*
X120503146Y-77455952D01*
X119169813Y-77360714D02*
X119169813Y-78027380D01*
X119598384Y-77360714D02*
X119598384Y-77884523D01*
X119550765Y-77979761D01*
X119455527Y-78027380D01*
X119312670Y-78027380D01*
X119217432Y-77979761D01*
X119169813Y-77932142D01*
X118693623Y-78027380D02*
X118693623Y-77027380D01*
X118693623Y-77408333D02*
X118598384Y-77360714D01*
X118407908Y-77360714D01*
X118312670Y-77408333D01*
X118265051Y-77455952D01*
X118217432Y-77551190D01*
X118217432Y-77836904D01*
X118265051Y-77932142D01*
X118312670Y-77979761D01*
X118407908Y-78027380D01*
X118598384Y-78027380D01*
X118693623Y-77979761D01*
X117788861Y-77932142D02*
X117741242Y-77979761D01*
X117788861Y-78027380D01*
X117836480Y-77979761D01*
X117788861Y-77932142D01*
X117788861Y-78027380D01*
X116884099Y-77979761D02*
X116979337Y-78027380D01*
X117169813Y-78027380D01*
X117265051Y-77979761D01*
X117312670Y-77932142D01*
X117360289Y-77836904D01*
X117360289Y-77551190D01*
X117312670Y-77455952D01*
X117265051Y-77408333D01*
X117169813Y-77360714D01*
X116979337Y-77360714D01*
X116884099Y-77408333D01*
X116312670Y-78027380D02*
X116407908Y-77979761D01*
X116455527Y-77932142D01*
X116503146Y-77836904D01*
X116503146Y-77551190D01*
X116455527Y-77455952D01*
X116407908Y-77408333D01*
X116312670Y-77360714D01*
X116169813Y-77360714D01*
X116074575Y-77408333D01*
X116026956Y-77455952D01*
X115979337Y-77551190D01*
X115979337Y-77836904D01*
X116026956Y-77932142D01*
X116074575Y-77979761D01*
X116169813Y-78027380D01*
X116312670Y-78027380D01*
X115550765Y-78027380D02*
X115550765Y-77360714D01*
X115550765Y-77455952D02*
X115503146Y-77408333D01*
X115407908Y-77360714D01*
X115265051Y-77360714D01*
X115169813Y-77408333D01*
X115122194Y-77503571D01*
X115122194Y-78027380D01*
X115122194Y-77503571D02*
X115074575Y-77408333D01*
X114979337Y-77360714D01*
X114836480Y-77360714D01*
X114741242Y-77408333D01*
X114693623Y-77503571D01*
X114693623Y-78027380D01*
X113503146Y-76979761D02*
X114360289Y-78265476D01*
X113026956Y-78027380D02*
X113122194Y-77979761D01*
X113169813Y-77884523D01*
X113169813Y-77027380D01*
X112217432Y-78027380D02*
X112217432Y-77503571D01*
X112265051Y-77408333D01*
X112360289Y-77360714D01*
X112550765Y-77360714D01*
X112646003Y-77408333D01*
X112217432Y-77979761D02*
X112312670Y-78027380D01*
X112550765Y-78027380D01*
X112646003Y-77979761D01*
X112693623Y-77884523D01*
X112693623Y-77789285D01*
X112646003Y-77694047D01*
X112550765Y-77646428D01*
X112312670Y-77646428D01*
X112217432Y-77598809D01*
X111836480Y-77360714D02*
X111312670Y-77360714D01*
X111836480Y-78027380D01*
X111312670Y-78027380D01*
X110550765Y-77979761D02*
X110646003Y-78027380D01*
X110836480Y-78027380D01*
X110931718Y-77979761D01*
X110979337Y-77884523D01*
X110979337Y-77503571D01*
X110931718Y-77408333D01*
X110836480Y-77360714D01*
X110646003Y-77360714D01*
X110550765Y-77408333D01*
X110503146Y-77503571D01*
X110503146Y-77598809D01*
X110979337Y-77694047D01*
X110074575Y-78027380D02*
X110074575Y-77360714D01*
X110074575Y-77551190D02*
X110026956Y-77455952D01*
X109979337Y-77408333D01*
X109884099Y-77360714D01*
X109788861Y-77360714D01*
X109455527Y-77360714D02*
X109455527Y-78217857D01*
X109503146Y-78313095D01*
X109598384Y-78360714D01*
X109646003Y-78360714D01*
X109455527Y-77027380D02*
X109503146Y-77075000D01*
X109455527Y-77122619D01*
X109407908Y-77075000D01*
X109455527Y-77027380D01*
X109455527Y-77122619D01*
X109074575Y-77027380D02*
X108407908Y-77027380D01*
X108836480Y-78027380D01*
X107312670Y-76979761D02*
X108169813Y-78265476D01*
X106979337Y-78027380D02*
X106979337Y-77027380D01*
X106646003Y-77741666D01*
X106312670Y-77027380D01*
X106312670Y-78027380D01*
X105407908Y-77360714D02*
X105407908Y-78027380D01*
X105836480Y-77360714D02*
X105836480Y-77884523D01*
X105788861Y-77979761D01*
X105693623Y-78027380D01*
X105550765Y-78027380D01*
X105455527Y-77979761D01*
X105407908Y-77932142D01*
X104979337Y-77979761D02*
X104884099Y-78027380D01*
X104693623Y-78027380D01*
X104598384Y-77979761D01*
X104550765Y-77884523D01*
X104550765Y-77836904D01*
X104598384Y-77741666D01*
X104693623Y-77694047D01*
X104836480Y-77694047D01*
X104931718Y-77646428D01*
X104979337Y-77551190D01*
X104979337Y-77503571D01*
X104931718Y-77408333D01*
X104836480Y-77360714D01*
X104693623Y-77360714D01*
X104598384Y-77408333D01*
X104122194Y-78027380D02*
X104122194Y-77360714D01*
X104122194Y-77027380D02*
X104169813Y-77075000D01*
X104122194Y-77122619D01*
X104074575Y-77075000D01*
X104122194Y-77027380D01*
X104122194Y-77122619D01*
X103217432Y-77979761D02*
X103312670Y-78027380D01*
X103503146Y-78027380D01*
X103598384Y-77979761D01*
X103646003Y-77932142D01*
X103693623Y-77836904D01*
X103693623Y-77551190D01*
X103646003Y-77455952D01*
X103598384Y-77408333D01*
X103503146Y-77360714D01*
X103312670Y-77360714D01*
X103217432Y-77408333D01*
X102360289Y-78027380D02*
X102360289Y-77503571D01*
X102407908Y-77408333D01*
X102503146Y-77360714D01*
X102693623Y-77360714D01*
X102788861Y-77408333D01*
X102360289Y-77979761D02*
X102455527Y-78027380D01*
X102693623Y-78027380D01*
X102788861Y-77979761D01*
X102836480Y-77884523D01*
X102836480Y-77789285D01*
X102788861Y-77694047D01*
X102693623Y-77646428D01*
X102455527Y-77646428D01*
X102360289Y-77598809D01*
X101741242Y-78027380D02*
X101836480Y-77979761D01*
X101884099Y-77884523D01*
X101884099Y-77027380D01*
X101360289Y-78027380D02*
X101360289Y-77027380D01*
X101122194Y-77027380D01*
X100979337Y-77075000D01*
X100884099Y-77170238D01*
X100836480Y-77265476D01*
X100788861Y-77455952D01*
X100788861Y-77598809D01*
X100836480Y-77789285D01*
X100884099Y-77884523D01*
X100979337Y-77979761D01*
X101122194Y-78027380D01*
X101360289Y-78027380D01*
X100217432Y-78027380D02*
X100312670Y-77979761D01*
X100360289Y-77932142D01*
X100407908Y-77836904D01*
X100407908Y-77551190D01*
X100360289Y-77455952D01*
X100312670Y-77408333D01*
X100217432Y-77360714D01*
X100074575Y-77360714D01*
X99979337Y-77408333D01*
X99931718Y-77455952D01*
X99884099Y-77551190D01*
X99884099Y-77836904D01*
X99931718Y-77932142D01*
X99979337Y-77979761D01*
X100074575Y-78027380D01*
X100217432Y-78027380D01*
X99312670Y-78027380D02*
X99407908Y-77979761D01*
X99455527Y-77932142D01*
X99503146Y-77836904D01*
X99503146Y-77551190D01*
X99455527Y-77455952D01*
X99407908Y-77408333D01*
X99312670Y-77360714D01*
X99169813Y-77360714D01*
X99074575Y-77408333D01*
X99026956Y-77455952D01*
X98979337Y-77551190D01*
X98979337Y-77836904D01*
X99026956Y-77932142D01*
X99074575Y-77979761D01*
X99169813Y-78027380D01*
X99312670Y-78027380D01*
X98550765Y-78027380D02*
X98550765Y-77360714D01*
X98550765Y-77551190D02*
X98503146Y-77455952D01*
X98455527Y-77408333D01*
X98360289Y-77360714D01*
X98265051Y-77360714D01*
X97931718Y-78027380D02*
X97931718Y-77027380D01*
X97931718Y-77408333D02*
X97836480Y-77360714D01*
X97646003Y-77360714D01*
X97550765Y-77408333D01*
X97503146Y-77455952D01*
X97455527Y-77551190D01*
X97455527Y-77836904D01*
X97503146Y-77932142D01*
X97550765Y-77979761D01*
X97646003Y-78027380D01*
X97836480Y-78027380D01*
X97931718Y-77979761D01*
X96646003Y-77979761D02*
X96741242Y-78027380D01*
X96931718Y-78027380D01*
X97026956Y-77979761D01*
X97074575Y-77884523D01*
X97074575Y-77503571D01*
X97026956Y-77408333D01*
X96931718Y-77360714D01*
X96741242Y-77360714D01*
X96646003Y-77408333D01*
X96598384Y-77503571D01*
X96598384Y-77598809D01*
X97074575Y-77694047D01*
X96026956Y-78027380D02*
X96122194Y-77979761D01*
X96169813Y-77884523D01*
X96169813Y-77027380D01*
X95503146Y-78027380D02*
X95598384Y-77979761D01*
X95646003Y-77884523D01*
X95646003Y-77027380D01*
D12*
X127110765Y-123762380D02*
X127586956Y-123762380D01*
X127586956Y-122762380D01*
X126777432Y-123762380D02*
X126777432Y-123095714D01*
X126777432Y-122762380D02*
X126825051Y-122810000D01*
X126777432Y-122857619D01*
X126729813Y-122810000D01*
X126777432Y-122762380D01*
X126777432Y-122857619D01*
X125872670Y-123714761D02*
X125967908Y-123762380D01*
X126158384Y-123762380D01*
X126253623Y-123714761D01*
X126301242Y-123667142D01*
X126348861Y-123571904D01*
X126348861Y-123286190D01*
X126301242Y-123190952D01*
X126253623Y-123143333D01*
X126158384Y-123095714D01*
X125967908Y-123095714D01*
X125872670Y-123143333D01*
X125063146Y-123714761D02*
X125158384Y-123762380D01*
X125348861Y-123762380D01*
X125444099Y-123714761D01*
X125491718Y-123619523D01*
X125491718Y-123238571D01*
X125444099Y-123143333D01*
X125348861Y-123095714D01*
X125158384Y-123095714D01*
X125063146Y-123143333D01*
X125015527Y-123238571D01*
X125015527Y-123333809D01*
X125491718Y-123429047D01*
X124586956Y-123095714D02*
X124586956Y-123762380D01*
X124586956Y-123190952D02*
X124539337Y-123143333D01*
X124444099Y-123095714D01*
X124301242Y-123095714D01*
X124206003Y-123143333D01*
X124158384Y-123238571D01*
X124158384Y-123762380D01*
X123729813Y-123714761D02*
X123634575Y-123762380D01*
X123444099Y-123762380D01*
X123348861Y-123714761D01*
X123301242Y-123619523D01*
X123301242Y-123571904D01*
X123348861Y-123476666D01*
X123444099Y-123429047D01*
X123586956Y-123429047D01*
X123682194Y-123381428D01*
X123729813Y-123286190D01*
X123729813Y-123238571D01*
X123682194Y-123143333D01*
X123586956Y-123095714D01*
X123444099Y-123095714D01*
X123348861Y-123143333D01*
X122491718Y-123714761D02*
X122586956Y-123762380D01*
X122777432Y-123762380D01*
X122872670Y-123714761D01*
X122920289Y-123619523D01*
X122920289Y-123238571D01*
X122872670Y-123143333D01*
X122777432Y-123095714D01*
X122586956Y-123095714D01*
X122491718Y-123143333D01*
X122444099Y-123238571D01*
X122444099Y-123333809D01*
X122920289Y-123429047D01*
X121586956Y-123762380D02*
X121586956Y-122762380D01*
X121586956Y-123714761D02*
X121682194Y-123762380D01*
X121872670Y-123762380D01*
X121967908Y-123714761D01*
X122015527Y-123667142D01*
X122063146Y-123571904D01*
X122063146Y-123286190D01*
X122015527Y-123190952D01*
X121967908Y-123143333D01*
X121872670Y-123095714D01*
X121682194Y-123095714D01*
X121586956Y-123143333D01*
X119920289Y-123095714D02*
X119920289Y-123762380D01*
X120348861Y-123095714D02*
X120348861Y-123619523D01*
X120301242Y-123714761D01*
X120206003Y-123762380D01*
X120063146Y-123762380D01*
X119967908Y-123714761D01*
X119920289Y-123667142D01*
X119444099Y-123095714D02*
X119444099Y-123762380D01*
X119444099Y-123190952D02*
X119396480Y-123143333D01*
X119301242Y-123095714D01*
X119158384Y-123095714D01*
X119063146Y-123143333D01*
X119015527Y-123238571D01*
X119015527Y-123762380D01*
X118110765Y-123762380D02*
X118110765Y-122762380D01*
X118110765Y-123714761D02*
X118206003Y-123762380D01*
X118396480Y-123762380D01*
X118491718Y-123714761D01*
X118539337Y-123667142D01*
X118586956Y-123571904D01*
X118586956Y-123286190D01*
X118539337Y-123190952D01*
X118491718Y-123143333D01*
X118396480Y-123095714D01*
X118206003Y-123095714D01*
X118110765Y-123143333D01*
X117253623Y-123714761D02*
X117348861Y-123762380D01*
X117539337Y-123762380D01*
X117634575Y-123714761D01*
X117682194Y-123619523D01*
X117682194Y-123238571D01*
X117634575Y-123143333D01*
X117539337Y-123095714D01*
X117348861Y-123095714D01*
X117253623Y-123143333D01*
X117206003Y-123238571D01*
X117206003Y-123333809D01*
X117682194Y-123429047D01*
X116777432Y-123762380D02*
X116777432Y-123095714D01*
X116777432Y-123286190D02*
X116729813Y-123190952D01*
X116682194Y-123143333D01*
X116586956Y-123095714D01*
X116491718Y-123095714D01*
X114825051Y-123667142D02*
X114872670Y-123714761D01*
X115015527Y-123762380D01*
X115110765Y-123762380D01*
X115253623Y-123714761D01*
X115348861Y-123619523D01*
X115396480Y-123524285D01*
X115444099Y-123333809D01*
X115444099Y-123190952D01*
X115396480Y-123000476D01*
X115348861Y-122905238D01*
X115253623Y-122810000D01*
X115110765Y-122762380D01*
X115015527Y-122762380D01*
X114872670Y-122810000D01*
X114825051Y-122857619D01*
X114396480Y-123238571D02*
X114063146Y-123238571D01*
X113920289Y-123762380D02*
X114396480Y-123762380D01*
X114396480Y-122762380D01*
X113920289Y-122762380D01*
X112920289Y-123762380D02*
X113253623Y-123286190D01*
X113491718Y-123762380D02*
X113491718Y-122762380D01*
X113110765Y-122762380D01*
X113015527Y-122810000D01*
X112967908Y-122857619D01*
X112920289Y-122952857D01*
X112920289Y-123095714D01*
X112967908Y-123190952D01*
X113015527Y-123238571D01*
X113110765Y-123286190D01*
X113491718Y-123286190D01*
X112491718Y-123762380D02*
X112491718Y-122762380D01*
X111920289Y-123762380D01*
X111920289Y-122762380D01*
X111444099Y-123381428D02*
X110682194Y-123381428D01*
X110015527Y-122762380D02*
X109825051Y-122762380D01*
X109729813Y-122810000D01*
X109634575Y-122905238D01*
X109586956Y-123095714D01*
X109586956Y-123429047D01*
X109634575Y-123619523D01*
X109729813Y-123714761D01*
X109825051Y-123762380D01*
X110015527Y-123762380D01*
X110110765Y-123714761D01*
X110206003Y-123619523D01*
X110253623Y-123429047D01*
X110253623Y-123095714D01*
X110206003Y-122905238D01*
X110110765Y-122810000D01*
X110015527Y-122762380D01*
X109158384Y-123762380D02*
X109158384Y-122762380D01*
X109158384Y-123238571D02*
X108586956Y-123238571D01*
X108586956Y-123762380D02*
X108586956Y-122762380D01*
X107634575Y-123762380D02*
X108110765Y-123762380D01*
X108110765Y-122762380D01*
X107301242Y-123381428D02*
X106539337Y-123381428D01*
X106158384Y-122762380D02*
X105920289Y-123762380D01*
X105729813Y-123048095D01*
X105539337Y-123762380D01*
X105301242Y-122762380D01*
X104253623Y-123095714D02*
X104015527Y-123762380D01*
X103777432Y-123095714D01*
X103444099Y-122857619D02*
X103396480Y-122810000D01*
X103301242Y-122762380D01*
X103063146Y-122762380D01*
X102967908Y-122810000D01*
X102920289Y-122857619D01*
X102872670Y-122952857D01*
X102872670Y-123048095D01*
X102920289Y-123190952D01*
X103491718Y-123762380D01*
X102872670Y-123762380D01*
X128634575Y-125372380D02*
X128634575Y-124372380D01*
X128206003Y-125372380D02*
X128206003Y-124848571D01*
X128253623Y-124753333D01*
X128348861Y-124705714D01*
X128491718Y-124705714D01*
X128586956Y-124753333D01*
X128634575Y-124800952D01*
X127872670Y-124705714D02*
X127491718Y-124705714D01*
X127729813Y-124372380D02*
X127729813Y-125229523D01*
X127682194Y-125324761D01*
X127586956Y-125372380D01*
X127491718Y-125372380D01*
X127301242Y-124705714D02*
X126920289Y-124705714D01*
X127158384Y-124372380D02*
X127158384Y-125229523D01*
X127110765Y-125324761D01*
X127015527Y-125372380D01*
X126920289Y-125372380D01*
X126586956Y-124705714D02*
X126586956Y-125705714D01*
X126586956Y-124753333D02*
X126491718Y-124705714D01*
X126301242Y-124705714D01*
X126206003Y-124753333D01*
X126158384Y-124800952D01*
X126110765Y-124896190D01*
X126110765Y-125181904D01*
X126158384Y-125277142D01*
X126206003Y-125324761D01*
X126301242Y-125372380D01*
X126491718Y-125372380D01*
X126586956Y-125324761D01*
X125729813Y-125324761D02*
X125634575Y-125372380D01*
X125444099Y-125372380D01*
X125348861Y-125324761D01*
X125301242Y-125229523D01*
X125301242Y-125181904D01*
X125348861Y-125086666D01*
X125444099Y-125039047D01*
X125586956Y-125039047D01*
X125682194Y-124991428D01*
X125729813Y-124896190D01*
X125729813Y-124848571D01*
X125682194Y-124753333D01*
X125586956Y-124705714D01*
X125444099Y-124705714D01*
X125348861Y-124753333D01*
X124872670Y-125277142D02*
X124825051Y-125324761D01*
X124872670Y-125372380D01*
X124920289Y-125324761D01*
X124872670Y-125277142D01*
X124872670Y-125372380D01*
X124872670Y-124753333D02*
X124825051Y-124800952D01*
X124872670Y-124848571D01*
X124920289Y-124800952D01*
X124872670Y-124753333D01*
X124872670Y-124848571D01*
X123682194Y-124324761D02*
X124539337Y-125610476D01*
X122634575Y-124324761D02*
X123491718Y-125610476D01*
X122158384Y-125372380D02*
X122253623Y-125324761D01*
X122301242Y-125277142D01*
X122348861Y-125181904D01*
X122348861Y-124896190D01*
X122301242Y-124800952D01*
X122253623Y-124753333D01*
X122158384Y-124705714D01*
X122015527Y-124705714D01*
X121920289Y-124753333D01*
X121872670Y-124800952D01*
X121825051Y-124896190D01*
X121825051Y-125181904D01*
X121872670Y-125277142D01*
X121920289Y-125324761D01*
X122015527Y-125372380D01*
X122158384Y-125372380D01*
X121396480Y-125372380D02*
X121396480Y-124372380D01*
X120967908Y-125372380D02*
X120967908Y-124848571D01*
X121015527Y-124753333D01*
X121110765Y-124705714D01*
X121253623Y-124705714D01*
X121348861Y-124753333D01*
X121396480Y-124800952D01*
X120586956Y-124705714D02*
X120396480Y-125372380D01*
X120206003Y-124896190D01*
X120015527Y-125372380D01*
X119825051Y-124705714D01*
X119444099Y-125372380D02*
X119444099Y-124705714D01*
X119444099Y-124896190D02*
X119396480Y-124800952D01*
X119348861Y-124753333D01*
X119253623Y-124705714D01*
X119158384Y-124705714D01*
X118825051Y-125277142D02*
X118777432Y-125324761D01*
X118825051Y-125372380D01*
X118872670Y-125324761D01*
X118825051Y-125277142D01*
X118825051Y-125372380D01*
X118206003Y-125372380D02*
X118301242Y-125324761D01*
X118348861Y-125277142D01*
X118396480Y-125181904D01*
X118396480Y-124896190D01*
X118348861Y-124800952D01*
X118301242Y-124753333D01*
X118206003Y-124705714D01*
X118063146Y-124705714D01*
X117967908Y-124753333D01*
X117920289Y-124800952D01*
X117872670Y-124896190D01*
X117872670Y-125181904D01*
X117920289Y-125277142D01*
X117967908Y-125324761D01*
X118063146Y-125372380D01*
X118206003Y-125372380D01*
X117444099Y-125372380D02*
X117444099Y-124705714D01*
X117444099Y-124896190D02*
X117396480Y-124800952D01*
X117348861Y-124753333D01*
X117253623Y-124705714D01*
X117158384Y-124705714D01*
X116396480Y-124705714D02*
X116396480Y-125515238D01*
X116444099Y-125610476D01*
X116491718Y-125658095D01*
X116586956Y-125705714D01*
X116729813Y-125705714D01*
X116825051Y-125658095D01*
X116396480Y-125324761D02*
X116491718Y-125372380D01*
X116682194Y-125372380D01*
X116777432Y-125324761D01*
X116825051Y-125277142D01*
X116872670Y-125181904D01*
X116872670Y-124896190D01*
X116825051Y-124800952D01*
X116777432Y-124753333D01*
X116682194Y-124705714D01*
X116491718Y-124705714D01*
X116396480Y-124753333D01*
X115206003Y-124324761D02*
X116063146Y-125610476D01*
X114444099Y-125324761D02*
X114539337Y-125372380D01*
X114729813Y-125372380D01*
X114825051Y-125324761D01*
X114872670Y-125277142D01*
X114920289Y-125181904D01*
X114920289Y-124896190D01*
X114872670Y-124800952D01*
X114825051Y-124753333D01*
X114729813Y-124705714D01*
X114539337Y-124705714D01*
X114444099Y-124753333D01*
X113634575Y-125324761D02*
X113729813Y-125372380D01*
X113920289Y-125372380D01*
X114015527Y-125324761D01*
X114063146Y-125229523D01*
X114063146Y-124848571D01*
X114015527Y-124753333D01*
X113920289Y-124705714D01*
X113729813Y-124705714D01*
X113634575Y-124753333D01*
X113586956Y-124848571D01*
X113586956Y-124943809D01*
X114063146Y-125039047D01*
X113158384Y-125372380D02*
X113158384Y-124705714D01*
X113158384Y-124896190D02*
X113110765Y-124800952D01*
X113063146Y-124753333D01*
X112967908Y-124705714D01*
X112872670Y-124705714D01*
X112539337Y-124705714D02*
X112539337Y-125372380D01*
X112539337Y-124800952D02*
X112491718Y-124753333D01*
X112396480Y-124705714D01*
X112253623Y-124705714D01*
X112158384Y-124753333D01*
X112110765Y-124848571D01*
X112110765Y-125372380D01*
X111872670Y-125467619D02*
X111110765Y-125467619D01*
X110729813Y-125372380D02*
X110825051Y-125324761D01*
X110872670Y-125277142D01*
X110920289Y-125181904D01*
X110920289Y-124896190D01*
X110872670Y-124800952D01*
X110825051Y-124753333D01*
X110729813Y-124705714D01*
X110586956Y-124705714D01*
X110491718Y-124753333D01*
X110444099Y-124800952D01*
X110396480Y-124896190D01*
X110396480Y-125181904D01*
X110444099Y-125277142D01*
X110491718Y-125324761D01*
X110586956Y-125372380D01*
X110729813Y-125372380D01*
X109967908Y-125372380D02*
X109967908Y-124372380D01*
X109539337Y-125372380D02*
X109539337Y-124848571D01*
X109586956Y-124753333D01*
X109682194Y-124705714D01*
X109825051Y-124705714D01*
X109920289Y-124753333D01*
X109967908Y-124800952D01*
X108920289Y-125372380D02*
X109015527Y-125324761D01*
X109063146Y-125229523D01*
X109063146Y-124372380D01*
X108777432Y-125467619D02*
X108015527Y-125467619D01*
X107872670Y-124705714D02*
X107682194Y-125372380D01*
X107491718Y-124896190D01*
X107301242Y-125372380D01*
X107110765Y-124705714D01*
X106967908Y-125467619D02*
X106206003Y-125467619D01*
X106063146Y-124705714D02*
X105825051Y-125372380D01*
X105586956Y-124705714D01*
X105253623Y-124467619D02*
X105206003Y-124420000D01*
X105110765Y-124372380D01*
X104872670Y-124372380D01*
X104777432Y-124420000D01*
X104729813Y-124467619D01*
X104682194Y-124562857D01*
X104682194Y-124658095D01*
X104729813Y-124800952D01*
X105301242Y-125372380D01*
X104682194Y-125372380D01*
X104253623Y-125277142D02*
X104206003Y-125324761D01*
X104253623Y-125372380D01*
X104301242Y-125324761D01*
X104253623Y-125277142D01*
X104253623Y-125372380D01*
X103777432Y-124705714D02*
X103777432Y-125705714D01*
X103777432Y-124753333D02*
X103682194Y-124705714D01*
X103491718Y-124705714D01*
X103396480Y-124753333D01*
X103348861Y-124800952D01*
X103301242Y-124896190D01*
X103301242Y-125181904D01*
X103348861Y-125277142D01*
X103396480Y-125324761D01*
X103491718Y-125372380D01*
X103682194Y-125372380D01*
X103777432Y-125324761D01*
X102444099Y-125372380D02*
X102444099Y-124372380D01*
X102444099Y-125324761D02*
X102539337Y-125372380D01*
X102729813Y-125372380D01*
X102825051Y-125324761D01*
X102872670Y-125277142D01*
X102920289Y-125181904D01*
X102920289Y-124896190D01*
X102872670Y-124800952D01*
X102825051Y-124753333D01*
X102729813Y-124705714D01*
X102539337Y-124705714D01*
X102444099Y-124753333D01*
X102110765Y-124705714D02*
X101729813Y-124705714D01*
X101967908Y-125372380D02*
X101967908Y-124515238D01*
X101920289Y-124420000D01*
X101825051Y-124372380D01*
X101729813Y-124372380D01*
D10*
X159196480Y-114929285D02*
X159196480Y-115595952D01*
X158148861Y-115595952D02*
X160148861Y-115595952D01*
X160148861Y-114643571D01*
X158148861Y-113881666D02*
X159482194Y-113881666D01*
X159101242Y-113881666D02*
X159291718Y-113786428D01*
X159386956Y-113691190D01*
X159482194Y-113500714D01*
X159482194Y-113310238D01*
X158148861Y-112357857D02*
X158244099Y-112548333D01*
X158339337Y-112643571D01*
X158529813Y-112738809D01*
X159101242Y-112738809D01*
X159291718Y-112643571D01*
X159386956Y-112548333D01*
X159482194Y-112357857D01*
X159482194Y-112072142D01*
X159386956Y-111881666D01*
X159291718Y-111786428D01*
X159101242Y-111691190D01*
X158529813Y-111691190D01*
X158339337Y-111786428D01*
X158244099Y-111881666D01*
X158148861Y-112072142D01*
X158148861Y-112357857D01*
X159482194Y-110834047D02*
X158148861Y-110834047D01*
X159291718Y-110834047D02*
X159386956Y-110738809D01*
X159482194Y-110548333D01*
X159482194Y-110262619D01*
X159386956Y-110072142D01*
X159196480Y-109976904D01*
X158148861Y-109976904D01*
X159482194Y-109310238D02*
X159482194Y-108548333D01*
X160148861Y-109024523D02*
X158434575Y-109024523D01*
X158244099Y-108929285D01*
X158148861Y-108738809D01*
X158148861Y-108548333D01*
D13*
X156284813Y-79120952D02*
X156106242Y-79180476D01*
X155808623Y-79180476D01*
X155689575Y-79120952D01*
X155630051Y-79061428D01*
X155570527Y-78942380D01*
X155570527Y-78823333D01*
X155630051Y-78704285D01*
X155689575Y-78644761D01*
X155808623Y-78585238D01*
X156046718Y-78525714D01*
X156165765Y-78466190D01*
X156225289Y-78406666D01*
X156284813Y-78287619D01*
X156284813Y-78168571D01*
X156225289Y-78049523D01*
X156165765Y-77990000D01*
X156046718Y-77930476D01*
X155749099Y-77930476D01*
X155570527Y-77990000D01*
X155034813Y-79180476D02*
X155034813Y-77930476D01*
X154737194Y-77930476D01*
X154558623Y-77990000D01*
X154439575Y-78109047D01*
X154380051Y-78228095D01*
X154320527Y-78466190D01*
X154320527Y-78644761D01*
X154380051Y-78882857D01*
X154439575Y-79001904D01*
X154558623Y-79120952D01*
X154737194Y-79180476D01*
X155034813Y-79180476D01*
X152118146Y-79061428D02*
X152177670Y-79120952D01*
X152356242Y-79180476D01*
X152475289Y-79180476D01*
X152653861Y-79120952D01*
X152772908Y-79001904D01*
X152832432Y-78882857D01*
X152891956Y-78644761D01*
X152891956Y-78466190D01*
X152832432Y-78228095D01*
X152772908Y-78109047D01*
X152653861Y-77990000D01*
X152475289Y-77930476D01*
X152356242Y-77930476D01*
X152177670Y-77990000D01*
X152118146Y-78049523D01*
X151046718Y-79180476D02*
X151046718Y-78525714D01*
X151106242Y-78406666D01*
X151225289Y-78347142D01*
X151463384Y-78347142D01*
X151582432Y-78406666D01*
X151046718Y-79120952D02*
X151165765Y-79180476D01*
X151463384Y-79180476D01*
X151582432Y-79120952D01*
X151641956Y-79001904D01*
X151641956Y-78882857D01*
X151582432Y-78763809D01*
X151463384Y-78704285D01*
X151165765Y-78704285D01*
X151046718Y-78644761D01*
X150451480Y-79180476D02*
X150451480Y-78347142D01*
X150451480Y-78585238D02*
X150391956Y-78466190D01*
X150332432Y-78406666D01*
X150213384Y-78347142D01*
X150094337Y-78347142D01*
X149141956Y-79180476D02*
X149141956Y-77930476D01*
X149141956Y-79120952D02*
X149261003Y-79180476D01*
X149499099Y-79180476D01*
X149618146Y-79120952D01*
X149677670Y-79061428D01*
X149737194Y-78942380D01*
X149737194Y-78585238D01*
X149677670Y-78466190D01*
X149618146Y-78406666D01*
X149499099Y-78347142D01*
X149261003Y-78347142D01*
X149141956Y-78406666D01*
D10*
X145503146Y-114436904D02*
X145693623Y-114341666D01*
X145788861Y-114246428D01*
X145884099Y-114055952D01*
X145884099Y-113960714D01*
X145788861Y-113770238D01*
X145693623Y-113675000D01*
X145503146Y-113579761D01*
X145122194Y-113579761D01*
X144931718Y-113675000D01*
X144836480Y-113770238D01*
X144741242Y-113960714D01*
X144741242Y-114055952D01*
X144836480Y-114246428D01*
X144931718Y-114341666D01*
X145122194Y-114436904D01*
X145503146Y-114436904D01*
X145693623Y-114532142D01*
X145788861Y-114627380D01*
X145884099Y-114817857D01*
X145884099Y-115198809D01*
X145788861Y-115389285D01*
X145693623Y-115484523D01*
X145503146Y-115579761D01*
X145122194Y-115579761D01*
X144931718Y-115484523D01*
X144836480Y-115389285D01*
X144741242Y-115198809D01*
X144741242Y-114817857D01*
X144836480Y-114627380D01*
X144931718Y-114532142D01*
X145122194Y-114436904D01*
X143884099Y-114817857D02*
X142360289Y-114817857D01*
X141598384Y-113579761D02*
X140360289Y-113579761D01*
X141026956Y-114341666D01*
X140741242Y-114341666D01*
X140550765Y-114436904D01*
X140455527Y-114532142D01*
X140360289Y-114722619D01*
X140360289Y-115198809D01*
X140455527Y-115389285D01*
X140550765Y-115484523D01*
X140741242Y-115579761D01*
X141312670Y-115579761D01*
X141503146Y-115484523D01*
X141598384Y-115389285D01*
X138646003Y-114246428D02*
X138646003Y-115579761D01*
X139122194Y-113484523D02*
X139598384Y-114913095D01*
X138360289Y-114913095D01*
X137884099Y-113579761D02*
X137217432Y-115579761D01*
X136550765Y-113579761D01*
X134455527Y-115008333D02*
X133503146Y-115008333D01*
X134646003Y-115579761D02*
X133979337Y-113579761D01*
X133312670Y-115579761D01*
X131503146Y-115389285D02*
X131598384Y-115484523D01*
X131884099Y-115579761D01*
X132074575Y-115579761D01*
X132360289Y-115484523D01*
X132550765Y-115294047D01*
X132646003Y-115103571D01*
X132741242Y-114722619D01*
X132741242Y-114436904D01*
X132646003Y-114055952D01*
X132550765Y-113865476D01*
X132360289Y-113675000D01*
X132074575Y-113579761D01*
X131884099Y-113579761D01*
X131598384Y-113675000D01*
X131503146Y-113770238D01*
X155148861Y-115594523D02*
X155148861Y-114451666D01*
X153148861Y-115023095D02*
X155148861Y-115023095D01*
X153148861Y-113785000D02*
X154482194Y-113785000D01*
X154101242Y-113785000D02*
X154291718Y-113689761D01*
X154386956Y-113594523D01*
X154482194Y-113404047D01*
X154482194Y-113213571D01*
X153148861Y-111689761D02*
X154196480Y-111689761D01*
X154386956Y-111785000D01*
X154482194Y-111975476D01*
X154482194Y-112356428D01*
X154386956Y-112546904D01*
X153244099Y-111689761D02*
X153148861Y-111880238D01*
X153148861Y-112356428D01*
X153244099Y-112546904D01*
X153434575Y-112642142D01*
X153625051Y-112642142D01*
X153815527Y-112546904D01*
X153910765Y-112356428D01*
X153910765Y-111880238D01*
X154006003Y-111689761D01*
X154482194Y-110737380D02*
X153148861Y-110737380D01*
X154291718Y-110737380D02*
X154386956Y-110642142D01*
X154482194Y-110451666D01*
X154482194Y-110165952D01*
X154386956Y-109975476D01*
X154196480Y-109880238D01*
X153148861Y-109880238D01*
X153244099Y-109023095D02*
X153148861Y-108832619D01*
X153148861Y-108451666D01*
X153244099Y-108261190D01*
X153434575Y-108165952D01*
X153529813Y-108165952D01*
X153720289Y-108261190D01*
X153815527Y-108451666D01*
X153815527Y-108737380D01*
X153910765Y-108927857D01*
X154101242Y-109023095D01*
X154196480Y-109023095D01*
X154386956Y-108927857D01*
X154482194Y-108737380D01*
X154482194Y-108451666D01*
X154386956Y-108261190D01*
X114904575Y-119109761D02*
X115285527Y-119109761D01*
X115476003Y-119205000D01*
X115571242Y-119300238D01*
X115761718Y-119585952D01*
X115856956Y-119966904D01*
X115856956Y-120728809D01*
X115761718Y-120919285D01*
X115666480Y-121014523D01*
X115476003Y-121109761D01*
X115095051Y-121109761D01*
X114904575Y-121014523D01*
X114809337Y-120919285D01*
X114714099Y-120728809D01*
X114714099Y-120252619D01*
X114809337Y-120062142D01*
X114904575Y-119966904D01*
X115095051Y-119871666D01*
X115476003Y-119871666D01*
X115666480Y-119966904D01*
X115761718Y-120062142D01*
X115856956Y-120252619D01*
X113856956Y-120347857D02*
X112333146Y-120347857D01*
X111476003Y-119300238D02*
X111380765Y-119205000D01*
X111190289Y-119109761D01*
X110714099Y-119109761D01*
X110523623Y-119205000D01*
X110428384Y-119300238D01*
X110333146Y-119490714D01*
X110333146Y-119681190D01*
X110428384Y-119966904D01*
X111571242Y-121109761D01*
X110333146Y-121109761D01*
X109190289Y-119966904D02*
X109380765Y-119871666D01*
X109476003Y-119776428D01*
X109571242Y-119585952D01*
X109571242Y-119490714D01*
X109476003Y-119300238D01*
X109380765Y-119205000D01*
X109190289Y-119109761D01*
X108809337Y-119109761D01*
X108618861Y-119205000D01*
X108523623Y-119300238D01*
X108428384Y-119490714D01*
X108428384Y-119585952D01*
X108523623Y-119776428D01*
X108618861Y-119871666D01*
X108809337Y-119966904D01*
X109190289Y-119966904D01*
X109380765Y-120062142D01*
X109476003Y-120157380D01*
X109571242Y-120347857D01*
X109571242Y-120728809D01*
X109476003Y-120919285D01*
X109380765Y-121014523D01*
X109190289Y-121109761D01*
X108809337Y-121109761D01*
X108618861Y-121014523D01*
X108523623Y-120919285D01*
X108428384Y-120728809D01*
X108428384Y-120347857D01*
X108523623Y-120157380D01*
X108618861Y-120062142D01*
X108809337Y-119966904D01*
X107856956Y-119109761D02*
X107190289Y-121109761D01*
X106523623Y-119109761D01*
X104333146Y-121109761D02*
X104333146Y-119109761D01*
X103856956Y-119109761D01*
X103571242Y-119205000D01*
X103380765Y-119395476D01*
X103285527Y-119585952D01*
X103190289Y-119966904D01*
X103190289Y-120252619D01*
X103285527Y-120633571D01*
X103380765Y-120824047D01*
X103571242Y-121014523D01*
X103856956Y-121109761D01*
X104333146Y-121109761D01*
X101190289Y-120919285D02*
X101285527Y-121014523D01*
X101571242Y-121109761D01*
X101761718Y-121109761D01*
X102047432Y-121014523D01*
X102237908Y-120824047D01*
X102333146Y-120633571D01*
X102428384Y-120252619D01*
X102428384Y-119966904D01*
X102333146Y-119585952D01*
X102237908Y-119395476D01*
X102047432Y-119205000D01*
X101761718Y-119109761D01*
X101571242Y-119109761D01*
X101285527Y-119205000D01*
X101190289Y-119300238D01*
D14*
X207863623Y-111030714D02*
X207935051Y-111102142D01*
X208149337Y-111173571D01*
X208292194Y-111173571D01*
X208506480Y-111102142D01*
X208649337Y-110959285D01*
X208720765Y-110816428D01*
X208792194Y-110530714D01*
X208792194Y-110316428D01*
X208720765Y-110030714D01*
X208649337Y-109887857D01*
X208506480Y-109745000D01*
X208292194Y-109673571D01*
X208149337Y-109673571D01*
X207935051Y-109745000D01*
X207863623Y-109816428D01*
X207006480Y-111173571D02*
X207149337Y-111102142D01*
X207220765Y-111030714D01*
X207292194Y-110887857D01*
X207292194Y-110459285D01*
X207220765Y-110316428D01*
X207149337Y-110245000D01*
X207006480Y-110173571D01*
X206792194Y-110173571D01*
X206649337Y-110245000D01*
X206577908Y-110316428D01*
X206506480Y-110459285D01*
X206506480Y-110887857D01*
X206577908Y-111030714D01*
X206649337Y-111102142D01*
X206792194Y-111173571D01*
X207006480Y-111173571D01*
X205863623Y-110173571D02*
X205863623Y-111173571D01*
X205863623Y-110316428D02*
X205792194Y-110245000D01*
X205649337Y-110173571D01*
X205435051Y-110173571D01*
X205292194Y-110245000D01*
X205220765Y-110387857D01*
X205220765Y-111173571D01*
X204720765Y-110173571D02*
X204149337Y-110173571D01*
X204506480Y-109673571D02*
X204506480Y-110959285D01*
X204435051Y-111102142D01*
X204292194Y-111173571D01*
X204149337Y-111173571D01*
X203649337Y-111173571D02*
X203649337Y-110173571D01*
X203649337Y-110459285D02*
X203577908Y-110316428D01*
X203506480Y-110245000D01*
X203363623Y-110173571D01*
X203220765Y-110173571D01*
X202077908Y-111173571D02*
X202077908Y-110387857D01*
X202149337Y-110245000D01*
X202292194Y-110173571D01*
X202577908Y-110173571D01*
X202720765Y-110245000D01*
X202077908Y-111102142D02*
X202220765Y-111173571D01*
X202577908Y-111173571D01*
X202720765Y-111102142D01*
X202792194Y-110959285D01*
X202792194Y-110816428D01*
X202720765Y-110673571D01*
X202577908Y-110602142D01*
X202220765Y-110602142D01*
X202077908Y-110530714D01*
X201435051Y-111102142D02*
X201292194Y-111173571D01*
X201006480Y-111173571D01*
X200863623Y-111102142D01*
X200792194Y-110959285D01*
X200792194Y-110887857D01*
X200863623Y-110745000D01*
X201006480Y-110673571D01*
X201220765Y-110673571D01*
X201363623Y-110602142D01*
X201435051Y-110459285D01*
X201435051Y-110387857D01*
X201363623Y-110245000D01*
X201220765Y-110173571D01*
X201006480Y-110173571D01*
X200863623Y-110245000D01*
X200363623Y-110173571D02*
X199792194Y-110173571D01*
X200149337Y-109673571D02*
X200149337Y-110959285D01*
X200077908Y-111102142D01*
X199935051Y-111173571D01*
X199792194Y-111173571D01*
D10*
X148148861Y-114456904D02*
X149101242Y-115123571D01*
X148148861Y-115599761D02*
X150148861Y-115599761D01*
X150148861Y-114837857D01*
X150053623Y-114647380D01*
X149958384Y-114552142D01*
X149767908Y-114456904D01*
X149482194Y-114456904D01*
X149291718Y-114552142D01*
X149196480Y-114647380D01*
X149101242Y-114837857D01*
X149101242Y-115599761D01*
X148244099Y-112837857D02*
X148148861Y-113028333D01*
X148148861Y-113409285D01*
X148244099Y-113599761D01*
X148434575Y-113695000D01*
X149196480Y-113695000D01*
X149386956Y-113599761D01*
X149482194Y-113409285D01*
X149482194Y-113028333D01*
X149386956Y-112837857D01*
X149196480Y-112742619D01*
X149006003Y-112742619D01*
X148815527Y-113695000D01*
X148148861Y-111028333D02*
X149196480Y-111028333D01*
X149386956Y-111123571D01*
X149482194Y-111314047D01*
X149482194Y-111695000D01*
X149386956Y-111885476D01*
X148244099Y-111028333D02*
X148148861Y-111218809D01*
X148148861Y-111695000D01*
X148244099Y-111885476D01*
X148434575Y-111980714D01*
X148625051Y-111980714D01*
X148815527Y-111885476D01*
X148910765Y-111695000D01*
X148910765Y-111218809D01*
X149006003Y-111028333D01*
X148148861Y-110075952D02*
X149482194Y-110075952D01*
X149101242Y-110075952D02*
X149291718Y-109980714D01*
X149386956Y-109885476D01*
X149482194Y-109695000D01*
X149482194Y-109504523D01*
D15*
X208783146Y-125401190D02*
X208949813Y-125163095D01*
X209068861Y-125401190D02*
X209068861Y-124901190D01*
X208878384Y-124901190D01*
X208830765Y-124925000D01*
X208806956Y-124948809D01*
X208783146Y-124996428D01*
X208783146Y-125067857D01*
X208806956Y-125115476D01*
X208830765Y-125139285D01*
X208878384Y-125163095D01*
X209068861Y-125163095D01*
X208378384Y-125377380D02*
X208426003Y-125401190D01*
X208521242Y-125401190D01*
X208568861Y-125377380D01*
X208592670Y-125329761D01*
X208592670Y-125139285D01*
X208568861Y-125091666D01*
X208521242Y-125067857D01*
X208426003Y-125067857D01*
X208378384Y-125091666D01*
X208354575Y-125139285D01*
X208354575Y-125186904D01*
X208592670Y-125234523D01*
X208187908Y-125067857D02*
X208068861Y-125401190D01*
X207949813Y-125067857D01*
X207759337Y-125353571D02*
X207735527Y-125377380D01*
X207759337Y-125401190D01*
X207783146Y-125377380D01*
X207759337Y-125353571D01*
X207759337Y-125401190D01*
X207759337Y-125091666D02*
X207735527Y-125115476D01*
X207759337Y-125139285D01*
X207783146Y-125115476D01*
X207759337Y-125091666D01*
X207759337Y-125139285D01*
X206973623Y-125139285D02*
X206902194Y-125163095D01*
X206878384Y-125186904D01*
X206854575Y-125234523D01*
X206854575Y-125305952D01*
X206878384Y-125353571D01*
X206902194Y-125377380D01*
X206949813Y-125401190D01*
X207140289Y-125401190D01*
X207140289Y-124901190D01*
X206973623Y-124901190D01*
X206926003Y-124925000D01*
X206902194Y-124948809D01*
X206878384Y-124996428D01*
X206878384Y-125044047D01*
X206902194Y-125091666D01*
X206926003Y-125115476D01*
X206973623Y-125139285D01*
X207140289Y-125139285D01*
X209253623Y-124421666D02*
X209253623Y-123721666D01*
X209020289Y-124221666D01*
X208786956Y-123721666D01*
X208786956Y-124421666D01*
X208453623Y-124421666D02*
X208453623Y-123955000D01*
X208453623Y-123721666D02*
X208486956Y-123755000D01*
X208453623Y-123788333D01*
X208420289Y-123755000D01*
X208453623Y-123721666D01*
X208453623Y-123788333D01*
X207820289Y-124388333D02*
X207886956Y-124421666D01*
X208020289Y-124421666D01*
X208086956Y-124388333D01*
X208120289Y-124355000D01*
X208153623Y-124288333D01*
X208153623Y-124088333D01*
X208120289Y-124021666D01*
X208086956Y-123988333D01*
X208020289Y-123955000D01*
X207886956Y-123955000D01*
X207820289Y-123988333D01*
X207520289Y-124421666D02*
X207520289Y-123721666D01*
X207220289Y-124421666D02*
X207220289Y-124055000D01*
X207253623Y-123988333D01*
X207320289Y-123955000D01*
X207420289Y-123955000D01*
X207486956Y-123988333D01*
X207520289Y-124021666D01*
X206586956Y-124421666D02*
X206586956Y-124055000D01*
X206620289Y-123988333D01*
X206686956Y-123955000D01*
X206820289Y-123955000D01*
X206886956Y-123988333D01*
X206586956Y-124388333D02*
X206653623Y-124421666D01*
X206820289Y-124421666D01*
X206886956Y-124388333D01*
X206920289Y-124321666D01*
X206920289Y-124255000D01*
X206886956Y-124188333D01*
X206820289Y-124155000D01*
X206653623Y-124155000D01*
X206586956Y-124121666D01*
X205986956Y-124388333D02*
X206053623Y-124421666D01*
X206186956Y-124421666D01*
X206253623Y-124388333D01*
X206286956Y-124321666D01*
X206286956Y-124055000D01*
X206253623Y-123988333D01*
X206186956Y-123955000D01*
X206053623Y-123955000D01*
X205986956Y-123988333D01*
X205953623Y-124055000D01*
X205953623Y-124121666D01*
X206286956Y-124188333D01*
X205553623Y-124421666D02*
X205620289Y-124388333D01*
X205653623Y-124321666D01*
X205653623Y-123721666D01*
X204420289Y-124421666D02*
X204753623Y-124421666D01*
X204753623Y-123721666D01*
X203886956Y-124421666D02*
X203886956Y-124055000D01*
X203920289Y-123988333D01*
X203986956Y-123955000D01*
X204120289Y-123955000D01*
X204186956Y-123988333D01*
X203886956Y-124388333D02*
X203953623Y-124421666D01*
X204120289Y-124421666D01*
X204186956Y-124388333D01*
X204220289Y-124321666D01*
X204220289Y-124255000D01*
X204186956Y-124188333D01*
X204120289Y-124155000D01*
X203953623Y-124155000D01*
X203886956Y-124121666D01*
X203620289Y-123955000D02*
X203253623Y-123955000D01*
X203620289Y-124421666D01*
X203253623Y-124421666D01*
X202720289Y-124388333D02*
X202786956Y-124421666D01*
X202920289Y-124421666D01*
X202986956Y-124388333D01*
X203020289Y-124321666D01*
X203020289Y-124055000D01*
X202986956Y-123988333D01*
X202920289Y-123955000D01*
X202786956Y-123955000D01*
X202720289Y-123988333D01*
X202686956Y-124055000D01*
X202686956Y-124121666D01*
X203020289Y-124188333D01*
X202386956Y-124421666D02*
X202386956Y-123955000D01*
X202386956Y-124088333D02*
X202353623Y-124021666D01*
X202320289Y-123988333D01*
X202253623Y-123955000D01*
X202186956Y-123955000D01*
X201953623Y-123955000D02*
X201953623Y-124421666D01*
X201953623Y-124021666D02*
X201920289Y-123988333D01*
X201853623Y-123955000D01*
X201753623Y-123955000D01*
X201686956Y-123988333D01*
X201653623Y-124055000D01*
X201653623Y-124421666D01*
X201320289Y-124421666D02*
X201320289Y-123955000D01*
X201320289Y-123721666D02*
X201353623Y-123755000D01*
X201320289Y-123788333D01*
X201286956Y-123755000D01*
X201320289Y-123721666D01*
X201320289Y-123788333D01*
X200986956Y-124421666D02*
X200986956Y-123721666D01*
X200920289Y-124155000D02*
X200720289Y-124421666D01*
X200720289Y-123955000D02*
X200986956Y-124221666D01*
X205582194Y-124948809D02*
X205558384Y-124925000D01*
X205510765Y-124901190D01*
X205391718Y-124901190D01*
X205344099Y-124925000D01*
X205320289Y-124948809D01*
X205296480Y-124996428D01*
X205296480Y-125044047D01*
X205320289Y-125115476D01*
X205606003Y-125401190D01*
X205296480Y-125401190D01*
X204986956Y-124901190D02*
X204939337Y-124901190D01*
X204891718Y-124925000D01*
X204867908Y-124948809D01*
X204844099Y-124996428D01*
X204820289Y-125091666D01*
X204820289Y-125210714D01*
X204844099Y-125305952D01*
X204867908Y-125353571D01*
X204891718Y-125377380D01*
X204939337Y-125401190D01*
X204986956Y-125401190D01*
X205034575Y-125377380D01*
X205058384Y-125353571D01*
X205082194Y-125305952D01*
X205106003Y-125210714D01*
X205106003Y-125091666D01*
X205082194Y-124996428D01*
X205058384Y-124948809D01*
X205034575Y-124925000D01*
X204986956Y-124901190D01*
X204629813Y-124948809D02*
X204606003Y-124925000D01*
X204558384Y-124901190D01*
X204439337Y-124901190D01*
X204391718Y-124925000D01*
X204367908Y-124948809D01*
X204344099Y-124996428D01*
X204344099Y-125044047D01*
X204367908Y-125115476D01*
X204653623Y-125401190D01*
X204344099Y-125401190D01*
X204153623Y-124948809D02*
X204129813Y-124925000D01*
X204082194Y-124901190D01*
X203963146Y-124901190D01*
X203915527Y-124925000D01*
X203891718Y-124948809D01*
X203867908Y-124996428D01*
X203867908Y-125044047D01*
X203891718Y-125115476D01*
X204177432Y-125401190D01*
X203867908Y-125401190D01*
X203653623Y-125210714D02*
X203272670Y-125210714D01*
X202939337Y-124901190D02*
X202891718Y-124901190D01*
X202844099Y-124925000D01*
X202820289Y-124948809D01*
X202796480Y-124996428D01*
X202772670Y-125091666D01*
X202772670Y-125210714D01*
X202796480Y-125305952D01*
X202820289Y-125353571D01*
X202844099Y-125377380D01*
X202891718Y-125401190D01*
X202939337Y-125401190D01*
X202986956Y-125377380D01*
X203010765Y-125353571D01*
X203034575Y-125305952D01*
X203058384Y-125210714D01*
X203058384Y-125091666D01*
X203034575Y-124996428D01*
X203010765Y-124948809D01*
X202986956Y-124925000D01*
X202939337Y-124901190D01*
X202582194Y-124948809D02*
X202558384Y-124925000D01*
X202510765Y-124901190D01*
X202391718Y-124901190D01*
X202344099Y-124925000D01*
X202320289Y-124948809D01*
X202296480Y-124996428D01*
X202296480Y-125044047D01*
X202320289Y-125115476D01*
X202606003Y-125401190D01*
X202296480Y-125401190D01*
X202082194Y-125210714D02*
X201701242Y-125210714D01*
X201486956Y-124948809D02*
X201463146Y-124925000D01*
X201415527Y-124901190D01*
X201296480Y-124901190D01*
X201248861Y-124925000D01*
X201225051Y-124948809D01*
X201201242Y-124996428D01*
X201201242Y-125044047D01*
X201225051Y-125115476D01*
X201510765Y-125401190D01*
X201201242Y-125401190D01*
X200748861Y-124901190D02*
X200986956Y-124901190D01*
X201010765Y-125139285D01*
X200986956Y-125115476D01*
X200939337Y-125091666D01*
X200820289Y-125091666D01*
X200772670Y-125115476D01*
X200748861Y-125139285D01*
X200725051Y-125186904D01*
X200725051Y-125305952D01*
X200748861Y-125353571D01*
X200772670Y-125377380D01*
X200820289Y-125401190D01*
X200939337Y-125401190D01*
X200986956Y-125377380D01*
X201010765Y-125353571D01*
D16*
X187209337Y-79752142D02*
X186209337Y-82752142D01*
X185209337Y-79752142D01*
X183780765Y-82752142D02*
X184066480Y-82609285D01*
X184209337Y-82466428D01*
X184352194Y-82180714D01*
X184352194Y-81323571D01*
X184209337Y-81037857D01*
X184066480Y-80895000D01*
X183780765Y-80752142D01*
X183352194Y-80752142D01*
X183066480Y-80895000D01*
X182923623Y-81037857D01*
X182780765Y-81323571D01*
X182780765Y-82180714D01*
X182923623Y-82466428D01*
X183066480Y-82609285D01*
X183352194Y-82752142D01*
X183780765Y-82752142D01*
X181066480Y-82752142D02*
X181352194Y-82609285D01*
X181495051Y-82323571D01*
X181495051Y-79752142D01*
X178637908Y-80752142D02*
X178637908Y-82752142D01*
X179923623Y-80752142D02*
X179923623Y-82323571D01*
X179780765Y-82609285D01*
X179495051Y-82752142D01*
X179066480Y-82752142D01*
X178780765Y-82609285D01*
X178637908Y-82466428D01*
X177209337Y-82752142D02*
X177209337Y-80752142D01*
X177209337Y-81037857D02*
X177066480Y-80895000D01*
X176780765Y-80752142D01*
X176352194Y-80752142D01*
X176066480Y-80895000D01*
X175923623Y-81180714D01*
X175923623Y-82752142D01*
X175923623Y-81180714D02*
X175780765Y-80895000D01*
X175495051Y-80752142D01*
X175066480Y-80752142D01*
X174780765Y-80895000D01*
X174637908Y-81180714D01*
X174637908Y-82752142D01*
X172066480Y-82609285D02*
X172352194Y-82752142D01*
X172923623Y-82752142D01*
X173209337Y-82609285D01*
X173352194Y-82323571D01*
X173352194Y-81180714D01*
X173209337Y-80895000D01*
X172923623Y-80752142D01*
X172352194Y-80752142D01*
X172066480Y-80895000D01*
X171923623Y-81180714D01*
X171923623Y-81466428D01*
X173352194Y-81752142D01*
D11*
X168970765Y-109338333D02*
X169018384Y-109290714D01*
X169066003Y-109147857D01*
X169066003Y-109052619D01*
X169018384Y-108909761D01*
X168923146Y-108814523D01*
X168827908Y-108766904D01*
X168637432Y-108719285D01*
X168494575Y-108719285D01*
X168304099Y-108766904D01*
X168208861Y-108814523D01*
X168113623Y-108909761D01*
X168066003Y-109052619D01*
X168066003Y-109147857D01*
X168113623Y-109290714D01*
X168161242Y-109338333D01*
X168066003Y-110243095D02*
X168066003Y-109766904D01*
X168542194Y-109719285D01*
X168494575Y-109766904D01*
X168446956Y-109862142D01*
X168446956Y-110100238D01*
X168494575Y-110195476D01*
X168542194Y-110243095D01*
X168637432Y-110290714D01*
X168875527Y-110290714D01*
X168970765Y-110243095D01*
X169018384Y-110195476D01*
X169066003Y-110100238D01*
X169066003Y-109862142D01*
X169018384Y-109766904D01*
X168970765Y-109719285D01*
X130840765Y-78802142D02*
X130888384Y-78754523D01*
X130936003Y-78611666D01*
X130936003Y-78516428D01*
X130888384Y-78373571D01*
X130793146Y-78278333D01*
X130697908Y-78230714D01*
X130507432Y-78183095D01*
X130364575Y-78183095D01*
X130174099Y-78230714D01*
X130078861Y-78278333D01*
X129983623Y-78373571D01*
X129936003Y-78516428D01*
X129936003Y-78611666D01*
X129983623Y-78754523D01*
X130031242Y-78802142D01*
X129936003Y-79135476D02*
X129936003Y-79754523D01*
X130316956Y-79421190D01*
X130316956Y-79564047D01*
X130364575Y-79659285D01*
X130412194Y-79706904D01*
X130507432Y-79754523D01*
X130745527Y-79754523D01*
X130840765Y-79706904D01*
X130888384Y-79659285D01*
X130936003Y-79564047D01*
X130936003Y-79278333D01*
X130888384Y-79183095D01*
X130840765Y-79135476D01*
X130936003Y-80706904D02*
X130936003Y-80135476D01*
X130936003Y-80421190D02*
X129936003Y-80421190D01*
X130078861Y-80325952D01*
X130174099Y-80230714D01*
X130221718Y-80135476D01*
X150431718Y-77387380D02*
X150431718Y-76387380D01*
X150193623Y-76387380D01*
X150050765Y-76435000D01*
X149955527Y-76530238D01*
X149907908Y-76625476D01*
X149860289Y-76815952D01*
X149860289Y-76958809D01*
X149907908Y-77149285D01*
X149955527Y-77244523D01*
X150050765Y-77339761D01*
X150193623Y-77387380D01*
X150431718Y-77387380D01*
X149479337Y-76482619D02*
X149431718Y-76435000D01*
X149336480Y-76387380D01*
X149098384Y-76387380D01*
X149003146Y-76435000D01*
X148955527Y-76482619D01*
X148907908Y-76577857D01*
X148907908Y-76673095D01*
X148955527Y-76815952D01*
X149526956Y-77387380D01*
X148907908Y-77387380D01*
X155004575Y-76866428D02*
X154242670Y-76866428D01*
X154623623Y-77247380D02*
X154623623Y-76485476D01*
X145416956Y-123437380D02*
X145416956Y-124151666D01*
X145464575Y-124294523D01*
X145559813Y-124389761D01*
X145702670Y-124437380D01*
X145797908Y-124437380D01*
X145036003Y-123437380D02*
X144416956Y-123437380D01*
X144750289Y-123818333D01*
X144607432Y-123818333D01*
X144512194Y-123865952D01*
X144464575Y-123913571D01*
X144416956Y-124008809D01*
X144416956Y-124246904D01*
X144464575Y-124342142D01*
X144512194Y-124389761D01*
X144607432Y-124437380D01*
X144893146Y-124437380D01*
X144988384Y-124389761D01*
X145036003Y-124342142D01*
X176710289Y-93407380D02*
X177043623Y-92931190D01*
X177281718Y-93407380D02*
X177281718Y-92407380D01*
X176900765Y-92407380D01*
X176805527Y-92455000D01*
X176757908Y-92502619D01*
X176710289Y-92597857D01*
X176710289Y-92740714D01*
X176757908Y-92835952D01*
X176805527Y-92883571D01*
X176900765Y-92931190D01*
X177281718Y-92931190D01*
X175757908Y-93407380D02*
X176329337Y-93407380D01*
X176043623Y-93407380D02*
X176043623Y-92407380D01*
X176138861Y-92550238D01*
X176234099Y-92645476D01*
X176329337Y-92693095D01*
X180200289Y-95827380D02*
X180533623Y-95351190D01*
X180771718Y-95827380D02*
X180771718Y-94827380D01*
X180390765Y-94827380D01*
X180295527Y-94875000D01*
X180247908Y-94922619D01*
X180200289Y-95017857D01*
X180200289Y-95160714D01*
X180247908Y-95255952D01*
X180295527Y-95303571D01*
X180390765Y-95351190D01*
X180771718Y-95351190D01*
X179819337Y-94922619D02*
X179771718Y-94875000D01*
X179676480Y-94827380D01*
X179438384Y-94827380D01*
X179343146Y-94875000D01*
X179295527Y-94922619D01*
X179247908Y-95017857D01*
X179247908Y-95113095D01*
X179295527Y-95255952D01*
X179866956Y-95827380D01*
X179247908Y-95827380D01*
X115408861Y-80287380D02*
X115742194Y-79811190D01*
X115980289Y-80287380D02*
X115980289Y-79287380D01*
X115599337Y-79287380D01*
X115504099Y-79335000D01*
X115456480Y-79382619D01*
X115408861Y-79477857D01*
X115408861Y-79620714D01*
X115456480Y-79715952D01*
X115504099Y-79763571D01*
X115599337Y-79811190D01*
X115980289Y-79811190D01*
X115123146Y-79287380D02*
X114789813Y-80287380D01*
X114456480Y-79287380D01*
X113599337Y-80287380D02*
X114170765Y-80287380D01*
X113885051Y-80287380D02*
X113885051Y-79287380D01*
X113980289Y-79430238D01*
X114075527Y-79525476D01*
X114170765Y-79573095D01*
X202668861Y-122687380D02*
X203002194Y-122211190D01*
X203240289Y-122687380D02*
X203240289Y-121687380D01*
X202859337Y-121687380D01*
X202764099Y-121735000D01*
X202716480Y-121782619D01*
X202668861Y-121877857D01*
X202668861Y-122020714D01*
X202716480Y-122115952D01*
X202764099Y-122163571D01*
X202859337Y-122211190D01*
X203240289Y-122211190D01*
X202383146Y-121687380D02*
X202049813Y-122687380D01*
X201716480Y-121687380D01*
X200906956Y-121687380D02*
X201383146Y-121687380D01*
X201430765Y-122163571D01*
X201383146Y-122115952D01*
X201287908Y-122068333D01*
X201049813Y-122068333D01*
X200954575Y-122115952D01*
X200906956Y-122163571D01*
X200859337Y-122258809D01*
X200859337Y-122496904D01*
X200906956Y-122592142D01*
X200954575Y-122639761D01*
X201049813Y-122687380D01*
X201287908Y-122687380D01*
X201383146Y-122639761D01*
X201430765Y-122592142D01*
X198223623Y-123877380D02*
X198223623Y-124115476D01*
X198461718Y-124020238D02*
X198223623Y-124115476D01*
X197985527Y-124020238D01*
X198366480Y-124305952D02*
X198223623Y-124115476D01*
X198080765Y-124305952D01*
X174526003Y-86443095D02*
X175335527Y-86443095D01*
X175430765Y-86490714D01*
X175478384Y-86538333D01*
X175526003Y-86633571D01*
X175526003Y-86824047D01*
X175478384Y-86919285D01*
X175430765Y-86966904D01*
X175335527Y-87014523D01*
X174526003Y-87014523D01*
X175526003Y-88014523D02*
X175526003Y-87443095D01*
X175526003Y-87728809D02*
X174526003Y-87728809D01*
X174668861Y-87633571D01*
X174764099Y-87538333D01*
X174811718Y-87443095D01*
X175591242Y-84355000D02*
X175353146Y-84355000D01*
X175448384Y-84593095D02*
X175353146Y-84355000D01*
X175448384Y-84116904D01*
X175162670Y-84497857D02*
X175353146Y-84355000D01*
X175162670Y-84212142D01*
X102959337Y-117683571D02*
X102816480Y-117731190D01*
X102768861Y-117778809D01*
X102721242Y-117874047D01*
X102721242Y-118016904D01*
X102768861Y-118112142D01*
X102816480Y-118159761D01*
X102911718Y-118207380D01*
X103292670Y-118207380D01*
X103292670Y-117207380D01*
X102959337Y-117207380D01*
X102864099Y-117255000D01*
X102816480Y-117302619D01*
X102768861Y-117397857D01*
X102768861Y-117493095D01*
X102816480Y-117588333D01*
X102864099Y-117635952D01*
X102959337Y-117683571D01*
X103292670Y-117683571D01*
X102435527Y-117207380D02*
X101864099Y-117207380D01*
X102149813Y-118207380D02*
X102149813Y-117207380D01*
X101006956Y-118207380D02*
X101578384Y-118207380D01*
X101292670Y-118207380D02*
X101292670Y-117207380D01*
X101387908Y-117350238D01*
X101483146Y-117445476D01*
X101578384Y-117493095D01*
X102407194Y-107936666D02*
X102407194Y-107603333D01*
X102931003Y-107603333D02*
X101931003Y-107603333D01*
X101931003Y-108079523D01*
X102931003Y-108984285D02*
X102931003Y-108412857D01*
X102931003Y-108698571D02*
X101931003Y-108698571D01*
X102073861Y-108603333D01*
X102169099Y-108508095D01*
X102216718Y-108412857D01*
X165776956Y-114863571D02*
X166110289Y-114863571D01*
X166110289Y-115387380D02*
X166110289Y-114387380D01*
X165634099Y-114387380D01*
X165300765Y-114482619D02*
X165253146Y-114435000D01*
X165157908Y-114387380D01*
X164919813Y-114387380D01*
X164824575Y-114435000D01*
X164776956Y-114482619D01*
X164729337Y-114577857D01*
X164729337Y-114673095D01*
X164776956Y-114815952D01*
X165348384Y-115387380D01*
X164729337Y-115387380D01*
X206056480Y-93237380D02*
X206532670Y-93237380D01*
X206532670Y-92237380D01*
X205770765Y-93189761D02*
X205627908Y-93237380D01*
X205389813Y-93237380D01*
X205294575Y-93189761D01*
X205246956Y-93142142D01*
X205199337Y-93046904D01*
X205199337Y-92951666D01*
X205246956Y-92856428D01*
X205294575Y-92808809D01*
X205389813Y-92761190D01*
X205580289Y-92713571D01*
X205675527Y-92665952D01*
X205723146Y-92618333D01*
X205770765Y-92523095D01*
X205770765Y-92427857D01*
X205723146Y-92332619D01*
X205675527Y-92285000D01*
X205580289Y-92237380D01*
X205342194Y-92237380D01*
X205199337Y-92285000D01*
X204246956Y-93237380D02*
X204818384Y-93237380D01*
X204532670Y-93237380D02*
X204532670Y-92237380D01*
X204627908Y-92380238D01*
X204723146Y-92475476D01*
X204818384Y-92523095D01*
X183137908Y-110442380D02*
X183137908Y-109442380D01*
X182899813Y-109442380D01*
X182756956Y-109490000D01*
X182661718Y-109585238D01*
X182614099Y-109680476D01*
X182566480Y-109870952D01*
X182566480Y-110013809D01*
X182614099Y-110204285D01*
X182661718Y-110299523D01*
X182756956Y-110394761D01*
X182899813Y-110442380D01*
X183137908Y-110442380D01*
X182185527Y-110394761D02*
X182042670Y-110442380D01*
X181804575Y-110442380D01*
X181709337Y-110394761D01*
X181661718Y-110347142D01*
X181614099Y-110251904D01*
X181614099Y-110156666D01*
X181661718Y-110061428D01*
X181709337Y-110013809D01*
X181804575Y-109966190D01*
X181995051Y-109918571D01*
X182090289Y-109870952D01*
X182137908Y-109823333D01*
X182185527Y-109728095D01*
X182185527Y-109632857D01*
X182137908Y-109537619D01*
X182090289Y-109490000D01*
X181995051Y-109442380D01*
X181756956Y-109442380D01*
X181614099Y-109490000D01*
X180661718Y-110442380D02*
X181233146Y-110442380D01*
X180947432Y-110442380D02*
X180947432Y-109442380D01*
X181042670Y-109585238D01*
X181137908Y-109680476D01*
X181233146Y-109728095D01*
X187008861Y-78817380D02*
X187342194Y-78341190D01*
X187580289Y-78817380D02*
X187580289Y-77817380D01*
X187199337Y-77817380D01*
X187104099Y-77865000D01*
X187056480Y-77912619D01*
X187008861Y-78007857D01*
X187008861Y-78150714D01*
X187056480Y-78245952D01*
X187104099Y-78293571D01*
X187199337Y-78341190D01*
X187580289Y-78341190D01*
X186723146Y-77817380D02*
X186389813Y-78817380D01*
X186056480Y-77817380D01*
X185770765Y-77912619D02*
X185723146Y-77865000D01*
X185627908Y-77817380D01*
X185389813Y-77817380D01*
X185294575Y-77865000D01*
X185246956Y-77912619D01*
X185199337Y-78007857D01*
X185199337Y-78103095D01*
X185246956Y-78245952D01*
X185818384Y-78817380D01*
X185199337Y-78817380D01*
X198383623Y-88427380D02*
X198383623Y-88665476D01*
X198621718Y-88570238D02*
X198383623Y-88665476D01*
X198145527Y-88570238D01*
X198526480Y-88855952D02*
X198383623Y-88665476D01*
X198240765Y-88855952D01*
X139768861Y-123987380D02*
X140102194Y-123511190D01*
X140340289Y-123987380D02*
X140340289Y-122987380D01*
X139959337Y-122987380D01*
X139864099Y-123035000D01*
X139816480Y-123082619D01*
X139768861Y-123177857D01*
X139768861Y-123320714D01*
X139816480Y-123415952D01*
X139864099Y-123463571D01*
X139959337Y-123511190D01*
X140340289Y-123511190D01*
X139483146Y-122987380D02*
X139149813Y-123987380D01*
X138816480Y-122987380D01*
X138578384Y-122987380D02*
X137959337Y-122987380D01*
X138292670Y-123368333D01*
X138149813Y-123368333D01*
X138054575Y-123415952D01*
X138006956Y-123463571D01*
X137959337Y-123558809D01*
X137959337Y-123796904D01*
X138006956Y-123892142D01*
X138054575Y-123939761D01*
X138149813Y-123987380D01*
X138435527Y-123987380D01*
X138530765Y-123939761D01*
X138578384Y-123892142D01*
X204888384Y-99041666D02*
X204936003Y-99184523D01*
X204936003Y-99422619D01*
X204888384Y-99517857D01*
X204840765Y-99565476D01*
X204745527Y-99613095D01*
X204650289Y-99613095D01*
X204555051Y-99565476D01*
X204507432Y-99517857D01*
X204459813Y-99422619D01*
X204412194Y-99232142D01*
X204364575Y-99136904D01*
X204316956Y-99089285D01*
X204221718Y-99041666D01*
X204126480Y-99041666D01*
X204031242Y-99089285D01*
X203983623Y-99136904D01*
X203936003Y-99232142D01*
X203936003Y-99470238D01*
X203983623Y-99613095D01*
X203936003Y-99946428D02*
X204936003Y-100184523D01*
X204221718Y-100375000D01*
X204936003Y-100565476D01*
X203936003Y-100803571D01*
X204936003Y-101708333D02*
X204936003Y-101136904D01*
X204936003Y-101422619D02*
X203936003Y-101422619D01*
X204078861Y-101327380D01*
X204174099Y-101232142D01*
X204221718Y-101136904D01*
X131898861Y-123837380D02*
X132232194Y-123361190D01*
X132470289Y-123837380D02*
X132470289Y-122837380D01*
X132089337Y-122837380D01*
X131994099Y-122885000D01*
X131946480Y-122932619D01*
X131898861Y-123027857D01*
X131898861Y-123170714D01*
X131946480Y-123265952D01*
X131994099Y-123313571D01*
X132089337Y-123361190D01*
X132470289Y-123361190D01*
X131613146Y-122837380D02*
X131279813Y-123837380D01*
X130946480Y-122837380D01*
X130184575Y-123170714D02*
X130184575Y-123837380D01*
X130422670Y-122789761D02*
X130660765Y-123504047D01*
X130041718Y-123504047D01*
X177906480Y-95652142D02*
X177954099Y-95699761D01*
X178096956Y-95747380D01*
X178192194Y-95747380D01*
X178335051Y-95699761D01*
X178430289Y-95604523D01*
X178477908Y-95509285D01*
X178525527Y-95318809D01*
X178525527Y-95175952D01*
X178477908Y-94985476D01*
X178430289Y-94890238D01*
X178335051Y-94795000D01*
X178192194Y-94747380D01*
X178096956Y-94747380D01*
X177954099Y-94795000D01*
X177906480Y-94842619D01*
X176954099Y-95747380D02*
X177525527Y-95747380D01*
X177239813Y-95747380D02*
X177239813Y-94747380D01*
X177335051Y-94890238D01*
X177430289Y-94985476D01*
X177525527Y-95033095D01*
X176620765Y-94747380D02*
X176001718Y-94747380D01*
X176335051Y-95128333D01*
X176192194Y-95128333D01*
X176096956Y-95175952D01*
X176049337Y-95223571D01*
X176001718Y-95318809D01*
X176001718Y-95556904D01*
X176049337Y-95652142D01*
X176096956Y-95699761D01*
X176192194Y-95747380D01*
X176477908Y-95747380D01*
X176573146Y-95699761D01*
X176620765Y-95652142D01*
X165800289Y-91002142D02*
X165847908Y-91049761D01*
X165990765Y-91097380D01*
X166086003Y-91097380D01*
X166228861Y-91049761D01*
X166324099Y-90954523D01*
X166371718Y-90859285D01*
X166419337Y-90668809D01*
X166419337Y-90525952D01*
X166371718Y-90335476D01*
X166324099Y-90240238D01*
X166228861Y-90145000D01*
X166086003Y-90097380D01*
X165990765Y-90097380D01*
X165847908Y-90145000D01*
X165800289Y-90192619D01*
X164943146Y-90097380D02*
X165133623Y-90097380D01*
X165228861Y-90145000D01*
X165276480Y-90192619D01*
X165371718Y-90335476D01*
X165419337Y-90525952D01*
X165419337Y-90906904D01*
X165371718Y-91002142D01*
X165324099Y-91049761D01*
X165228861Y-91097380D01*
X165038384Y-91097380D01*
X164943146Y-91049761D01*
X164895527Y-91002142D01*
X164847908Y-90906904D01*
X164847908Y-90668809D01*
X164895527Y-90573571D01*
X164943146Y-90525952D01*
X165038384Y-90478333D01*
X165228861Y-90478333D01*
X165324099Y-90525952D01*
X165371718Y-90573571D01*
X165419337Y-90668809D01*
X157926480Y-100772142D02*
X157974099Y-100819761D01*
X158116956Y-100867380D01*
X158212194Y-100867380D01*
X158355051Y-100819761D01*
X158450289Y-100724523D01*
X158497908Y-100629285D01*
X158545527Y-100438809D01*
X158545527Y-100295952D01*
X158497908Y-100105476D01*
X158450289Y-100010238D01*
X158355051Y-99915000D01*
X158212194Y-99867380D01*
X158116956Y-99867380D01*
X157974099Y-99915000D01*
X157926480Y-99962619D01*
X156974099Y-100867380D02*
X157545527Y-100867380D01*
X157259813Y-100867380D02*
X157259813Y-99867380D01*
X157355051Y-100010238D01*
X157450289Y-100105476D01*
X157545527Y-100153095D01*
X156116956Y-99867380D02*
X156307432Y-99867380D01*
X156402670Y-99915000D01*
X156450289Y-99962619D01*
X156545527Y-100105476D01*
X156593146Y-100295952D01*
X156593146Y-100676904D01*
X156545527Y-100772142D01*
X156497908Y-100819761D01*
X156402670Y-100867380D01*
X156212194Y-100867380D01*
X156116956Y-100819761D01*
X156069337Y-100772142D01*
X156021718Y-100676904D01*
X156021718Y-100438809D01*
X156069337Y-100343571D01*
X156116956Y-100295952D01*
X156212194Y-100248333D01*
X156402670Y-100248333D01*
X156497908Y-100295952D01*
X156545527Y-100343571D01*
X156593146Y-100438809D01*
X178046480Y-100932142D02*
X178094099Y-100979761D01*
X178236956Y-101027380D01*
X178332194Y-101027380D01*
X178475051Y-100979761D01*
X178570289Y-100884523D01*
X178617908Y-100789285D01*
X178665527Y-100598809D01*
X178665527Y-100455952D01*
X178617908Y-100265476D01*
X178570289Y-100170238D01*
X178475051Y-100075000D01*
X178332194Y-100027380D01*
X178236956Y-100027380D01*
X178094099Y-100075000D01*
X178046480Y-100122619D01*
X177094099Y-101027380D02*
X177665527Y-101027380D01*
X177379813Y-101027380D02*
X177379813Y-100027380D01*
X177475051Y-100170238D01*
X177570289Y-100265476D01*
X177665527Y-100313095D01*
X176713146Y-100122619D02*
X176665527Y-100075000D01*
X176570289Y-100027380D01*
X176332194Y-100027380D01*
X176236956Y-100075000D01*
X176189337Y-100122619D01*
X176141718Y-100217857D01*
X176141718Y-100313095D01*
X176189337Y-100455952D01*
X176760765Y-101027380D01*
X176141718Y-101027380D01*
X163970765Y-109388333D02*
X164018384Y-109340714D01*
X164066003Y-109197857D01*
X164066003Y-109102619D01*
X164018384Y-108959761D01*
X163923146Y-108864523D01*
X163827908Y-108816904D01*
X163637432Y-108769285D01*
X163494575Y-108769285D01*
X163304099Y-108816904D01*
X163208861Y-108864523D01*
X163113623Y-108959761D01*
X163066003Y-109102619D01*
X163066003Y-109197857D01*
X163113623Y-109340714D01*
X163161242Y-109388333D01*
X164066003Y-109864523D02*
X164066003Y-110055000D01*
X164018384Y-110150238D01*
X163970765Y-110197857D01*
X163827908Y-110293095D01*
X163637432Y-110340714D01*
X163256480Y-110340714D01*
X163161242Y-110293095D01*
X163113623Y-110245476D01*
X163066003Y-110150238D01*
X163066003Y-109959761D01*
X163113623Y-109864523D01*
X163161242Y-109816904D01*
X163256480Y-109769285D01*
X163494575Y-109769285D01*
X163589813Y-109816904D01*
X163637432Y-109864523D01*
X163685051Y-109959761D01*
X163685051Y-110150238D01*
X163637432Y-110245476D01*
X163589813Y-110293095D01*
X163494575Y-110340714D01*
X177060289Y-98992142D02*
X177107908Y-99039761D01*
X177250765Y-99087380D01*
X177346003Y-99087380D01*
X177488861Y-99039761D01*
X177584099Y-98944523D01*
X177631718Y-98849285D01*
X177679337Y-98658809D01*
X177679337Y-98515952D01*
X177631718Y-98325476D01*
X177584099Y-98230238D01*
X177488861Y-98135000D01*
X177346003Y-98087380D01*
X177250765Y-98087380D01*
X177107908Y-98135000D01*
X177060289Y-98182619D01*
X176679337Y-98182619D02*
X176631718Y-98135000D01*
X176536480Y-98087380D01*
X176298384Y-98087380D01*
X176203146Y-98135000D01*
X176155527Y-98182619D01*
X176107908Y-98277857D01*
X176107908Y-98373095D01*
X176155527Y-98515952D01*
X176726956Y-99087380D01*
X176107908Y-99087380D01*
X167250765Y-109382142D02*
X167298384Y-109334523D01*
X167346003Y-109191666D01*
X167346003Y-109096428D01*
X167298384Y-108953571D01*
X167203146Y-108858333D01*
X167107908Y-108810714D01*
X166917432Y-108763095D01*
X166774575Y-108763095D01*
X166584099Y-108810714D01*
X166488861Y-108858333D01*
X166393623Y-108953571D01*
X166346003Y-109096428D01*
X166346003Y-109191666D01*
X166393623Y-109334523D01*
X166441242Y-109382142D01*
X167346003Y-110334523D02*
X167346003Y-109763095D01*
X167346003Y-110048809D02*
X166346003Y-110048809D01*
X166488861Y-109953571D01*
X166584099Y-109858333D01*
X166631718Y-109763095D01*
X166346003Y-110953571D02*
X166346003Y-111048809D01*
X166393623Y-111144047D01*
X166441242Y-111191666D01*
X166536480Y-111239285D01*
X166726956Y-111286904D01*
X166965051Y-111286904D01*
X167155527Y-111239285D01*
X167250765Y-111191666D01*
X167298384Y-111144047D01*
X167346003Y-111048809D01*
X167346003Y-110953571D01*
X167298384Y-110858333D01*
X167250765Y-110810714D01*
X167155527Y-110763095D01*
X166965051Y-110715476D01*
X166726956Y-110715476D01*
X166536480Y-110763095D01*
X166441242Y-110810714D01*
X166393623Y-110858333D01*
X166346003Y-110953571D01*
X177170289Y-97012142D02*
X177217908Y-97059761D01*
X177360765Y-97107380D01*
X177456003Y-97107380D01*
X177598861Y-97059761D01*
X177694099Y-96964523D01*
X177741718Y-96869285D01*
X177789337Y-96678809D01*
X177789337Y-96535952D01*
X177741718Y-96345476D01*
X177694099Y-96250238D01*
X177598861Y-96155000D01*
X177456003Y-96107380D01*
X177360765Y-96107380D01*
X177217908Y-96155000D01*
X177170289Y-96202619D01*
X176313146Y-96440714D02*
X176313146Y-97107380D01*
X176551242Y-96059761D02*
X176789337Y-96774047D01*
X176170289Y-96774047D01*
X147686003Y-103321666D02*
X148400289Y-103321666D01*
X148543146Y-103274047D01*
X148638384Y-103178809D01*
X148686003Y-103035952D01*
X148686003Y-102940714D01*
X148686003Y-104321666D02*
X148686003Y-103750238D01*
X148686003Y-104035952D02*
X147686003Y-104035952D01*
X147828861Y-103940714D01*
X147924099Y-103845476D01*
X147971718Y-103750238D01*
X140946003Y-106315000D02*
X141184099Y-106315000D01*
X141088861Y-106076904D02*
X141184099Y-106315000D01*
X141088861Y-106553095D01*
X141374575Y-106172142D02*
X141184099Y-106315000D01*
X141374575Y-106457857D01*
X168996480Y-90952142D02*
X169044099Y-90999761D01*
X169186956Y-91047380D01*
X169282194Y-91047380D01*
X169425051Y-90999761D01*
X169520289Y-90904523D01*
X169567908Y-90809285D01*
X169615527Y-90618809D01*
X169615527Y-90475952D01*
X169567908Y-90285476D01*
X169520289Y-90190238D01*
X169425051Y-90095000D01*
X169282194Y-90047380D01*
X169186956Y-90047380D01*
X169044099Y-90095000D01*
X168996480Y-90142619D01*
X168044099Y-91047380D02*
X168615527Y-91047380D01*
X168329813Y-91047380D02*
X168329813Y-90047380D01*
X168425051Y-90190238D01*
X168520289Y-90285476D01*
X168615527Y-90333095D01*
X167186956Y-90380714D02*
X167186956Y-91047380D01*
X167425051Y-89999761D02*
X167663146Y-90714047D01*
X167044099Y-90714047D01*
X178016480Y-104752143D02*
X178064099Y-104799762D01*
X178206956Y-104847381D01*
X178302194Y-104847381D01*
X178445051Y-104799762D01*
X178540289Y-104704524D01*
X178587908Y-104609286D01*
X178635527Y-104418810D01*
X178635527Y-104275953D01*
X178587908Y-104085477D01*
X178540289Y-103990239D01*
X178445051Y-103895001D01*
X178302194Y-103847381D01*
X178206956Y-103847381D01*
X178064099Y-103895001D01*
X178016480Y-103942620D01*
X177064099Y-104847381D02*
X177635527Y-104847381D01*
X177349813Y-104847381D02*
X177349813Y-103847381D01*
X177445051Y-103990239D01*
X177540289Y-104085477D01*
X177635527Y-104133096D01*
X176111718Y-104847381D02*
X176683146Y-104847381D01*
X176397432Y-104847381D02*
X176397432Y-103847381D01*
X176492670Y-103990239D01*
X176587908Y-104085477D01*
X176683146Y-104133096D01*
X157906480Y-103532142D02*
X157954099Y-103579761D01*
X158096956Y-103627380D01*
X158192194Y-103627380D01*
X158335051Y-103579761D01*
X158430289Y-103484523D01*
X158477908Y-103389285D01*
X158525527Y-103198809D01*
X158525527Y-103055952D01*
X158477908Y-102865476D01*
X158430289Y-102770238D01*
X158335051Y-102675000D01*
X158192194Y-102627380D01*
X158096956Y-102627380D01*
X157954099Y-102675000D01*
X157906480Y-102722619D01*
X156954099Y-103627380D02*
X157525527Y-103627380D01*
X157239813Y-103627380D02*
X157239813Y-102627380D01*
X157335051Y-102770238D01*
X157430289Y-102865476D01*
X157525527Y-102913095D01*
X156620765Y-102627380D02*
X155954099Y-102627380D01*
X156382670Y-103627380D01*
X158220765Y-93092142D02*
X158268384Y-93044523D01*
X158316003Y-92901666D01*
X158316003Y-92806428D01*
X158268384Y-92663571D01*
X158173146Y-92568333D01*
X158077908Y-92520714D01*
X157887432Y-92473095D01*
X157744575Y-92473095D01*
X157554099Y-92520714D01*
X157458861Y-92568333D01*
X157363623Y-92663571D01*
X157316003Y-92806428D01*
X157316003Y-92901666D01*
X157363623Y-93044523D01*
X157411242Y-93092142D01*
X158316003Y-94044523D02*
X158316003Y-93473095D01*
X158316003Y-93758809D02*
X157316003Y-93758809D01*
X157458861Y-93663571D01*
X157554099Y-93568333D01*
X157601718Y-93473095D01*
X157316003Y-94949285D02*
X157316003Y-94473095D01*
X157792194Y-94425476D01*
X157744575Y-94473095D01*
X157696956Y-94568333D01*
X157696956Y-94806428D01*
X157744575Y-94901666D01*
X157792194Y-94949285D01*
X157887432Y-94996904D01*
X158125527Y-94996904D01*
X158220765Y-94949285D01*
X158268384Y-94901666D01*
X158316003Y-94806428D01*
X158316003Y-94568333D01*
X158268384Y-94473095D01*
X158220765Y-94425476D01*
X160006003Y-80718333D02*
X159529813Y-80385000D01*
X160006003Y-80146904D02*
X159006003Y-80146904D01*
X159006003Y-80527857D01*
X159053623Y-80623095D01*
X159101242Y-80670714D01*
X159196480Y-80718333D01*
X159339337Y-80718333D01*
X159434575Y-80670714D01*
X159482194Y-80623095D01*
X159529813Y-80527857D01*
X159529813Y-80146904D01*
X159434575Y-81289761D02*
X159386956Y-81194523D01*
X159339337Y-81146904D01*
X159244099Y-81099285D01*
X159196480Y-81099285D01*
X159101242Y-81146904D01*
X159053623Y-81194523D01*
X159006003Y-81289761D01*
X159006003Y-81480238D01*
X159053623Y-81575476D01*
X159101242Y-81623095D01*
X159196480Y-81670714D01*
X159244099Y-81670714D01*
X159339337Y-81623095D01*
X159386956Y-81575476D01*
X159434575Y-81480238D01*
X159434575Y-81289761D01*
X159482194Y-81194523D01*
X159529813Y-81146904D01*
X159625051Y-81099285D01*
X159815527Y-81099285D01*
X159910765Y-81146904D01*
X159958384Y-81194523D01*
X160006003Y-81289761D01*
X160006003Y-81480238D01*
X159958384Y-81575476D01*
X159910765Y-81623095D01*
X159815527Y-81670714D01*
X159625051Y-81670714D01*
X159529813Y-81623095D01*
X159482194Y-81575476D01*
X159434575Y-81480238D01*
D17*
X169103623Y-106608733D02*
X169103623Y-106901267D01*
X168083623Y-106608733D02*
X168083623Y-106901267D01*
X132423623Y-79298733D02*
X132423623Y-79591267D01*
X131403623Y-79298733D02*
X131403623Y-79591267D01*
X150743623Y-77610000D02*
X150743623Y-76140000D01*
X153203623Y-77610000D02*
X150743623Y-77610000D01*
X150743623Y-76140000D02*
X153203623Y-76140000D01*
X161613623Y-124975000D02*
X146493623Y-124975000D01*
X161613623Y-123875000D02*
X146493623Y-123875000D01*
X157399623Y-118987000D02*
X157506623Y-119094000D01*
X157665623Y-118721000D02*
X157772623Y-118828000D01*
X161613623Y-116315000D02*
X146493623Y-116315000D01*
X152665623Y-118721000D02*
X153045623Y-119101000D01*
X155311623Y-121367000D02*
X155706623Y-121763000D01*
X146493623Y-116315000D02*
X146493623Y-125435000D01*
X161613623Y-116315000D02*
X161613623Y-125435000D01*
X161853623Y-125035000D02*
X161853623Y-125675000D01*
X147665623Y-118721000D02*
X148045623Y-119101000D01*
X160335623Y-121922000D02*
X160441623Y-122029000D01*
X150060623Y-121649000D02*
X150440623Y-122029000D01*
X147399623Y-118987000D02*
X147794623Y-119383000D01*
X155060623Y-121649000D02*
X155440623Y-122029000D01*
X152399623Y-118987000D02*
X152794623Y-119383000D01*
X161613623Y-125435000D02*
X146493623Y-125435000D01*
X150311623Y-121367000D02*
X150706623Y-121763000D01*
X161853623Y-125675000D02*
X161453623Y-125675000D01*
X160601623Y-121656000D02*
X160707623Y-121763000D01*
X151233623Y-120375000D02*
G75*
G03*
X151233623Y-120375000I-2180000J0D01*
G01*
X161233623Y-120375000D02*
G75*
G03*
X161233623Y-120375000I-2180000J0D01*
G01*
X156233623Y-120375000D02*
G75*
G03*
X156233623Y-120375000I-2180000J0D01*
G01*
X177801123Y-93219724D02*
X177801123Y-92710276D01*
X178846123Y-93219724D02*
X178846123Y-92710276D01*
X179521123Y-93219724D02*
X179521123Y-92710276D01*
X180566123Y-93219724D02*
X180566123Y-92710276D01*
D11*
X112953623Y-84415000D02*
X112953623Y-79315000D01*
X100953623Y-84415000D02*
X100953623Y-79315000D01*
X100953623Y-84415000D02*
X112953623Y-84415000D01*
X100953623Y-79315000D02*
X112953623Y-79315000D01*
D17*
X199325223Y-111856914D02*
X189063623Y-111856914D01*
X199325223Y-123109114D02*
X199325223Y-119008736D01*
X189063623Y-111856914D02*
X189063623Y-115957264D01*
X199325223Y-115957264D02*
X199325223Y-111856914D01*
X189063623Y-123109114D02*
X199325223Y-123109114D01*
X189063623Y-119008736D02*
X189063623Y-123109114D01*
X181258623Y-87205000D02*
X181258623Y-85005000D01*
X181258623Y-87205000D02*
X181258623Y-89405000D01*
X175788623Y-87205000D02*
X175788623Y-83605000D01*
X175788623Y-87205000D02*
X175788623Y-89405000D01*
X96183623Y-114685000D02*
X95903623Y-114685000D01*
X93653623Y-114685000D02*
X94183623Y-114685000D01*
X93433623Y-124105000D02*
X91933623Y-124105000D01*
X91933623Y-124105000D02*
X91933623Y-112635000D01*
X98153623Y-124605000D02*
X98653623Y-124105000D01*
X98433623Y-112635000D02*
X98433623Y-114685000D01*
X91933623Y-112635000D02*
X93653623Y-112635000D01*
X98653623Y-124105000D02*
X100153623Y-124105000D01*
X96043623Y-124605000D02*
X93933623Y-124605000D01*
X100153623Y-124105000D02*
X100153623Y-112635000D01*
X98433623Y-114685000D02*
X97903623Y-114685000D01*
X100453623Y-112335000D02*
X98043623Y-112335000D01*
X100453623Y-114745000D02*
X100453623Y-112335000D01*
X93933623Y-124605000D02*
X93433623Y-124105000D01*
X93653623Y-112635000D02*
X93653623Y-114685000D01*
X100153623Y-112635000D02*
X98433623Y-112635000D01*
X96043623Y-124605000D02*
X98153623Y-124605000D01*
D18*
X101493623Y-86965000D02*
X97963623Y-86965000D01*
X91793623Y-111125000D02*
X95323623Y-111125000D01*
X101493623Y-111125000D02*
X97963623Y-111125000D01*
X91793623Y-111125000D02*
X91793623Y-86965000D01*
X91793623Y-86965000D02*
X95323623Y-86965000D01*
X101493623Y-111125000D02*
X101493623Y-86965000D01*
X163073623Y-125645000D02*
X187233623Y-125645000D01*
X187233623Y-115945000D02*
X187233623Y-119475000D01*
X163073623Y-125645000D02*
X163073623Y-122115000D01*
X163073623Y-115945000D02*
X163073623Y-119475000D01*
X187233623Y-125645000D02*
X187233623Y-122115000D01*
X163073623Y-115945000D02*
X187233623Y-115945000D01*
D17*
X203023623Y-91695000D02*
X203023623Y-89645000D01*
X205413623Y-79725000D02*
X203303623Y-79725000D01*
X208023623Y-80225000D02*
X209523623Y-80225000D01*
X209523623Y-91695000D02*
X207803623Y-91695000D01*
X201003623Y-89585000D02*
X201003623Y-91995000D01*
X207523623Y-79725000D02*
X208023623Y-80225000D01*
X203303623Y-79725000D02*
X202803623Y-80225000D01*
X201303623Y-80225000D02*
X201303623Y-91695000D01*
X201303623Y-91695000D02*
X203023623Y-91695000D01*
X201003623Y-91995000D02*
X203413623Y-91995000D01*
X203023623Y-89645000D02*
X203553623Y-89645000D01*
X207803623Y-91695000D02*
X207803623Y-89645000D01*
X202803623Y-80225000D02*
X201303623Y-80225000D01*
X207803623Y-89645000D02*
X207273623Y-89645000D01*
X205413623Y-79725000D02*
X207523623Y-79725000D01*
X209523623Y-80225000D02*
X209523623Y-91695000D01*
X205273623Y-89645000D02*
X205553623Y-89645000D01*
X189073623Y-87941114D02*
X199335223Y-87941114D01*
X199335223Y-87941114D02*
X199335223Y-83840736D01*
X189073623Y-83840736D02*
X189073623Y-87941114D01*
X189073623Y-76688914D02*
X189073623Y-80789264D01*
X199335223Y-80789264D02*
X199335223Y-76688914D01*
X199335223Y-76688914D02*
X189073623Y-76688914D01*
D11*
X133293623Y-116445000D02*
X145293623Y-116445000D01*
X133293623Y-122245000D02*
X145293623Y-122245000D01*
X133293623Y-122245000D02*
X133293623Y-116445000D01*
X145293623Y-122245000D02*
X145293623Y-116445000D01*
D17*
X189453623Y-102895000D02*
X189453623Y-107695000D01*
X202053623Y-98895000D02*
X202053623Y-94095000D01*
X195253623Y-100895000D02*
X196253623Y-100895000D01*
X189453623Y-94095000D02*
X202053623Y-94095000D01*
X189453623Y-98895000D02*
X189453623Y-94095000D01*
X195753623Y-100395000D02*
X195753623Y-101395000D01*
X194253623Y-107695000D02*
X197253623Y-107695000D01*
X189453623Y-107695000D02*
X192253623Y-107695000D01*
X202053623Y-107695000D02*
X202053623Y-102895000D01*
X199253623Y-107695000D02*
X202053623Y-107695000D01*
X198753623Y-100895000D02*
G75*
G03*
X198753623Y-100895000I-3000000J0D01*
G01*
D11*
X120593623Y-116445000D02*
X132593623Y-116445000D01*
X120593623Y-122245000D02*
X132593623Y-122245000D01*
X120593623Y-122245000D02*
X120593623Y-116445000D01*
X132593623Y-122245000D02*
X132593623Y-116445000D01*
D17*
X174349890Y-94505000D02*
X174057356Y-94505000D01*
X174349890Y-95525000D02*
X174057356Y-95525000D01*
X166103623Y-93181267D02*
X166103623Y-92888733D01*
X165083623Y-93181267D02*
X165083623Y-92888733D01*
X160439856Y-100915000D02*
X160732390Y-100915000D01*
X160439856Y-99895000D02*
X160732390Y-99895000D01*
X174349890Y-101105000D02*
X174057356Y-101105000D01*
X174349890Y-100085000D02*
X174057356Y-100085000D01*
X163078623Y-106901267D02*
X163078623Y-106608733D01*
X164098623Y-106901267D02*
X164098623Y-106608733D01*
X172462371Y-97715000D02*
X173884875Y-97715000D01*
X172462371Y-99535000D02*
X173884875Y-99535000D01*
X166363623Y-106901267D02*
X166363623Y-106608733D01*
X167383623Y-106901267D02*
X167383623Y-106608733D01*
X174057356Y-96145000D02*
X174349890Y-96145000D01*
X174057356Y-97165000D02*
X174349890Y-97165000D01*
D15*
X141633623Y-97305000D02*
X141633623Y-97805000D01*
X141633623Y-110205000D02*
X142133623Y-110205000D01*
X147033623Y-97305000D02*
X146533623Y-97305000D01*
X141633623Y-110205000D02*
X141633623Y-109705000D01*
X147033623Y-110205000D02*
X147033623Y-109705000D01*
X141633623Y-97305000D02*
X142133623Y-97305000D01*
X147033623Y-97305000D02*
X147033623Y-97805000D01*
X147033623Y-110205000D02*
X146533623Y-110205000D01*
D17*
X167833624Y-92888733D02*
X167833624Y-93181267D01*
X168853624Y-92888733D02*
X168853624Y-93181267D01*
X174349890Y-104905001D02*
X174057356Y-104905001D01*
X174349890Y-103885001D02*
X174057356Y-103885001D01*
X160439856Y-102635000D02*
X160732390Y-102635000D01*
X160439856Y-103655000D02*
X160732390Y-103655000D01*
X158803623Y-93023748D02*
X158803623Y-94446252D01*
X160623623Y-93023748D02*
X160623623Y-94446252D01*
X158643623Y-81612064D02*
X158643623Y-80157936D01*
X156823623Y-81612064D02*
X156823623Y-80157936D01*
%LPC*%
D19*
X92703623Y-82765000D03*
D20*
X92703623Y-80225000D03*
D21*
X125783623Y-79765000D03*
D22*
X125783623Y-84765000D03*
D21*
X115203623Y-82305000D03*
D22*
X115203623Y-87305000D03*
D23*
X168593623Y-105892500D03*
X168593623Y-107617500D03*
X131913623Y-78582500D03*
X131913623Y-80307500D03*
D24*
X151528623Y-76875000D03*
X153278623Y-76875000D03*
D25*
X159053623Y-120375000D03*
D26*
X154053623Y-120375000D03*
X149053623Y-120375000D03*
D27*
X178323623Y-93877500D03*
X178323623Y-92052500D03*
X180043623Y-93877500D03*
X180043623Y-92052500D03*
D20*
X103203623Y-83015000D03*
X110703623Y-80715000D03*
D28*
X196683623Y-124483000D03*
X194194423Y-124483000D03*
X191705223Y-124483000D03*
D29*
X198594623Y-117483000D03*
X189794223Y-117483000D03*
D30*
X176248623Y-84342500D03*
X176898623Y-84342500D03*
X177548623Y-84342500D03*
X178198623Y-84342500D03*
X178848623Y-84342500D03*
X179498623Y-84342500D03*
X180148623Y-84342500D03*
X180798623Y-84342500D03*
X180798623Y-90067500D03*
X180148623Y-90067500D03*
X179498623Y-90067500D03*
X178848623Y-90067500D03*
X178198623Y-90067500D03*
X177548623Y-90067500D03*
X176898623Y-90067500D03*
X176248623Y-90067500D03*
D31*
X99043623Y-117195000D03*
X93043623Y-117195000D03*
D32*
X97043623Y-114795000D03*
D33*
X95043623Y-114795000D03*
D34*
X96643623Y-109965000D03*
D35*
X96643623Y-88125000D03*
D34*
X164233623Y-120795000D03*
D35*
X186073623Y-120795000D03*
D31*
X208413623Y-87135000D03*
X202413623Y-87135000D03*
D36*
X204413623Y-89535000D03*
D33*
X206413623Y-89535000D03*
D37*
X185393623Y-88280000D03*
X104393623Y-112280000D03*
X185393623Y-112280000D03*
X104393623Y-88280000D03*
D38*
X183353623Y-107900000D03*
D39*
X185893623Y-107900000D03*
X183353623Y-105360000D03*
X185893623Y-105360000D03*
X183353623Y-102820000D03*
X185893623Y-102820000D03*
X183353623Y-100280000D03*
X185893623Y-100280000D03*
X183353623Y-97740000D03*
X185893623Y-97740000D03*
X183353623Y-95200000D03*
X185893623Y-95200000D03*
X183353623Y-92660000D03*
X185893623Y-92660000D03*
D28*
X196693623Y-89315000D03*
X194204423Y-89315000D03*
X191715223Y-89315000D03*
D29*
X198604623Y-82315000D03*
X189804223Y-82315000D03*
D20*
X135543623Y-120695000D03*
X143043623Y-117995000D03*
D22*
X193253623Y-107895000D03*
X198253623Y-107895000D03*
X193253623Y-93395000D03*
X198253623Y-93395000D03*
X195753623Y-93395000D03*
D40*
X190203623Y-100895000D03*
X201303623Y-100895000D03*
D20*
X122843623Y-120695000D03*
X130343623Y-117995000D03*
D41*
X175066123Y-95015000D03*
X173341123Y-95015000D03*
D42*
X165593623Y-93897500D03*
X165593623Y-92172500D03*
D43*
X159723623Y-100405000D03*
X161448623Y-100405000D03*
D41*
X175066123Y-100595000D03*
X173341123Y-100595000D03*
D42*
X163588623Y-107617500D03*
X163588623Y-105892500D03*
D44*
X171611123Y-98625000D03*
X174736123Y-98625000D03*
D42*
X166873623Y-107617500D03*
X166873623Y-105892500D03*
D43*
X173341123Y-96655000D03*
X175066123Y-96655000D03*
D45*
X143733623Y-106305000D03*
X145003623Y-106305000D03*
X143733623Y-105035000D03*
X145003623Y-105035000D03*
X143733623Y-103765000D03*
X145003623Y-103765000D03*
X143733623Y-102495000D03*
X145003623Y-102495000D03*
X143733623Y-101225000D03*
X145003623Y-101225000D03*
D23*
X168343624Y-92172500D03*
X168343624Y-93897500D03*
D41*
X175066123Y-104395001D03*
X173341123Y-104395001D03*
D43*
X159723623Y-103145000D03*
X161448623Y-103145000D03*
D46*
X159713623Y-92172500D03*
X159713623Y-95297500D03*
D47*
X157733623Y-82435000D03*
X157733623Y-79335000D03*
M02*
