%FSLAX45Y45*%
G04 Gerber Fmt 4.5, Leading zero omitted, Abs format (unit mm)*
G04 Created by KiCad (PCBNEW 6.0.0-2.fc35) date 2022-02-25 18:53:33*
%MOMM*%
%LPD*%
G01*
G04 APERTURE LIST*
%TA.AperFunction,Profile*%
%ADD10C,0.050000*%
%TD*%
%ADD11C,0.200000*%
%ADD12C,0.120000*%
G04 APERTURE END LIST*
D10*
X20055362Y-7614500D02*
X9002362Y-7614500D01*
X21002362Y-7818500D02*
X21002362Y-12614500D01*
X20055362Y-7818500D02*
X20055362Y-7614500D01*
X9002362Y-12614500D02*
X9002362Y-7614500D01*
X9002362Y-12614500D02*
X21002362Y-12614500D01*
X21002362Y-7818500D02*
X20055362Y-7818500D01*
D11*
D12*
X9244362Y-11659500D02*
X9364362Y-11779500D01*
X9364362Y-11659500D02*
X9244362Y-11779500D01*
X9844362Y-11659500D02*
X9964362Y-11779500D01*
X9964362Y-11659500D02*
X9844362Y-11779500D01*
X20181362Y-8653500D02*
X20301362Y-8773500D01*
X20301362Y-8653500D02*
X20181362Y-8773500D01*
X20781362Y-8653500D02*
X20901362Y-8773500D01*
X20901362Y-8653500D02*
X20781362Y-8773500D01*
D11*
X9257481Y-12927476D02*
X9257481Y-12727476D01*
X9305100Y-12727476D01*
X9333672Y-12737000D01*
X9352719Y-12756048D01*
X9362243Y-12775095D01*
X9371767Y-12813190D01*
X9371767Y-12841762D01*
X9362243Y-12879857D01*
X9352719Y-12898905D01*
X9333672Y-12917952D01*
X9305100Y-12927476D01*
X9257481Y-12927476D01*
X9457481Y-12927476D02*
X9457481Y-12794143D01*
X9457481Y-12832238D02*
X9467005Y-12813190D01*
X9476529Y-12803667D01*
X9495577Y-12794143D01*
X9514624Y-12794143D01*
X9581291Y-12927476D02*
X9581291Y-12794143D01*
X9581291Y-12727476D02*
X9571767Y-12737000D01*
X9581291Y-12746524D01*
X9590815Y-12737000D01*
X9581291Y-12727476D01*
X9581291Y-12746524D01*
X9705100Y-12927476D02*
X9686053Y-12917952D01*
X9676529Y-12898905D01*
X9676529Y-12727476D01*
X9809862Y-12927476D02*
X9790815Y-12917952D01*
X9781291Y-12898905D01*
X9781291Y-12727476D01*
X10038434Y-12927476D02*
X10038434Y-12727476D01*
X10105100Y-12870333D01*
X10171767Y-12727476D01*
X10171767Y-12927476D01*
X10352719Y-12927476D02*
X10352719Y-12822714D01*
X10343196Y-12803667D01*
X10324148Y-12794143D01*
X10286053Y-12794143D01*
X10267005Y-12803667D01*
X10352719Y-12917952D02*
X10333672Y-12927476D01*
X10286053Y-12927476D01*
X10267005Y-12917952D01*
X10257481Y-12898905D01*
X10257481Y-12879857D01*
X10267005Y-12860809D01*
X10286053Y-12851286D01*
X10333672Y-12851286D01*
X10352719Y-12841762D01*
X10447958Y-12794143D02*
X10447958Y-12994143D01*
X10447958Y-12803667D02*
X10467005Y-12794143D01*
X10505100Y-12794143D01*
X10524148Y-12803667D01*
X10533672Y-12813190D01*
X10543196Y-12832238D01*
X10543196Y-12889381D01*
X10533672Y-12908428D01*
X10524148Y-12917952D01*
X10505100Y-12927476D01*
X10467005Y-12927476D01*
X10447958Y-12917952D01*
X10628910Y-12908428D02*
X10638434Y-12917952D01*
X10628910Y-12927476D01*
X10619386Y-12917952D01*
X10628910Y-12908428D01*
X10628910Y-12927476D01*
X10628910Y-12803667D02*
X10638434Y-12813190D01*
X10628910Y-12822714D01*
X10619386Y-12813190D01*
X10628910Y-12803667D01*
X10628910Y-12822714D01*
D12*
X8879862Y-13197000D02*
X8999862Y-13317000D01*
X8999862Y-13197000D02*
X8879862Y-13317000D01*
D11*
X9362243Y-13347476D02*
X9247958Y-13347476D01*
X9305100Y-13347476D02*
X9305100Y-13147476D01*
X9286053Y-13176048D01*
X9267005Y-13195095D01*
X9247958Y-13204619D01*
X9447958Y-13328428D02*
X9457481Y-13337952D01*
X9447958Y-13347476D01*
X9438434Y-13337952D01*
X9447958Y-13328428D01*
X9447958Y-13347476D01*
X9533672Y-13166524D02*
X9543196Y-13157000D01*
X9562243Y-13147476D01*
X9609862Y-13147476D01*
X9628910Y-13157000D01*
X9638434Y-13166524D01*
X9647958Y-13185571D01*
X9647958Y-13204619D01*
X9638434Y-13233190D01*
X9524148Y-13347476D01*
X9647958Y-13347476D01*
X9771767Y-13147476D02*
X9790815Y-13147476D01*
X9809862Y-13157000D01*
X9819386Y-13166524D01*
X9828910Y-13185571D01*
X9838434Y-13223667D01*
X9838434Y-13271286D01*
X9828910Y-13309381D01*
X9819386Y-13328428D01*
X9809862Y-13337952D01*
X9790815Y-13347476D01*
X9771767Y-13347476D01*
X9752719Y-13337952D01*
X9743196Y-13328428D01*
X9733672Y-13309381D01*
X9724148Y-13271286D01*
X9724148Y-13223667D01*
X9733672Y-13185571D01*
X9743196Y-13166524D01*
X9752719Y-13157000D01*
X9771767Y-13147476D01*
X9962243Y-13147476D02*
X9981291Y-13147476D01*
X10000338Y-13157000D01*
X10009862Y-13166524D01*
X10019386Y-13185571D01*
X10028910Y-13223667D01*
X10028910Y-13271286D01*
X10019386Y-13309381D01*
X10009862Y-13328428D01*
X10000338Y-13337952D01*
X9981291Y-13347476D01*
X9962243Y-13347476D01*
X9943196Y-13337952D01*
X9933672Y-13328428D01*
X9924148Y-13309381D01*
X9914624Y-13271286D01*
X9914624Y-13223667D01*
X9924148Y-13185571D01*
X9933672Y-13166524D01*
X9943196Y-13157000D01*
X9962243Y-13147476D01*
X10114624Y-13347476D02*
X10114624Y-13214143D01*
X10114624Y-13233190D02*
X10124148Y-13223667D01*
X10143196Y-13214143D01*
X10171767Y-13214143D01*
X10190815Y-13223667D01*
X10200338Y-13242714D01*
X10200338Y-13347476D01*
X10200338Y-13242714D02*
X10209862Y-13223667D01*
X10228910Y-13214143D01*
X10257481Y-13214143D01*
X10276529Y-13223667D01*
X10286053Y-13242714D01*
X10286053Y-13347476D01*
X10381291Y-13347476D02*
X10381291Y-13214143D01*
X10381291Y-13233190D02*
X10390815Y-13223667D01*
X10409862Y-13214143D01*
X10438434Y-13214143D01*
X10457481Y-13223667D01*
X10467005Y-13242714D01*
X10467005Y-13347476D01*
X10467005Y-13242714D02*
X10476529Y-13223667D01*
X10495577Y-13214143D01*
X10524148Y-13214143D01*
X10543196Y-13223667D01*
X10552719Y-13242714D01*
X10552719Y-13347476D01*
X10943196Y-13137952D02*
X10771767Y-13395095D01*
X11200338Y-13147476D02*
X11219386Y-13147476D01*
X11238434Y-13157000D01*
X11247957Y-13166524D01*
X11257481Y-13185571D01*
X11267005Y-13223667D01*
X11267005Y-13271286D01*
X11257481Y-13309381D01*
X11247957Y-13328428D01*
X11238434Y-13337952D01*
X11219386Y-13347476D01*
X11200338Y-13347476D01*
X11181291Y-13337952D01*
X11171767Y-13328428D01*
X11162243Y-13309381D01*
X11152719Y-13271286D01*
X11152719Y-13223667D01*
X11162243Y-13185571D01*
X11171767Y-13166524D01*
X11181291Y-13157000D01*
X11200338Y-13147476D01*
X11352719Y-13328428D02*
X11362243Y-13337952D01*
X11352719Y-13347476D01*
X11343196Y-13337952D01*
X11352719Y-13328428D01*
X11352719Y-13347476D01*
X11486053Y-13147476D02*
X11505100Y-13147476D01*
X11524148Y-13157000D01*
X11533672Y-13166524D01*
X11543196Y-13185571D01*
X11552719Y-13223667D01*
X11552719Y-13271286D01*
X11543196Y-13309381D01*
X11533672Y-13328428D01*
X11524148Y-13337952D01*
X11505100Y-13347476D01*
X11486053Y-13347476D01*
X11467005Y-13337952D01*
X11457481Y-13328428D01*
X11447957Y-13309381D01*
X11438434Y-13271286D01*
X11438434Y-13223667D01*
X11447957Y-13185571D01*
X11457481Y-13166524D01*
X11467005Y-13157000D01*
X11486053Y-13147476D01*
X11724148Y-13214143D02*
X11724148Y-13347476D01*
X11676529Y-13137952D02*
X11628910Y-13280809D01*
X11752719Y-13280809D01*
X11809862Y-13147476D02*
X11943196Y-13147476D01*
X11857481Y-13347476D01*
X12009862Y-13166524D02*
X12019386Y-13157000D01*
X12038434Y-13147476D01*
X12086053Y-13147476D01*
X12105100Y-13157000D01*
X12114624Y-13166524D01*
X12124148Y-13185571D01*
X12124148Y-13204619D01*
X12114624Y-13233190D01*
X12000338Y-13347476D01*
X12124148Y-13347476D01*
X12200338Y-13147476D02*
X12200338Y-13185571D01*
X12276529Y-13147476D02*
X12276529Y-13185571D01*
X12571767Y-13423667D02*
X12562243Y-13414143D01*
X12543196Y-13385571D01*
X12533672Y-13366524D01*
X12524148Y-13337952D01*
X12514624Y-13290333D01*
X12514624Y-13252238D01*
X12524148Y-13204619D01*
X12533672Y-13176048D01*
X12543196Y-13157000D01*
X12562243Y-13128428D01*
X12571767Y-13118905D01*
X12733672Y-13214143D02*
X12733672Y-13347476D01*
X12686053Y-13137952D02*
X12638434Y-13280809D01*
X12762243Y-13280809D01*
X12990815Y-13347476D02*
X12990815Y-13147476D01*
X13076529Y-13347476D02*
X13076529Y-13242714D01*
X13067005Y-13223667D01*
X13047957Y-13214143D01*
X13019386Y-13214143D01*
X13000338Y-13223667D01*
X12990815Y-13233190D01*
X13200338Y-13347476D02*
X13181291Y-13337952D01*
X13171767Y-13328428D01*
X13162243Y-13309381D01*
X13162243Y-13252238D01*
X13171767Y-13233190D01*
X13181291Y-13223667D01*
X13200338Y-13214143D01*
X13228910Y-13214143D01*
X13247957Y-13223667D01*
X13257481Y-13233190D01*
X13267005Y-13252238D01*
X13267005Y-13309381D01*
X13257481Y-13328428D01*
X13247957Y-13337952D01*
X13228910Y-13347476D01*
X13200338Y-13347476D01*
X13381291Y-13347476D02*
X13362243Y-13337952D01*
X13352719Y-13318905D01*
X13352719Y-13147476D01*
X13533672Y-13337952D02*
X13514624Y-13347476D01*
X13476529Y-13347476D01*
X13457481Y-13337952D01*
X13447957Y-13318905D01*
X13447957Y-13242714D01*
X13457481Y-13223667D01*
X13476529Y-13214143D01*
X13514624Y-13214143D01*
X13533672Y-13223667D01*
X13543196Y-13242714D01*
X13543196Y-13261762D01*
X13447957Y-13280809D01*
X13619386Y-13337952D02*
X13638434Y-13347476D01*
X13676529Y-13347476D01*
X13695576Y-13337952D01*
X13705100Y-13318905D01*
X13705100Y-13309381D01*
X13695576Y-13290333D01*
X13676529Y-13280809D01*
X13647957Y-13280809D01*
X13628910Y-13271286D01*
X13619386Y-13252238D01*
X13619386Y-13242714D01*
X13628910Y-13223667D01*
X13647957Y-13214143D01*
X13676529Y-13214143D01*
X13695576Y-13223667D01*
X13771767Y-13423667D02*
X13781291Y-13414143D01*
X13800338Y-13385571D01*
X13809862Y-13366524D01*
X13819386Y-13337952D01*
X13828910Y-13290333D01*
X13828910Y-13252238D01*
X13819386Y-13204619D01*
X13809862Y-13176048D01*
X13800338Y-13157000D01*
X13781291Y-13128428D01*
X13771767Y-13118905D01*
X14133672Y-13423667D02*
X14124148Y-13414143D01*
X14105100Y-13385571D01*
X14095576Y-13366524D01*
X14086053Y-13337952D01*
X14076529Y-13290333D01*
X14076529Y-13252238D01*
X14086053Y-13204619D01*
X14095576Y-13176048D01*
X14105100Y-13157000D01*
X14124148Y-13128428D01*
X14133672Y-13118905D01*
X14209862Y-13214143D02*
X14209862Y-13347476D01*
X14209862Y-13233190D02*
X14219386Y-13223667D01*
X14238434Y-13214143D01*
X14267005Y-13214143D01*
X14286053Y-13223667D01*
X14295576Y-13242714D01*
X14295576Y-13347476D01*
X14419386Y-13347476D02*
X14400338Y-13337952D01*
X14390815Y-13328428D01*
X14381291Y-13309381D01*
X14381291Y-13252238D01*
X14390815Y-13233190D01*
X14400338Y-13223667D01*
X14419386Y-13214143D01*
X14447957Y-13214143D01*
X14467005Y-13223667D01*
X14476529Y-13233190D01*
X14486053Y-13252238D01*
X14486053Y-13309381D01*
X14476529Y-13328428D01*
X14467005Y-13337952D01*
X14447957Y-13347476D01*
X14419386Y-13347476D01*
X14543196Y-13214143D02*
X14619386Y-13214143D01*
X14571767Y-13147476D02*
X14571767Y-13318905D01*
X14581291Y-13337952D01*
X14600338Y-13347476D01*
X14619386Y-13347476D01*
X14838434Y-13214143D02*
X14838434Y-13414143D01*
X14838434Y-13223667D02*
X14857481Y-13214143D01*
X14895576Y-13214143D01*
X14914624Y-13223667D01*
X14924148Y-13233190D01*
X14933672Y-13252238D01*
X14933672Y-13309381D01*
X14924148Y-13328428D01*
X14914624Y-13337952D01*
X14895576Y-13347476D01*
X14857481Y-13347476D01*
X14838434Y-13337952D01*
X15047957Y-13347476D02*
X15028910Y-13337952D01*
X15019386Y-13318905D01*
X15019386Y-13147476D01*
X15209862Y-13347476D02*
X15209862Y-13242714D01*
X15200338Y-13223667D01*
X15181291Y-13214143D01*
X15143196Y-13214143D01*
X15124148Y-13223667D01*
X15209862Y-13337952D02*
X15190815Y-13347476D01*
X15143196Y-13347476D01*
X15124148Y-13337952D01*
X15114624Y-13318905D01*
X15114624Y-13299857D01*
X15124148Y-13280809D01*
X15143196Y-13271286D01*
X15190815Y-13271286D01*
X15209862Y-13261762D01*
X15276529Y-13214143D02*
X15352719Y-13214143D01*
X15305100Y-13147476D02*
X15305100Y-13318905D01*
X15314624Y-13337952D01*
X15333672Y-13347476D01*
X15352719Y-13347476D01*
X15495576Y-13337952D02*
X15476529Y-13347476D01*
X15438434Y-13347476D01*
X15419386Y-13337952D01*
X15409862Y-13318905D01*
X15409862Y-13242714D01*
X15419386Y-13223667D01*
X15438434Y-13214143D01*
X15476529Y-13214143D01*
X15495576Y-13223667D01*
X15505100Y-13242714D01*
X15505100Y-13261762D01*
X15409862Y-13280809D01*
X15676529Y-13347476D02*
X15676529Y-13147476D01*
X15676529Y-13337952D02*
X15657481Y-13347476D01*
X15619386Y-13347476D01*
X15600338Y-13337952D01*
X15590815Y-13328428D01*
X15581291Y-13309381D01*
X15581291Y-13252238D01*
X15590815Y-13233190D01*
X15600338Y-13223667D01*
X15619386Y-13214143D01*
X15657481Y-13214143D01*
X15676529Y-13223667D01*
X15752719Y-13423667D02*
X15762243Y-13414143D01*
X15781291Y-13385571D01*
X15790815Y-13366524D01*
X15800338Y-13337952D01*
X15809862Y-13290333D01*
X15809862Y-13252238D01*
X15800338Y-13204619D01*
X15790815Y-13176048D01*
X15781291Y-13157000D01*
X15762243Y-13128428D01*
X15752719Y-13118905D01*
M02*
