%TF.GenerationSoftware,KiCad,Pcbnew,6.0.0-2.fc35*%
%TF.CreationDate,2022-01-11T17:09:12-08:00*%
%TF.ProjectId,Doorbell,446f6f72-6265-46c6-9c2e-6b696361645f,A*%
%TF.SameCoordinates,Original*%
%TF.FileFunction,Paste,Top*%
%TF.FilePolarity,Positive*%
%FSLAX46Y46*%
G04 Gerber Fmt 4.6, Leading zero omitted, Abs format (unit mm)*
G04 Created by KiCad (PCBNEW 6.0.0-2.fc35) date 2022-01-11 17:09:12*
%MOMM*%
%LPD*%
G01*
G04 APERTURE LIST*
G04 Aperture macros list*
%AMRoundRect*
0 Rectangle with rounded corners*
0 $1 Rounding radius*
0 $2 $3 $4 $5 $6 $7 $8 $9 X,Y pos of 4 corners*
0 Add a 4 corners polygon primitive as box body*
4,1,4,$2,$3,$4,$5,$6,$7,$8,$9,$2,$3,0*
0 Add four circle primitives for the rounded corners*
1,1,$1+$1,$2,$3*
1,1,$1+$1,$4,$5*
1,1,$1+$1,$6,$7*
1,1,$1+$1,$8,$9*
0 Add four rect primitives between the rounded corners*
20,1,$1+$1,$2,$3,$4,$5,0*
20,1,$1+$1,$4,$5,$6,$7,0*
20,1,$1+$1,$6,$7,$8,$9,0*
20,1,$1+$1,$8,$9,$2,$3,0*%
G04 Aperture macros list end*
%ADD10C,0.010000*%
%ADD11RoundRect,0.250000X-0.412500X-0.650000X0.412500X-0.650000X0.412500X0.650000X-0.412500X0.650000X0*%
%ADD12RoundRect,0.237500X-0.237500X0.300000X-0.237500X-0.300000X0.237500X-0.300000X0.237500X0.300000X0*%
%ADD13RoundRect,0.237500X-0.300000X-0.237500X0.300000X-0.237500X0.300000X0.237500X-0.300000X0.237500X0*%
%ADD14RoundRect,0.237500X0.237500X-0.300000X0.237500X0.300000X-0.237500X0.300000X-0.237500X-0.300000X0*%
%ADD15R,1.400000X1.300000*%
%ADD16R,0.800000X1.500000*%
%ADD17R,1.000000X0.950000*%
%ADD18R,1.300000X1.400000*%
%ADD19R,1.400000X1.900000*%
%ADD20R,5.003800X3.098800*%
%ADD21R,0.300000X0.325000*%
%ADD22R,0.613000X0.950000*%
%ADD23R,0.480000X0.400000*%
%ADD24R,1.150000X1.300000*%
%ADD25R,0.710000X0.400000*%
%ADD26RoundRect,0.150000X0.150000X-0.587500X0.150000X0.587500X-0.150000X0.587500X-0.150000X-0.587500X0*%
%ADD27RoundRect,0.150000X0.587500X0.150000X-0.587500X0.150000X-0.587500X-0.150000X0.587500X-0.150000X0*%
%ADD28RoundRect,0.592800X2.157200X-1.357200X2.157200X1.357200X-2.157200X1.357200X-2.157200X-1.357200X0*%
%ADD29RoundRect,0.237500X-0.237500X0.250000X-0.237500X-0.250000X0.237500X-0.250000X0.237500X0.250000X0*%
%ADD30RoundRect,0.237500X0.250000X0.237500X-0.250000X0.237500X-0.250000X-0.237500X0.250000X-0.237500X0*%
%ADD31RoundRect,0.237500X-0.250000X-0.237500X0.250000X-0.237500X0.250000X0.237500X-0.250000X0.237500X0*%
%ADD32RoundRect,0.250000X-0.350000X-0.450000X0.350000X-0.450000X0.350000X0.450000X-0.350000X0.450000X0*%
%ADD33RoundRect,0.237500X0.237500X-0.250000X0.237500X0.250000X-0.237500X0.250000X-0.237500X-0.250000X0*%
%ADD34RoundRect,0.008100X-0.411900X-0.126900X0.411900X-0.126900X0.411900X0.126900X-0.411900X0.126900X0*%
%ADD35RoundRect,0.008100X-0.126900X-0.411900X0.126900X-0.411900X0.126900X0.411900X-0.126900X0.411900X0*%
%ADD36RoundRect,0.100000X-0.637500X-0.100000X0.637500X-0.100000X0.637500X0.100000X-0.637500X0.100000X0*%
%ADD37R,0.800000X0.800000*%
%ADD38R,1.100000X0.500000*%
%ADD39R,1.000000X1.000000*%
%ADD40R,0.800000X0.900000*%
%ADD41RoundRect,0.150000X0.825000X0.150000X-0.825000X0.150000X-0.825000X-0.150000X0.825000X-0.150000X0*%
%ADD42RoundRect,0.250000X-0.450000X0.350000X-0.450000X-0.350000X0.450000X-0.350000X0.450000X0.350000X0*%
%ADD43R,0.876300X0.508000*%
%ADD44R,0.500000X0.400000*%
%ADD45R,0.920000X0.285000*%
%ADD46R,0.355600X1.625600*%
%ADD47R,4.089400X2.743200*%
%ADD48RoundRect,0.250000X-0.412500X-1.100000X0.412500X-1.100000X0.412500X1.100000X-0.412500X1.100000X0*%
%ADD49R,1.550000X0.600000*%
%ADD50O,1.550000X0.600000*%
%ADD51RoundRect,0.250001X0.624999X-0.462499X0.624999X0.462499X-0.624999X0.462499X-0.624999X-0.462499X0*%
%ADD52R,4.038600X3.556000*%
%ADD53R,1.840000X0.640000*%
%ADD54R,0.900000X0.800000*%
%ADD55RoundRect,0.250000X0.350000X0.450000X-0.350000X0.450000X-0.350000X-0.450000X0.350000X-0.450000X0*%
%ADD56R,0.279400X1.473200*%
%ADD57R,1.473200X0.279400*%
G04 APERTURE END LIST*
D10*
X184163623Y-78765000D02*
X184863623Y-78765000D01*
X184863623Y-78765000D02*
X184863623Y-79465000D01*
X184863623Y-79465000D02*
X184163623Y-79465000D01*
X184163623Y-79465000D02*
X184163623Y-78765000D01*
G36*
X184863623Y-79465000D02*
G01*
X184163623Y-79465000D01*
X184163623Y-78765000D01*
X184863623Y-78765000D01*
X184863623Y-79465000D01*
G37*
X184863623Y-79465000D02*
X184163623Y-79465000D01*
X184163623Y-78765000D01*
X184863623Y-78765000D01*
X184863623Y-79465000D01*
X98778623Y-83357000D02*
X97768623Y-83357000D01*
X97768623Y-83357000D02*
X97768623Y-82693000D01*
X97768623Y-82693000D02*
X98778623Y-82693000D01*
X98778623Y-82693000D02*
X98778623Y-83357000D01*
G36*
X98778623Y-83357000D02*
G01*
X97768623Y-83357000D01*
X97768623Y-82693000D01*
X98778623Y-82693000D01*
X98778623Y-83357000D01*
G37*
X98778623Y-83357000D02*
X97768623Y-83357000D01*
X97768623Y-82693000D01*
X98778623Y-82693000D01*
X98778623Y-83357000D01*
X97473623Y-82900000D02*
X97123623Y-82900000D01*
X97123623Y-82900000D02*
X97123623Y-82500000D01*
X97123623Y-82500000D02*
X97473623Y-82500000D01*
X97473623Y-82500000D02*
X97473623Y-82900000D01*
G36*
X97473623Y-82900000D02*
G01*
X97123623Y-82900000D01*
X97123623Y-82500000D01*
X97473623Y-82500000D01*
X97473623Y-82900000D01*
G37*
X97473623Y-82900000D02*
X97123623Y-82900000D01*
X97123623Y-82500000D01*
X97473623Y-82500000D01*
X97473623Y-82900000D01*
X99423623Y-82900000D02*
X99073623Y-82900000D01*
X99073623Y-82900000D02*
X99073623Y-82500000D01*
X99073623Y-82500000D02*
X99423623Y-82500000D01*
X99423623Y-82500000D02*
X99423623Y-82900000D01*
G36*
X99423623Y-82900000D02*
G01*
X99073623Y-82900000D01*
X99073623Y-82500000D01*
X99423623Y-82500000D01*
X99423623Y-82900000D01*
G37*
X99423623Y-82900000D02*
X99073623Y-82900000D01*
X99073623Y-82500000D01*
X99423623Y-82500000D01*
X99423623Y-82900000D01*
X99423623Y-83550000D02*
X99073623Y-83550000D01*
X99073623Y-83550000D02*
X99073623Y-83150000D01*
X99073623Y-83150000D02*
X99423623Y-83150000D01*
X99423623Y-83150000D02*
X99423623Y-83550000D01*
G36*
X99423623Y-83550000D02*
G01*
X99073623Y-83550000D01*
X99073623Y-83150000D01*
X99423623Y-83150000D01*
X99423623Y-83550000D01*
G37*
X99423623Y-83550000D02*
X99073623Y-83550000D01*
X99073623Y-83150000D01*
X99423623Y-83150000D01*
X99423623Y-83550000D01*
X97473623Y-83550000D02*
X97123623Y-83550000D01*
X97123623Y-83550000D02*
X97123623Y-83150000D01*
X97123623Y-83150000D02*
X97473623Y-83150000D01*
X97473623Y-83150000D02*
X97473623Y-83550000D01*
G36*
X97473623Y-83550000D02*
G01*
X97123623Y-83550000D01*
X97123623Y-83150000D01*
X97473623Y-83150000D01*
X97473623Y-83550000D01*
G37*
X97473623Y-83550000D02*
X97123623Y-83550000D01*
X97123623Y-83150000D01*
X97473623Y-83150000D01*
X97473623Y-83550000D01*
D11*
X182571123Y-84295000D03*
X185696123Y-84295000D03*
D12*
X204413623Y-91932500D03*
X204413623Y-93657500D03*
X162673623Y-81290000D03*
X162673623Y-83015000D03*
X191163623Y-91980000D03*
X191163623Y-93705000D03*
X197841123Y-98982500D03*
X197841123Y-100707500D03*
D13*
X191471123Y-114755000D03*
X193196123Y-114755000D03*
D14*
X177043623Y-115390000D03*
X177043623Y-113665000D03*
D15*
X131163623Y-91605000D03*
X131163623Y-94505000D03*
D16*
X150463623Y-80755000D03*
X151563623Y-81155000D03*
X152663623Y-80755000D03*
X153763623Y-80555000D03*
X154863623Y-80755000D03*
X155963623Y-80555000D03*
X157063623Y-80755000D03*
X158163623Y-80755000D03*
D17*
X155963623Y-91840000D03*
D18*
X157353623Y-91615000D03*
X151653623Y-91615000D03*
D19*
X158953623Y-78465000D03*
X145803623Y-77465000D03*
D20*
X113353623Y-121694900D03*
X113353623Y-110595100D03*
D21*
X180763623Y-83360000D03*
X180113623Y-83360000D03*
X179463623Y-83360000D03*
D22*
X179647123Y-84285000D03*
D21*
X179463623Y-85210000D03*
X180113623Y-85210000D03*
X180763623Y-85210000D03*
D22*
X180580123Y-84285000D03*
D23*
X97848623Y-93975000D03*
X97848623Y-93325000D03*
X99718623Y-93325000D03*
X99718623Y-93975000D03*
D24*
X98783623Y-93690000D03*
D23*
X97848623Y-94625000D03*
X99718623Y-94625000D03*
D25*
X98783623Y-94750000D03*
D26*
X92333623Y-89342500D03*
X94233623Y-89342500D03*
X93283623Y-87467500D03*
D27*
X116731123Y-99185000D03*
X116731123Y-97285000D03*
X114856123Y-98235000D03*
D28*
X135373623Y-110495000D03*
X135373623Y-100495000D03*
X128853623Y-110485000D03*
X128853623Y-100485000D03*
D29*
X150123623Y-106292500D03*
X150123623Y-108117500D03*
D30*
X114766123Y-102415000D03*
X112941123Y-102415000D03*
D31*
X92271123Y-91095000D03*
X94096123Y-91095000D03*
D32*
X98673623Y-89795000D03*
X100673623Y-89795000D03*
D33*
X109223623Y-90427500D03*
X109223623Y-88602500D03*
D30*
X195253623Y-97205000D03*
X193428623Y-97205000D03*
D31*
X197428623Y-97205000D03*
X199253623Y-97205000D03*
X193428623Y-95485000D03*
X195253623Y-95485000D03*
X197428623Y-95485000D03*
X199253623Y-95485000D03*
D33*
X193283623Y-111817500D03*
X193283623Y-109992500D03*
X191563623Y-111817500D03*
X191563623Y-109992500D03*
D31*
X149369123Y-116789000D03*
X151194123Y-116789000D03*
X156493123Y-116789000D03*
X158318123Y-116789000D03*
D34*
X183078623Y-78365000D03*
X183078623Y-78865000D03*
X183078623Y-79365000D03*
X183078623Y-79865000D03*
D35*
X183763623Y-80550000D03*
X184263623Y-80550000D03*
X184763623Y-80550000D03*
X185263623Y-80550000D03*
D34*
X185948623Y-79865000D03*
X185948623Y-79365000D03*
X185948623Y-78865000D03*
X185948623Y-78365000D03*
D35*
X185263623Y-77680000D03*
X184763623Y-77680000D03*
X184263623Y-77680000D03*
X183763623Y-77680000D03*
D36*
X171301123Y-117100000D03*
X171301123Y-117750000D03*
X171301123Y-118400000D03*
X171301123Y-119050000D03*
X171301123Y-119700000D03*
X171301123Y-120350000D03*
X171301123Y-121000000D03*
X171301123Y-121650000D03*
X171301123Y-122300000D03*
X171301123Y-122950000D03*
X171301123Y-123600000D03*
X171301123Y-124250000D03*
X177026123Y-124250000D03*
X177026123Y-123600000D03*
X177026123Y-122950000D03*
X177026123Y-122300000D03*
X177026123Y-121650000D03*
X177026123Y-121000000D03*
X177026123Y-120350000D03*
X177026123Y-119700000D03*
X177026123Y-119050000D03*
X177026123Y-118400000D03*
X177026123Y-117750000D03*
X177026123Y-117100000D03*
D37*
X167863623Y-79885000D03*
X166863623Y-78885000D03*
X167863623Y-78885000D03*
X166863623Y-79885000D03*
D38*
X170263623Y-81290000D03*
X170263623Y-80020000D03*
X170263623Y-78750000D03*
X170263623Y-77480000D03*
X164463623Y-77480000D03*
X164463623Y-78750000D03*
X164463623Y-80020000D03*
X164463623Y-81290000D03*
D31*
X98961123Y-91735000D03*
X100786123Y-91735000D03*
X152927123Y-116789000D03*
X154752123Y-116789000D03*
D13*
X102411123Y-100485000D03*
X104136123Y-100485000D03*
D39*
X103183623Y-78385000D03*
X103183623Y-80885000D03*
D29*
X108773623Y-82732500D03*
X108773623Y-84557500D03*
D11*
X105701123Y-94355000D03*
X108826123Y-94355000D03*
D14*
X102423623Y-94697500D03*
X102423623Y-92972500D03*
D32*
X92403623Y-99105000D03*
X94403623Y-99105000D03*
D33*
X96393623Y-95887500D03*
X96393623Y-94062500D03*
X94673623Y-95887500D03*
X94673623Y-94062500D03*
D40*
X100563623Y-100465000D03*
X99613623Y-98465000D03*
X98663623Y-100465000D03*
D41*
X101298623Y-107620000D03*
X101298623Y-106350000D03*
X101298623Y-105080000D03*
X101298623Y-103810000D03*
X96348623Y-103810000D03*
X96348623Y-105080000D03*
X96348623Y-106350000D03*
X96348623Y-107620000D03*
D42*
X92483623Y-106825000D03*
X92483623Y-108825000D03*
D32*
X92393623Y-101265000D03*
X94393623Y-101265000D03*
D43*
X105058073Y-98635001D03*
X105058073Y-97685000D03*
X105058073Y-96734999D03*
X102429173Y-96734999D03*
X102429173Y-97685000D03*
X102429173Y-98635001D03*
D11*
X108751123Y-96975000D03*
X111876123Y-96975000D03*
D13*
X108621123Y-99115000D03*
X110346123Y-99115000D03*
D44*
X99173623Y-82050000D03*
D45*
X98273623Y-82050000D03*
D44*
X97373623Y-82050000D03*
D46*
X110363624Y-102333400D03*
X109713623Y-102333400D03*
X109063622Y-102333400D03*
X108413623Y-102333400D03*
X107763624Y-102333400D03*
X107113623Y-102333400D03*
X106463624Y-102333400D03*
X106463622Y-107616600D03*
X107113623Y-107616600D03*
X107763622Y-107616600D03*
X108413623Y-107616600D03*
X109063622Y-107616600D03*
X109713623Y-107616600D03*
X110363622Y-107616600D03*
D47*
X108413623Y-104975000D03*
D48*
X120141123Y-105935000D03*
X123266123Y-105935000D03*
X120141123Y-102475000D03*
X123266123Y-102475000D03*
X120141123Y-95555000D03*
X123266123Y-95555000D03*
X120141123Y-99015000D03*
X123266123Y-99015000D03*
D49*
X126593623Y-92270000D03*
D50*
X126593623Y-91000000D03*
X126593623Y-89730000D03*
X126593623Y-88460000D03*
X121193623Y-88460000D03*
X121193623Y-89730000D03*
X121193623Y-91000000D03*
X121193623Y-92270000D03*
D51*
X195473623Y-86162500D03*
X195473623Y-83187500D03*
X192913623Y-86142500D03*
X192913623Y-83167500D03*
D52*
X137943623Y-78585000D03*
X137943623Y-88745000D03*
D53*
X139798623Y-94170000D03*
X139798623Y-95440000D03*
X145968623Y-95440000D03*
X145968623Y-94170000D03*
X139798623Y-97930000D03*
X139798623Y-99200000D03*
X145968623Y-99200000D03*
X145968623Y-97930000D03*
D13*
X184101123Y-82155000D03*
X185826123Y-82155000D03*
D29*
X174583623Y-80192500D03*
X174583623Y-82017500D03*
D33*
X179563623Y-82017500D03*
X179563623Y-80192500D03*
D29*
X176243623Y-80192500D03*
X176243623Y-82017500D03*
X177903623Y-80192500D03*
X177903623Y-82017500D03*
D12*
X206413623Y-91932500D03*
X206413623Y-93657500D03*
D54*
X111113623Y-93435000D03*
X113113623Y-92485000D03*
X111113623Y-91535000D03*
D13*
X127111123Y-93845000D03*
X128836123Y-93845000D03*
D29*
X146603623Y-105452500D03*
X146603623Y-107277500D03*
D55*
X152723623Y-101525000D03*
X150723623Y-101525000D03*
D29*
X148403623Y-106292500D03*
X148403623Y-108117500D03*
D55*
X148763623Y-101525000D03*
X146763623Y-101525000D03*
D56*
X161343622Y-107515000D03*
X161843624Y-107515000D03*
X162343623Y-107515000D03*
X162843622Y-107515000D03*
X163343623Y-107515000D03*
X163843622Y-107515000D03*
X164343624Y-107515000D03*
X164843623Y-107515000D03*
X165343622Y-107515000D03*
X165843623Y-107515000D03*
X166343622Y-107515000D03*
X166843621Y-107515000D03*
X167343623Y-107515000D03*
X167843622Y-107515000D03*
X168343624Y-107515000D03*
X168843623Y-107515000D03*
X169343622Y-107515000D03*
X169843623Y-107515000D03*
X170343622Y-107515000D03*
X170843624Y-107515000D03*
X171343623Y-107515000D03*
X171843622Y-107515000D03*
X172343623Y-107515000D03*
X172843622Y-107515000D03*
X173343624Y-107515000D03*
D57*
X174963623Y-105895001D03*
X174963623Y-105394999D03*
X174963623Y-104895000D03*
X174963623Y-104395001D03*
X174963623Y-103895000D03*
X174963623Y-103395001D03*
X174963623Y-102894999D03*
X174963623Y-102395000D03*
X174963623Y-101895001D03*
X174963623Y-101395000D03*
X174963623Y-100895001D03*
X174963623Y-100394999D03*
X174963623Y-99895000D03*
X174963623Y-99395001D03*
X174963623Y-98894999D03*
X174963623Y-98395000D03*
X174963623Y-97894999D03*
X174963623Y-97395000D03*
X174963623Y-96895001D03*
X174963623Y-96394999D03*
X174963623Y-95895000D03*
X174963623Y-95394999D03*
X174963623Y-94895000D03*
X174963623Y-94395001D03*
X174963623Y-93894999D03*
D56*
X173343624Y-92275000D03*
X172843622Y-92275000D03*
X172343623Y-92275000D03*
X171843624Y-92275000D03*
X171343623Y-92275000D03*
X170843624Y-92275000D03*
X170343622Y-92275000D03*
X169843623Y-92275000D03*
X169343624Y-92275000D03*
X168843623Y-92275000D03*
X168343624Y-92275000D03*
X167843622Y-92275000D03*
X167343623Y-92275000D03*
X166843624Y-92275000D03*
X166343622Y-92275000D03*
X165843623Y-92275000D03*
X165343622Y-92275000D03*
X164843623Y-92275000D03*
X164343624Y-92275000D03*
X163843622Y-92275000D03*
X163343623Y-92275000D03*
X162843622Y-92275000D03*
X162343623Y-92275000D03*
X161843624Y-92275000D03*
X161343622Y-92275000D03*
D57*
X159723623Y-93894999D03*
X159723623Y-94395001D03*
X159723623Y-94895000D03*
X159723623Y-95394999D03*
X159723623Y-95895000D03*
X159723623Y-96394999D03*
X159723623Y-96895001D03*
X159723623Y-97395000D03*
X159723623Y-97894999D03*
X159723623Y-98395000D03*
X159723623Y-98894999D03*
X159723623Y-99395001D03*
X159723623Y-99895000D03*
X159723623Y-100394999D03*
X159723623Y-100895001D03*
X159723623Y-101395000D03*
X159723623Y-101895001D03*
X159723623Y-102395000D03*
X159723623Y-102894999D03*
X159723623Y-103395001D03*
X159723623Y-103895000D03*
X159723623Y-104395001D03*
X159723623Y-104895000D03*
X159723623Y-105394999D03*
X159723623Y-105895001D03*
D12*
X149033623Y-97802500D03*
X149033623Y-99527500D03*
M02*
