%TF.GenerationSoftware,KiCad,Pcbnew,6.0.0-2.fc35*%
%TF.CreationDate,2022-02-25T18:53:20-08:00*%
%TF.ProjectId,Doorbell,446f6f72-6265-46c6-9c2e-6b696361645f,B*%
%TF.SameCoordinates,Original*%
%TF.FileFunction,Copper,L1,Top*%
%TF.FilePolarity,Positive*%
%FSLAX46Y46*%
G04 Gerber Fmt 4.6, Leading zero omitted, Abs format (unit mm)*
G04 Created by KiCad (PCBNEW 6.0.0-2.fc35) date 2022-02-25 18:53:20*
%MOMM*%
%LPD*%
G01*
G04 APERTURE LIST*
G04 Aperture macros list*
%AMRoundRect*
0 Rectangle with rounded corners*
0 $1 Rounding radius*
0 $2 $3 $4 $5 $6 $7 $8 $9 X,Y pos of 4 corners*
0 Add a 4 corners polygon primitive as box body*
4,1,4,$2,$3,$4,$5,$6,$7,$8,$9,$2,$3,0*
0 Add four circle primitives for the rounded corners*
1,1,$1+$1,$2,$3*
1,1,$1+$1,$4,$5*
1,1,$1+$1,$6,$7*
1,1,$1+$1,$8,$9*
0 Add four rect primitives between the rounded corners*
20,1,$1+$1,$2,$3,$4,$5,0*
20,1,$1+$1,$4,$5,$6,$7,0*
20,1,$1+$1,$6,$7,$8,$9,0*
20,1,$1+$1,$8,$9,$2,$3,0*%
%AMFreePoly0*
4,1,29,1.153536,0.528536,1.155000,0.525000,1.155000,0.125000,1.153536,0.121464,1.150000,0.120000,0.805000,0.120000,0.805000,-0.120000,1.150000,-0.120000,1.153536,-0.121464,1.155000,-0.125000,1.155000,-0.525000,1.153536,-0.528536,1.150000,-0.530000,-1.150000,-0.530000,-1.153536,-0.528536,-1.155000,-0.525000,-1.155000,-0.125000,-1.153536,-0.121464,-1.150000,-0.120000,-0.805000,-0.120000,
-0.805000,0.120000,-1.150000,0.120000,-1.153536,0.121464,-1.155000,0.125000,-1.155000,0.525000,-1.153536,0.528536,-1.150000,0.530000,1.150000,0.530000,1.153536,0.528536,1.153536,0.528536,$1*%
G04 Aperture macros list end*
%TA.AperFunction,SMDPad,CuDef*%
%ADD10RoundRect,0.250000X-0.412500X-0.650000X0.412500X-0.650000X0.412500X0.650000X-0.412500X0.650000X0*%
%TD*%
%TA.AperFunction,SMDPad,CuDef*%
%ADD11RoundRect,0.237500X-0.237500X0.300000X-0.237500X-0.300000X0.237500X-0.300000X0.237500X0.300000X0*%
%TD*%
%TA.AperFunction,SMDPad,CuDef*%
%ADD12RoundRect,0.237500X-0.300000X-0.237500X0.300000X-0.237500X0.300000X0.237500X-0.300000X0.237500X0*%
%TD*%
%TA.AperFunction,SMDPad,CuDef*%
%ADD13RoundRect,0.237500X0.237500X-0.300000X0.237500X0.300000X-0.237500X0.300000X-0.237500X-0.300000X0*%
%TD*%
%TA.AperFunction,SMDPad,CuDef*%
%ADD14R,1.400000X1.300000*%
%TD*%
%TA.AperFunction,SMDPad,CuDef*%
%ADD15R,0.800000X1.500000*%
%TD*%
%TA.AperFunction,SMDPad,CuDef*%
%ADD16R,1.000000X0.950000*%
%TD*%
%TA.AperFunction,SMDPad,CuDef*%
%ADD17R,1.300000X1.400000*%
%TD*%
%TA.AperFunction,SMDPad,CuDef*%
%ADD18R,1.400000X1.900000*%
%TD*%
%TA.AperFunction,SMDPad,CuDef*%
%ADD19R,5.003800X3.098800*%
%TD*%
%TA.AperFunction,SMDPad,CuDef*%
%ADD20R,0.300000X0.325000*%
%TD*%
%TA.AperFunction,SMDPad,CuDef*%
%ADD21R,0.613000X0.950000*%
%TD*%
%TA.AperFunction,SMDPad,CuDef*%
%ADD22RoundRect,0.150000X0.150000X-0.587500X0.150000X0.587500X-0.150000X0.587500X-0.150000X-0.587500X0*%
%TD*%
%TA.AperFunction,SMDPad,CuDef*%
%ADD23RoundRect,0.150000X0.587500X0.150000X-0.587500X0.150000X-0.587500X-0.150000X0.587500X-0.150000X0*%
%TD*%
%TA.AperFunction,SMDPad,CuDef*%
%ADD24RoundRect,0.592800X2.157200X-1.357200X2.157200X1.357200X-2.157200X1.357200X-2.157200X-1.357200X0*%
%TD*%
%TA.AperFunction,SMDPad,CuDef*%
%ADD25RoundRect,0.237500X-0.237500X0.250000X-0.237500X-0.250000X0.237500X-0.250000X0.237500X0.250000X0*%
%TD*%
%TA.AperFunction,SMDPad,CuDef*%
%ADD26RoundRect,0.237500X0.250000X0.237500X-0.250000X0.237500X-0.250000X-0.237500X0.250000X-0.237500X0*%
%TD*%
%TA.AperFunction,SMDPad,CuDef*%
%ADD27RoundRect,0.237500X0.237500X-0.250000X0.237500X0.250000X-0.237500X0.250000X-0.237500X-0.250000X0*%
%TD*%
%TA.AperFunction,SMDPad,CuDef*%
%ADD28RoundRect,0.237500X-0.250000X-0.237500X0.250000X-0.237500X0.250000X0.237500X-0.250000X0.237500X0*%
%TD*%
%TA.AperFunction,SMDPad,CuDef*%
%ADD29RoundRect,0.008100X-0.411900X-0.126900X0.411900X-0.126900X0.411900X0.126900X-0.411900X0.126900X0*%
%TD*%
%TA.AperFunction,SMDPad,CuDef*%
%ADD30RoundRect,0.008100X-0.126900X-0.411900X0.126900X-0.411900X0.126900X0.411900X-0.126900X0.411900X0*%
%TD*%
%TA.AperFunction,SMDPad,CuDef*%
%ADD31R,1.100000X1.100000*%
%TD*%
%TA.AperFunction,SMDPad,CuDef*%
%ADD32RoundRect,0.100000X-0.637500X-0.100000X0.637500X-0.100000X0.637500X0.100000X-0.637500X0.100000X0*%
%TD*%
%TA.AperFunction,SMDPad,CuDef*%
%ADD33R,1.100000X0.500000*%
%TD*%
%TA.AperFunction,SMDPad,CuDef*%
%ADD34R,2.000000X2.000000*%
%TD*%
%TA.AperFunction,ComponentPad*%
%ADD35R,1.800000X1.800000*%
%TD*%
%TA.AperFunction,ComponentPad*%
%ADD36C,1.800000*%
%TD*%
%TA.AperFunction,SMDPad,CuDef*%
%ADD37R,1.000000X1.000000*%
%TD*%
%TA.AperFunction,SMDPad,CuDef*%
%ADD38RoundRect,0.250000X-0.650000X0.412500X-0.650000X-0.412500X0.650000X-0.412500X0.650000X0.412500X0*%
%TD*%
%TA.AperFunction,SMDPad,CuDef*%
%ADD39RoundRect,0.250000X0.450000X-0.350000X0.450000X0.350000X-0.450000X0.350000X-0.450000X-0.350000X0*%
%TD*%
%TA.AperFunction,SMDPad,CuDef*%
%ADD40RoundRect,0.250000X-0.350000X-0.450000X0.350000X-0.450000X0.350000X0.450000X-0.350000X0.450000X0*%
%TD*%
%TA.AperFunction,SMDPad,CuDef*%
%ADD41FreePoly0,180.000000*%
%TD*%
%TA.AperFunction,SMDPad,CuDef*%
%ADD42R,0.500000X0.400000*%
%TD*%
%TA.AperFunction,SMDPad,CuDef*%
%ADD43R,0.920000X0.285000*%
%TD*%
%TA.AperFunction,SMDPad,CuDef*%
%ADD44R,0.355600X1.625600*%
%TD*%
%TA.AperFunction,SMDPad,CuDef*%
%ADD45R,4.089400X2.743200*%
%TD*%
%TA.AperFunction,SMDPad,CuDef*%
%ADD46RoundRect,0.250000X-0.412500X-1.100000X0.412500X-1.100000X0.412500X1.100000X-0.412500X1.100000X0*%
%TD*%
%TA.AperFunction,SMDPad,CuDef*%
%ADD47R,1.550000X0.600000*%
%TD*%
%TA.AperFunction,SMDPad,CuDef*%
%ADD48O,1.550000X0.600000*%
%TD*%
%TA.AperFunction,SMDPad,CuDef*%
%ADD49RoundRect,0.250001X0.624999X-0.462499X0.624999X0.462499X-0.624999X0.462499X-0.624999X-0.462499X0*%
%TD*%
%TA.AperFunction,ComponentPad*%
%ADD50R,2.000000X2.000000*%
%TD*%
%TA.AperFunction,ComponentPad*%
%ADD51C,2.000000*%
%TD*%
%TA.AperFunction,SMDPad,CuDef*%
%ADD52R,4.038600X3.556000*%
%TD*%
%TA.AperFunction,SMDPad,CuDef*%
%ADD53R,1.840000X0.640000*%
%TD*%
%TA.AperFunction,SMDPad,CuDef*%
%ADD54R,0.900000X0.800000*%
%TD*%
%TA.AperFunction,SMDPad,CuDef*%
%ADD55RoundRect,0.250000X0.350000X0.450000X-0.350000X0.450000X-0.350000X-0.450000X0.350000X-0.450000X0*%
%TD*%
%TA.AperFunction,SMDPad,CuDef*%
%ADD56R,0.279400X1.473200*%
%TD*%
%TA.AperFunction,SMDPad,CuDef*%
%ADD57R,1.473200X0.279400*%
%TD*%
%TA.AperFunction,SMDPad,CuDef*%
%ADD58RoundRect,0.042000X-0.633000X-0.258000X0.633000X-0.258000X0.633000X0.258000X-0.633000X0.258000X0*%
%TD*%
%TA.AperFunction,SMDPad,CuDef*%
%ADD59RoundRect,0.090000X0.210000X-0.520000X0.210000X0.520000X-0.210000X0.520000X-0.210000X-0.520000X0*%
%TD*%
%TA.AperFunction,ComponentPad*%
%ADD60R,2.600000X2.600000*%
%TD*%
%TA.AperFunction,ComponentPad*%
%ADD61C,2.600000*%
%TD*%
%TA.AperFunction,ComponentPad*%
%ADD62C,2.006600*%
%TD*%
%TA.AperFunction,ComponentPad*%
%ADD63C,2.717800*%
%TD*%
%TA.AperFunction,ComponentPad*%
%ADD64RoundRect,0.250000X0.350000X0.650000X-0.350000X0.650000X-0.350000X-0.650000X0.350000X-0.650000X0*%
%TD*%
%TA.AperFunction,ComponentPad*%
%ADD65O,1.200000X1.800000*%
%TD*%
%TA.AperFunction,ComponentPad*%
%ADD66R,1.980000X1.980000*%
%TD*%
%TA.AperFunction,ComponentPad*%
%ADD67C,1.980000*%
%TD*%
%TA.AperFunction,ComponentPad*%
%ADD68RoundRect,0.250000X-0.350000X-0.650000X0.350000X-0.650000X0.350000X0.650000X-0.350000X0.650000X0*%
%TD*%
%TA.AperFunction,ComponentPad*%
%ADD69C,4.000000*%
%TD*%
%TA.AperFunction,ComponentPad*%
%ADD70R,1.700000X1.700000*%
%TD*%
%TA.AperFunction,ComponentPad*%
%ADD71C,1.700000*%
%TD*%
%TA.AperFunction,ComponentPad*%
%ADD72C,4.200000*%
%TD*%
%TA.AperFunction,ComponentPad*%
%ADD73C,1.100000*%
%TD*%
%TA.AperFunction,ViaPad*%
%ADD74C,0.800000*%
%TD*%
%TA.AperFunction,Conductor*%
%ADD75C,0.250000*%
%TD*%
%TA.AperFunction,Conductor*%
%ADD76C,1.000000*%
%TD*%
G04 APERTURE END LIST*
D10*
X182571123Y-84295000D03*
X185696123Y-84295000D03*
D11*
X204413623Y-91932500D03*
X204413623Y-93657500D03*
X162673623Y-81290000D03*
X162673623Y-83015000D03*
X191163623Y-91980000D03*
X191163623Y-93705000D03*
X197841123Y-98982500D03*
X197841123Y-100707500D03*
D12*
X202251123Y-105135000D03*
X203976123Y-105135000D03*
D13*
X177043623Y-115390000D03*
X177043623Y-113665000D03*
D14*
X131163623Y-91605000D03*
X131163623Y-94505000D03*
D15*
X150463623Y-80755000D03*
X151563623Y-81155000D03*
X152663623Y-80755000D03*
X153763623Y-80555000D03*
X154863623Y-80755000D03*
X155963623Y-80555000D03*
X157063623Y-80755000D03*
X158163623Y-80755000D03*
D16*
X155963623Y-91840000D03*
D17*
X157353623Y-91615000D03*
X151653623Y-91615000D03*
D18*
X158953623Y-78465000D03*
X145803623Y-77465000D03*
D19*
X113353623Y-121694900D03*
X113353623Y-110595100D03*
D20*
X180763623Y-83360000D03*
X180113623Y-83360000D03*
X179463623Y-83360000D03*
D21*
X179647123Y-84285000D03*
D20*
X179463623Y-85210000D03*
X180113623Y-85210000D03*
X180763623Y-85210000D03*
D21*
X180580123Y-84285000D03*
D22*
X91743623Y-88742500D03*
X93643623Y-88742500D03*
X92693623Y-86867500D03*
D23*
X116731123Y-99185000D03*
X116731123Y-97285000D03*
X114856123Y-98235000D03*
D24*
X135373623Y-110495000D03*
X135373623Y-100495000D03*
X128853623Y-110485000D03*
X128853623Y-100485000D03*
D25*
X150123623Y-106292500D03*
X150123623Y-108117500D03*
D26*
X114766123Y-102415000D03*
X112941123Y-102415000D03*
D27*
X109223623Y-90427500D03*
X109223623Y-88602500D03*
D26*
X195253623Y-97205000D03*
X193428623Y-97205000D03*
D28*
X197428623Y-97205000D03*
X199253623Y-97205000D03*
X193428623Y-95485000D03*
X195253623Y-95485000D03*
X197428623Y-95485000D03*
X199253623Y-95485000D03*
X195021123Y-105135000D03*
X196846123Y-105135000D03*
D26*
X200406123Y-105135000D03*
X198581123Y-105135000D03*
D28*
X149369123Y-116789000D03*
X151194123Y-116789000D03*
D29*
X183078623Y-78365000D03*
X183078623Y-78865000D03*
X183078623Y-79365000D03*
X183078623Y-79865000D03*
D30*
X183763623Y-80550000D03*
X184263623Y-80550000D03*
X184763623Y-80550000D03*
X185263623Y-80550000D03*
D29*
X185948623Y-79865000D03*
X185948623Y-79365000D03*
X185948623Y-78865000D03*
X185948623Y-78365000D03*
D30*
X185263623Y-77680000D03*
X184763623Y-77680000D03*
X184263623Y-77680000D03*
X183763623Y-77680000D03*
D31*
X184513623Y-79115000D03*
D32*
X171301123Y-117100000D03*
X171301123Y-117750000D03*
X171301123Y-118400000D03*
X171301123Y-119050000D03*
X171301123Y-119700000D03*
X171301123Y-120350000D03*
X171301123Y-121000000D03*
X171301123Y-121650000D03*
X171301123Y-122300000D03*
X171301123Y-122950000D03*
X171301123Y-123600000D03*
X171301123Y-124250000D03*
X177026123Y-124250000D03*
X177026123Y-123600000D03*
X177026123Y-122950000D03*
X177026123Y-122300000D03*
X177026123Y-121650000D03*
X177026123Y-121000000D03*
X177026123Y-120350000D03*
X177026123Y-119700000D03*
X177026123Y-119050000D03*
X177026123Y-118400000D03*
X177026123Y-117750000D03*
X177026123Y-117100000D03*
D33*
X170263623Y-81290000D03*
X170263623Y-80020000D03*
X170263623Y-78750000D03*
X170263623Y-77480000D03*
X164463623Y-77480000D03*
X164463623Y-78750000D03*
X164463623Y-80020000D03*
X164463623Y-81290000D03*
D34*
X167363623Y-79385000D03*
D25*
X92103623Y-98902500D03*
X92103623Y-100727500D03*
D28*
X154077123Y-116789000D03*
X155902123Y-116789000D03*
D35*
X92703623Y-82765000D03*
D36*
X92703623Y-80225000D03*
D37*
X103183623Y-78385000D03*
X103183623Y-80885000D03*
D25*
X108773623Y-82732500D03*
X108773623Y-84557500D03*
D38*
X103093623Y-92712500D03*
X103093623Y-95837500D03*
D13*
X98663623Y-93787500D03*
X98663623Y-92062500D03*
D39*
X97883623Y-107445000D03*
X97883623Y-105445000D03*
D40*
X94443623Y-91125000D03*
X96443623Y-91125000D03*
D25*
X100203623Y-104902500D03*
X100203623Y-106727500D03*
D10*
X108751123Y-96975000D03*
X111876123Y-96975000D03*
D12*
X108621123Y-99115000D03*
X110346123Y-99115000D03*
D41*
X98273623Y-83025000D03*
D42*
X99173623Y-82050000D03*
D43*
X98273623Y-82050000D03*
D42*
X97373623Y-82050000D03*
D44*
X110363624Y-102333400D03*
X109713623Y-102333400D03*
X109063622Y-102333400D03*
X108413623Y-102333400D03*
X107763624Y-102333400D03*
X107113623Y-102333400D03*
X106463624Y-102333400D03*
X106463622Y-107616600D03*
X107113623Y-107616600D03*
X107763622Y-107616600D03*
X108413623Y-107616600D03*
X109063622Y-107616600D03*
X109713623Y-107616600D03*
X110363622Y-107616600D03*
D45*
X108413623Y-104975000D03*
D46*
X120141123Y-105935000D03*
X123266123Y-105935000D03*
X120141123Y-102475000D03*
X123266123Y-102475000D03*
X120141123Y-95555000D03*
X123266123Y-95555000D03*
X120141123Y-99015000D03*
X123266123Y-99015000D03*
D47*
X126593623Y-92270000D03*
D48*
X126593623Y-91000000D03*
X126593623Y-89730000D03*
X126593623Y-88460000D03*
X121193623Y-88460000D03*
X121193623Y-89730000D03*
X121193623Y-91000000D03*
X121193623Y-92270000D03*
D49*
X195473623Y-86162500D03*
X195473623Y-83187500D03*
X192913623Y-86142500D03*
X192913623Y-83167500D03*
D50*
X125783623Y-79765000D03*
D51*
X125783623Y-84765000D03*
D52*
X137943623Y-78585000D03*
X137943623Y-88745000D03*
D53*
X139798623Y-94170000D03*
X139798623Y-95440000D03*
X145968623Y-95440000D03*
X145968623Y-94170000D03*
X139798623Y-97930000D03*
X139798623Y-99200000D03*
X145968623Y-99200000D03*
X145968623Y-97930000D03*
D12*
X184101123Y-82155000D03*
X185826123Y-82155000D03*
D25*
X174583623Y-80192500D03*
X174583623Y-82017500D03*
D27*
X179563623Y-82017500D03*
X179563623Y-80192500D03*
D25*
X176243623Y-80192500D03*
X176243623Y-82017500D03*
X177903623Y-80192500D03*
X177903623Y-82017500D03*
D11*
X206413623Y-91932500D03*
X206413623Y-93657500D03*
D54*
X111113623Y-93435000D03*
X113113623Y-92485000D03*
X111113623Y-91535000D03*
D50*
X115203623Y-82305000D03*
D51*
X115203623Y-87305000D03*
D12*
X127111123Y-93845000D03*
X128836123Y-93845000D03*
D25*
X146603623Y-105452500D03*
X146603623Y-107277500D03*
D55*
X152723623Y-101525000D03*
X150723623Y-101525000D03*
D25*
X148403623Y-106292500D03*
X148403623Y-108117500D03*
D55*
X148763623Y-101525000D03*
X146763623Y-101525000D03*
D56*
X161343622Y-107515000D03*
X161843624Y-107515000D03*
X162343623Y-107515000D03*
X162843622Y-107515000D03*
X163343623Y-107515000D03*
X163843622Y-107515000D03*
X164343624Y-107515000D03*
X164843623Y-107515000D03*
X165343622Y-107515000D03*
X165843623Y-107515000D03*
X166343622Y-107515000D03*
X166843621Y-107515000D03*
X167343623Y-107515000D03*
X167843622Y-107515000D03*
X168343624Y-107515000D03*
X168843623Y-107515000D03*
X169343622Y-107515000D03*
X169843623Y-107515000D03*
X170343622Y-107515000D03*
X170843624Y-107515000D03*
X171343623Y-107515000D03*
X171843622Y-107515000D03*
X172343623Y-107515000D03*
X172843622Y-107515000D03*
X173343624Y-107515000D03*
D57*
X174963623Y-105895001D03*
X174963623Y-105394999D03*
X174963623Y-104895000D03*
X174963623Y-104395001D03*
X174963623Y-103895000D03*
X174963623Y-103395001D03*
X174963623Y-102894999D03*
X174963623Y-102395000D03*
X174963623Y-101895001D03*
X174963623Y-101395000D03*
X174963623Y-100895001D03*
X174963623Y-100394999D03*
X174963623Y-99895000D03*
X174963623Y-99395001D03*
X174963623Y-98894999D03*
X174963623Y-98395000D03*
X174963623Y-97894999D03*
X174963623Y-97395000D03*
X174963623Y-96895001D03*
X174963623Y-96394999D03*
X174963623Y-95895000D03*
X174963623Y-95394999D03*
X174963623Y-94895000D03*
X174963623Y-94395001D03*
X174963623Y-93894999D03*
D56*
X173343624Y-92275000D03*
X172843622Y-92275000D03*
X172343623Y-92275000D03*
X171843624Y-92275000D03*
X171343623Y-92275000D03*
X170843624Y-92275000D03*
X170343622Y-92275000D03*
X169843623Y-92275000D03*
X169343624Y-92275000D03*
X168843623Y-92275000D03*
X168343624Y-92275000D03*
X167843622Y-92275000D03*
X167343623Y-92275000D03*
X166843624Y-92275000D03*
X166343622Y-92275000D03*
X165843623Y-92275000D03*
X165343622Y-92275000D03*
X164843623Y-92275000D03*
X164343624Y-92275000D03*
X163843622Y-92275000D03*
X163343623Y-92275000D03*
X162843622Y-92275000D03*
X162343623Y-92275000D03*
X161843624Y-92275000D03*
X161343622Y-92275000D03*
D57*
X159723623Y-93894999D03*
X159723623Y-94395001D03*
X159723623Y-94895000D03*
X159723623Y-95394999D03*
X159723623Y-95895000D03*
X159723623Y-96394999D03*
X159723623Y-96895001D03*
X159723623Y-97395000D03*
X159723623Y-97894999D03*
X159723623Y-98395000D03*
X159723623Y-98894999D03*
X159723623Y-99395001D03*
X159723623Y-99895000D03*
X159723623Y-100394999D03*
X159723623Y-100895001D03*
X159723623Y-101395000D03*
X159723623Y-101895001D03*
X159723623Y-102395000D03*
X159723623Y-102894999D03*
X159723623Y-103395001D03*
X159723623Y-103895000D03*
X159723623Y-104395001D03*
X159723623Y-104895000D03*
X159723623Y-105394999D03*
X159723623Y-105895001D03*
D11*
X149033623Y-97802500D03*
X149033623Y-99527500D03*
D25*
X95813623Y-98922500D03*
X95813623Y-100747500D03*
D58*
X93978623Y-94435000D03*
X93978623Y-95385000D03*
X93978623Y-96335000D03*
X96348623Y-96335000D03*
X96348623Y-94435000D03*
D22*
X92443623Y-105692500D03*
X94343623Y-105692500D03*
X93393623Y-103817500D03*
D28*
X98351123Y-96815000D03*
X100176123Y-96815000D03*
D59*
X98403623Y-101420000D03*
X99353623Y-101420000D03*
X100303623Y-101420000D03*
X100303623Y-98930000D03*
X98403623Y-98930000D03*
D60*
X159053623Y-120375000D03*
D61*
X154053623Y-120375000D03*
X149053623Y-120375000D03*
D36*
X103203623Y-83015000D03*
X110703623Y-80715000D03*
D62*
X196683623Y-124483000D03*
X194194423Y-124483000D03*
X191705223Y-124483000D03*
D63*
X198594623Y-117483000D03*
X189794223Y-117483000D03*
D64*
X97043623Y-114795000D03*
D65*
X95043623Y-114795000D03*
D66*
X96643623Y-109965000D03*
D67*
X96643623Y-88125000D03*
D66*
X164233623Y-120795000D03*
D67*
X186073623Y-120795000D03*
D68*
X204413623Y-89535000D03*
D65*
X206413623Y-89535000D03*
D69*
X185393623Y-88280000D03*
X104393623Y-112280000D03*
X185393623Y-112280000D03*
X104393623Y-88280000D03*
D70*
X183353623Y-107900000D03*
D71*
X185893623Y-107900000D03*
X183353623Y-105360000D03*
X185893623Y-105360000D03*
X183353623Y-102820000D03*
X185893623Y-102820000D03*
X183353623Y-100280000D03*
X185893623Y-100280000D03*
X183353623Y-97740000D03*
X185893623Y-97740000D03*
X183353623Y-95200000D03*
X185893623Y-95200000D03*
X183353623Y-92660000D03*
X185893623Y-92660000D03*
D62*
X196693623Y-89315000D03*
X194204423Y-89315000D03*
X191715223Y-89315000D03*
D63*
X198604623Y-82315000D03*
X189804223Y-82315000D03*
D36*
X135543623Y-120695000D03*
X143043623Y-117995000D03*
D51*
X193253623Y-107895000D03*
X198253623Y-107895000D03*
X193253623Y-93395000D03*
X198253623Y-93395000D03*
X195753623Y-93395000D03*
D72*
X190203623Y-100895000D03*
X201303623Y-100895000D03*
D36*
X122843623Y-120695000D03*
X130343623Y-117995000D03*
D73*
X143733623Y-106305000D03*
X145003623Y-106305000D03*
X143733623Y-105035000D03*
X145003623Y-105035000D03*
X143733623Y-103765000D03*
X145003623Y-103765000D03*
X143733623Y-102495000D03*
X145003623Y-102495000D03*
X143733623Y-101225000D03*
X145003623Y-101225000D03*
D74*
X112908623Y-104975000D03*
X115018623Y-103920000D03*
X108018623Y-105500000D03*
X111853623Y-103920000D03*
X111853623Y-104975000D03*
X109073623Y-104445000D03*
X116073623Y-104975000D03*
X111853623Y-106030000D03*
X112908623Y-103920000D03*
X109073623Y-105500000D03*
X110128623Y-105500000D03*
X106963623Y-105500000D03*
X115018623Y-106030000D03*
X106963623Y-104445000D03*
X112908623Y-106030000D03*
X108018623Y-104445000D03*
X113963623Y-104975000D03*
X113963623Y-103920000D03*
X115018623Y-104975000D03*
X116073623Y-106030000D03*
X110128623Y-104445000D03*
X113963623Y-106030000D03*
X116073623Y-103920000D03*
X124653623Y-96000000D03*
X124653623Y-97055000D03*
X124653623Y-98110000D03*
X124653623Y-99165000D03*
X124653623Y-100220000D03*
X124653623Y-101275000D03*
X124653623Y-102330000D03*
X124653623Y-103385000D03*
X124653623Y-104440000D03*
X124653623Y-105495000D03*
X124653623Y-106550000D03*
X119343623Y-89830000D03*
X119343623Y-90885000D03*
X119343623Y-91940000D03*
X167888623Y-85435000D03*
X205413623Y-95095000D03*
X206468623Y-95095000D03*
X204358623Y-96150000D03*
X205413623Y-96150000D03*
X206468623Y-96150000D03*
X118298623Y-91940000D03*
X118298623Y-89830000D03*
X118298623Y-88775000D03*
X118298623Y-90885000D03*
X162523623Y-90505000D03*
X119343623Y-88775000D03*
X169853623Y-110495000D03*
X108773623Y-85875000D03*
X177573623Y-112205000D03*
X179544063Y-114675000D03*
X99813623Y-103515000D03*
X189733623Y-78605000D03*
X174573623Y-83415000D03*
X197853623Y-102175000D03*
X111713623Y-99115000D03*
X163053623Y-86395000D03*
X147773623Y-86855000D03*
X172953623Y-97805000D03*
X99353623Y-102715000D03*
X190143623Y-90985000D03*
X159183623Y-85755000D03*
X97873623Y-90085000D03*
X178203623Y-85625000D03*
X103323623Y-91245000D03*
X158233623Y-103965000D03*
X161193623Y-114855000D03*
X109753623Y-85765000D03*
X172663623Y-114835000D03*
X167353623Y-86225000D03*
X103593623Y-107125000D03*
X173383623Y-109325000D03*
X172663623Y-113905000D03*
X104263623Y-91245000D03*
X190003623Y-85435000D03*
X94763623Y-108045000D03*
X147663623Y-99155000D03*
X177303623Y-88819990D03*
X98863623Y-90005000D03*
X171768623Y-114580000D03*
X172453623Y-109325000D03*
X124653623Y-94945000D03*
X158403623Y-96885000D03*
X151653623Y-90245000D03*
X113403623Y-96045000D03*
X163713623Y-87075000D03*
X93833623Y-107995000D03*
X144863623Y-79415000D03*
X205403623Y-105105000D03*
X156413623Y-96885000D03*
X110693623Y-90175000D03*
X92503623Y-96315000D03*
X112513623Y-99585000D03*
X92583623Y-95385000D03*
X147773623Y-85925000D03*
X157353623Y-96885000D03*
X91695143Y-95875000D03*
X178855193Y-110846570D03*
X148703623Y-86845000D03*
X159873623Y-113535000D03*
X111703623Y-100045000D03*
X103513623Y-106195000D03*
X102303623Y-91245000D03*
X104953623Y-97335000D03*
X168503623Y-109215000D03*
X148703623Y-79425000D03*
X190013623Y-86365000D03*
X111623623Y-85765000D03*
X113403623Y-97905000D03*
X102743623Y-106725000D03*
X94343623Y-107215000D03*
X113403623Y-96975000D03*
X190663623Y-78625000D03*
X182867623Y-86679999D03*
X179544063Y-112785000D03*
X147663623Y-95435000D03*
X149633623Y-86855000D03*
X158233623Y-103035000D03*
X178195193Y-111506570D03*
X166833623Y-85435000D03*
X190813623Y-85885000D03*
X98873623Y-103515000D03*
X154953623Y-78465000D03*
X104953623Y-96405000D03*
X162373623Y-85745000D03*
X110693623Y-85765000D03*
X171523623Y-109325000D03*
X158233623Y-104895000D03*
X160538623Y-114200000D03*
X98303623Y-89251520D03*
X105763623Y-96855000D03*
X173663623Y-98395000D03*
X157353623Y-90385000D03*
X180763623Y-87445000D03*
X161483623Y-90515000D03*
X118023623Y-97295000D03*
X148703623Y-85915000D03*
X204358623Y-95095000D03*
X149633623Y-85925000D03*
X172913623Y-98945000D03*
X163553623Y-90505000D03*
X191603623Y-78635000D03*
X179544063Y-113735000D03*
X169223623Y-109805000D03*
X147723623Y-97075000D03*
X171053623Y-97255000D03*
X169053623Y-103865000D03*
X168593623Y-104675000D03*
X164523623Y-93905000D03*
X172123623Y-96655000D03*
X166738623Y-94330000D03*
X165593623Y-95115000D03*
X169523623Y-104675000D03*
X135203623Y-78585000D03*
X135203623Y-79640000D03*
X156143623Y-93560000D03*
X157198623Y-94615000D03*
X157198623Y-93560000D03*
X158253623Y-94615000D03*
X158253623Y-93560000D03*
X163233623Y-95620000D03*
X161123623Y-96675000D03*
X161123623Y-95620000D03*
X162178623Y-96675000D03*
X162178623Y-95620000D03*
X163233623Y-96675000D03*
X134148623Y-79640000D03*
X134148623Y-77530000D03*
X134148623Y-78585000D03*
X156143623Y-94615000D03*
X188163623Y-98575000D03*
X169633623Y-93895000D03*
X135203623Y-77530000D03*
X187644782Y-107003841D03*
X187569744Y-116718879D03*
X178517563Y-116288878D03*
X170703623Y-93895000D03*
X163233623Y-102415000D03*
X161453623Y-101845000D03*
X162353623Y-99125000D03*
X161403623Y-119125000D03*
X173343623Y-103095000D03*
X172665143Y-120195000D03*
X166873623Y-104675000D03*
X170543623Y-95015000D03*
X163593623Y-104675000D03*
X162353623Y-101845000D03*
X163233623Y-103545000D03*
X162343623Y-119165000D03*
X171983623Y-95015000D03*
X166873623Y-103695000D03*
X173333623Y-105435000D03*
X171338623Y-95660000D03*
X166873623Y-102775000D03*
X163233623Y-100015000D03*
X174381465Y-119572843D03*
X173003623Y-101885000D03*
X160763623Y-118445000D03*
X136043623Y-83515000D03*
X171743623Y-93895000D03*
X161453623Y-99125000D03*
X173613623Y-120171520D03*
X139808623Y-82785000D03*
X140863623Y-82785000D03*
X138753623Y-83840000D03*
X139808623Y-83840000D03*
X140863623Y-83840000D03*
X182158623Y-81475000D03*
X181103623Y-82530000D03*
X182158623Y-82530000D03*
X110363623Y-119185000D03*
X138753623Y-82785000D03*
X111033623Y-114485000D03*
X110363623Y-113775000D03*
X181103623Y-81475000D03*
X177903623Y-79145000D03*
X114173623Y-114485000D03*
X177523623Y-104885000D03*
X178830169Y-102665000D03*
X182865326Y-90155999D03*
X188297624Y-89090325D03*
X177259657Y-106131034D03*
X179503623Y-101965000D03*
X203853623Y-123215000D03*
X154584092Y-103555000D03*
X166087565Y-123611212D03*
X156263612Y-105255000D03*
X108773623Y-80915000D03*
X104883623Y-80915000D03*
X124690623Y-83332000D03*
X109676623Y-83625000D03*
X184813623Y-119525000D03*
X195029683Y-118521145D03*
X187200612Y-106066969D03*
X181479575Y-104584008D03*
X181483623Y-96255000D03*
X196323890Y-117175197D03*
X182962328Y-119585896D03*
X179463623Y-108075000D03*
X178788671Y-108710048D03*
X179463623Y-109355000D03*
X192413962Y-118229167D03*
X181070851Y-119602227D03*
X180557946Y-96215887D03*
X180536562Y-104605659D03*
X191407646Y-118458500D03*
X180103376Y-119648341D03*
X196963612Y-116505000D03*
X182036240Y-119558200D03*
X195673623Y-117855000D03*
X183888818Y-119581049D03*
X184570118Y-102175877D03*
X95593623Y-84450000D03*
X96648623Y-85505000D03*
X96648623Y-84450000D03*
X98758623Y-84450000D03*
X95593623Y-85505000D03*
X97703623Y-85505000D03*
X95593623Y-83395000D03*
X98758623Y-85505000D03*
X97703623Y-84450000D03*
X148433623Y-104905000D03*
X156127223Y-99678520D03*
X156815143Y-99026520D03*
X147113623Y-104085000D03*
X155665623Y-98289010D03*
X165965435Y-83645000D03*
X152772942Y-84845681D03*
X154199735Y-83458142D03*
X164064223Y-83394688D03*
X154853623Y-82225000D03*
X165302475Y-82017300D03*
X152663623Y-82305000D03*
X164662424Y-82687183D03*
X151543623Y-82695000D03*
X163400123Y-84040736D03*
X92473623Y-103325000D03*
X108343572Y-100844949D03*
X97693623Y-103315000D03*
X105761469Y-100852840D03*
X96353623Y-95461500D03*
X91753623Y-90855000D03*
X173993623Y-77175000D03*
X132940623Y-83332000D03*
X127133623Y-83332000D03*
X151597878Y-79492000D03*
X149773623Y-83105000D03*
X114283623Y-80777998D03*
X176633623Y-103885000D03*
X178830669Y-95085000D03*
X161344134Y-82316500D03*
X152723623Y-103145000D03*
X157783623Y-106185000D03*
X176055623Y-86109970D03*
X171103191Y-86818004D03*
X167014398Y-123593554D03*
X205419304Y-122570681D03*
X152653623Y-116385000D03*
X178517563Y-117215381D03*
X175686222Y-119717230D03*
X160103623Y-117041980D03*
X170045247Y-118042624D03*
X166851949Y-117996674D03*
X177433623Y-86761970D03*
X171106614Y-87745000D03*
X178543669Y-88823348D03*
X181943623Y-78855000D03*
X182215623Y-87697001D03*
X171691623Y-90757669D03*
X171040816Y-90097531D03*
X170460446Y-89328278D03*
X187526243Y-76823980D03*
X167941395Y-123596677D03*
X209083623Y-121915000D03*
X181972577Y-77928450D03*
X208394260Y-121267670D03*
X168877096Y-123601535D03*
X207918603Y-120461712D03*
X169803623Y-123571875D03*
X153932592Y-102425000D03*
X156263623Y-103195000D03*
X157746177Y-99047000D03*
X151613623Y-98665000D03*
X163253623Y-79768000D03*
X172562864Y-78960210D03*
X172592219Y-78033673D03*
X163243623Y-78635000D03*
X174265005Y-84805000D03*
X171483624Y-83055000D03*
D75*
X109713623Y-107616600D02*
X109713623Y-106275000D01*
X109713623Y-106275000D02*
X108413623Y-104975000D01*
X108413623Y-102333400D02*
X108413623Y-104975000D01*
D76*
X171523623Y-109325000D02*
X172453623Y-109325000D01*
X172023623Y-114835000D02*
X171768623Y-114580000D01*
X159190624Y-78702001D02*
X159190624Y-85747999D01*
X156413623Y-96885000D02*
X157353623Y-96885000D01*
D75*
X180417642Y-87790981D02*
X180763623Y-87445000D01*
D76*
X99353623Y-101420000D02*
X99353623Y-102715000D01*
X112043623Y-99115000D02*
X112513623Y-99585000D01*
X92063623Y-95875000D02*
X92503623Y-96315000D01*
X103323623Y-91245000D02*
X104263623Y-91245000D01*
X173073623Y-97805000D02*
X173663623Y-98395000D01*
X165128819Y-123118251D02*
X165850134Y-122396936D01*
X190363623Y-85435000D02*
X190813623Y-85885000D01*
X128836123Y-93845000D02*
X128836123Y-94320000D01*
X170263623Y-77480000D02*
X169268623Y-77480000D01*
X171103624Y-108925001D02*
X171095632Y-108917009D01*
X105283623Y-97335000D02*
X105763623Y-96855000D01*
X165060564Y-123118251D02*
X165128819Y-123118251D01*
X167888623Y-85435000D02*
X167888623Y-85690000D01*
D75*
X145968623Y-99200000D02*
X147618623Y-99200000D01*
D76*
X171351217Y-125076520D02*
X170912910Y-124638213D01*
X104953623Y-96405000D02*
X105313623Y-96405000D01*
X172663623Y-114835000D02*
X172023623Y-114835000D01*
X147783623Y-85915000D02*
X147773623Y-85925000D01*
X98663623Y-92062500D02*
X99481123Y-91245000D01*
X93833623Y-107725000D02*
X94343623Y-107215000D01*
D75*
X147618623Y-99200000D02*
X147663623Y-99155000D01*
D76*
X166833623Y-85705000D02*
X167353623Y-86225000D01*
D75*
X203976123Y-105135000D02*
X205373623Y-105135000D01*
X174583623Y-83405000D02*
X174573623Y-83415000D01*
D76*
X149633623Y-86855000D02*
X148713623Y-86855000D01*
X102741123Y-106727500D02*
X102743623Y-106725000D01*
D75*
X147658623Y-95440000D02*
X147663623Y-95435000D01*
D76*
X144863623Y-78405000D02*
X145803623Y-77465000D01*
D75*
X205373623Y-105135000D02*
X205403623Y-105105000D01*
D76*
X157353623Y-91615000D02*
X157353623Y-90385000D01*
X99353623Y-102715000D02*
X99353623Y-103055000D01*
X102743623Y-106725000D02*
X103193623Y-106725000D01*
X168503623Y-109215000D02*
X168888949Y-109215000D01*
X128613623Y-97055000D02*
X131163623Y-94505000D01*
X92503623Y-96315000D02*
X92503623Y-95465000D01*
X148703623Y-79425000D02*
X148703623Y-85915000D01*
D75*
X108773623Y-84557500D02*
X108773623Y-85875000D01*
D76*
X125053622Y-95344999D02*
X124653623Y-94945000D01*
X98863623Y-90005000D02*
X98863623Y-89811520D01*
X94763623Y-107635000D02*
X94343623Y-107215000D01*
X172665633Y-117501140D02*
X172665633Y-114837010D01*
X99353623Y-102715000D02*
X99353623Y-103035000D01*
X110693623Y-85765000D02*
X111623623Y-85765000D01*
X159723623Y-96895001D02*
X158413624Y-96895001D01*
X170912910Y-124638213D02*
X165594604Y-124638213D01*
D75*
X149033623Y-97802500D02*
X148451123Y-97802500D01*
D76*
X159723623Y-96895001D02*
X159723623Y-97128298D01*
X162523623Y-90505000D02*
X161493623Y-90505000D01*
D75*
X100303623Y-98930000D02*
X99353623Y-99880000D01*
D76*
X160538623Y-114200000D02*
X159873623Y-113535000D01*
X110693623Y-85765000D02*
X109753623Y-85765000D01*
X178195193Y-111506570D02*
X178855193Y-110846570D01*
X188391257Y-85435000D02*
X190003623Y-85435000D01*
X172913623Y-98945000D02*
X174913622Y-98945000D01*
X147773623Y-86855000D02*
X148693623Y-86855000D01*
X98783623Y-90085000D02*
X98863623Y-90005000D01*
X191593623Y-78625000D02*
X191603623Y-78635000D01*
X190643623Y-78605000D02*
X190663623Y-78625000D01*
X104953623Y-96405000D02*
X104953623Y-97335000D01*
D75*
X174583623Y-82017500D02*
X174583623Y-83405000D01*
D76*
X168888949Y-109215000D02*
X169092103Y-109011846D01*
X155533623Y-78465000D02*
X154953623Y-78465000D01*
X163553623Y-90505000D02*
X162523623Y-90505000D01*
X111713623Y-100035000D02*
X111703623Y-100045000D01*
D75*
X197841123Y-100707500D02*
X197841123Y-102162500D01*
D76*
X91695143Y-95875000D02*
X92063623Y-95875000D01*
D75*
X180763623Y-87445000D02*
X181528624Y-86679999D01*
X177303623Y-88819990D02*
X178332632Y-87790981D01*
D76*
X110703623Y-85755000D02*
X110693623Y-85765000D01*
X98863623Y-89811520D02*
X98303623Y-89251520D01*
X179544063Y-117690987D02*
X179544063Y-114675000D01*
X93833623Y-107995000D02*
X94713623Y-107995000D01*
D75*
X185948623Y-78865000D02*
X184763623Y-78865000D01*
D76*
X159723623Y-96695000D02*
X159723623Y-96661701D01*
X96833623Y-91125000D02*
X97873623Y-90085000D01*
D75*
X148451123Y-97802500D02*
X147723623Y-97075000D01*
D76*
X185696123Y-84295000D02*
X187251257Y-84295000D01*
X111713623Y-99115000D02*
X111713623Y-100035000D01*
D75*
X111113623Y-91535000D02*
X111113623Y-90595000D01*
D76*
X158413624Y-96895001D02*
X158403623Y-96885000D01*
X162673623Y-83015000D02*
X162373623Y-83315000D01*
X93978623Y-95385000D02*
X92583623Y-95385000D01*
X148703623Y-85915000D02*
X148703623Y-86845000D01*
D75*
X197841123Y-102162500D02*
X197853623Y-102175000D01*
D76*
X102743623Y-106725000D02*
X102983623Y-106725000D01*
X97873623Y-89681520D02*
X98303623Y-89251520D01*
D75*
X118013623Y-97285000D02*
X118023623Y-97295000D01*
D76*
X111713623Y-99115000D02*
X112043623Y-99115000D01*
X92503623Y-95465000D02*
X92583623Y-95385000D01*
D75*
X145968623Y-95440000D02*
X147658623Y-95440000D01*
X178332632Y-87790981D02*
X180417642Y-87790981D01*
D76*
X185826123Y-82155000D02*
X185826123Y-84165000D01*
D75*
X116793623Y-97285000D02*
X118013623Y-97285000D01*
D76*
X104386123Y-95837500D02*
X104953623Y-96405000D01*
X155963623Y-80555000D02*
X155963623Y-78895000D01*
D75*
X181528624Y-86679999D02*
X182867623Y-86679999D01*
D76*
X177573623Y-112205000D02*
X177573623Y-112128140D01*
X113403623Y-96975000D02*
X113403623Y-97905000D01*
X102303623Y-91245000D02*
X103323623Y-91245000D01*
X161493623Y-90505000D02*
X161483623Y-90515000D01*
X100203623Y-106727500D02*
X102741123Y-106727500D01*
X172663623Y-114835000D02*
X172663623Y-113905000D01*
X103593623Y-106275000D02*
X103513623Y-106195000D01*
X165850134Y-122396936D02*
X165850134Y-119511511D01*
D75*
X191138623Y-91980000D02*
X190143623Y-90985000D01*
D76*
X103093623Y-95837500D02*
X104386123Y-95837500D01*
X169093623Y-109805000D02*
X168503623Y-109215000D01*
X104953623Y-97335000D02*
X105283623Y-97335000D01*
X110346123Y-99115000D02*
X111713623Y-99115000D01*
X163553623Y-90505000D02*
X163553623Y-91095000D01*
D75*
X169343622Y-107515000D02*
X169343622Y-108375001D01*
D76*
X172953623Y-97805000D02*
X174873624Y-97805000D01*
X97873623Y-90085000D02*
X97873623Y-89681520D01*
X148703623Y-85915000D02*
X149623623Y-85915000D01*
X169268623Y-77480000D02*
X167363623Y-79385000D01*
X94713623Y-107995000D02*
X94763623Y-108045000D01*
X174873624Y-97805000D02*
X174963623Y-97894999D01*
X190013623Y-86365000D02*
X190333623Y-86365000D01*
D75*
X184263623Y-78865000D02*
X184513623Y-79115000D01*
D76*
X148703623Y-85915000D02*
X147783623Y-85915000D01*
X159723623Y-96895001D02*
X159723623Y-96695000D01*
X94343623Y-107215000D02*
X94343623Y-107485000D01*
X158953623Y-78465000D02*
X155533623Y-78465000D01*
D75*
X170843624Y-107515000D02*
X170843624Y-108645001D01*
D76*
X171523623Y-109325000D02*
X171123624Y-108925001D01*
X177573623Y-112128140D02*
X178195193Y-111506570D01*
X177043623Y-113665000D02*
X177043623Y-112735000D01*
X172953623Y-97805000D02*
X172953623Y-98905000D01*
D75*
X191163623Y-91980000D02*
X191138623Y-91980000D01*
D76*
X172953623Y-98905000D02*
X172913623Y-98945000D01*
X172953623Y-97805000D02*
X173073623Y-97805000D01*
X148693623Y-86855000D02*
X148703623Y-86845000D01*
X172665633Y-114837010D02*
X172663623Y-114835000D01*
X169223623Y-109865000D02*
X169853623Y-110495000D01*
X191111703Y-125076520D02*
X171351217Y-125076520D01*
X92583623Y-95385000D02*
X92185143Y-95385000D01*
X172443623Y-113905000D02*
X171768623Y-114580000D01*
X157353623Y-96885000D02*
X158403623Y-96885000D01*
X97873623Y-90085000D02*
X98783623Y-90085000D01*
X111876123Y-96975000D02*
X113403623Y-96975000D01*
X190003623Y-85435000D02*
X190003623Y-86355000D01*
D75*
X179463623Y-85210000D02*
X178618623Y-85210000D01*
X184263623Y-77680000D02*
X184263623Y-78865000D01*
X111113623Y-90595000D02*
X110693623Y-90175000D01*
D76*
X105313623Y-96405000D02*
X105763623Y-96855000D01*
X172665633Y-117501140D02*
X172239763Y-117927010D01*
X190663623Y-78625000D02*
X191593623Y-78625000D01*
X111703623Y-100045000D02*
X112053623Y-100045000D01*
X189733623Y-78605000D02*
X190643623Y-78605000D01*
X102983623Y-106725000D02*
X103513623Y-106195000D01*
X171123624Y-108925001D02*
X171103624Y-108925001D01*
D75*
X170843624Y-108645001D02*
X171523623Y-109325000D01*
D76*
X96443623Y-91125000D02*
X96833623Y-91125000D01*
X169092103Y-109673480D02*
X169092103Y-109011846D01*
X172663623Y-113905000D02*
X172443623Y-113905000D01*
X172913623Y-98945000D02*
X173113623Y-98945000D01*
X103593623Y-107125000D02*
X103593623Y-106275000D01*
X165594604Y-124638213D02*
X165060564Y-124104173D01*
X165850134Y-119511511D02*
X161193623Y-114855000D01*
X163053623Y-86395000D02*
X163053623Y-86415000D01*
D75*
X184763623Y-78865000D02*
X184513623Y-79115000D01*
D76*
X177043623Y-112735000D02*
X177573623Y-112205000D01*
X158953623Y-78465000D02*
X159190624Y-78702001D01*
X172453623Y-109325000D02*
X173383623Y-109325000D01*
X166833623Y-85435000D02*
X166833623Y-85705000D01*
X127811124Y-95344999D02*
X125053622Y-95344999D01*
D75*
X158873623Y-102395000D02*
X158233623Y-103035000D01*
X178618623Y-85210000D02*
X178203623Y-85625000D01*
D76*
X190003623Y-86355000D02*
X190013623Y-86365000D01*
X179544063Y-114675000D02*
X179544063Y-113735000D01*
X94763623Y-108045000D02*
X94763623Y-107635000D01*
X92185143Y-95385000D02*
X91695143Y-95875000D01*
X167888623Y-85690000D02*
X167353623Y-86225000D01*
X113403623Y-96975000D02*
X113403623Y-96045000D01*
X191705223Y-124483000D02*
X191111703Y-125076520D01*
X98873623Y-103515000D02*
X99813623Y-103515000D01*
X93833623Y-107995000D02*
X93833623Y-107725000D01*
X149633623Y-85925000D02*
X149633623Y-86855000D01*
D75*
X184263623Y-79365000D02*
X184513623Y-79115000D01*
D76*
X179500090Y-117690987D02*
X178290134Y-118900943D01*
X163053623Y-86415000D02*
X163713623Y-87075000D01*
X99481123Y-91245000D02*
X102303623Y-91245000D01*
X162403623Y-85745000D02*
X163053623Y-86395000D01*
X158233623Y-103965000D02*
X158233623Y-104895000D01*
X99353623Y-103035000D02*
X98873623Y-103515000D01*
X158233623Y-103035000D02*
X158233623Y-102825000D01*
X190003623Y-85435000D02*
X190363623Y-85435000D01*
X165060564Y-124104173D02*
X165060564Y-123118251D01*
X103193623Y-106725000D02*
X103593623Y-107125000D01*
X185826123Y-84165000D02*
X185696123Y-84295000D01*
X159190624Y-85747999D02*
X159183623Y-85755000D01*
X128836123Y-94320000D02*
X127811124Y-95344999D01*
D75*
X99353623Y-99880000D02*
X99353623Y-101420000D01*
D76*
X173663623Y-98395000D02*
X174963623Y-98395000D01*
X144863623Y-79415000D02*
X144863623Y-78405000D01*
X151653623Y-91615000D02*
X151653623Y-90245000D01*
X148713623Y-86855000D02*
X148703623Y-86845000D01*
X110703623Y-80115000D02*
X110703623Y-85755000D01*
X162373623Y-83315000D02*
X162373623Y-85745000D01*
X179544063Y-117690987D02*
X179500090Y-117690987D01*
X147773623Y-85925000D02*
X147773623Y-86855000D01*
X149623623Y-85915000D02*
X149633623Y-85925000D01*
X124653623Y-97055000D02*
X128613623Y-97055000D01*
X94343623Y-105692500D02*
X94343623Y-107215000D01*
X158233623Y-103035000D02*
X158233623Y-103965000D01*
D75*
X183078623Y-79365000D02*
X184263623Y-79365000D01*
D76*
X187251257Y-84295000D02*
X188391257Y-85435000D01*
X112053623Y-100045000D02*
X112513623Y-99585000D01*
X99353623Y-103055000D02*
X99813623Y-103515000D01*
D75*
X159723623Y-102395000D02*
X158873623Y-102395000D01*
D76*
X174913622Y-98945000D02*
X174963623Y-98894999D01*
X161193623Y-114855000D02*
X160538623Y-114200000D01*
X190333623Y-86365000D02*
X190813623Y-85885000D01*
X187103623Y-78605000D02*
X189733623Y-78605000D01*
X162373623Y-85745000D02*
X162403623Y-85745000D01*
X155963623Y-78895000D02*
X155533623Y-78465000D01*
X173113623Y-98945000D02*
X173663623Y-98395000D01*
X179544063Y-113735000D02*
X179544063Y-112785000D01*
D75*
X180763623Y-84468500D02*
X180580123Y-84285000D01*
X180763623Y-85210000D02*
X180763623Y-84468500D01*
D76*
X184101123Y-82765000D02*
X182571123Y-84295000D01*
D75*
X180580123Y-84285000D02*
X180933623Y-84285000D01*
D76*
X182571123Y-84295000D02*
X180943623Y-84295000D01*
X184101123Y-82155000D02*
X184101123Y-82765000D01*
D75*
X180933623Y-84285000D02*
X180943623Y-84295000D01*
D76*
X165593623Y-93529903D02*
X165593623Y-93165000D01*
X165593623Y-95115000D02*
X165593623Y-94975000D01*
X164523623Y-93905000D02*
X165218526Y-93905000D01*
X165593623Y-95115000D02*
X165953623Y-95115000D01*
X165593623Y-95115000D02*
X165593623Y-93529903D01*
X169523623Y-104675000D02*
X168593623Y-104675000D01*
X164523623Y-93905000D02*
X166313623Y-93905000D01*
D75*
X168593622Y-106260098D02*
X168593622Y-107544999D01*
D76*
X165593623Y-94975000D02*
X164523623Y-93905000D01*
X168593623Y-104325000D02*
X169053623Y-103865000D01*
X166313623Y-93905000D02*
X166738623Y-94330000D01*
X172123623Y-96655000D02*
X173993623Y-96655000D01*
X168593623Y-104675000D02*
X168593622Y-106260098D01*
X171409604Y-97369019D02*
X171053623Y-97369019D01*
X169523623Y-104335000D02*
X169053623Y-103865000D01*
X169523623Y-104675000D02*
X169523623Y-104335000D01*
X165218526Y-93905000D02*
X165593623Y-93529903D01*
X172123623Y-96655000D02*
X171409604Y-97369019D01*
X168593623Y-104675000D02*
X168593623Y-104325000D01*
X165953623Y-95115000D02*
X166738623Y-94330000D01*
X201813623Y-84625000D02*
X194431123Y-84625000D01*
X206413623Y-89535000D02*
X206413623Y-89225000D01*
X206413623Y-89225000D02*
X201813623Y-84625000D01*
X194431123Y-84625000D02*
X192913623Y-86142500D01*
X206413623Y-89535000D02*
X206413623Y-91932500D01*
X202905111Y-89535000D02*
X204413623Y-89535000D01*
X199532611Y-86162500D02*
X202905111Y-89535000D01*
X195473623Y-86162500D02*
X199532611Y-86162500D01*
X204413623Y-89535000D02*
X204413623Y-91932500D01*
X169773623Y-95015000D02*
X169633623Y-95155000D01*
X160317634Y-77050409D02*
X160317634Y-81440989D01*
X163233623Y-104315000D02*
X163593623Y-104675000D01*
X177043623Y-115390000D02*
X176088623Y-115390000D01*
X176088623Y-115390000D02*
X175366663Y-116111960D01*
X143733623Y-106305000D02*
X142843623Y-106305000D01*
X160317634Y-81440989D02*
X160317634Y-82819011D01*
X163203623Y-101845000D02*
X163233623Y-101875000D01*
X162673623Y-81290000D02*
X160468623Y-81290000D01*
X173613623Y-120171520D02*
X172688623Y-120171520D01*
X153763623Y-77225000D02*
X154113623Y-76875000D01*
X174659711Y-119294597D02*
X174381465Y-119572843D01*
D75*
X129828623Y-89730000D02*
X136043623Y-83515000D01*
D76*
X146603623Y-107277500D02*
X147563623Y-107277500D01*
X173600022Y-100425000D02*
X173863320Y-100161702D01*
X163233623Y-103545000D02*
X163233623Y-104315000D01*
X169633623Y-95155000D02*
X169633623Y-96075000D01*
X161403623Y-119125000D02*
X160763623Y-118485000D01*
X171338623Y-95660000D02*
X171983623Y-95015000D01*
X174381465Y-119572843D02*
X173782788Y-120171520D01*
X161453623Y-99125000D02*
X161453623Y-100175000D01*
D75*
X149369123Y-116789000D02*
X149369123Y-118280500D01*
D76*
X150123623Y-108117500D02*
X148403623Y-108117500D01*
X144869235Y-81177990D02*
X149172225Y-76875000D01*
X163233623Y-100015000D02*
X163233623Y-101875000D01*
D75*
X163233623Y-95620000D02*
X163233623Y-96145000D01*
D76*
X173782788Y-120171520D02*
X173613623Y-120171520D01*
X171338623Y-95660000D02*
X171188623Y-95660000D01*
D75*
X177043623Y-115390000D02*
X177618685Y-115390000D01*
D76*
X162353623Y-101845000D02*
X163203623Y-101845000D01*
D75*
X154077123Y-118088500D02*
X154437112Y-118448489D01*
D76*
X171983623Y-95015000D02*
X170543623Y-95015000D01*
X163233623Y-96675000D02*
X163233623Y-99085000D01*
X174659711Y-119292034D02*
X174659711Y-119294597D01*
X163233623Y-101875000D02*
X163233623Y-102415000D01*
X163193623Y-99125000D02*
X163233623Y-99085000D01*
X142472634Y-106675989D02*
X142472634Y-108195989D01*
X169633623Y-96075000D02*
X169800633Y-96242010D01*
X170048623Y-95660000D02*
X169633623Y-96075000D01*
X142472634Y-108195989D02*
X142472634Y-113304011D01*
X166873623Y-96279020D02*
X166836613Y-96242010D01*
D75*
X174963623Y-100394999D02*
X174963623Y-99895000D01*
D76*
X171188623Y-95660000D02*
X170543623Y-95015000D01*
X152650134Y-118448489D02*
X154437112Y-118448489D01*
X166873623Y-104675000D02*
X166873623Y-103695000D01*
X129196613Y-81177990D02*
X142736613Y-81177990D01*
X173343623Y-103095000D02*
X173343623Y-104145000D01*
X154437112Y-118448489D02*
X156857112Y-118448489D01*
X170333623Y-101885000D02*
X169633623Y-101185000D01*
D75*
X187645134Y-116643489D02*
X187645134Y-107004193D01*
D76*
X146603623Y-107277500D02*
X145685134Y-108195989D01*
X164463623Y-81290000D02*
X162673623Y-81290000D01*
D75*
X177618685Y-115390000D02*
X178517563Y-116288878D01*
D76*
X169633623Y-101185000D02*
X169633623Y-96075000D01*
X149537112Y-118448489D02*
X152650134Y-118448489D01*
X166836613Y-96242010D02*
X169800633Y-96242010D01*
X172688623Y-120171520D02*
X172665143Y-120195000D01*
X127783623Y-79765000D02*
X129196613Y-81177990D01*
X169800633Y-96242010D02*
X170756613Y-96242010D01*
X163233623Y-102415000D02*
X163233623Y-103545000D01*
X142843623Y-106305000D02*
X142472634Y-106675989D01*
X166873623Y-104675000D02*
X166873623Y-105585000D01*
D75*
X188195134Y-98543489D02*
X188163623Y-98575000D01*
D76*
X171338623Y-95660000D02*
X170048623Y-95660000D01*
X149172225Y-76875000D02*
X154113623Y-76875000D01*
X169633623Y-93895000D02*
X169633623Y-95155000D01*
X125783623Y-79765000D02*
X127783623Y-79765000D01*
X147563623Y-107277500D02*
X148403623Y-108117500D01*
X145685134Y-108195989D02*
X142472634Y-108195989D01*
D75*
X126593623Y-89730000D02*
X129828623Y-89730000D01*
X187569744Y-116718879D02*
X187645134Y-116643489D01*
D76*
X170756613Y-96242010D02*
X171338623Y-95660000D01*
X169633623Y-93895000D02*
X171743623Y-93895000D01*
D75*
X191177652Y-98543489D02*
X188195134Y-98543489D01*
D76*
X174918673Y-116559950D02*
X174918673Y-119033072D01*
X162303623Y-119125000D02*
X162343623Y-119165000D01*
X163233623Y-96145000D02*
X163330633Y-96242010D01*
X161453623Y-101845000D02*
X162353623Y-101845000D01*
X156857112Y-118448489D02*
X159603623Y-118448489D01*
X159603623Y-118448489D02*
X160760134Y-118448489D01*
X173343623Y-103095000D02*
X173343623Y-102225000D01*
X154113623Y-76875000D02*
X160142225Y-76875000D01*
X175366663Y-116111960D02*
X174918673Y-116559950D01*
X142472634Y-113304011D02*
X147617112Y-118448489D01*
X163593623Y-104675000D02*
X163593623Y-105625000D01*
D75*
X191177652Y-98543489D02*
X195021123Y-102386960D01*
D76*
X153763623Y-80555000D02*
X153763623Y-77225000D01*
X160142225Y-76875000D02*
X160317634Y-77050409D01*
X161453623Y-99125000D02*
X162353623Y-99125000D01*
X142736613Y-81177990D02*
X144869235Y-81177990D01*
X142472634Y-81441969D02*
X142472634Y-106675989D01*
X161453623Y-101845000D02*
X161453623Y-102945000D01*
X166873623Y-103695000D02*
X166873623Y-102775000D01*
X160468623Y-81290000D02*
X160317634Y-81440989D01*
X173003623Y-101885000D02*
X170333623Y-101885000D01*
X172363622Y-95394999D02*
X174963623Y-95394999D01*
X147617112Y-118448489D02*
X149537112Y-118448489D01*
X163330633Y-96242010D02*
X166836613Y-96242010D01*
X173333623Y-104155000D02*
X173343623Y-104145000D01*
X174918673Y-119033072D02*
X174659711Y-119292034D01*
X173343623Y-100681399D02*
X173600022Y-100425000D01*
X170543623Y-95015000D02*
X169773623Y-95015000D01*
X173003623Y-101885000D02*
X173003623Y-101021399D01*
X161403623Y-119125000D02*
X162303623Y-119125000D01*
D75*
X195021123Y-102386960D02*
X195021123Y-105135000D01*
D76*
X162353623Y-99125000D02*
X163193623Y-99125000D01*
X166873623Y-102775000D02*
X166873623Y-96279020D01*
X163233623Y-99085000D02*
X163233623Y-100015000D01*
D75*
X154077123Y-116789000D02*
X154077123Y-118088500D01*
X163233623Y-96145000D02*
X163233623Y-96675000D01*
X187645134Y-107004193D02*
X187644782Y-107003841D01*
D76*
X173003623Y-101021399D02*
X173600022Y-100425000D01*
X142736613Y-81177990D02*
X142472634Y-81441969D01*
X160317634Y-91495989D02*
X158253623Y-93560000D01*
X160760134Y-118448489D02*
X160763623Y-118445000D01*
X173343623Y-103095000D02*
X173343623Y-100681399D01*
X160317634Y-82819011D02*
X160317634Y-91495989D01*
X160763623Y-118485000D02*
X160763623Y-118445000D01*
X173343623Y-102225000D02*
X173003623Y-101885000D01*
X173333623Y-105435000D02*
X173333623Y-104155000D01*
X171983623Y-95015000D02*
X172363622Y-95394999D01*
D75*
X149369123Y-118280500D02*
X149537112Y-118448489D01*
X148763623Y-101525000D02*
X148763623Y-99797500D01*
X150723623Y-103225000D02*
X150723623Y-101525000D01*
X148763623Y-101525000D02*
X150723623Y-101525000D01*
X148763623Y-99797500D02*
X149033623Y-99527500D01*
X150123623Y-103825000D02*
X150723623Y-103225000D01*
X150123623Y-106292500D02*
X150123623Y-103825000D01*
D76*
X97043623Y-114795000D02*
X97043623Y-110365000D01*
X97043623Y-110365000D02*
X96643623Y-109965000D01*
D75*
X92693623Y-86867500D02*
X92703623Y-86857500D01*
X92703623Y-86857500D02*
X92703623Y-82765000D01*
D76*
X120141123Y-102475000D02*
X120141123Y-105935000D01*
X120141123Y-95555000D02*
X120141123Y-99015000D01*
X120141123Y-99015000D02*
X120141123Y-102475000D01*
D75*
X114766123Y-102415000D02*
X116153623Y-102415000D01*
X109703623Y-114515000D02*
X111003623Y-114515000D01*
X111003623Y-114515000D02*
X111033623Y-114485000D01*
D76*
X113576132Y-83932491D02*
X113576132Y-89653201D01*
D75*
X114173623Y-114485000D02*
X119083623Y-109575000D01*
D76*
X120141123Y-114907400D02*
X113353623Y-121694900D01*
X127111123Y-92787500D02*
X126593623Y-92270000D01*
X117467931Y-93545000D02*
X119223623Y-93545000D01*
X125833623Y-93845000D02*
X123243623Y-91255000D01*
D75*
X119083623Y-96612500D02*
X120141123Y-95555000D01*
D76*
X115203623Y-82305000D02*
X113576132Y-83932491D01*
X123243623Y-82305000D02*
X133253623Y-82305000D01*
X137493623Y-83315000D02*
X138653623Y-83315000D01*
X123243623Y-91255000D02*
X123243623Y-82305000D01*
D75*
X118675624Y-99892999D02*
X118675624Y-96102999D01*
D76*
X120141123Y-94462500D02*
X120141123Y-95555000D01*
D75*
X110363623Y-119185000D02*
X112873523Y-121694900D01*
D76*
X113576132Y-89653201D02*
X117467931Y-93545000D01*
D75*
X181103623Y-83020000D02*
X180763623Y-83360000D01*
D76*
X120141123Y-105935000D02*
X120141123Y-114907400D01*
D75*
X177903623Y-80192500D02*
X177903623Y-79145000D01*
D76*
X115203623Y-82305000D02*
X123243623Y-82305000D01*
X127111123Y-93845000D02*
X127111123Y-92787500D01*
X119223623Y-93545000D02*
X120141123Y-94462500D01*
D75*
X116153623Y-102415000D02*
X118675624Y-99892999D01*
D76*
X136483623Y-82305000D02*
X137493623Y-83315000D01*
D75*
X110363623Y-108679401D02*
X110363623Y-113775000D01*
X118675624Y-96102999D02*
X119223623Y-95555000D01*
D76*
X127111123Y-93845000D02*
X125833623Y-93845000D01*
X133253623Y-82305000D02*
X136483623Y-82305000D01*
D75*
X119223623Y-95555000D02*
X120141123Y-95555000D01*
X119083623Y-109575000D02*
X119083623Y-96612500D01*
X110363622Y-107616600D02*
X110363623Y-108679401D01*
X109063622Y-113874999D02*
X109703623Y-114515000D01*
X181103623Y-82530000D02*
X181103623Y-83020000D01*
X109063622Y-107616600D02*
X109063622Y-113874999D01*
X112873523Y-121694900D02*
X113353623Y-121694900D01*
X193428623Y-95485000D02*
X191663623Y-95485000D01*
X171158659Y-110105000D02*
X173667125Y-110105000D01*
X173667125Y-110105000D02*
X176607656Y-107164469D01*
X179675584Y-95161462D02*
X179675584Y-93345741D01*
X189396795Y-93705000D02*
X188534643Y-92842848D01*
X191163623Y-94985000D02*
X191163623Y-93705000D01*
X170343622Y-107515000D02*
X170343622Y-109289963D01*
X176607656Y-105800967D02*
X177523623Y-104885000D01*
X178830169Y-96006877D02*
X179675584Y-95161462D01*
X191163623Y-93705000D02*
X189396795Y-93705000D01*
X179675584Y-93345741D02*
X182865326Y-90155999D01*
X188534643Y-89327344D02*
X188297624Y-89090325D01*
X170343622Y-109289963D02*
X171158659Y-110105000D01*
X178830169Y-102665000D02*
X178830169Y-96006877D01*
X191663623Y-95485000D02*
X191163623Y-94985000D01*
X188534643Y-92842848D02*
X188534643Y-89327344D01*
X176607656Y-107164469D02*
X176607656Y-105800967D01*
X199993133Y-98415490D02*
X199426123Y-98982500D01*
X182135134Y-99333489D02*
X179503623Y-101965000D01*
X169843623Y-109323136D02*
X171002497Y-110482010D01*
X199993133Y-96224510D02*
X199993133Y-98415490D01*
X182135134Y-94843489D02*
X182135134Y-99333489D01*
X188531144Y-93905000D02*
X183073623Y-93905000D01*
X177259657Y-107045640D02*
X177259657Y-106131034D01*
X183073623Y-93905000D02*
X182135134Y-94843489D01*
X193608644Y-98982500D02*
X188531144Y-93905000D01*
X173823288Y-110482009D02*
X177259657Y-107045640D01*
X199253623Y-95485000D02*
X199993133Y-96224510D01*
X169843623Y-107515000D02*
X169843623Y-109323136D01*
X197841123Y-98982500D02*
X193608644Y-98982500D01*
X199426123Y-98982500D02*
X197841123Y-98982500D01*
X171002497Y-110482010D02*
X173823288Y-110482009D01*
X200406123Y-105135000D02*
X202251123Y-105135000D01*
X156306950Y-95394999D02*
X154584092Y-97117857D01*
X156306950Y-95394999D02*
X159723623Y-95394999D01*
X156263612Y-108862179D02*
X166601654Y-119200221D01*
X203853623Y-106737500D02*
X202251123Y-105135000D01*
X166601654Y-122708225D02*
X166087565Y-123222315D01*
X156263612Y-105255000D02*
X156263612Y-108862179D01*
X203853623Y-123215000D02*
X203853623Y-106737500D01*
X154584092Y-97117857D02*
X154584092Y-103555000D01*
X166601654Y-119200221D02*
X166601654Y-122708225D01*
X166087565Y-123222315D02*
X166087565Y-123611212D01*
X103273623Y-80885000D02*
X102193623Y-80885000D01*
X99173623Y-82050000D02*
X101028623Y-82050000D01*
X103273623Y-80885000D02*
X104853623Y-80885000D01*
X104853623Y-80885000D02*
X104883623Y-80915000D01*
X108773623Y-80915000D02*
X108773623Y-82732500D01*
X102193623Y-80885000D02*
X101028623Y-82050000D01*
X93978623Y-94435000D02*
X91633623Y-94435000D01*
X90943623Y-99567500D02*
X92103623Y-100727500D01*
X93393623Y-102017500D02*
X92103623Y-100727500D01*
X90943623Y-95125000D02*
X90943623Y-99567500D01*
X93393623Y-103817500D02*
X93393623Y-102017500D01*
X91633623Y-94435000D02*
X90943623Y-95125000D01*
X108273623Y-83625000D02*
X109676623Y-83625000D01*
X126203585Y-83332000D02*
X124690623Y-83332000D01*
X107863623Y-84035000D02*
X108273623Y-83625000D01*
X109223623Y-88602500D02*
X108748623Y-88602500D01*
X109849625Y-88602500D02*
X109223623Y-88602500D01*
X110086085Y-88602500D02*
X113113623Y-91630038D01*
X109223623Y-88602500D02*
X110086085Y-88602500D01*
X113113623Y-91630038D02*
X113113623Y-92485000D01*
X114793623Y-98235000D02*
X114793623Y-94165000D01*
X114793623Y-94165000D02*
X113113623Y-92485000D01*
X126593623Y-88460000D02*
X127035624Y-88017999D01*
X127035624Y-88017999D02*
X127035624Y-84164039D01*
X107863623Y-87717500D02*
X107863623Y-84035000D01*
X108748623Y-88602500D02*
X107863623Y-87717500D01*
X127035624Y-84164039D02*
X126203585Y-83332000D01*
X187629271Y-106066969D02*
X187200612Y-106066969D01*
X195029683Y-118521145D02*
X195022112Y-118513574D01*
X177026123Y-124250000D02*
X182998623Y-124250000D01*
X195022112Y-113459810D02*
X187629271Y-106066969D01*
X195022112Y-118513574D02*
X195022112Y-113459810D01*
X182998623Y-124250000D02*
X184813623Y-122435000D01*
X184813623Y-122435000D02*
X184813623Y-119525000D01*
X172186373Y-112566960D02*
X173336469Y-112566960D01*
X170716499Y-120350000D02*
X169017216Y-118650717D01*
X179493623Y-103475000D02*
X180148623Y-102820000D01*
X171301123Y-120350000D02*
X170716499Y-120350000D01*
X179493623Y-106409806D02*
X179493623Y-103475000D01*
X169017216Y-118650717D02*
X169017216Y-115736117D01*
X173336469Y-112566960D02*
X179493623Y-106409806D01*
X169017216Y-115736117D02*
X172186373Y-112566960D01*
X180148623Y-102820000D02*
X183353623Y-102820000D01*
X178480340Y-120350000D02*
X180672103Y-118158237D01*
X177026123Y-120350000D02*
X178480340Y-120350000D01*
X180672103Y-105391480D02*
X181479575Y-104584008D01*
X180672103Y-105776629D02*
X180672103Y-105391480D01*
X181483623Y-96255000D02*
X181483623Y-94530000D01*
X180672103Y-118158237D02*
X180672103Y-106025000D01*
X180672103Y-106025000D02*
X180672103Y-105776629D01*
X181483623Y-94530000D02*
X183353623Y-92660000D01*
D76*
X190406423Y-120695000D02*
X194194423Y-124483000D01*
X182151542Y-105360000D02*
X183353623Y-105360000D01*
X188501034Y-120695000D02*
X190406423Y-120695000D01*
X181423623Y-106087919D02*
X182151542Y-105360000D01*
X181423623Y-106087919D02*
X181423623Y-113617589D01*
X181423623Y-113617589D02*
X188501034Y-120695000D01*
D75*
X182962328Y-122446295D02*
X182962328Y-119585896D01*
X196312112Y-117163419D02*
X196323890Y-117175197D01*
X182458623Y-122950000D02*
X182962328Y-122446295D01*
X186333623Y-99015000D02*
X187475592Y-100156969D01*
X183353623Y-97740000D02*
X184628623Y-99015000D01*
X196312112Y-113295969D02*
X196312112Y-117163419D01*
X177026123Y-122950000D02*
X182458623Y-122950000D01*
X184628623Y-99015000D02*
X186333623Y-99015000D01*
X187475592Y-100156969D02*
X187475592Y-104459449D01*
X187475592Y-104459449D02*
X196312112Y-113295969D01*
D76*
X183353623Y-107900000D02*
X182767112Y-108486511D01*
X173792153Y-118569016D02*
X173316169Y-119045000D01*
X191685623Y-119485000D02*
X196683623Y-124483000D01*
X179463623Y-108645000D02*
X173792153Y-114316470D01*
X179423719Y-108075000D02*
X178788671Y-108710048D01*
X182767112Y-108486511D02*
X182767112Y-113367938D01*
X182767112Y-113367938D02*
X188884174Y-119485000D01*
X179463623Y-108075000D02*
X179463623Y-109355000D01*
X173792153Y-114316470D02*
X173792153Y-118569016D01*
X188884174Y-119485000D02*
X191685623Y-119485000D01*
X179463623Y-108075000D02*
X179463623Y-108645000D01*
X178818671Y-108710048D02*
X179463623Y-109355000D01*
X179463623Y-108075000D02*
X179423719Y-108075000D01*
X173316169Y-119045000D02*
X172973623Y-119045000D01*
X178788671Y-108710048D02*
X178818671Y-108710048D01*
D75*
X195863623Y-102696980D02*
X189805132Y-96638489D01*
X195863623Y-107274905D02*
X195863623Y-102696980D01*
X200213623Y-111624905D02*
X195863623Y-107274905D01*
X177026123Y-121650000D02*
X179023078Y-121650000D01*
X179023078Y-121650000D02*
X181070851Y-119602227D01*
X193357451Y-119172656D02*
X199235967Y-119172656D01*
X189805132Y-96638489D02*
X184792112Y-96638489D01*
X199235967Y-119172656D02*
X200213623Y-118195000D01*
X184792112Y-96638489D02*
X183353623Y-95200000D01*
X200213623Y-118195000D02*
X200213623Y-111624905D01*
X192413962Y-118229167D02*
X193357451Y-119172656D01*
X178597860Y-119700000D02*
X180295583Y-118002277D01*
X180295583Y-106286960D02*
X180295583Y-105180646D01*
X180295583Y-104846638D02*
X180536562Y-104605659D01*
X180295583Y-105180646D02*
X180295583Y-104846638D01*
X177026123Y-119700000D02*
X178597860Y-119700000D01*
X184792112Y-91558489D02*
X185893623Y-92660000D01*
X180295583Y-118002277D02*
X180295583Y-106286960D01*
X180557946Y-93897904D02*
X182897361Y-91558489D01*
X182897361Y-91558489D02*
X184792112Y-91558489D01*
X180557946Y-96215887D02*
X180557946Y-93897904D01*
X191407646Y-118458500D02*
X191721933Y-118458500D01*
X177026123Y-121000000D02*
X178751717Y-121000000D01*
X196019583Y-102320460D02*
X188899123Y-95200000D01*
X196945661Y-102320460D02*
X196019583Y-102320460D01*
X191721933Y-118458500D02*
X193019933Y-119756500D01*
X193019933Y-119756500D02*
X199184603Y-119756500D01*
X178751717Y-121000000D02*
X180103376Y-119648341D01*
X199184603Y-119756500D02*
X200590143Y-118350960D01*
X199505134Y-104879933D02*
X196945661Y-102320460D01*
X200590143Y-111431520D02*
X199505134Y-110346511D01*
X199505134Y-110346511D02*
X199505134Y-104879933D01*
X200590143Y-118350960D02*
X200590143Y-111431520D01*
X188899123Y-95200000D02*
X185893623Y-95200000D01*
X179294440Y-122300000D02*
X182036240Y-119558200D01*
X187852112Y-104263394D02*
X192002112Y-108413394D01*
X192002112Y-108413394D02*
X192002112Y-108453489D01*
X185893623Y-97740000D02*
X187852112Y-99698489D01*
X177026123Y-122300000D02*
X179294440Y-122300000D01*
X187852112Y-99698489D02*
X187852112Y-104263394D01*
X196963612Y-113414989D02*
X196963612Y-116505000D01*
X192002112Y-108453489D02*
X196963612Y-113414989D01*
X195673623Y-117855000D02*
X195672379Y-117853756D01*
X187099072Y-104615408D02*
X187099072Y-101485449D01*
X182168623Y-123600000D02*
X183116143Y-123600000D01*
X195672379Y-117853756D02*
X195672379Y-113188716D01*
X183116143Y-123600000D02*
X183888818Y-122827325D01*
X177026123Y-123600000D02*
X182168623Y-123600000D01*
X187099072Y-101485449D02*
X185893623Y-100280000D01*
X195672379Y-113188716D02*
X187099072Y-104615408D01*
X183888818Y-122827325D02*
X183888818Y-119581049D01*
X169393736Y-115892077D02*
X172342333Y-112943480D01*
X169393736Y-118377237D02*
X169393736Y-115892077D01*
X172342333Y-112943480D02*
X173492429Y-112943480D01*
X170716499Y-119700000D02*
X169393736Y-118377237D01*
X179322266Y-107113643D02*
X179870143Y-106565766D01*
X180266126Y-103932497D02*
X184781126Y-103932497D01*
X179870143Y-106565766D02*
X179870143Y-104328480D01*
X184781126Y-103932497D02*
X185893623Y-102820000D01*
X173492429Y-112943480D02*
X179322266Y-107113643D01*
X179870143Y-104328480D02*
X180266126Y-103932497D01*
X171301123Y-119700000D02*
X170716499Y-119700000D01*
X173879989Y-111490959D02*
X178830169Y-106540779D01*
X180861143Y-101575000D02*
X180901143Y-101535000D01*
X178830169Y-106540779D02*
X178830169Y-104811501D01*
X171301123Y-121000000D02*
X170716499Y-121000000D01*
X178830169Y-104811501D02*
X178830169Y-103605974D01*
X183929241Y-101535000D02*
X184570118Y-102175877D01*
X168640696Y-115580157D02*
X172030414Y-112190440D01*
X170716499Y-121000000D02*
X168640696Y-118924197D01*
X173180509Y-112190440D02*
X172030414Y-112190440D01*
X178830169Y-103605974D02*
X180861143Y-101575000D01*
X168640696Y-118924197D02*
X168640696Y-115580157D01*
X180901143Y-101535000D02*
X183929241Y-101535000D01*
X173180509Y-112190440D02*
X173879989Y-111490959D01*
D76*
X96643623Y-85510000D02*
X96648623Y-85505000D01*
X96643623Y-88125000D02*
X96643623Y-85510000D01*
X103293623Y-83015000D02*
X103293623Y-85195000D01*
X100363623Y-88125000D02*
X96643623Y-88125000D01*
X103293623Y-85195000D02*
X100363623Y-88125000D01*
X164233623Y-120795000D02*
X164233623Y-122351360D01*
X141248623Y-99200000D02*
X141345624Y-99297001D01*
X139798623Y-95440000D02*
X140838623Y-95440000D01*
X163352982Y-123232001D02*
X148280624Y-123232001D01*
X148280624Y-123232001D02*
X125380624Y-123232001D01*
X141345624Y-95947001D02*
X141345624Y-99297001D01*
X141345624Y-116297001D02*
X143043623Y-117995000D01*
X148280624Y-123232001D02*
X143043623Y-117995000D01*
X139798623Y-99200000D02*
X141248623Y-99200000D01*
X140838623Y-95440000D02*
X141345624Y-95947001D01*
X141345624Y-99297001D02*
X141345624Y-116297001D01*
X164233623Y-122351360D02*
X163352982Y-123232001D01*
X125380624Y-123232001D02*
X122843623Y-120695000D01*
X195473623Y-83187500D02*
X195261405Y-83187500D01*
X195261405Y-83187500D02*
X191858905Y-79785000D01*
X191858905Y-79785000D02*
X187163623Y-79785000D01*
X191780222Y-84300901D02*
X188850990Y-84300901D01*
X188850990Y-84300901D02*
X186990633Y-82440544D01*
X186990633Y-81559406D02*
X186196227Y-80765000D01*
X192913623Y-83167500D02*
X191780222Y-84300901D01*
X186990633Y-82440544D02*
X186990633Y-81559406D01*
D75*
X156127223Y-98792372D02*
X157024596Y-97894999D01*
X157024596Y-97894999D02*
X159723623Y-97894999D01*
X148391123Y-106305000D02*
X148403623Y-106292500D01*
X156127223Y-99678520D02*
X156127223Y-98792372D01*
X148433623Y-104905000D02*
X148433623Y-106262500D01*
X148433623Y-106262500D02*
X148403623Y-106292500D01*
X145003623Y-106305000D02*
X148391123Y-106305000D01*
X148413623Y-106282500D02*
X148403623Y-106292500D01*
X145003623Y-105035000D02*
X146186123Y-105035000D01*
X146186123Y-105035000D02*
X146603623Y-105452500D01*
X146603623Y-104595000D02*
X147113623Y-104085000D01*
X159723623Y-98395000D02*
X157433216Y-98394999D01*
X157433216Y-98394999D02*
X156815143Y-99013072D01*
X146603623Y-105452500D02*
X146603623Y-104595000D01*
X156815143Y-99013072D02*
X156815143Y-99026520D01*
X159718932Y-95909691D02*
X156325430Y-95909691D01*
X155661613Y-96573508D02*
X155661613Y-98285000D01*
X156325430Y-95909691D02*
X155661613Y-96573508D01*
X155661613Y-98285000D02*
X155665623Y-98289010D01*
X145003623Y-101225000D02*
X146463623Y-101225000D01*
X146463623Y-101225000D02*
X146763623Y-101525000D01*
X155963623Y-88036362D02*
X155963623Y-91840000D01*
X165965435Y-86114082D02*
X168843623Y-88992270D01*
X165965435Y-83645000D02*
X165965435Y-86114082D01*
X152772942Y-84845681D02*
X155963623Y-88036362D01*
X168843623Y-88992270D02*
X168843623Y-92275000D01*
X164064223Y-85810310D02*
X166843624Y-88589711D01*
X166843624Y-88589711D02*
X166843624Y-92275000D01*
X164064223Y-83394688D02*
X164064223Y-85810310D01*
X157063623Y-81755000D02*
X155360481Y-83458142D01*
X155360481Y-83458142D02*
X154199735Y-83458142D01*
X157063623Y-80755000D02*
X157063623Y-81755000D01*
X165313935Y-85995062D02*
X167843622Y-88524749D01*
X165302475Y-82017300D02*
X165313935Y-82028760D01*
X154863623Y-82215000D02*
X154853623Y-82225000D01*
X167843622Y-88524749D02*
X167843622Y-92275000D01*
X165313935Y-82028760D02*
X165313935Y-85995062D01*
X154863623Y-80755000D02*
X154863623Y-82215000D01*
X152663623Y-82305000D02*
X152663623Y-80755000D01*
X167343623Y-88557230D02*
X167343623Y-92275000D01*
X164715734Y-82740493D02*
X164715734Y-85929341D01*
X164715734Y-85929341D02*
X167343623Y-88557230D01*
X164662424Y-82687183D02*
X164715734Y-82740493D01*
X163400123Y-84040736D02*
X163400123Y-85678690D01*
X151543623Y-82695000D02*
X151543623Y-81175000D01*
X163400123Y-85678690D02*
X166343622Y-88622189D01*
X151543623Y-81175000D02*
X151563623Y-81155000D01*
X166343622Y-88622189D02*
X166343622Y-92275000D01*
D76*
X128853623Y-116505000D02*
X130343623Y-117995000D01*
X128853623Y-110485000D02*
X128853623Y-116505000D01*
X135543623Y-110665000D02*
X135543623Y-120695000D01*
X135373623Y-110495000D02*
X135543623Y-110665000D01*
X113353623Y-110595100D02*
X113353623Y-113684962D01*
X108083623Y-113014962D02*
X108083623Y-108295000D01*
X109637122Y-115512001D02*
X108083623Y-113958502D01*
X111526584Y-115512001D02*
X109637122Y-115512001D01*
X113353623Y-113684962D02*
X111526584Y-115512001D01*
X108083623Y-113958502D02*
X108083623Y-113014962D01*
D75*
X179463623Y-82117500D02*
X179563623Y-82017500D01*
X179563623Y-82017500D02*
X177903623Y-82017500D01*
X179463623Y-83360000D02*
X179463623Y-84101500D01*
X179463623Y-84101500D02*
X179647123Y-84285000D01*
X179463623Y-83360000D02*
X179463623Y-82117500D01*
X176243623Y-84629962D02*
X176243623Y-82017500D01*
X179459122Y-86277001D02*
X177890662Y-86277001D01*
X177890662Y-86277001D02*
X176243623Y-84629962D01*
X180113623Y-85622500D02*
X179459122Y-86277001D01*
X180113623Y-85210000D02*
X180113623Y-85622500D01*
X180113623Y-83360000D02*
X180113623Y-82647274D01*
X180290633Y-80919510D02*
X179563623Y-80192500D01*
X180290633Y-82470264D02*
X180290633Y-80919510D01*
X180113623Y-82647274D02*
X180290633Y-82470264D01*
X94334722Y-96335000D02*
X94905143Y-95764579D01*
X93643623Y-90325000D02*
X94443623Y-91125000D01*
X93978623Y-96335000D02*
X94334722Y-96335000D01*
X94905143Y-95764579D02*
X94905143Y-91586520D01*
X94905143Y-91586520D02*
X94443623Y-91125000D01*
X93643623Y-88742500D02*
X93643623Y-90325000D01*
X100176123Y-96815000D02*
X101723629Y-96815000D01*
X98403623Y-100295000D02*
X98403623Y-101420000D01*
X101723629Y-96815000D02*
X105761469Y-100852840D01*
X99752103Y-97239020D02*
X99752103Y-98946520D01*
X92443623Y-103355000D02*
X92473623Y-103325000D01*
X98403623Y-101420000D02*
X98403623Y-102602190D01*
X97693623Y-103312190D02*
X97693623Y-103315000D01*
X100176123Y-96815000D02*
X99752103Y-97239020D01*
X99752103Y-98946520D02*
X98403623Y-100295000D01*
X92443623Y-105692500D02*
X92443623Y-103355000D01*
X107763624Y-102333400D02*
X107763624Y-101424897D01*
X107763624Y-101424897D02*
X108343572Y-100844949D01*
X98403623Y-102602190D02*
X97693623Y-103312190D01*
X91753623Y-90855000D02*
X91753623Y-88752500D01*
X91753623Y-88752500D02*
X91743623Y-88742500D01*
X96348623Y-95466500D02*
X96353623Y-95461500D01*
X96348623Y-96335000D02*
X96348623Y-95466500D01*
X115170633Y-97122010D02*
X115170633Y-92310512D01*
X116171123Y-99185000D02*
X112941123Y-102415000D01*
X114277023Y-80777998D02*
X114283623Y-80777998D01*
X177725897Y-77175000D02*
X173993623Y-77175000D01*
X132940623Y-83332000D02*
X126950623Y-83332000D01*
X149773623Y-79841398D02*
X149773623Y-83105000D01*
X116793623Y-99185000D02*
X116171123Y-99185000D01*
X112824612Y-89964491D02*
X112824612Y-82230409D01*
X109063622Y-102333400D02*
X109063622Y-101145001D01*
X109473623Y-100735000D02*
X111261123Y-100735000D01*
X116731123Y-98682500D02*
X115170633Y-97122010D01*
X116731123Y-99185000D02*
X116731123Y-98682500D01*
X150123021Y-79492000D02*
X149773623Y-79841398D01*
X111261123Y-100735000D02*
X112941123Y-102415000D01*
X151597878Y-79492000D02*
X150123021Y-79492000D01*
X180415897Y-79865000D02*
X177725897Y-77175000D01*
X183078623Y-79865000D02*
X180415897Y-79865000D01*
X115170633Y-92310512D02*
X112824612Y-89964491D01*
X112824612Y-82230409D02*
X114277023Y-80777998D01*
X109063622Y-101145001D02*
X109473623Y-100735000D01*
X179213623Y-94702046D02*
X178830669Y-95085000D01*
X174963623Y-103895000D02*
X176623623Y-103895000D01*
X179213623Y-93616065D02*
X179213623Y-94702046D01*
X175403623Y-81677726D02*
X176143623Y-80937726D01*
X176143623Y-80937726D02*
X176143623Y-80292500D01*
X176143623Y-80292500D02*
X176243623Y-80192500D01*
X176623623Y-103895000D02*
X176633623Y-103885000D01*
X175403623Y-89806065D02*
X175403623Y-81677726D01*
X179213623Y-93616065D02*
X175403623Y-89806065D01*
X174583623Y-80192500D02*
X176243623Y-80192500D01*
X164435624Y-88897001D02*
X163433623Y-87895000D01*
X164343624Y-92275000D02*
X164343624Y-91445097D01*
X162783623Y-87895000D02*
X161369941Y-86481318D01*
X161369941Y-82342307D02*
X161344134Y-82316500D01*
X163433623Y-87895000D02*
X162783623Y-87895000D01*
X161369941Y-86481318D02*
X161369941Y-82342307D01*
X164343624Y-91445097D02*
X164435624Y-91353097D01*
X164435624Y-91353097D02*
X164435624Y-88897001D01*
D76*
X137938623Y-97930000D02*
X135373623Y-100495000D01*
X139798623Y-97930000D02*
X137938623Y-97930000D01*
X139798623Y-94170000D02*
X135168623Y-94170000D01*
X135168623Y-94170000D02*
X128853623Y-100485000D01*
D75*
X164003623Y-109195000D02*
X161253623Y-109195000D01*
X164343624Y-107515000D02*
X164343624Y-108854999D01*
X152723623Y-103145000D02*
X152723623Y-101525000D01*
X160793623Y-109195000D02*
X157783623Y-106185000D01*
X164343624Y-108854999D02*
X164003623Y-109195000D01*
X161253623Y-109195000D02*
X160793623Y-109195000D01*
X100575143Y-102873711D02*
X100303623Y-102602191D01*
X97883623Y-105445000D02*
X99661123Y-105445000D01*
X100203623Y-104902500D02*
X100575143Y-104530980D01*
X100575143Y-104530980D02*
X100575143Y-102873711D01*
X100303623Y-102602191D02*
X100303623Y-101420000D01*
X99661123Y-105445000D02*
X100203623Y-104902500D01*
X95813623Y-100747500D02*
X95813623Y-105375000D01*
X95813623Y-105375000D02*
X97883623Y-107445000D01*
X198581123Y-105135000D02*
X196846123Y-105135000D01*
X196846123Y-105135000D02*
X196846123Y-106487500D01*
X196846123Y-106487500D02*
X198253623Y-107895000D01*
X197428623Y-97678000D02*
X197041623Y-98065000D01*
X176055623Y-86348932D02*
X176055623Y-86109970D01*
X197428623Y-97205000D02*
X197428623Y-97678000D01*
X193739623Y-98065000D02*
X193428623Y-97754000D01*
X170828196Y-87092999D02*
X170793653Y-87092999D01*
X186474584Y-86027999D02*
X187645624Y-87199039D01*
X171103191Y-86818004D02*
X170828196Y-87092999D01*
X181160624Y-86027999D02*
X179774652Y-87413971D01*
X192363623Y-97205000D02*
X188157633Y-92999010D01*
X186474584Y-86027999D02*
X181160624Y-86027999D01*
X179774652Y-87413971D02*
X177120662Y-87413971D01*
X193428623Y-97754000D02*
X193428623Y-97205000D01*
X177120662Y-87413971D02*
X176055623Y-86348932D01*
X197041623Y-98065000D02*
X193739623Y-98065000D01*
X193428623Y-97205000D02*
X192363623Y-97205000D01*
X188157633Y-89879508D02*
X187642355Y-89364230D01*
X187642355Y-89364230D02*
X187645624Y-89360961D01*
X188157633Y-92999010D02*
X188157633Y-89879508D01*
X169343624Y-88543028D02*
X169343624Y-92275000D01*
X187645624Y-89360961D02*
X187645624Y-87199039D01*
X170793653Y-87092999D02*
X169343624Y-88543028D01*
X193253623Y-93395000D02*
X195253623Y-95395000D01*
X195253623Y-95485000D02*
X195253623Y-97205000D01*
X195253623Y-95395000D02*
X195253623Y-95485000D01*
X197533623Y-95485000D02*
X199253623Y-97205000D01*
X198253623Y-94660000D02*
X197428623Y-95485000D01*
X197428623Y-95485000D02*
X197533623Y-95485000D01*
X198253623Y-93395000D02*
X198253623Y-94660000D01*
X203203623Y-95825000D02*
X196693623Y-89315000D01*
X203203623Y-97035000D02*
X203203623Y-95825000D01*
X159723623Y-101395000D02*
X158600814Y-101395000D01*
X207267103Y-101098480D02*
X207267103Y-120722882D01*
X158600814Y-101395000D02*
X157132112Y-102863702D01*
X167014398Y-119080485D02*
X167014398Y-123593554D01*
X157132112Y-102863702D02*
X157132112Y-109198199D01*
X207267103Y-120722882D02*
X205419304Y-122570681D01*
X157132112Y-109198199D02*
X167014398Y-119080485D01*
X207267103Y-101098480D02*
X203203623Y-97035000D01*
X158319553Y-99395001D02*
X155235592Y-102478963D01*
X152653623Y-116385000D02*
X151598123Y-116385000D01*
X151598123Y-116385000D02*
X151194123Y-116789000D01*
X155235592Y-113803031D02*
X152653623Y-116385000D01*
X177982944Y-117750000D02*
X178517563Y-117215381D01*
X177026123Y-117750000D02*
X177982944Y-117750000D01*
X159723623Y-99395001D02*
X158319553Y-99395001D01*
X155235592Y-102478963D02*
X155235592Y-113803031D01*
X160103623Y-117041980D02*
X156155103Y-117041980D01*
X175670193Y-119058430D02*
X175670193Y-119701201D01*
X159723623Y-99895000D02*
X158352034Y-99895000D01*
X177026123Y-118400000D02*
X176328623Y-118400000D01*
X155612112Y-102634922D02*
X155612112Y-116498989D01*
X176328623Y-118400000D02*
X175670193Y-119058430D01*
X158352034Y-99895000D02*
X156377828Y-101869206D01*
X175670193Y-119701201D02*
X175686222Y-119717230D01*
X156377828Y-101869206D02*
X155612112Y-102634922D01*
X155612112Y-116498989D02*
X155902123Y-116789000D01*
X171301123Y-117100000D02*
X170715803Y-117100000D01*
X164843623Y-108885404D02*
X164843623Y-107515000D01*
X170133623Y-117682180D02*
X170133623Y-117877000D01*
X166851949Y-110893730D02*
X164843623Y-108885404D01*
X170715803Y-117100000D02*
X170133623Y-117682180D01*
X166851949Y-117996674D02*
X166851949Y-110893730D01*
X186630747Y-85650990D02*
X188984757Y-88005000D01*
X181004462Y-85650989D02*
X186630747Y-85650990D01*
X192894423Y-88005000D02*
X194204423Y-89315000D01*
X172343623Y-92275000D02*
X172343623Y-90478269D01*
X171106614Y-89241260D02*
X171106614Y-87745000D01*
X179893481Y-86761970D02*
X181004462Y-85650989D01*
X172343623Y-90478269D02*
X171106614Y-89241260D01*
X177433623Y-86761970D02*
X179893481Y-86761970D01*
X188984757Y-88005000D02*
X192894423Y-88005000D01*
X181089276Y-88823348D02*
X182215623Y-87697001D01*
X181953623Y-78865000D02*
X181943623Y-78855000D01*
X178543669Y-88823348D02*
X181089276Y-88823348D01*
X183078623Y-78865000D02*
X181953623Y-78865000D01*
X171843624Y-92275000D02*
X171843624Y-90909670D01*
X171843624Y-90909670D02*
X171691623Y-90757669D01*
X171039622Y-91070630D02*
X171039622Y-90098725D01*
X171343623Y-92275000D02*
X171343623Y-91374631D01*
X171039622Y-90098725D02*
X171040816Y-90097531D01*
X171343623Y-91374631D02*
X171039622Y-91070630D01*
X170388815Y-89399909D02*
X170460446Y-89328278D01*
X170843624Y-92275000D02*
X170843624Y-91407804D01*
X170843624Y-91407804D02*
X170388815Y-90952995D01*
X170388815Y-90952995D02*
X170388815Y-89399909D01*
X182409127Y-78365000D02*
X181972577Y-77928450D01*
X209083623Y-89451575D02*
X209083623Y-121915000D01*
X183078623Y-78365000D02*
X182409127Y-78365000D01*
X167941395Y-123596677D02*
X167511136Y-123166418D01*
X167511136Y-123166418D02*
X167511136Y-111020437D01*
X196456027Y-76823980D02*
X196731508Y-77099460D01*
X167511136Y-111020437D02*
X165843623Y-109352924D01*
X165843623Y-109352924D02*
X165843623Y-107515000D01*
X196731508Y-77099460D02*
X209083623Y-89451575D01*
X187526243Y-76823980D02*
X196456027Y-76823980D01*
X208570114Y-89470546D02*
X208570114Y-121091816D01*
X167887656Y-122612095D02*
X167887656Y-110864477D01*
X166343622Y-109320443D02*
X166343622Y-107515000D01*
X168877096Y-123601535D02*
X167887656Y-122612095D01*
X167887656Y-110864477D02*
X166343622Y-109320443D01*
X187247775Y-77475980D02*
X196575548Y-77475980D01*
X183763623Y-77680000D02*
X183763623Y-77260000D01*
X184392643Y-76630980D02*
X186402776Y-76630981D01*
X208570114Y-121091816D02*
X208394260Y-121267670D01*
X196575548Y-77475980D02*
X208570114Y-89470546D01*
X183763623Y-77260000D02*
X184392643Y-76630980D01*
X186402776Y-76630981D02*
X187247775Y-77475980D01*
X196420079Y-77852990D02*
X187091613Y-77852990D01*
X166843621Y-109287962D02*
X166843621Y-107515000D01*
X168264176Y-122032428D02*
X168264176Y-110708517D01*
X185015633Y-77007990D02*
X184763623Y-77260000D01*
X184763623Y-77260000D02*
X184763623Y-77680000D01*
X186246613Y-77007990D02*
X185015633Y-77007990D01*
X187091613Y-77852990D02*
X186246613Y-77007990D01*
X169803623Y-123571875D02*
X168264176Y-122032428D01*
X207643623Y-89076534D02*
X196420079Y-77852990D01*
X207643623Y-89076534D02*
X207643623Y-120186732D01*
X207643623Y-120186732D02*
X207918603Y-120461712D01*
X168264176Y-110708517D02*
X166843621Y-109287962D01*
X148040000Y-94170000D02*
X153932592Y-100062592D01*
X159723623Y-100895001D02*
X158563622Y-100895001D01*
X153932592Y-100062592D02*
X153932592Y-102425000D01*
X148040000Y-94170000D02*
X145968623Y-94170000D01*
X158563622Y-100895001D02*
X156263623Y-103195000D01*
X157898178Y-98894999D02*
X157746177Y-99047000D01*
X148095000Y-98665000D02*
X147360000Y-97930000D01*
X147360000Y-97930000D02*
X145968623Y-97930000D01*
X159723623Y-98894999D02*
X157898178Y-98894999D01*
X151613623Y-98665000D02*
X148095000Y-98665000D01*
X171758614Y-84799991D02*
X171758614Y-89360088D01*
X171758614Y-89360088D02*
X176293623Y-93895097D01*
X169113623Y-81665000D02*
X169113623Y-82155000D01*
X176293623Y-93895097D02*
X176293623Y-100551601D01*
X175950223Y-100895001D02*
X174963623Y-100895001D01*
X176293623Y-100551601D02*
X175950223Y-100895001D01*
X169488623Y-81290000D02*
X169113623Y-81665000D01*
X169113623Y-82155000D02*
X171758614Y-84799991D01*
X170263623Y-81290000D02*
X169488623Y-81290000D01*
X171430585Y-78750000D02*
X170263623Y-78750000D01*
X176670633Y-100707763D02*
X176670632Y-93738934D01*
X174963623Y-101395000D02*
X175983396Y-101395000D01*
X176670632Y-93738934D02*
X172135624Y-89203926D01*
X172135624Y-79455039D02*
X171430585Y-78750000D01*
X172135624Y-89203926D02*
X172135624Y-79455039D01*
X175983396Y-101395000D02*
X176670633Y-100707763D01*
X177047641Y-101797581D02*
X177047641Y-93582771D01*
X164463623Y-80020000D02*
X163505623Y-80020000D01*
X174963623Y-102894999D02*
X175950223Y-102894999D01*
X172562864Y-89097994D02*
X172562864Y-78960210D01*
X175950223Y-102894999D02*
X177047641Y-101797581D01*
X177047641Y-93582771D02*
X172562864Y-89097994D01*
X163505623Y-80020000D02*
X163253623Y-79768000D01*
X163358623Y-78750000D02*
X163243623Y-78635000D01*
X173693332Y-89695290D02*
X173235995Y-89237953D01*
X173235995Y-78668379D02*
X172601289Y-78033673D01*
X172601289Y-78033673D02*
X172592219Y-78033673D01*
X164478623Y-78965000D02*
X164463623Y-78980000D01*
X177424650Y-93426608D02*
X173693332Y-89695290D01*
X175983393Y-103395001D02*
X177424651Y-101953743D01*
X164463623Y-78750000D02*
X163358623Y-78750000D01*
X174963623Y-103395001D02*
X175983393Y-103395001D01*
X173235995Y-89237953D02*
X173235995Y-78668379D01*
X164478624Y-78964999D02*
X164463623Y-78980000D01*
X177424651Y-101953743D02*
X177424650Y-93426608D01*
X177801659Y-93270445D02*
X173856613Y-89325399D01*
X173856613Y-89325399D02*
X173856613Y-89317990D01*
X173613005Y-89074382D02*
X173613005Y-78089497D01*
X166078623Y-77480000D02*
X166833623Y-76725000D01*
X164463623Y-77480000D02*
X166078623Y-77480000D01*
X173856613Y-89317990D02*
X173613005Y-89074382D01*
X177801659Y-103681926D02*
X177801659Y-93270445D01*
X172248508Y-76725000D02*
X166833623Y-76725000D01*
X176588585Y-104895000D02*
X177801659Y-103681926D01*
X174963623Y-104895000D02*
X176588585Y-104895000D01*
X173613005Y-78089497D02*
X172248508Y-76725000D01*
X178178669Y-93114283D02*
X174265005Y-89200619D01*
X167343623Y-107515000D02*
X167343623Y-109255484D01*
X170263623Y-80020000D02*
X171373614Y-80020000D01*
X171373614Y-80020000D02*
X171483624Y-80130010D01*
X178178669Y-106659800D02*
X178178669Y-93114283D01*
X169423139Y-111335000D02*
X173503469Y-111335000D01*
X171483624Y-80130010D02*
X171483624Y-83055000D01*
X173503469Y-111335000D02*
X178178669Y-106659800D01*
X167343623Y-109255484D02*
X169423139Y-111335000D01*
X174265005Y-89200619D02*
X174265005Y-84805000D01*
X98273623Y-82050000D02*
X98088623Y-82050000D01*
D76*
X98403623Y-98930000D02*
X98403623Y-96867500D01*
X103093623Y-92712500D02*
X99773031Y-92712500D01*
X107071123Y-90427500D02*
X107020624Y-90477999D01*
X98351123Y-96815000D02*
X98351123Y-94770000D01*
X99773031Y-92712500D02*
X99527634Y-92957897D01*
X99527634Y-92989011D02*
X98729145Y-93787500D01*
X98016123Y-94435000D02*
X98663623Y-93787500D01*
X103183623Y-78385000D02*
X99553623Y-78385000D01*
X107020624Y-90477999D02*
X107020624Y-92712001D01*
X106783623Y-100952500D02*
X106783623Y-101675000D01*
X97893623Y-80045000D02*
X97893623Y-81695000D01*
X109223623Y-90427500D02*
X107071123Y-90427500D01*
X103093623Y-92712500D02*
X107020125Y-92712500D01*
X98729145Y-93787500D02*
X98663623Y-93787500D01*
X104683623Y-78385000D02*
X107020624Y-80722001D01*
D75*
X96048623Y-82050000D02*
X94223623Y-80225000D01*
D76*
X98351123Y-94770000D02*
X98016123Y-94435000D01*
X108751123Y-98985000D02*
X108621123Y-99115000D01*
X108751123Y-96975000D02*
X108751123Y-98985000D01*
D75*
X97373623Y-82050000D02*
X96048623Y-82050000D01*
D76*
X108621123Y-99115000D02*
X106783623Y-100952500D01*
X107020125Y-92712500D02*
X107020624Y-92712001D01*
X103183623Y-78385000D02*
X104683623Y-78385000D01*
X99553623Y-78385000D02*
X97893623Y-80045000D01*
X99527634Y-92957897D02*
X99527634Y-92989011D01*
X98403623Y-96867500D02*
X98351123Y-96815000D01*
X107020624Y-80722001D02*
X107020624Y-89722001D01*
X107020624Y-92712001D02*
X107020624Y-95244501D01*
X95813623Y-98922500D02*
X92123623Y-98922500D01*
X92123623Y-98922500D02*
X92103623Y-98902500D01*
X107020624Y-95244501D02*
X108751123Y-96975000D01*
D75*
X94223623Y-80225000D02*
X92793623Y-80225000D01*
D76*
X95821123Y-98930000D02*
X95813623Y-98922500D01*
X107020624Y-89722001D02*
X107020624Y-90477999D01*
X96348623Y-94435000D02*
X98016123Y-94435000D01*
X98403623Y-98930000D02*
X95821123Y-98930000D01*
X131163623Y-91605000D02*
X130558623Y-91000000D01*
X130558623Y-91000000D02*
X126593623Y-91000000D01*
X131163623Y-91605000D02*
X135083623Y-91605000D01*
X135083623Y-91605000D02*
X137943623Y-88745000D01*
%TA.AperFunction,Conductor*%
G36*
X172221048Y-117449352D02*
G01*
X172233604Y-117470859D01*
X172430199Y-118177145D01*
X172478884Y-118352049D01*
X172474349Y-118389277D01*
X172444819Y-118412394D01*
X172439342Y-118413585D01*
X171332915Y-118588581D01*
X171213945Y-118607398D01*
X171206290Y-118608000D01*
X170815834Y-118608000D01*
X170803384Y-118608612D01*
X170802807Y-118608669D01*
X170802791Y-118608670D01*
X170779791Y-118610936D01*
X170779787Y-118610936D01*
X170779193Y-118610995D01*
X170774280Y-118611724D01*
X170767439Y-118612738D01*
X170767427Y-118612740D01*
X170766868Y-118612823D01*
X170748692Y-118616438D01*
X170708546Y-118624423D01*
X170708537Y-118624425D01*
X170707367Y-118624658D01*
X170706214Y-118625008D01*
X170706209Y-118625009D01*
X170684694Y-118631535D01*
X170684689Y-118631537D01*
X170683541Y-118631885D01*
X170682428Y-118632346D01*
X170639951Y-118649940D01*
X170639943Y-118649944D01*
X170638844Y-118650399D01*
X170616887Y-118662135D01*
X170615878Y-118662809D01*
X170615875Y-118662811D01*
X170609847Y-118666839D01*
X170573065Y-118674157D01*
X170541882Y-118653322D01*
X170533623Y-118626098D01*
X170533623Y-118251751D01*
X170537353Y-118233000D01*
X170557940Y-118183298D01*
X170559170Y-118180329D01*
X170577299Y-118042624D01*
X170559170Y-117904919D01*
X170537353Y-117852248D01*
X170533623Y-117833497D01*
X170533623Y-117659565D01*
X170547975Y-117624917D01*
X170723540Y-117449352D01*
X170758188Y-117435000D01*
X172186400Y-117435000D01*
X172221048Y-117449352D01*
G37*
%TD.AperFunction*%
%TA.AperFunction,Conductor*%
G36*
X178019279Y-118494411D02*
G01*
X178033371Y-118509110D01*
X178206119Y-118787736D01*
X178535134Y-119318404D01*
X178548055Y-119339245D01*
X178554115Y-119376255D01*
X178541058Y-119399713D01*
X178510123Y-119430648D01*
X178475475Y-119445000D01*
X177874853Y-119445000D01*
X177872392Y-119444938D01*
X177869731Y-119444804D01*
X177852004Y-119443912D01*
X177827244Y-119435716D01*
X177756401Y-119388381D01*
X177756402Y-119388381D01*
X177752389Y-119385700D01*
X177686029Y-119372500D01*
X176433915Y-119372500D01*
X176431453Y-119372438D01*
X176330160Y-119367341D01*
X176296278Y-119351268D01*
X176283623Y-119318404D01*
X176283623Y-118822384D01*
X176297975Y-118787736D01*
X176338673Y-118747038D01*
X176372048Y-118732703D01*
X176571718Y-118727517D01*
X176572991Y-118727500D01*
X177686029Y-118727500D01*
X177752389Y-118714300D01*
X177767780Y-118704016D01*
X177793727Y-118695777D01*
X177823623Y-118695000D01*
X177827604Y-118689146D01*
X177951207Y-118507377D01*
X177982558Y-118486795D01*
X178019279Y-118494411D01*
G37*
%TD.AperFunction*%
%TA.AperFunction,Conductor*%
G36*
X171059271Y-106789352D02*
G01*
X171073623Y-106824000D01*
X171073623Y-108375000D01*
X171078847Y-108376822D01*
X171078848Y-108376823D01*
X171407964Y-108491631D01*
X171435952Y-108516594D01*
X171438091Y-108554036D01*
X171418074Y-108579273D01*
X170671371Y-109052987D01*
X170634426Y-109059429D01*
X170603746Y-109037860D01*
X170596122Y-109011611D01*
X170596122Y-108700100D01*
X170596193Y-108697455D01*
X170613589Y-108375636D01*
X170613589Y-108375622D01*
X170613623Y-108375000D01*
X170613623Y-106824000D01*
X170627975Y-106789352D01*
X170662623Y-106775000D01*
X171024623Y-106775000D01*
X171059271Y-106789352D01*
G37*
%TD.AperFunction*%
%TA.AperFunction,Conductor*%
G36*
X169558964Y-106789352D02*
G01*
X169573315Y-106824306D01*
X169563623Y-108375000D01*
X169563673Y-108375812D01*
X169563673Y-108375823D01*
X169589949Y-108804996D01*
X169577742Y-108840456D01*
X169544035Y-108856898D01*
X169534111Y-108856498D01*
X168736383Y-108742537D01*
X168704113Y-108723429D01*
X168694805Y-108687099D01*
X168715213Y-108653887D01*
X169105638Y-108380590D01*
X169105639Y-108380589D01*
X169113623Y-108375000D01*
X169113623Y-106824000D01*
X169127975Y-106789352D01*
X169162623Y-106775000D01*
X169524316Y-106775000D01*
X169558964Y-106789352D01*
G37*
%TD.AperFunction*%
%TA.AperFunction,Conductor*%
G36*
X158905031Y-102133258D02*
G01*
X158937275Y-102154803D01*
X158942006Y-102155744D01*
X158942008Y-102155745D01*
X158956282Y-102158584D01*
X158974465Y-102162201D01*
X160472781Y-102162201D01*
X160509971Y-102154803D01*
X160513983Y-102152122D01*
X160515872Y-102151340D01*
X160553375Y-102151340D01*
X160579893Y-102177859D01*
X160583623Y-102196610D01*
X160583623Y-102593390D01*
X160569271Y-102628038D01*
X160534623Y-102642390D01*
X160515872Y-102638660D01*
X160513983Y-102637878D01*
X160509971Y-102635197D01*
X160472781Y-102627799D01*
X158974465Y-102627799D01*
X158956282Y-102631416D01*
X158942008Y-102634255D01*
X158942006Y-102634256D01*
X158937275Y-102635197D01*
X158933266Y-102637876D01*
X158933263Y-102637877D01*
X158919997Y-102646742D01*
X158892774Y-102655000D01*
X158853623Y-102655000D01*
X158850952Y-102660144D01*
X158616877Y-103110955D01*
X158588174Y-103135092D01*
X158550810Y-103131862D01*
X158536361Y-103120467D01*
X157971835Y-102469091D01*
X157959989Y-102433508D01*
X157976772Y-102399970D01*
X157983654Y-102394982D01*
X158421985Y-102131983D01*
X158447195Y-102125000D01*
X158877808Y-102125000D01*
X158905031Y-102133258D01*
G37*
%TD.AperFunction*%
%TA.AperFunction,Conductor*%
G36*
X175606666Y-97398962D02*
G01*
X175661204Y-97453500D01*
X175669824Y-97470980D01*
X175689080Y-97517468D01*
X175699147Y-97555040D01*
X175712348Y-97655315D01*
X175713623Y-97674763D01*
X175713623Y-99115237D01*
X175712348Y-99134685D01*
X175699147Y-99234960D01*
X175689080Y-99272532D01*
X175669824Y-99319020D01*
X175622871Y-99380210D01*
X175551614Y-99409725D01*
X175532166Y-99411000D01*
X174275080Y-99411000D01*
X174200580Y-99391038D01*
X174146042Y-99336500D01*
X174137422Y-99319020D01*
X174118166Y-99272532D01*
X174108099Y-99234960D01*
X174094898Y-99134685D01*
X174093623Y-99115237D01*
X174093623Y-97674763D01*
X174094898Y-97655315D01*
X174108099Y-97555040D01*
X174118166Y-97517468D01*
X174137422Y-97470980D01*
X174184375Y-97409790D01*
X174255632Y-97380275D01*
X174275080Y-97379000D01*
X175532166Y-97379000D01*
X175606666Y-97398962D01*
G37*
%TD.AperFunction*%
%TA.AperFunction,Conductor*%
G36*
X163583307Y-91046275D02*
G01*
X163683586Y-91059477D01*
X163721152Y-91069542D01*
X163805501Y-91104481D01*
X163839183Y-91123926D01*
X163911617Y-91179508D01*
X163939115Y-91207006D01*
X163948930Y-91219797D01*
X163978446Y-91291052D01*
X163971304Y-91359872D01*
X163967712Y-91370100D01*
X163967710Y-91370108D01*
X163964606Y-91378948D01*
X163964124Y-91384513D01*
X163964124Y-91387730D01*
X163964036Y-91389769D01*
X163961911Y-91396875D01*
X163962790Y-91419246D01*
X163962980Y-91424080D01*
X163960232Y-91458995D01*
X163949424Y-91513333D01*
X163949424Y-91520648D01*
X163949425Y-92787945D01*
X163929463Y-92862445D01*
X163905784Y-92893304D01*
X163892447Y-92906641D01*
X163854734Y-92934041D01*
X163762977Y-92980794D01*
X163718643Y-92995199D01*
X163682578Y-93000911D01*
X163616931Y-93011308D01*
X163570315Y-93011308D01*
X163504668Y-93000911D01*
X163468603Y-92995199D01*
X163424269Y-92980794D01*
X163332512Y-92934041D01*
X163294799Y-92906641D01*
X163281463Y-92893305D01*
X163242899Y-92826510D01*
X163237822Y-92787946D01*
X163237821Y-91520651D01*
X163237821Y-91513334D01*
X163223056Y-91439099D01*
X163166806Y-91354916D01*
X163146395Y-91341277D01*
X163095541Y-91283291D01*
X163080946Y-91202254D01*
X163082777Y-91184322D01*
X163110203Y-91112235D01*
X163169999Y-91063519D01*
X163187849Y-91056844D01*
X163205893Y-91051384D01*
X163249041Y-91045000D01*
X163563860Y-91045000D01*
X163583307Y-91046275D01*
G37*
%TD.AperFunction*%
%TA.AperFunction,Conductor*%
G36*
X206671811Y-93116078D02*
G01*
X206776586Y-93129872D01*
X206808358Y-93138385D01*
X206898297Y-93175639D01*
X206926783Y-93192086D01*
X207004016Y-93251349D01*
X207027274Y-93274607D01*
X207086537Y-93351840D01*
X207102984Y-93380326D01*
X207140238Y-93470265D01*
X207148751Y-93502037D01*
X207162545Y-93606812D01*
X207163623Y-93623258D01*
X207163623Y-96276742D01*
X207162545Y-96293188D01*
X207148751Y-96397963D01*
X207140238Y-96429735D01*
X207102984Y-96519674D01*
X207086537Y-96548160D01*
X207027274Y-96625393D01*
X207004016Y-96648651D01*
X206926783Y-96707914D01*
X206898297Y-96724361D01*
X206808358Y-96761615D01*
X206776586Y-96770128D01*
X206671811Y-96783922D01*
X206655365Y-96785000D01*
X204171881Y-96785000D01*
X204155435Y-96783922D01*
X204050660Y-96770128D01*
X204018888Y-96761615D01*
X203928949Y-96724361D01*
X203900463Y-96707914D01*
X203823230Y-96648651D01*
X203799972Y-96625393D01*
X203740709Y-96548160D01*
X203724262Y-96519674D01*
X203687008Y-96429735D01*
X203678495Y-96397963D01*
X203664701Y-96293188D01*
X203663623Y-96276742D01*
X203663623Y-93623258D01*
X203664701Y-93606812D01*
X203678495Y-93502037D01*
X203687008Y-93470265D01*
X203724262Y-93380326D01*
X203740709Y-93351840D01*
X203799972Y-93274607D01*
X203823230Y-93251349D01*
X203900463Y-93192086D01*
X203928949Y-93175639D01*
X204018888Y-93138385D01*
X204050660Y-93129872D01*
X204155435Y-93116078D01*
X204171881Y-93115000D01*
X206655365Y-93115000D01*
X206671811Y-93116078D01*
G37*
%TD.AperFunction*%
%TA.AperFunction,Conductor*%
G36*
X172835603Y-118547383D02*
G01*
X172848614Y-118549971D01*
X172875967Y-118555412D01*
X172920664Y-118573926D01*
X172944534Y-118589875D01*
X172978748Y-118624089D01*
X172994697Y-118647959D01*
X173013211Y-118692656D01*
X173021240Y-118733019D01*
X173023623Y-118757211D01*
X173023623Y-119342789D01*
X173021240Y-119366981D01*
X173013211Y-119407344D01*
X172994697Y-119452041D01*
X172978748Y-119475911D01*
X172944535Y-119510124D01*
X172925082Y-119523122D01*
X172856192Y-119544020D01*
X172766668Y-119544020D01*
X172755556Y-119543496D01*
X172748146Y-119541840D01*
X172740347Y-119542085D01*
X172680705Y-119543959D01*
X172676811Y-119544020D01*
X172649147Y-119544020D01*
X172645213Y-119544517D01*
X172645149Y-119544525D01*
X172633399Y-119545446D01*
X172633154Y-119545453D01*
X172632579Y-119545471D01*
X172592181Y-119540004D01*
X172582920Y-119537143D01*
X172571289Y-119532903D01*
X172223104Y-119385892D01*
X172173623Y-119365000D01*
X170815834Y-119365000D01*
X170791643Y-119362617D01*
X170759332Y-119356190D01*
X170695842Y-119322254D01*
X170596369Y-119222781D01*
X170562433Y-119159291D01*
X170556006Y-119126980D01*
X170553623Y-119102789D01*
X170553623Y-118997211D01*
X170556006Y-118973020D01*
X170567841Y-118913520D01*
X170586355Y-118868822D01*
X170613143Y-118828731D01*
X170647354Y-118794520D01*
X170687445Y-118767732D01*
X170732142Y-118749218D01*
X170791643Y-118737383D01*
X170815834Y-118735000D01*
X172173623Y-118735000D01*
X172571296Y-118567094D01*
X172582901Y-118562863D01*
X172607018Y-118555412D01*
X172612761Y-118553638D01*
X172636996Y-118548732D01*
X172661254Y-118546301D01*
X172668070Y-118545618D01*
X172680434Y-118545000D01*
X172811412Y-118545000D01*
X172835603Y-118547383D01*
G37*
%TD.AperFunction*%
%TA.AperFunction,Conductor*%
G36*
X161979271Y-99939352D02*
G01*
X161993623Y-99974000D01*
X161993623Y-100836000D01*
X161979271Y-100870648D01*
X161944623Y-100885000D01*
X160921020Y-100885000D01*
X160890121Y-100874030D01*
X160590173Y-100630322D01*
X160583623Y-100625000D01*
X159032623Y-100625000D01*
X158997975Y-100610648D01*
X158983623Y-100576000D01*
X158983623Y-100214000D01*
X158997975Y-100179352D01*
X159032623Y-100165000D01*
X160583623Y-100165000D01*
X160890557Y-99934800D01*
X160919956Y-99925000D01*
X161944623Y-99925000D01*
X161979271Y-99939352D01*
G37*
%TD.AperFunction*%
%TA.AperFunction,Conductor*%
G36*
X161979271Y-102679352D02*
G01*
X161993623Y-102714000D01*
X161993623Y-103576000D01*
X161979271Y-103610648D01*
X161944623Y-103625000D01*
X159032623Y-103625000D01*
X158997975Y-103610648D01*
X158983623Y-103576000D01*
X158983623Y-102803799D01*
X158997975Y-102769151D01*
X159032623Y-102754799D01*
X160455450Y-102754799D01*
X160465002Y-102755740D01*
X160466788Y-102756095D01*
X160471435Y-102757258D01*
X160491094Y-102763219D01*
X160509845Y-102766949D01*
X160513441Y-102766595D01*
X160513444Y-102766595D01*
X160579625Y-102760077D01*
X160579628Y-102760076D01*
X160583225Y-102759722D01*
X160586565Y-102758339D01*
X160586567Y-102758338D01*
X160616652Y-102745876D01*
X160616656Y-102745874D01*
X160617873Y-102745370D01*
X160641701Y-102732359D01*
X160681273Y-102683254D01*
X160714189Y-102665281D01*
X160719426Y-102665000D01*
X161944623Y-102665000D01*
X161979271Y-102679352D01*
G37*
%TD.AperFunction*%
%TA.AperFunction,Conductor*%
G36*
X164059271Y-105369352D02*
G01*
X164073623Y-105404000D01*
X164073623Y-108206000D01*
X164059271Y-108240648D01*
X164024623Y-108255000D01*
X163162623Y-108255000D01*
X163127975Y-108240648D01*
X163113623Y-108206000D01*
X163113623Y-105404000D01*
X163127975Y-105369352D01*
X163162623Y-105355000D01*
X164024623Y-105355000D01*
X164059271Y-105369352D01*
G37*
%TD.AperFunction*%
%TA.AperFunction,Conductor*%
G36*
X167951771Y-105359352D02*
G01*
X167966123Y-105393999D01*
X167966122Y-106299574D01*
X167981006Y-106417391D01*
X168039369Y-106564801D01*
X168041177Y-106567290D01*
X168041179Y-106567293D01*
X168064265Y-106599067D01*
X168073623Y-106627869D01*
X168073623Y-108206000D01*
X168059271Y-108240648D01*
X168024623Y-108255000D01*
X167662623Y-108255000D01*
X167627975Y-108240648D01*
X167613623Y-108206000D01*
X167613623Y-106435000D01*
X166422623Y-106435000D01*
X166387975Y-106420648D01*
X166373623Y-106386000D01*
X166373623Y-105394000D01*
X166387975Y-105359352D01*
X166422623Y-105345000D01*
X167917123Y-105345000D01*
X167951771Y-105359352D01*
G37*
%TD.AperFunction*%
%TA.AperFunction,Conductor*%
G36*
X173895438Y-103929352D02*
G01*
X173898305Y-103932478D01*
X174093623Y-104165000D01*
X175654623Y-104165000D01*
X175689271Y-104179352D01*
X175703623Y-104214000D01*
X175703623Y-104576000D01*
X175689271Y-104610648D01*
X175654623Y-104625000D01*
X174093623Y-104625000D01*
X174088422Y-104631192D01*
X173898310Y-104857516D01*
X173865035Y-104874816D01*
X173860790Y-104875000D01*
X172842623Y-104875000D01*
X172807975Y-104860648D01*
X172793623Y-104826000D01*
X172793623Y-103964000D01*
X172807975Y-103929352D01*
X172842623Y-103915000D01*
X173860790Y-103915000D01*
X173895438Y-103929352D01*
G37*
%TD.AperFunction*%
%TA.AperFunction,Conductor*%
G36*
X175689271Y-99679352D02*
G01*
X175703623Y-99714000D01*
X175703623Y-100576000D01*
X175689271Y-100610648D01*
X175654623Y-100625000D01*
X173772623Y-100625000D01*
X173737975Y-100610648D01*
X173723623Y-100576000D01*
X173723623Y-99714000D01*
X173737975Y-99679352D01*
X173772623Y-99665000D01*
X175654623Y-99665000D01*
X175689271Y-99679352D01*
G37*
%TD.AperFunction*%
%TA.AperFunction,Conductor*%
G36*
X174171374Y-94651340D02*
G01*
X174173263Y-94652122D01*
X174177275Y-94654803D01*
X174214465Y-94662201D01*
X175654623Y-94662201D01*
X175689271Y-94676553D01*
X175703623Y-94711201D01*
X175703623Y-95989000D01*
X175689271Y-96023648D01*
X175654623Y-96038000D01*
X174152623Y-96038000D01*
X174117975Y-96023648D01*
X174103623Y-95989000D01*
X174103623Y-94696610D01*
X174117975Y-94661962D01*
X174152623Y-94647610D01*
X174171374Y-94651340D01*
G37*
%TD.AperFunction*%
%TA.AperFunction,Conductor*%
G36*
X163736662Y-95134685D02*
G01*
X163782417Y-95187489D01*
X163793623Y-95239000D01*
X163793623Y-97051000D01*
X163773938Y-97118039D01*
X163721134Y-97163794D01*
X163669623Y-97175000D01*
X160838723Y-97175000D01*
X160771684Y-97155315D01*
X160725929Y-97102511D01*
X160714723Y-97051000D01*
X160714722Y-96736325D01*
X160714722Y-96730235D01*
X160702580Y-96669188D01*
X160702581Y-96620808D01*
X160708292Y-96592097D01*
X160714723Y-96559766D01*
X160714722Y-96230233D01*
X160702580Y-96169186D01*
X160702581Y-96120807D01*
X160713534Y-96065745D01*
X160713534Y-96065744D01*
X160714723Y-96059767D01*
X160714722Y-95730234D01*
X160702580Y-95669187D01*
X160702581Y-95620808D01*
X160714723Y-95559766D01*
X160714722Y-95239000D01*
X160734406Y-95171961D01*
X160787210Y-95126206D01*
X160838722Y-95115000D01*
X163669623Y-95115000D01*
X163736662Y-95134685D01*
G37*
%TD.AperFunction*%
%TA.AperFunction,Conductor*%
G36*
X158756662Y-93074685D02*
G01*
X158802417Y-93127489D01*
X158813623Y-93179000D01*
X158813623Y-93519108D01*
X158792725Y-93587999D01*
X158747289Y-93655998D01*
X158732523Y-93730232D01*
X158732524Y-94059765D01*
X158733711Y-94065732D01*
X158733711Y-94065734D01*
X158744666Y-94120810D01*
X158744665Y-94169191D01*
X158732523Y-94230234D01*
X158732524Y-94559767D01*
X158744666Y-94620814D01*
X158744665Y-94669191D01*
X158732523Y-94730233D01*
X158732523Y-94736328D01*
X158732524Y-94891498D01*
X158712840Y-94958538D01*
X158660036Y-95004293D01*
X158608524Y-95015499D01*
X156360658Y-95015499D01*
X156336075Y-95012882D01*
X156335091Y-95012836D01*
X156325074Y-95010679D01*
X156291617Y-95014639D01*
X156285634Y-95014992D01*
X156285641Y-95015078D01*
X156280550Y-95015499D01*
X156275426Y-95015499D01*
X156256326Y-95018678D01*
X156250566Y-95019498D01*
X156237846Y-95021004D01*
X156209788Y-95024324D01*
X156209786Y-95024325D01*
X156199609Y-95025529D01*
X156191357Y-95029492D01*
X156182324Y-95030995D01*
X156137146Y-95055372D01*
X156131941Y-95058023D01*
X156085718Y-95080219D01*
X156081442Y-95083813D01*
X156080509Y-95084746D01*
X156073192Y-95089470D01*
X156072123Y-95087814D01*
X156020450Y-95113193D01*
X155999356Y-95115000D01*
X155767623Y-95115000D01*
X155700584Y-95095315D01*
X155654829Y-95042511D01*
X155643623Y-94991000D01*
X155643623Y-93179000D01*
X155663308Y-93111961D01*
X155716112Y-93066206D01*
X155767623Y-93055000D01*
X158689623Y-93055000D01*
X158756662Y-93074685D01*
G37*
%TD.AperFunction*%
%TA.AperFunction,Conductor*%
G36*
X168559271Y-91549352D02*
G01*
X168573623Y-91584000D01*
X168573623Y-93355000D01*
X170084623Y-93355000D01*
X170119271Y-93369352D01*
X170133623Y-93404000D01*
X170133623Y-94386000D01*
X170119271Y-94420648D01*
X170084623Y-94435000D01*
X168162623Y-94435000D01*
X168127975Y-94420648D01*
X168113623Y-94386000D01*
X168113623Y-91584000D01*
X168127975Y-91549352D01*
X168162623Y-91535000D01*
X168524623Y-91535000D01*
X168559271Y-91549352D01*
G37*
%TD.AperFunction*%
%TA.AperFunction,Conductor*%
G36*
X169059271Y-106309352D02*
G01*
X169073623Y-106344000D01*
X169073623Y-106648241D01*
X169059271Y-106682889D01*
X169058979Y-106683156D01*
X169055545Y-106685031D01*
X169052518Y-106688787D01*
X169052517Y-106688788D01*
X169012844Y-106738018D01*
X169012842Y-106738021D01*
X169010643Y-106740750D01*
X168996291Y-106775398D01*
X168986623Y-106824000D01*
X168986623Y-108206000D01*
X168972271Y-108240648D01*
X168937623Y-108255000D01*
X168249623Y-108255000D01*
X168214975Y-108240648D01*
X168200623Y-108206000D01*
X168200623Y-106627869D01*
X168194408Y-106588625D01*
X168193813Y-106586793D01*
X168185646Y-106561656D01*
X168185644Y-106561651D01*
X168185050Y-106559823D01*
X168167009Y-106524417D01*
X168165877Y-106522858D01*
X168165872Y-106522851D01*
X168155184Y-106508141D01*
X168149266Y-106497377D01*
X168117064Y-106416044D01*
X168113623Y-106398006D01*
X168113623Y-106344000D01*
X168127975Y-106309352D01*
X168162623Y-106295000D01*
X169024623Y-106295000D01*
X169059271Y-106309352D01*
G37*
%TD.AperFunction*%
%TA.AperFunction,Conductor*%
G36*
X175689271Y-96179352D02*
G01*
X175703623Y-96214000D01*
X175703623Y-97076000D01*
X175689271Y-97110648D01*
X175654623Y-97125000D01*
X173802623Y-97125000D01*
X173767975Y-97110648D01*
X173753623Y-97076000D01*
X173753623Y-96214000D01*
X173767975Y-96179352D01*
X173802623Y-96165000D01*
X175654623Y-96165000D01*
X175689271Y-96179352D01*
G37*
%TD.AperFunction*%
%TA.AperFunction,Conductor*%
G36*
X166059271Y-91549352D02*
G01*
X166073623Y-91584000D01*
X166073623Y-93396000D01*
X166059271Y-93430648D01*
X166024623Y-93445000D01*
X165162623Y-93445000D01*
X165127975Y-93430648D01*
X165113623Y-93396000D01*
X165113623Y-91584000D01*
X165127975Y-91549352D01*
X165162623Y-91535000D01*
X166024623Y-91535000D01*
X166059271Y-91549352D01*
G37*
%TD.AperFunction*%
%TA.AperFunction,Conductor*%
G36*
X182516662Y-81064685D02*
G01*
X182562417Y-81117489D01*
X182573623Y-81169000D01*
X182573623Y-82821000D01*
X182553938Y-82888039D01*
X182501134Y-82933794D01*
X182449623Y-82945000D01*
X180673623Y-82945000D01*
X180673623Y-81169000D01*
X180693308Y-81101961D01*
X180746112Y-81056206D01*
X180797623Y-81045000D01*
X182449623Y-81045000D01*
X182516662Y-81064685D01*
G37*
%TD.AperFunction*%
%TA.AperFunction,Conductor*%
G36*
X141266662Y-82364685D02*
G01*
X141312417Y-82417489D01*
X141323623Y-82469000D01*
X141323623Y-84171000D01*
X141303938Y-84238039D01*
X141251134Y-84283794D01*
X141199623Y-84295000D01*
X138437623Y-84295000D01*
X138370584Y-84275315D01*
X138324829Y-84222511D01*
X138313623Y-84171000D01*
X138313623Y-82469000D01*
X138333308Y-82401961D01*
X138386112Y-82356206D01*
X138437623Y-82345000D01*
X141199623Y-82345000D01*
X141266662Y-82364685D01*
G37*
%TD.AperFunction*%
%TA.AperFunction,Conductor*%
G36*
X168245281Y-78267386D02*
G01*
X168286940Y-78275679D01*
X168304832Y-78279241D01*
X168349561Y-78297785D01*
X168389531Y-78324520D01*
X168389670Y-78324613D01*
X168423889Y-78358878D01*
X168450663Y-78399021D01*
X168469148Y-78443771D01*
X168480926Y-78503334D01*
X168483281Y-78527549D01*
X168476387Y-83822571D01*
X168473964Y-85683123D01*
X168471554Y-85707292D01*
X168459660Y-85766733D01*
X168441117Y-85811375D01*
X168414317Y-85851414D01*
X168380113Y-85885573D01*
X168340041Y-85912320D01*
X168295372Y-85930805D01*
X168235918Y-85942621D01*
X168211747Y-85945000D01*
X166505834Y-85945000D01*
X166481644Y-85942617D01*
X166467310Y-85939766D01*
X166444743Y-85935277D01*
X166382832Y-85902892D01*
X166348258Y-85842176D01*
X166344935Y-85813660D01*
X166344935Y-84238808D01*
X166364620Y-84171769D01*
X166388403Y-84144518D01*
X166445067Y-84096122D01*
X166450749Y-84091269D01*
X166543190Y-83962624D01*
X166602277Y-83815641D01*
X166605136Y-83795553D01*
X166624025Y-83662830D01*
X166624026Y-83662822D01*
X166624597Y-83658807D01*
X166624742Y-83645000D01*
X166605711Y-83487733D01*
X166549715Y-83339546D01*
X166545482Y-83333387D01*
X166545480Y-83333383D01*
X166464221Y-83215150D01*
X166464218Y-83215146D01*
X166459988Y-83208992D01*
X166341710Y-83103611D01*
X166309599Y-83086609D01*
X166259563Y-83037842D01*
X166243623Y-82977022D01*
X166243623Y-78527211D01*
X166246006Y-78503020D01*
X166257841Y-78443520D01*
X166276355Y-78398822D01*
X166303143Y-78358731D01*
X166337354Y-78324520D01*
X166377445Y-78297732D01*
X166422142Y-78279218D01*
X166481643Y-78267383D01*
X166505834Y-78265000D01*
X168221071Y-78265000D01*
X168245281Y-78267386D01*
G37*
%TD.AperFunction*%
%TA.AperFunction,Conductor*%
G36*
X139942814Y-76783907D02*
G01*
X139978778Y-76833407D01*
X139983623Y-76864000D01*
X139983623Y-80306000D01*
X139964716Y-80364191D01*
X139915216Y-80400155D01*
X139884623Y-80405000D01*
X133522623Y-80405000D01*
X133464432Y-80386093D01*
X133428468Y-80336593D01*
X133423623Y-80306000D01*
X133423623Y-76864000D01*
X133442530Y-76805809D01*
X133492030Y-76769845D01*
X133522623Y-76765000D01*
X139884623Y-76765000D01*
X139942814Y-76783907D01*
G37*
%TD.AperFunction*%
%TA.AperFunction,Conductor*%
G36*
X127462814Y-90463907D02*
G01*
X127498778Y-90513407D01*
X127503623Y-90544000D01*
X127503623Y-91446000D01*
X127484716Y-91504191D01*
X127435216Y-91540155D01*
X127404623Y-91545000D01*
X125782623Y-91545000D01*
X125724432Y-91526093D01*
X125688468Y-91476593D01*
X125683623Y-91446000D01*
X125683623Y-90544000D01*
X125702530Y-90485809D01*
X125752030Y-90449845D01*
X125782623Y-90445000D01*
X127404623Y-90445000D01*
X127462814Y-90463907D01*
G37*
%TD.AperFunction*%
%TA.AperFunction,Conductor*%
G36*
X127462814Y-91763907D02*
G01*
X127498778Y-91813407D01*
X127503623Y-91844000D01*
X127503623Y-92606000D01*
X127484716Y-92664191D01*
X127435216Y-92700155D01*
X127404623Y-92705000D01*
X125782623Y-92705000D01*
X125724432Y-92686093D01*
X125688468Y-92636593D01*
X125683623Y-92606000D01*
X125683623Y-91844000D01*
X125702530Y-91785809D01*
X125752030Y-91749845D01*
X125782623Y-91745000D01*
X127404623Y-91745000D01*
X127462814Y-91763907D01*
G37*
%TD.AperFunction*%
%TA.AperFunction,Conductor*%
G36*
X122052814Y-88043907D02*
G01*
X122088778Y-88093407D01*
X122093623Y-88124000D01*
X122093623Y-92606000D01*
X122074716Y-92664191D01*
X122025216Y-92700155D01*
X121994623Y-92705000D01*
X117722623Y-92705000D01*
X117664432Y-92686093D01*
X117628468Y-92636593D01*
X117623623Y-92606000D01*
X117623623Y-88124000D01*
X117642530Y-88065809D01*
X117692030Y-88029845D01*
X117722623Y-88025000D01*
X121994623Y-88025000D01*
X122052814Y-88043907D01*
G37*
%TD.AperFunction*%
%TA.AperFunction,Conductor*%
G36*
X124968799Y-94115010D02*
G01*
X125096700Y-94173421D01*
X125202963Y-94265499D01*
X125278981Y-94383785D01*
X125318595Y-94518696D01*
X125323623Y-94589000D01*
X125323623Y-106911000D01*
X125303613Y-107050176D01*
X125245202Y-107178077D01*
X125153124Y-107284340D01*
X125034838Y-107360358D01*
X124899927Y-107399972D01*
X124829623Y-107405000D01*
X124522623Y-107405000D01*
X124383447Y-107384990D01*
X124255546Y-107326579D01*
X124149283Y-107234501D01*
X124073265Y-107116215D01*
X124033651Y-106981304D01*
X124028623Y-106911000D01*
X124028623Y-106632831D01*
X124024106Y-106601414D01*
X124010776Y-106597500D01*
X123223623Y-106597500D01*
X123223623Y-105272500D01*
X123993291Y-105272500D01*
X124024708Y-105267983D01*
X124028622Y-105254653D01*
X124028622Y-104819877D01*
X124025994Y-104783967D01*
X124024088Y-104771016D01*
X124001576Y-104698568D01*
X123982716Y-104660155D01*
X123948009Y-104609337D01*
X123893250Y-104554674D01*
X123808889Y-104442186D01*
X123759636Y-104310487D01*
X123749483Y-104170247D01*
X123779251Y-104032827D01*
X123846529Y-103909360D01*
X123892639Y-103856053D01*
X123942543Y-103806062D01*
X123979377Y-103756768D01*
X124001839Y-103710815D01*
X124024208Y-103638441D01*
X124026040Y-103625885D01*
X124028623Y-103590279D01*
X124028623Y-103172831D01*
X124024106Y-103141414D01*
X124010776Y-103137500D01*
X123223623Y-103137500D01*
X123223623Y-101812500D01*
X123993291Y-101812500D01*
X124024708Y-101807983D01*
X124028622Y-101794653D01*
X124028622Y-101359877D01*
X124025994Y-101323967D01*
X124024088Y-101311016D01*
X124001576Y-101238568D01*
X123982716Y-101200155D01*
X123948009Y-101149337D01*
X123893250Y-101094674D01*
X123808889Y-100982186D01*
X123759636Y-100850487D01*
X123749483Y-100710247D01*
X123779251Y-100572827D01*
X123846529Y-100449360D01*
X123892639Y-100396053D01*
X123942543Y-100346062D01*
X123979377Y-100296768D01*
X124001839Y-100250815D01*
X124024208Y-100178441D01*
X124026040Y-100165885D01*
X124028623Y-100130279D01*
X124028623Y-99712831D01*
X124024106Y-99681414D01*
X124010776Y-99677500D01*
X123223623Y-99677500D01*
X123223623Y-98352500D01*
X123993291Y-98352500D01*
X124024708Y-98347983D01*
X124028622Y-98334653D01*
X124028622Y-97899877D01*
X124025994Y-97863967D01*
X124024088Y-97851016D01*
X124001576Y-97778568D01*
X123982716Y-97740155D01*
X123948009Y-97689337D01*
X123893250Y-97634674D01*
X123808889Y-97522186D01*
X123759636Y-97390487D01*
X123749483Y-97250247D01*
X123779251Y-97112827D01*
X123846529Y-96989360D01*
X123892639Y-96936053D01*
X123942543Y-96886062D01*
X123979377Y-96836768D01*
X124001839Y-96790815D01*
X124024208Y-96718441D01*
X124026040Y-96705885D01*
X124028623Y-96670279D01*
X124028623Y-96252831D01*
X124024106Y-96221414D01*
X124010776Y-96217500D01*
X123223623Y-96217500D01*
X123223623Y-94892500D01*
X123993291Y-94892500D01*
X124024708Y-94887983D01*
X124028622Y-94874653D01*
X124028622Y-94589000D01*
X124048632Y-94449824D01*
X124107043Y-94321923D01*
X124199121Y-94215660D01*
X124317407Y-94139642D01*
X124452318Y-94100028D01*
X124522622Y-94095000D01*
X124829623Y-94095000D01*
X124968799Y-94115010D01*
G37*
%TD.AperFunction*%
%TA.AperFunction,Conductor*%
G36*
X181543623Y-83530336D02*
G01*
X181534244Y-83577644D01*
X181534046Y-83578120D01*
X181490275Y-83632575D01*
X181466749Y-83645421D01*
X181466267Y-83645621D01*
X181418959Y-83655000D01*
X180608287Y-83655000D01*
X180560979Y-83645621D01*
X180560503Y-83645423D01*
X180506048Y-83601652D01*
X180493202Y-83578126D01*
X180493002Y-83577644D01*
X180483623Y-83530336D01*
X180483623Y-82947205D01*
X180503308Y-82880166D01*
X180560169Y-82832644D01*
X180578623Y-82825000D01*
X181543623Y-82825000D01*
X181543623Y-83530336D01*
G37*
%TD.AperFunction*%
%TA.AperFunction,Conductor*%
G36*
X186367827Y-79195103D02*
G01*
X186368431Y-79195128D01*
X186378732Y-79195981D01*
X186379308Y-79196053D01*
X186384313Y-79196782D01*
X186490881Y-79214543D01*
X186493623Y-79215000D01*
X186617476Y-79228624D01*
X186784015Y-79246943D01*
X187381791Y-79312699D01*
X187424886Y-79325655D01*
X187425877Y-79326164D01*
X187476517Y-79374303D01*
X187485053Y-79392197D01*
X187485452Y-79393241D01*
X187493623Y-79437509D01*
X187493623Y-80020336D01*
X187484244Y-80067644D01*
X187484046Y-80068120D01*
X187440275Y-80122575D01*
X187416749Y-80135421D01*
X187416267Y-80135621D01*
X187368959Y-80145000D01*
X186744623Y-80145000D01*
X186677584Y-80125315D01*
X186631829Y-80072511D01*
X186620623Y-80021000D01*
X186620623Y-79751500D01*
X186620268Y-79748194D01*
X186618077Y-79727818D01*
X186618075Y-79727808D01*
X186617720Y-79724503D01*
X186606514Y-79672992D01*
X186594062Y-79648115D01*
X186581868Y-79623756D01*
X186578397Y-79616822D01*
X186573321Y-79610964D01*
X186573319Y-79610961D01*
X186538447Y-79570717D01*
X186538446Y-79570716D01*
X186532642Y-79564018D01*
X186472443Y-79525330D01*
X186463934Y-79522831D01*
X186463933Y-79522831D01*
X186409655Y-79506893D01*
X186409652Y-79506892D01*
X186405404Y-79505645D01*
X186387393Y-79503055D01*
X186374000Y-79501129D01*
X186373995Y-79501129D01*
X186369623Y-79500500D01*
X185537623Y-79500500D01*
X185470584Y-79480815D01*
X185424829Y-79428011D01*
X185413623Y-79376500D01*
X185413623Y-79319664D01*
X185423002Y-79272356D01*
X185423200Y-79271880D01*
X185466971Y-79217425D01*
X185490497Y-79204579D01*
X185490979Y-79204379D01*
X185538287Y-79195000D01*
X186362789Y-79195000D01*
X186367827Y-79195103D01*
G37*
%TD.AperFunction*%
%TA.AperFunction,Conductor*%
G36*
X186436662Y-79647185D02*
G01*
X186482417Y-79699989D01*
X186493623Y-79751500D01*
X186493623Y-81020336D01*
X186484244Y-81067644D01*
X186484046Y-81068120D01*
X186440275Y-81122575D01*
X186416749Y-81135421D01*
X186416267Y-81135621D01*
X186368959Y-81145000D01*
X185658287Y-81145000D01*
X185610979Y-81135621D01*
X185610503Y-81135423D01*
X185556048Y-81091652D01*
X185543202Y-81068126D01*
X185543002Y-81067644D01*
X185533623Y-81020336D01*
X185533623Y-80005000D01*
X185466805Y-80005000D01*
X185415767Y-79963871D01*
X185393623Y-79893151D01*
X185393623Y-79750935D01*
X185413308Y-79683896D01*
X185466112Y-79638141D01*
X185523365Y-79628598D01*
X185523365Y-79627500D01*
X186369623Y-79627500D01*
X186436662Y-79647185D01*
G37*
%TD.AperFunction*%
%TA.AperFunction,Conductor*%
G36*
X180966267Y-84544379D02*
G01*
X180966743Y-84544577D01*
X181021198Y-84588348D01*
X181034044Y-84611874D01*
X181034244Y-84612356D01*
X181043623Y-84659664D01*
X181043623Y-85283989D01*
X181023938Y-85351028D01*
X180971134Y-85396783D01*
X180943822Y-85405604D01*
X180905941Y-85413139D01*
X180822419Y-85468946D01*
X180821038Y-85466880D01*
X180774730Y-85492166D01*
X180748372Y-85495000D01*
X180608287Y-85495000D01*
X180560979Y-85485621D01*
X180560503Y-85485423D01*
X180506048Y-85441652D01*
X180493202Y-85418126D01*
X180493002Y-85417644D01*
X180483623Y-85370336D01*
X180483623Y-84659664D01*
X180493002Y-84612356D01*
X180493200Y-84611880D01*
X180536971Y-84557425D01*
X180560497Y-84544579D01*
X180560979Y-84544379D01*
X180608287Y-84535000D01*
X180918959Y-84535000D01*
X180966267Y-84544379D01*
G37*
%TD.AperFunction*%
%TA.AperFunction,Conductor*%
G36*
X185298205Y-80024685D02*
G01*
X185323657Y-80049464D01*
X185324727Y-80048477D01*
X185330928Y-80055198D01*
X185336078Y-80062758D01*
X185343198Y-80068496D01*
X185343202Y-80068500D01*
X185360428Y-80082381D01*
X185400277Y-80139773D01*
X185406623Y-80178933D01*
X185406623Y-81020336D01*
X185409048Y-81045034D01*
X185418427Y-81092342D01*
X185425699Y-81116317D01*
X185425899Y-81116799D01*
X185431736Y-81128990D01*
X185444582Y-81152516D01*
X185476483Y-81190639D01*
X185481246Y-81194467D01*
X185485607Y-81198743D01*
X185483784Y-81200602D01*
X185517230Y-81248651D01*
X185523623Y-81287951D01*
X185523623Y-81441037D01*
X185503938Y-81508076D01*
X185451134Y-81553831D01*
X185436418Y-81559452D01*
X185429318Y-81561658D01*
X185419786Y-81563061D01*
X185411140Y-81567306D01*
X185411137Y-81567307D01*
X185390530Y-81577425D01*
X185310710Y-81616615D01*
X185303475Y-81623862D01*
X185303473Y-81623864D01*
X185294996Y-81632356D01*
X185224862Y-81702613D01*
X185220363Y-81711818D01*
X185220361Y-81711820D01*
X185190137Y-81773653D01*
X185171499Y-81811782D01*
X185161123Y-81882905D01*
X185161123Y-81935890D01*
X185141438Y-82002929D01*
X185131604Y-82016198D01*
X184813746Y-82390150D01*
X184542301Y-82709497D01*
X184522826Y-82727930D01*
X184521059Y-82729273D01*
X184472707Y-82751627D01*
X184470538Y-82752105D01*
X184443901Y-82755000D01*
X183578287Y-82755000D01*
X183530979Y-82745621D01*
X183530503Y-82745423D01*
X183476048Y-82701652D01*
X183463202Y-82678126D01*
X183463002Y-82677644D01*
X183453623Y-82630336D01*
X183453623Y-81679664D01*
X183463002Y-81632356D01*
X183463200Y-81631880D01*
X183506971Y-81577425D01*
X183530497Y-81564579D01*
X183530979Y-81564379D01*
X183578287Y-81555000D01*
X184503623Y-81555000D01*
X184503623Y-81068574D01*
X184512648Y-81023201D01*
X184518256Y-81014809D01*
X184526123Y-80975258D01*
X184526123Y-80129000D01*
X184545808Y-80061961D01*
X184598612Y-80016206D01*
X184650123Y-80005000D01*
X185231166Y-80005000D01*
X185298205Y-80024685D01*
G37*
%TD.AperFunction*%
%TA.AperFunction,Conductor*%
G36*
X187025986Y-78097383D02*
G01*
X187091613Y-78110437D01*
X187103593Y-78108054D01*
X187104503Y-78107873D01*
X187128694Y-78105490D01*
X187369623Y-78105490D01*
X187436662Y-78125175D01*
X187482417Y-78177979D01*
X187493623Y-78229490D01*
X187493623Y-78980336D01*
X187484244Y-79027644D01*
X187484046Y-79028120D01*
X187440275Y-79082575D01*
X187416749Y-79095421D01*
X187416267Y-79095621D01*
X187368959Y-79105000D01*
X186661938Y-79105000D01*
X186648380Y-79104257D01*
X186631362Y-79102385D01*
X186514429Y-79089522D01*
X186507602Y-79088578D01*
X186471582Y-79082575D01*
X186405191Y-79071510D01*
X186405027Y-79071484D01*
X186404988Y-79071478D01*
X186403919Y-79071311D01*
X186402618Y-79071108D01*
X186397613Y-79070379D01*
X186397341Y-79070342D01*
X186397311Y-79070338D01*
X186395366Y-79070075D01*
X186395300Y-79070066D01*
X186395060Y-79070034D01*
X186394484Y-79069962D01*
X186389213Y-79069414D01*
X186388615Y-79069364D01*
X186388578Y-79069361D01*
X186383566Y-79068946D01*
X186378912Y-79068561D01*
X186376237Y-79068395D01*
X186374332Y-79068277D01*
X186374312Y-79068276D01*
X186373683Y-79068237D01*
X186373079Y-79068212D01*
X186370423Y-79068130D01*
X186370026Y-79068122D01*
X186369992Y-79068121D01*
X186368586Y-79068092D01*
X186365385Y-79068027D01*
X186364992Y-79068023D01*
X186364935Y-79068022D01*
X186363121Y-79068003D01*
X186363041Y-79068003D01*
X186362789Y-79068000D01*
X185538287Y-79068000D01*
X185535276Y-79068296D01*
X185535269Y-79068296D01*
X185526186Y-79069188D01*
X185513589Y-79070425D01*
X185510626Y-79071012D01*
X185510622Y-79071013D01*
X185495104Y-79074090D01*
X185466281Y-79079804D01*
X185463355Y-79080691D01*
X185463357Y-79080691D01*
X185445223Y-79086191D01*
X185445219Y-79086192D01*
X185442306Y-79087076D01*
X185441824Y-79087276D01*
X185430197Y-79092843D01*
X185376652Y-79105000D01*
X184948287Y-79105000D01*
X184900979Y-79095621D01*
X184900503Y-79095423D01*
X184846048Y-79051652D01*
X184833202Y-79028126D01*
X184833002Y-79027644D01*
X184823623Y-78980336D01*
X184823623Y-78729664D01*
X184833002Y-78682356D01*
X184833200Y-78681880D01*
X184876971Y-78627425D01*
X184900497Y-78614579D01*
X184900979Y-78614379D01*
X184948287Y-78605000D01*
X185430049Y-78605000D01*
X185475422Y-78614025D01*
X185483814Y-78619633D01*
X185523365Y-78627500D01*
X186373881Y-78627500D01*
X186388669Y-78624558D01*
X186401454Y-78622016D01*
X186401456Y-78622015D01*
X186413432Y-78619633D01*
X186435331Y-78605000D01*
X186493623Y-78605000D01*
X186493623Y-78517826D01*
X186494933Y-78511239D01*
X186496123Y-78505258D01*
X186496123Y-78224742D01*
X186497369Y-78224742D01*
X186509179Y-78162498D01*
X186557249Y-78111792D01*
X186619558Y-78095000D01*
X187001795Y-78095000D01*
X187025986Y-78097383D01*
G37*
%TD.AperFunction*%
%TA.AperFunction,Conductor*%
G36*
X184156662Y-79144685D02*
G01*
X184202417Y-79197489D01*
X184213623Y-79249000D01*
X184213623Y-79481000D01*
X184193938Y-79548039D01*
X184141134Y-79593794D01*
X184089623Y-79605000D01*
X183528664Y-79605000D01*
X183515972Y-79603750D01*
X183515919Y-79604285D01*
X183509851Y-79603687D01*
X183503881Y-79602500D01*
X182657623Y-79602500D01*
X182590584Y-79582815D01*
X182544829Y-79530011D01*
X182533623Y-79478500D01*
X182533623Y-79251500D01*
X182553308Y-79184461D01*
X182606112Y-79138706D01*
X182657623Y-79127500D01*
X183503881Y-79127500D01*
X183509851Y-79126313D01*
X183515919Y-79125715D01*
X183515972Y-79126250D01*
X183528664Y-79125000D01*
X184089623Y-79125000D01*
X184156662Y-79144685D01*
G37*
%TD.AperFunction*%
%TA.AperFunction,Conductor*%
G36*
X184444162Y-77154685D02*
G01*
X184489917Y-77207489D01*
X184501123Y-77259000D01*
X184501123Y-78105258D01*
X184502310Y-78111228D01*
X184502908Y-78117296D01*
X184502373Y-78117349D01*
X184503623Y-78130041D01*
X184503623Y-78581000D01*
X184483938Y-78648039D01*
X184431134Y-78693794D01*
X184379623Y-78705000D01*
X184147623Y-78705000D01*
X184080584Y-78685315D01*
X184034829Y-78632511D01*
X184023623Y-78581000D01*
X184023623Y-78130041D01*
X184024873Y-78117349D01*
X184024338Y-78117296D01*
X184024936Y-78111228D01*
X184026123Y-78105258D01*
X184026123Y-77405951D01*
X184045808Y-77338912D01*
X184062442Y-77318270D01*
X184209393Y-77171319D01*
X184270716Y-77137834D01*
X184297074Y-77135000D01*
X184377123Y-77135000D01*
X184444162Y-77154685D01*
G37*
%TD.AperFunction*%
%TA.AperFunction,Conductor*%
G36*
X108535744Y-106815002D02*
G01*
X108582237Y-106868658D01*
X108593623Y-106921000D01*
X108593623Y-108309000D01*
X108573621Y-108377121D01*
X108519965Y-108423614D01*
X108467623Y-108435000D01*
X107709623Y-108435000D01*
X107641502Y-108414998D01*
X107595009Y-108361342D01*
X107583623Y-108309000D01*
X107583623Y-106921000D01*
X107603625Y-106852879D01*
X107657281Y-106806386D01*
X107709623Y-106795000D01*
X108467623Y-106795000D01*
X108535744Y-106815002D01*
G37*
%TD.AperFunction*%
%TA.AperFunction,Conductor*%
G36*
X110540196Y-101518427D02*
G01*
X110543623Y-101526700D01*
X110543623Y-106355000D01*
X107293623Y-106355000D01*
X107293623Y-108423300D01*
X107290196Y-108431573D01*
X107281923Y-108435000D01*
X106295323Y-108435000D01*
X106287050Y-108431573D01*
X106283623Y-108423300D01*
X106283623Y-103616700D01*
X106287050Y-103608427D01*
X106295323Y-103605000D01*
X109533623Y-103605000D01*
X109533623Y-101526700D01*
X109537050Y-101518427D01*
X109545323Y-101515000D01*
X110531923Y-101515000D01*
X110540196Y-101518427D01*
G37*
%TD.AperFunction*%
%TA.AperFunction,Conductor*%
G36*
X116670196Y-103318427D02*
G01*
X116673623Y-103326700D01*
X116673623Y-106623300D01*
X116670196Y-106631573D01*
X116661923Y-106635000D01*
X111684937Y-106635000D01*
X111682340Y-106634708D01*
X111668569Y-106631573D01*
X111304471Y-106548689D01*
X110454265Y-106355146D01*
X110454264Y-106355146D01*
X110453623Y-106355000D01*
X110453623Y-103595000D01*
X111682341Y-103315292D01*
X111684937Y-103315000D01*
X116661923Y-103315000D01*
X116670196Y-103318427D01*
G37*
%TD.AperFunction*%
%TA.AperFunction,Conductor*%
G36*
X107290196Y-101518427D02*
G01*
X107293623Y-101526700D01*
X107293623Y-103133300D01*
X107290196Y-103141573D01*
X107281923Y-103145000D01*
X106295323Y-103145000D01*
X106287050Y-103141573D01*
X106283623Y-103133300D01*
X106283623Y-101526700D01*
X106287050Y-101518427D01*
X106295323Y-101515000D01*
X107281923Y-101515000D01*
X107290196Y-101518427D01*
G37*
%TD.AperFunction*%
%TA.AperFunction,Conductor*%
G36*
X99444754Y-82495225D02*
G01*
X99537012Y-82513576D01*
X99541229Y-82515323D01*
X99618465Y-82566930D01*
X99621693Y-82570158D01*
X99673300Y-82647394D01*
X99675047Y-82651611D01*
X99693398Y-82743869D01*
X99693623Y-82746152D01*
X99693623Y-86173848D01*
X99693398Y-86176131D01*
X99675047Y-86268389D01*
X99673300Y-86272606D01*
X99621693Y-86349842D01*
X99618465Y-86353070D01*
X99541229Y-86404677D01*
X99537012Y-86406424D01*
X99444754Y-86424775D01*
X99442471Y-86425000D01*
X94944775Y-86425000D01*
X94942492Y-86424775D01*
X94850234Y-86406424D01*
X94846017Y-86404677D01*
X94768781Y-86353070D01*
X94765553Y-86349842D01*
X94713946Y-86272606D01*
X94712199Y-86268389D01*
X94693848Y-86176131D01*
X94693623Y-86173848D01*
X94693623Y-82746152D01*
X94693848Y-82743869D01*
X94712199Y-82651611D01*
X94713946Y-82647394D01*
X94765553Y-82570158D01*
X94768781Y-82566930D01*
X94846017Y-82515323D01*
X94850234Y-82513576D01*
X94942492Y-82495225D01*
X94944775Y-82495000D01*
X99442471Y-82495000D01*
X99444754Y-82495225D01*
G37*
%TD.AperFunction*%
%TA.AperFunction,Conductor*%
G36*
X98730196Y-81428427D02*
G01*
X98733623Y-81436700D01*
X98733623Y-82243300D01*
X98730196Y-82251573D01*
X98721923Y-82255000D01*
X97135323Y-82255000D01*
X97127050Y-82251573D01*
X97123623Y-82243300D01*
X97123623Y-81436700D01*
X97127050Y-81428427D01*
X97135323Y-81425000D01*
X98721923Y-81425000D01*
X98730196Y-81428427D01*
G37*
%TD.AperFunction*%
%TA.AperFunction,Conductor*%
G36*
X177390222Y-114737070D02*
G01*
X177445933Y-114747379D01*
X177488070Y-114763526D01*
X177526532Y-114787050D01*
X177560101Y-114817207D01*
X177587600Y-114852939D01*
X177608155Y-114893110D01*
X177624354Y-114947399D01*
X177628822Y-114969612D01*
X177862510Y-117145328D01*
X177862565Y-117171285D01*
X177855936Y-117235592D01*
X177840065Y-117284724D01*
X177814474Y-117329195D01*
X177779972Y-117367601D01*
X177738484Y-117397798D01*
X177691318Y-117418826D01*
X177686805Y-117419786D01*
X177661005Y-117422500D01*
X176398611Y-117422500D01*
X176372697Y-117419762D01*
X176367668Y-117418686D01*
X176320344Y-117397481D01*
X176278776Y-117367050D01*
X176244267Y-117328352D01*
X176218774Y-117283580D01*
X176203105Y-117234149D01*
X176196862Y-117169533D01*
X176197096Y-117143464D01*
X176446902Y-114967731D01*
X176451499Y-114945659D01*
X176467967Y-114891732D01*
X176488636Y-114851877D01*
X176516169Y-114816437D01*
X176549676Y-114786557D01*
X176588026Y-114763246D01*
X176629979Y-114747258D01*
X176685432Y-114737049D01*
X176707883Y-114735000D01*
X177367660Y-114735000D01*
X177390222Y-114737070D01*
G37*
%TD.AperFunction*%
%TA.AperFunction,Conductor*%
G36*
X171925603Y-123937383D02*
G01*
X171985104Y-123949218D01*
X172029801Y-123967732D01*
X172069892Y-123994520D01*
X172104103Y-124028731D01*
X172130891Y-124068822D01*
X172149405Y-124113520D01*
X172161240Y-124173020D01*
X172163623Y-124197211D01*
X172163623Y-124882789D01*
X172161240Y-124906980D01*
X172149405Y-124966480D01*
X172130891Y-125011178D01*
X172104103Y-125051269D01*
X172069892Y-125085480D01*
X172029801Y-125112268D01*
X171985104Y-125130782D01*
X171940205Y-125139712D01*
X171925603Y-125142617D01*
X171901412Y-125145000D01*
X170705834Y-125145000D01*
X170681643Y-125142617D01*
X170667041Y-125139712D01*
X170622142Y-125130782D01*
X170577445Y-125112268D01*
X170537354Y-125085480D01*
X170503143Y-125051269D01*
X170476355Y-125011178D01*
X170457841Y-124966480D01*
X170446006Y-124906980D01*
X170443623Y-124882789D01*
X170443623Y-124197211D01*
X170446006Y-124173020D01*
X170457841Y-124113520D01*
X170476355Y-124068822D01*
X170503143Y-124028731D01*
X170537354Y-123994520D01*
X170577445Y-123967732D01*
X170622142Y-123949218D01*
X170681643Y-123937383D01*
X170705834Y-123935000D01*
X171901412Y-123935000D01*
X171925603Y-123937383D01*
G37*
%TD.AperFunction*%
M02*
