M48
; DRILL file {KiCad 6.0.0-2.fc35} date Fri 25 Feb 2022 06:53:31 PM PST
; FORMAT={-:-/ absolute / metric / decimal}
; #@! TF.CreationDate,2022-02-25T18:53:31-08:00
; #@! TF.GenerationSoftware,Kicad,Pcbnew,6.0.0-2.fc35
; #@! TF.FileFunction,Plated,1,2,PTH
FMAT,2
METRIC
; #@! TA.AperFunction,Plated,PTH,ViaDrill
T1C0.400
; #@! TA.AperFunction,Plated,PTH,ComponentDrill
T2C0.700
; #@! TA.AperFunction,Plated,PTH,ComponentDrill
T3C0.800
; #@! TA.AperFunction,Plated,PTH,ComponentDrill
T4C0.900
; #@! TA.AperFunction,Plated,PTH,ComponentDrill
T5C1.000
; #@! TA.AperFunction,Plated,PTH,ComponentDrill
T6C1.300
; #@! TA.AperFunction,Plated,PTH,ComponentDrill
T7C1.320
; #@! TA.AperFunction,Plated,PTH,ComponentDrill
T8C1.499
; #@! TA.AperFunction,Plated,PTH,ComponentDrill
T9C2.100
; #@! TA.AperFunction,Plated,PTH,ComponentDrill
T10C2.210
; #@! TA.AperFunction,Plated,PTH,ComponentDrill
T11C2.500
%
G90
G05
T1
X91.695Y-95.875
X91.754Y-90.855
X92.474Y-103.325
X92.504Y-96.315
X92.584Y-95.385
X93.834Y-107.995
X94.344Y-107.215
X94.764Y-108.045
X95.594Y-83.395
X95.594Y-84.45
X95.594Y-85.505
X96.354Y-95.462
X96.649Y-84.45
X96.649Y-85.505
X97.694Y-103.315
X97.704Y-84.45
X97.704Y-85.505
X97.874Y-90.085
X98.304Y-89.252
X98.759Y-84.45
X98.759Y-85.505
X98.864Y-90.005
X98.874Y-103.515
X99.354Y-102.715
X99.814Y-103.515
X102.304Y-91.245
X102.744Y-106.725
X103.324Y-91.245
X103.514Y-106.195
X103.594Y-107.125
X104.264Y-91.245
X104.884Y-80.915
X104.954Y-96.405
X104.954Y-97.335
X105.761Y-100.853
X105.764Y-96.855
X106.964Y-104.445
X106.964Y-105.5
X108.019Y-104.445
X108.019Y-105.5
X108.344Y-100.845
X108.774Y-80.915
X108.774Y-85.875
X109.074Y-104.445
X109.074Y-105.5
X109.677Y-83.625
X109.754Y-85.765
X110.129Y-104.445
X110.129Y-105.5
X110.364Y-113.775
X110.364Y-119.185
X110.694Y-85.765
X110.694Y-90.175
X111.034Y-114.485
X111.624Y-85.765
X111.704Y-100.045
X111.714Y-99.115
X111.854Y-103.92
X111.854Y-104.975
X111.854Y-106.03
X112.514Y-99.585
X112.909Y-103.92
X112.909Y-104.975
X112.909Y-106.03
X113.404Y-96.045
X113.404Y-96.975
X113.404Y-97.905
X113.964Y-103.92
X113.964Y-104.975
X113.964Y-106.03
X114.174Y-114.485
X114.284Y-80.778
X115.019Y-103.92
X115.019Y-104.975
X115.019Y-106.03
X116.074Y-103.92
X116.074Y-104.975
X116.074Y-106.03
X118.024Y-97.295
X118.299Y-88.775
X118.299Y-89.83
X118.299Y-90.885
X118.299Y-91.94
X119.344Y-88.775
X119.344Y-89.83
X119.344Y-90.885
X119.344Y-91.94
X124.654Y-94.945
X124.654Y-96.0
X124.654Y-97.055
X124.654Y-98.11
X124.654Y-99.165
X124.654Y-100.22
X124.654Y-101.275
X124.654Y-102.33
X124.654Y-103.385
X124.654Y-104.44
X124.654Y-105.495
X124.654Y-106.55
X124.691Y-83.332
X127.134Y-83.332
X132.941Y-83.332
X134.149Y-77.53
X134.149Y-78.585
X134.149Y-79.64
X135.204Y-77.53
X135.204Y-78.585
X135.204Y-79.64
X136.044Y-83.515
X138.754Y-82.785
X138.754Y-83.84
X139.809Y-82.785
X139.809Y-83.84
X140.864Y-82.785
X140.864Y-83.84
X144.864Y-79.415
X147.114Y-104.085
X147.664Y-95.435
X147.664Y-99.155
X147.724Y-97.075
X147.774Y-85.925
X147.774Y-86.855
X148.434Y-104.905
X148.704Y-79.425
X148.704Y-85.915
X148.704Y-86.845
X149.634Y-85.925
X149.634Y-86.855
X149.774Y-83.105
X151.544Y-82.695
X151.598Y-79.492
X151.614Y-98.665
X151.654Y-90.245
X152.654Y-116.385
X152.664Y-82.305
X152.724Y-103.145
X152.773Y-84.846
X153.933Y-102.425
X154.2Y-83.458
X154.584Y-103.555
X154.854Y-82.225
X154.954Y-78.465
X155.666Y-98.289
X156.127Y-99.679
X156.144Y-93.56
X156.144Y-94.615
X156.264Y-105.255
X156.264Y-103.195
X156.414Y-96.885
X156.815Y-99.027
X157.199Y-93.56
X157.199Y-94.615
X157.354Y-90.385
X157.354Y-96.885
X157.746Y-99.047
X157.784Y-106.185
X158.234Y-103.035
X158.234Y-103.965
X158.234Y-104.895
X158.254Y-93.56
X158.254Y-94.615
X158.404Y-96.885
X159.184Y-85.755
X159.874Y-113.535
X160.104Y-117.042
X160.539Y-114.2
X160.764Y-118.445
X161.124Y-95.62
X161.124Y-96.675
X161.194Y-114.855
X161.344Y-82.316
X161.404Y-119.125
X161.454Y-99.125
X161.454Y-101.845
X161.484Y-90.515
X162.179Y-95.62
X162.179Y-96.675
X162.344Y-119.165
X162.354Y-99.125
X162.354Y-101.845
X162.374Y-85.745
X162.524Y-90.505
X163.054Y-86.395
X163.234Y-95.62
X163.234Y-96.675
X163.234Y-100.015
X163.234Y-102.415
X163.234Y-103.545
X163.244Y-78.635
X163.254Y-79.768
X163.4Y-84.041
X163.554Y-90.505
X163.594Y-104.675
X163.714Y-87.075
X164.064Y-83.395
X164.524Y-93.905
X164.662Y-82.687
X165.302Y-82.017
X165.594Y-95.115
X165.965Y-83.645
X166.088Y-123.611
X166.739Y-94.33
X166.834Y-85.435
X166.852Y-117.997
X166.874Y-102.775
X166.874Y-103.695
X166.874Y-104.675
X167.014Y-123.594
X167.354Y-86.225
X167.889Y-85.435
X167.941Y-123.597
X168.504Y-109.215
X168.594Y-104.675
X168.877Y-123.602
X169.054Y-103.865
X169.224Y-109.805
X169.524Y-104.675
X169.634Y-93.895
X169.804Y-123.572
X169.854Y-110.495
X170.045Y-118.043
X170.46Y-89.328
X170.544Y-95.015
X170.704Y-93.895
X171.041Y-90.098
X171.054Y-97.255
X171.103Y-86.818
X171.107Y-87.745
X171.339Y-95.66
X171.484Y-83.055
X171.524Y-109.325
X171.692Y-90.758
X171.744Y-93.895
X171.769Y-114.58
X171.984Y-95.015
X172.124Y-96.655
X172.454Y-109.325
X172.563Y-78.96
X172.592Y-78.034
X172.664Y-113.905
X172.664Y-114.835
X172.665Y-120.195
X172.914Y-98.945
X172.954Y-97.805
X173.004Y-101.885
X173.334Y-105.435
X173.344Y-103.095
X173.384Y-109.325
X173.614Y-120.172
X173.664Y-98.395
X173.994Y-77.175
X174.265Y-84.805
X174.381Y-119.573
X174.574Y-83.415
X175.686Y-119.717
X176.056Y-86.11
X176.634Y-103.885
X177.26Y-106.131
X177.304Y-88.82
X177.434Y-86.762
X177.524Y-104.885
X177.574Y-112.205
X177.904Y-79.145
X178.195Y-111.507
X178.204Y-85.625
X178.518Y-116.289
X178.518Y-117.215
X178.544Y-88.823
X178.789Y-108.71
X178.83Y-102.665
X178.831Y-95.085
X178.855Y-110.847
X179.464Y-108.075
X179.464Y-109.355
X179.504Y-101.965
X179.544Y-112.785
X179.544Y-113.735
X179.544Y-114.675
X180.103Y-119.648
X180.537Y-104.606
X180.558Y-96.216
X180.764Y-87.445
X181.071Y-119.602
X181.104Y-81.475
X181.104Y-82.53
X181.48Y-104.584
X181.484Y-96.255
X181.944Y-78.855
X181.973Y-77.928
X182.036Y-119.558
X182.159Y-81.475
X182.159Y-82.53
X182.216Y-87.697
X182.865Y-90.156
X182.868Y-86.68
X182.962Y-119.586
X183.889Y-119.581
X184.57Y-102.176
X184.814Y-119.525
X187.201Y-106.067
X187.526Y-76.824
X187.57Y-116.719
X187.645Y-107.004
X188.164Y-98.575
X188.298Y-89.09
X189.734Y-78.605
X190.004Y-85.435
X190.014Y-86.365
X190.144Y-90.985
X190.664Y-78.625
X190.814Y-85.885
X191.408Y-118.459
X191.604Y-78.635
X192.414Y-118.229
X195.03Y-118.521
X195.674Y-117.855
X196.324Y-117.175
X196.964Y-116.505
X197.854Y-102.175
X203.854Y-123.215
X204.359Y-95.095
X204.359Y-96.15
X205.404Y-105.105
X205.414Y-95.095
X205.414Y-96.15
X205.419Y-122.571
X206.469Y-95.095
X206.469Y-96.15
X207.919Y-120.462
X208.394Y-121.268
X209.084Y-121.915
T2
X143.734Y-101.225
X143.734Y-102.495
X143.734Y-103.765
X143.734Y-105.035
X143.734Y-106.305
X145.004Y-101.225
X145.004Y-102.495
X145.004Y-103.765
X145.004Y-105.035
X145.004Y-106.305
T3
X95.044Y-114.795
X97.044Y-114.795
X103.204Y-83.015
X110.704Y-80.715
X122.844Y-120.695
X130.344Y-117.995
X135.544Y-120.695
X143.044Y-117.995
X204.414Y-89.535
X206.414Y-89.535
T4
X92.704Y-80.225
X92.704Y-82.765
T5
X115.204Y-82.305
X115.204Y-87.305
X125.784Y-79.765
X125.784Y-84.765
X183.354Y-92.66
X183.354Y-95.2
X183.354Y-97.74
X183.354Y-100.28
X183.354Y-102.82
X183.354Y-105.36
X183.354Y-107.9
X185.894Y-92.66
X185.894Y-95.2
X185.894Y-97.74
X185.894Y-100.28
X185.894Y-102.82
X185.894Y-105.36
X185.894Y-107.9
X193.254Y-93.395
X193.254Y-107.895
X195.754Y-93.395
X198.254Y-93.395
X198.254Y-107.895
T6
X149.054Y-120.375
X154.054Y-120.375
X159.054Y-120.375
T7
X96.644Y-88.125
X96.644Y-109.965
X164.234Y-120.795
X186.074Y-120.795
T8
X191.705Y-124.483
X191.715Y-89.315
X194.194Y-124.483
X194.204Y-89.315
X196.684Y-124.483
X196.694Y-89.315
T9
X190.204Y-100.895
X201.304Y-100.895
T10
X189.794Y-117.483
X189.804Y-82.315
X198.595Y-117.483
X198.605Y-82.315
T11
X104.394Y-88.28
X104.394Y-112.28
X185.394Y-88.28
X185.394Y-112.28
T0
M30
